<svg width="115" height="84" viewBox="0 0 115 84" fill="none" xmlns="http://www.w3.org/2000/svg">
<path d="M1.16797 8.27002C1.16797 4.12788 4.52583 0.77002 8.66797 0.77002H106.668C110.81 0.77002 114.168 4.12788 114.168 8.27002V75.27C114.168 79.4122 110.81 82.77 106.668 82.77H8.66797C4.52583 82.77 1.16797 79.4122 1.16797 75.27V8.27002Z" stroke="#D9E1EA"/>
<path d="M59.7637 46.7046H67.8482C70.1471 46.7046 71.6031 45.4412 71.6031 43.4121C71.6031 41.4979 70.1471 40.1196 67.8482 40.1196H59.7637C59.4955 40.1196 59.2656 40.3493 59.2656 40.5791V46.2452C59.3039 46.5132 59.4955 46.7046 59.7637 46.7046Z" fill="#34313F"/>
<path d="M59.7637 59.7591H68.1164C70.6835 59.7591 72.2161 58.4574 72.2161 56.1603C72.2161 54.1695 70.7601 52.5615 68.1164 52.5615H59.7637C59.4955 52.5615 59.2656 52.7912 59.2656 53.0209V59.2614C59.3039 59.5677 59.4955 59.7591 59.7637 59.7591Z" fill="#34313F"/>
<path d="M89.3461 10.4107L65.4375 34.2239H69.3456C75.4377 34.2239 79.0393 38.0524 79.0393 42.2255C79.0393 45.518 76.8171 47.93 74.4415 49.0019C74.0584 49.1551 74.0584 49.6911 74.4799 49.8442C77.2385 50.9162 79.1926 53.7876 79.1926 57.1566C79.1926 61.904 76.0125 65.6942 69.8437 65.6942H52.9085C52.6403 65.6942 52.4104 65.4645 52.4104 65.2348V47.2025L26.1646 73.3129C25.8198 73.6575 26.0497 74.27 26.5478 74.27H89.6526C89.8825 74.27 90.0741 74.0786 90.0741 73.8489V10.7552C90.189 10.3341 89.6526 10.1044 89.3461 10.4107Z" fill="#34313F"/>
</svg>
