<svg width="67" height="68" viewBox="0 0 67 68" fill="none" xmlns="http://www.w3.org/2000/svg">
<g clip-path="url(#clip0_2822_27889)">
<path d="M33.5 67.27C52.0015 67.27 67 52.2716 67 33.77C67 15.2685 52.0015 0.27002 33.5 0.27002C14.9985 0.27002 0 15.2685 0 33.77C0 52.2716 14.9985 67.27 33.5 67.27Z" fill="#FF7A59"/>
<path fill-rule="evenodd" clip-rule="evenodd" d="M40.816 41.1597C38.3146 41.1597 36.2856 39.1529 36.2856 36.6771C36.2856 34.2012 38.3139 32.1938 40.816 32.1938C43.318 32.1938 45.3476 34.2006 45.3476 36.6771C45.3476 39.1536 43.3193 41.1597 40.816 41.1597ZM42.173 28.0462V24.055C42.7036 23.812 43.1538 23.4225 43.4706 22.9323C43.7874 22.4421 43.9576 21.8716 43.9612 21.288V21.1958C43.9612 19.509 42.5662 18.1297 40.8631 18.1297H40.7695C39.0684 18.1297 37.6714 19.5096 37.6714 21.1958V21.288C37.6752 21.8716 37.8454 22.442 38.1622 22.9322C38.479 23.4223 38.9291 23.8119 39.4596 24.055V28.0462C37.9319 28.2767 36.4912 28.9036 35.2813 29.8645L24.2171 21.3476C24.2946 21.0674 24.3361 20.7785 24.3408 20.4878C24.3408 18.5766 22.7777 17.0253 20.8468 17.02C18.916 17.0148 17.3496 18.5635 17.3477 20.4754C17.3457 22.3872 18.9082 23.9353 20.839 23.9386C21.4438 23.936 22.0374 23.7761 22.5618 23.4747L33.4479 31.8562C32.4686 33.315 31.9569 35.0375 31.9811 36.7944C32.0053 38.5513 32.5642 40.259 33.5834 41.6903L30.2713 44.9683C29.8795 44.8455 29.4657 44.8091 29.0584 44.8616C28.6511 44.9141 28.26 45.0543 27.9121 45.2724C27.5642 45.4906 27.2678 45.7817 27.0432 46.1254C26.8186 46.4692 26.6712 46.8576 26.6112 47.2639C26.5511 47.6701 26.5799 48.0845 26.6954 48.4786C26.811 48.8727 27.0106 49.237 27.2805 49.5465C27.5504 49.856 27.8842 50.1033 28.2589 50.2713C28.6335 50.4394 29.0402 50.5243 29.4508 50.52C31.0369 50.52 32.3232 49.2468 32.3232 47.6771C32.3204 47.4012 32.2763 47.1273 32.1923 46.8645L35.4638 43.6244C37.0038 44.7917 38.8836 45.4229 40.816 45.4218C45.6977 45.4218 49.6529 41.5071 49.6529 36.6771C49.6529 32.3051 46.4063 28.6946 42.1723 28.0462" fill="white"/>
</g>
<defs>
<clipPath id="clip0_2822_27889">
<rect width="67" height="67" fill="white" transform="translate(0 0.27002)"/>
</clipPath>
</defs>
</svg>
