<svg width="79" height="80" viewBox="0 0 79 80" fill="none" xmlns="http://www.w3.org/2000/svg">
<path d="M32.8812 18.0609C35.4265 15.4089 38.97 13.7641 42.8891 13.7641C48.0988 13.7641 52.6441 16.6691 55.0645 20.9817C57.168 20.0418 59.4963 19.519 61.9459 19.519C71.3423 19.519 78.9601 27.2032 78.9601 36.6816C78.9601 46.1611 71.3423 53.8452 61.9459 53.8452C60.7992 53.8452 59.6784 53.7305 58.5946 53.5113C56.4631 57.3134 52.4012 59.8823 47.739 59.8823C45.7874 59.8823 43.9414 59.4315 42.2978 58.6299C40.137 63.7126 35.1027 67.2764 29.2353 67.2764C23.1251 67.2764 17.9177 63.4101 15.9188 57.988C15.0453 58.1735 14.1403 58.2702 13.2117 58.2702C5.93678 58.2702 0.0390625 52.3117 0.0390625 44.9604C0.0390625 40.034 2.68887 35.7327 6.62593 33.4314C5.81536 31.5663 5.36454 29.5078 5.36454 27.3437C5.36454 18.8895 12.228 12.0362 20.6934 12.0362C25.6637 12.0362 30.0808 14.3993 32.8812 18.0609Z" fill="#00A1E0"/>
<path d="M11.471 40.6822C11.4215 40.8115 11.4889 40.8385 11.5047 40.861C11.6531 40.9689 11.8037 41.0465 11.9555 41.1331C12.7605 41.5603 13.5204 41.6851 14.3153 41.6851C15.9342 41.6851 16.9392 40.8239 16.9392 39.4377V39.4107C16.9392 38.1291 15.8049 37.6637 14.7402 37.3275L14.6019 37.2826C13.7992 37.0217 13.1067 36.7969 13.1067 36.2685V36.2404C13.1067 35.7885 13.5114 35.4557 14.1388 35.4557C14.8358 35.4557 15.6632 35.6873 16.1961 35.9818C16.1961 35.9818 16.3524 36.083 16.4097 35.9312C16.4412 35.8503 16.711 35.124 16.7391 35.0454C16.7695 34.9599 16.7155 34.897 16.6604 34.8632C16.0522 34.4934 15.2113 34.2404 14.3411 34.2404L14.1792 34.2415C12.6975 34.2415 11.6632 35.1364 11.6632 36.4192V36.4461C11.6632 37.7986 12.8043 38.237 13.8734 38.5428L14.0455 38.5957C14.8245 38.8351 15.4957 39.0409 15.4957 39.5895V39.6165C15.4957 40.1179 15.0595 40.4911 14.3557 40.4911C14.0825 40.4911 13.2113 40.4855 12.2703 39.8908C12.1567 39.8245 12.0904 39.7761 12.0027 39.7233C11.9566 39.694 11.8408 39.6435 11.7902 39.7964L11.471 40.6822Z" fill="white"/>
<path d="M35.1702 40.6822C35.1207 40.8115 35.1882 40.8385 35.2039 40.861C35.3523 40.9689 35.503 41.0465 35.6547 41.1331C36.4597 41.5603 37.2197 41.6851 38.0145 41.6851C39.6334 41.6851 40.6384 40.8239 40.6384 39.4377V39.4107C40.6384 38.1291 39.5041 37.6637 38.4394 37.3275L38.3012 37.2826C37.4985 37.0217 36.8059 36.7969 36.8059 36.2685V36.2404C36.8059 35.7885 37.2107 35.4557 37.838 35.4557C38.535 35.4557 39.3624 35.6873 39.8953 35.9818C39.8953 35.9818 40.0516 36.083 40.1089 35.9312C40.1404 35.8503 40.4102 35.124 40.4383 35.0454C40.4687 34.9599 40.4147 34.897 40.3596 34.8632C39.7514 34.4934 38.9105 34.2404 38.0403 34.2404L37.8785 34.2415C36.3967 34.2415 35.3624 35.1364 35.3624 36.4192V36.4461C35.3624 37.7986 36.5035 38.237 37.5727 38.5428L37.7447 38.5957C38.5238 38.8351 39.1961 39.0409 39.1961 39.5895V39.6165C39.1961 40.1179 38.7587 40.4911 38.055 40.4911C37.7818 40.4911 36.9105 40.4855 35.9695 39.8908C35.856 39.8245 35.7885 39.7784 35.7031 39.7233C35.6738 39.7042 35.5367 39.6513 35.4895 39.7964L35.1702 40.6822Z" fill="white"/>
<path d="M51.3508 37.9672C51.3508 38.7508 51.2047 39.368 50.9169 39.8042C50.6324 40.2359 50.2019 40.4461 49.6015 40.4461C49.0001 40.4461 48.5717 40.237 48.2918 39.8042C48.0085 39.3691 47.8646 38.7508 47.8646 37.9672C47.8646 37.1847 48.0085 36.5687 48.2918 36.137C48.5717 35.7098 49.0001 35.5018 49.6015 35.5018C50.2019 35.5018 50.6324 35.7098 50.918 36.137C51.2047 36.5687 51.3508 37.1847 51.3508 37.9672ZM52.7021 36.5147C52.5695 36.0661 52.3626 35.6704 52.0872 35.341C51.8118 35.0105 51.4632 34.7452 51.0495 34.5518C50.6369 34.3595 50.149 34.2617 49.6015 34.2617C49.0529 34.2617 48.565 34.3595 48.1524 34.5518C47.7387 34.7452 47.3902 35.0105 47.1136 35.341C46.8393 35.6715 46.6324 36.0673 46.4986 36.5147C46.3671 36.961 46.3008 37.4489 46.3008 37.9672C46.3008 38.4855 46.3671 38.9745 46.4986 39.4197C46.6324 39.8672 46.8382 40.2629 47.1147 40.5934C47.3902 40.9239 47.7398 41.1881 48.1524 41.3759C48.5661 41.5636 49.0529 41.6592 49.6015 41.6592C50.149 41.6592 50.6358 41.5636 51.0495 41.3759C51.4621 41.1881 51.8118 40.9239 52.0872 40.5934C52.3626 40.264 52.5695 39.8683 52.7021 39.4197C52.8348 38.9734 52.9011 38.4844 52.9011 37.9672C52.9011 37.4501 52.8348 36.961 52.7021 36.5147Z" fill="white"/>
<path d="M63.7978 40.237C63.7528 40.1054 63.6258 40.1549 63.6258 40.1549C63.4291 40.2302 63.22 40.2999 62.9974 40.3348C62.7714 40.3696 62.5229 40.3876 62.2565 40.3876C61.6022 40.3876 61.0828 40.1931 60.7107 39.8087C60.3374 39.4242 60.1283 38.8025 60.1306 37.9615C60.1328 37.1959 60.3172 36.6203 60.6488 36.1819C60.9782 35.7457 61.4797 35.522 62.1486 35.522C62.7062 35.522 63.1311 35.586 63.5763 35.7266C63.5763 35.7266 63.6831 35.7727 63.7337 35.6333C63.8518 35.305 63.9395 35.07 64.0654 34.7091C64.1014 34.6068 64.0137 34.563 63.9822 34.5506C63.8068 34.482 63.3931 34.3707 63.0806 34.3235C62.7883 34.2786 62.4465 34.255 62.0665 34.255C61.4988 34.255 60.9929 34.3516 60.56 34.545C60.1283 34.7372 59.7618 35.0026 59.4718 35.3331C59.1817 35.6636 58.9614 36.0593 58.8141 36.5068C58.668 36.9531 58.5938 37.4433 58.5938 37.9615C58.5938 39.0824 58.8962 39.9885 59.4931 40.6518C60.0912 41.3174 60.9895 41.6558 62.1609 41.6558C62.8535 41.6558 63.564 41.5152 64.0744 41.314C64.0744 41.314 64.1722 41.2668 64.1295 41.1532L63.7978 40.237Z" fill="white"/>
<path d="M66.1612 37.2166C66.2252 36.7815 66.3455 36.4195 66.531 36.1373C66.811 35.709 67.2382 35.474 67.8385 35.474C68.4388 35.474 68.8357 35.7101 69.1201 36.1373C69.309 36.4195 69.3911 36.7972 69.4237 37.2166H66.1612ZM70.7109 36.2598C70.5962 35.827 70.3118 35.3897 70.1252 35.1896C69.8306 34.8725 69.5428 34.6511 69.2573 34.5274C68.884 34.3678 68.4366 34.2621 67.9464 34.2621C67.3753 34.2621 66.8571 34.3576 66.4366 34.5555C66.015 34.7534 65.6609 35.0232 65.3832 35.3593C65.1055 35.6943 64.8964 36.0934 64.7637 36.5465C64.63 36.9973 64.5625 37.4886 64.5625 38.0069C64.5625 38.5341 64.6322 39.0254 64.7705 39.4673C64.9099 39.9125 65.1325 40.3048 65.4338 40.6297C65.7339 40.9569 66.1207 41.2132 66.5839 41.3919C67.0437 41.5696 67.6024 41.6618 68.2444 41.6606C69.5653 41.6561 70.2612 41.3616 70.5479 41.2031C70.5985 41.175 70.6468 41.1255 70.5861 40.9838L70.2871 40.1463C70.2421 40.0215 70.1151 40.0676 70.1151 40.0676C69.7879 40.189 69.3225 40.4071 68.2376 40.4049C67.5282 40.4037 67.0021 40.1946 66.6727 39.8675C66.3343 39.5325 66.169 39.0401 66.1398 38.3453L70.7143 38.3498C70.7143 38.3498 70.8346 38.3475 70.8469 38.2306C70.8514 38.1811 71.0043 37.2908 70.7109 36.2598Z" fill="white"/>
<path d="M29.5283 37.2166C29.5935 36.7815 29.7127 36.4195 29.8982 36.1373C30.1781 35.709 30.6054 35.474 31.2057 35.474C31.806 35.474 32.2029 35.7101 32.4884 36.1373C32.6762 36.4195 32.7583 36.7972 32.7909 37.2166H29.5283ZM34.077 36.2598C33.9623 35.827 33.679 35.3897 33.4924 35.1896C33.1978 34.8725 32.91 34.6511 32.6245 34.5274C32.2512 34.3678 31.8038 34.2621 31.3136 34.2621C30.7436 34.2621 30.2242 34.3576 29.8038 34.5555C29.3822 34.7534 29.0281 35.0232 28.7504 35.3593C28.4727 35.6943 28.2636 36.0934 28.1309 36.5465C27.9983 36.9973 27.9297 37.4886 27.9297 38.0069C27.9297 38.5341 27.9994 39.0254 28.1377 39.4673C28.2771 39.9125 28.4997 40.3048 28.801 40.6297C29.1011 40.9569 29.4879 41.2132 29.9511 41.3919C30.4109 41.5696 30.9696 41.6618 31.6115 41.6606C32.9325 41.6561 33.6284 41.3616 33.9151 41.2031C33.9657 41.175 34.014 41.1255 33.9533 40.9838L33.6554 40.1463C33.6093 40.0215 33.4823 40.0676 33.4823 40.0676C33.1551 40.189 32.6908 40.4071 31.6037 40.4049C30.8954 40.4037 30.3693 40.1946 30.0399 39.8675C29.7015 39.5325 29.5362 39.0401 29.507 38.3453L34.0815 38.3498C34.0815 38.3498 34.2018 38.3475 34.2141 38.2306C34.2186 38.1811 34.3715 37.2908 34.077 36.2598Z" fill="white"/>
<path d="M19.6409 40.2117C19.4621 40.0689 19.4374 40.0329 19.3767 39.9407C19.2868 39.8002 19.2407 39.6001 19.2407 39.346C19.2407 38.9435 19.3733 38.6546 19.6488 38.4601C19.6454 38.4612 20.0422 38.1172 20.9754 38.1296C21.6308 38.1386 22.2165 38.2353 22.2165 38.2353V40.3151H22.2176C22.2176 40.3151 21.6364 40.4399 20.9821 40.4792C20.0512 40.5354 19.6375 40.2105 19.6409 40.2117ZM21.461 36.9975C21.2755 36.984 21.0349 36.9761 20.7471 36.9761C20.3548 36.9761 19.9759 37.0256 19.6207 37.1211C19.2632 37.2167 18.9416 37.3662 18.6651 37.5641C18.3874 37.7631 18.1637 38.0172 18.0018 38.3185C17.8399 38.6197 17.7578 38.975 17.7578 39.373C17.7578 39.7777 17.8275 40.1296 17.9669 40.4174C18.1063 40.7063 18.3076 40.9469 18.5639 41.1324C18.818 41.3179 19.1316 41.4539 19.4959 41.536C19.8545 41.6181 20.2615 41.6597 20.7067 41.6597C21.1755 41.6597 21.6432 41.6214 22.0962 41.5439C22.5448 41.4674 23.0957 41.3561 23.2486 41.3213C23.4003 41.2853 23.569 41.2392 23.569 41.2392C23.6825 41.2111 23.6735 41.0897 23.6735 41.0897L23.6713 36.9064C23.6713 35.989 23.4262 35.3089 22.9439 34.8873C22.4638 34.4668 21.7567 34.2544 20.8427 34.2544C20.4998 34.2544 19.9478 34.3016 19.6173 34.3679C19.6173 34.3679 18.6178 34.5613 18.2064 34.8828C18.2064 34.8828 18.1164 34.939 18.1659 35.0649L18.4897 35.9351C18.5302 36.0475 18.6392 36.0093 18.6392 36.0093C18.6392 36.0093 18.6741 35.9958 18.7145 35.9722C19.5948 35.4933 20.7078 35.5079 20.7078 35.5079C21.2025 35.5079 21.5824 35.6068 21.8388 35.8035C22.0883 35.9947 22.2154 36.2836 22.2154 36.8929V37.0863C21.8219 37.0301 21.461 36.9975 21.461 36.9975Z" fill="white"/>
<path d="M58.3526 34.6406C58.3875 34.5371 58.3144 34.4877 58.2841 34.4764C58.2065 34.4461 57.8175 34.364 57.5173 34.3449C56.9429 34.31 56.6236 34.4067 56.338 34.5349C56.0547 34.6631 55.7399 34.8699 55.5645 35.1049V34.5484C55.5645 34.4708 55.5095 34.409 55.433 34.409H54.2604C54.184 34.409 54.1289 34.4708 54.1289 34.5484V41.3713C54.1289 41.4478 54.1919 41.5107 54.2683 41.5107H55.4701C55.5466 41.5107 55.6084 41.4478 55.6084 41.3713V37.9627C55.6084 37.5051 55.659 37.0487 55.7602 36.762C55.8591 36.4787 55.994 36.2516 56.1604 36.0886C56.3279 35.9267 56.5179 35.8131 56.7259 35.7491C56.9384 35.6839 57.1733 35.6625 57.3397 35.6625C57.5792 35.6625 57.8422 35.7243 57.8422 35.7243C57.9299 35.7344 57.9794 35.6805 58.0086 35.6007C58.0873 35.3916 58.3099 34.7654 58.3526 34.6406Z" fill="white"/>
<path d="M47.0732 31.4782C46.927 31.4332 46.7944 31.4028 46.6212 31.3702C46.4458 31.3388 46.2367 31.323 45.9995 31.323C45.1721 31.323 44.52 31.5569 44.0625 32.0178C43.6072 32.4765 43.298 33.1746 43.1429 34.0931L43.0866 34.4023H42.0479C42.0479 34.4023 41.9219 34.3978 41.895 34.535L41.7252 35.4872C41.7128 35.5771 41.7522 35.6345 41.8736 35.6345H42.8843L41.859 41.359C41.7792 41.82 41.687 42.1988 41.5847 42.4866C41.4846 42.7699 41.3868 42.9824 41.2654 43.1376C41.1485 43.286 41.0383 43.3961 40.8472 43.4602C40.6898 43.5131 40.5077 43.5378 40.3087 43.5378C40.1985 43.5378 40.0512 43.5198 39.9422 43.4973C39.8342 43.476 39.7769 43.4524 39.6948 43.4175C39.6948 43.4175 39.5768 43.3725 39.5296 43.4906C39.4925 43.5884 39.2227 44.3293 39.1901 44.4203C39.1586 44.5114 39.2035 44.5822 39.2609 44.6036C39.3958 44.6508 39.4958 44.6823 39.6791 44.7261C39.9332 44.7857 40.1479 44.7891 40.3491 44.7891C40.7696 44.7891 41.1541 44.7295 41.4722 44.6148C41.7915 44.499 42.0703 44.2978 42.3177 44.0257C42.5841 43.7312 42.7516 43.4231 42.9113 43.0015C43.0698 42.5856 43.2058 42.0684 43.3137 41.4658L44.3447 35.6345H45.8511C45.8511 35.6345 45.9782 35.6389 46.004 35.5007L46.1749 34.5496C46.1861 34.4585 46.1479 34.4023 46.0254 34.4023H44.5628C44.5706 34.3697 44.637 33.8548 44.8045 33.3703C44.8764 33.1645 45.0113 32.997 45.1249 32.8823C45.2373 32.7699 45.3666 32.6901 45.5082 32.644C45.6533 32.5968 45.8185 32.5743 45.9995 32.5743C46.1367 32.5743 46.2727 32.59 46.375 32.6114C46.5167 32.6417 46.5718 32.6575 46.6089 32.6687C46.7584 32.7137 46.7786 32.6699 46.8078 32.5979L47.1575 31.6378C47.1935 31.5344 47.1046 31.4905 47.0732 31.4782Z" fill="white"/>
<path d="M26.6391 41.3715C26.6391 41.4479 26.584 41.5098 26.5075 41.5098H25.2945C25.218 41.5098 25.1641 41.4479 25.1641 41.3715V31.6087C25.1641 31.5322 25.218 31.4704 25.2945 31.4704H26.5075C26.584 31.4704 26.6391 31.5322 26.6391 31.6087V41.3715Z" fill="white"/>
</svg>
