<svg width="64" height="73" viewBox="0 0 64 73" fill="none" xmlns="http://www.w3.org/2000/svg">
<g clip-path="url(#clip0_2822_27854)">
<path fill-rule="evenodd" clip-rule="evenodd" d="M44.9235 71.4117L44.7629 9.71798C44.3469 9.30243 43.5355 9.42792 43.2184 9.52049L41.1055 10.1747C40.8447 9.31737 40.5062 8.48559 40.0943 7.68963C38.5951 4.83021 36.404 3.31821 33.7515 3.31409H33.7433C33.5662 3.31409 33.3911 3.33055 33.214 3.34495L33.1934 3.34701C33.1167 3.25263 33.037 3.1607 32.9545 3.07135C31.8013 1.83706 30.3186 1.23432 28.5434 1.28575C25.1207 1.38449 21.7125 3.85718 18.9468 8.24918C17.0007 11.3411 15.5242 15.2229 15.102 18.2284L8.36172 20.3164C6.37856 20.9397 6.31678 21.0014 6.05524 22.8713C5.8596 24.2867 0.667969 64.44 0.667969 64.44L44.178 71.9651L44.9235 71.4117ZM30.6686 4.10609C30.09 3.72552 29.4124 3.54861 28.6093 3.56506C23.325 3.71729 18.7162 11.9726 17.5403 17.4734L22.6022 15.9059L23.5062 15.6261C24.1693 12.1331 25.8333 8.50838 28.01 6.17558C28.7711 5.33967 29.6696 4.63978 30.6666 4.10609H30.6686ZM26.0083 14.8505L33.2737 12.6C33.2964 10.7075 33.0905 7.90975 32.1431 5.93489C31.1341 6.35043 30.2856 7.07866 29.676 7.73078C28.043 9.48552 26.7106 12.1619 26.0104 14.8505H26.0083ZM35.5493 11.8965L38.9267 10.8494C38.3871 9.09672 37.1062 6.15912 34.5093 5.66541C35.3166 7.74929 35.5246 10.1623 35.5493 11.8965Z" fill="#95BF47"/>
<path d="M54.6703 14.3077C54.4108 14.2872 49.3818 14.209 49.3818 14.209C49.3818 14.209 45.1746 10.1235 44.7586 9.70591C44.5975 9.55742 44.3935 9.46379 44.1758 9.43848V71.955L63.0292 67.2668C63.0292 67.2668 55.3354 15.2396 55.286 14.8837C55.2622 14.7326 55.1884 14.5938 55.0765 14.4894C54.9645 14.385 54.8228 14.321 54.6703 14.3077Z" fill="#5E8E3E"/>
<path d="M33.7266 24.0151L31.5354 32.2108C31.5354 32.2108 29.093 31.0978 26.1955 31.2809C21.9491 31.5484 21.9038 34.2288 21.9471 34.9015C22.1777 38.5632 31.8176 39.3655 32.3592 47.95C32.7855 54.7036 28.778 59.326 23.0035 59.688C16.0738 60.1262 12.2578 56.0366 12.2578 56.0366L13.7261 49.787C13.7261 49.787 17.5668 52.6855 20.6394 52.4901C22.6493 52.3646 23.366 50.7312 23.2939 49.5751C22.9912 44.7964 15.1409 45.0761 14.6446 37.222C14.2286 30.6082 18.5677 23.9122 28.1457 23.3074C31.8361 23.0729 33.7266 24.0172 33.7266 24.0172" fill="white"/>
</g>
<defs>
<clipPath id="clip0_2822_27854">
<rect width="63.84" height="72" fill="white" transform="translate(0 0.683105)"/>
</clipPath>
</defs>
</svg>
