<svg width="95" height="57" viewBox="0 0 95 57" fill="none" xmlns="http://www.w3.org/2000/svg">
<g clip-path="url(#clip0_2822_27865)">
<path d="M8.74676 0.27002H85.3338C90.148 0.27002 94.0803 4.20178 94.0803 9.05217V38.2648C94.0803 43.1152 90.148 47.0469 85.297 47.0469H57.8448L61.63 56.27L45.0558 47.0469H8.78351C3.93251 47.0469 0.000255512 43.1152 0.000255512 38.2648V9.05217C-0.0364945 4.23852 3.89576 0.27002 8.74676 0.27002Z" fill="#7F54B3"/>
<path d="M5.36638 8.28048C5.91763 7.54558 6.68938 7.17812 7.79188 7.10463C9.73963 6.95765 10.8421 7.87629 11.1361 9.86054C12.3121 17.871 13.6351 24.6322 14.9949 30.1807L23.3739 14.2332C24.1456 12.7634 25.1011 12.0285 26.2404 11.955C27.9309 11.8448 28.9599 12.9104 29.3641 15.1519C30.2829 20.186 31.5324 24.522 32.9656 28.1965C33.9579 18.4957 35.6484 11.4773 38.0004 7.17812C38.5884 6.11251 39.4336 5.56133 40.5361 5.48783C41.4181 5.41434 42.2266 5.67156 42.9616 6.25949C43.6966 6.84741 44.0641 7.54558 44.1376 8.42747C44.1744 9.12563 44.0641 9.67681 43.7701 10.2647C42.2634 13.0206 41.0506 17.6506 40.0584 24.081C39.1029 30.3277 38.7721 35.1781 38.9926 38.6322C39.0661 39.5876 38.9191 40.4327 38.5516 41.1676C38.1106 42.0128 37.4124 42.4537 36.5304 42.5272C35.5381 42.6007 34.5091 42.1597 33.5169 41.0941C29.9521 37.4563 27.1224 32.018 25.0644 24.8159C22.5654 29.7031 20.7279 33.3776 19.5519 35.8395C17.3101 40.1755 15.3991 42.3802 13.7821 42.4905C12.7531 42.5639 11.8711 41.6821 11.0994 39.8448C9.15163 34.8474 7.05688 25.1466 4.77838 10.8159C4.59463 9.82379 4.81513 8.9419 5.36638 8.28048ZM87.5394 14.27C86.1796 11.8448 84.1216 10.4117 81.4389 9.82379C80.7039 9.67681 80.0056 9.60332 79.3809 9.60332C75.7059 9.60332 72.7291 11.5141 70.3771 15.3356C68.3926 18.5692 67.4004 22.1702 67.4004 26.102C67.4004 29.0416 68.0251 31.5771 69.2379 33.6716C70.5976 36.0968 72.6556 37.5298 75.3384 38.1178C76.0734 38.2647 76.7716 38.3382 77.3964 38.3382C81.1081 38.3382 84.0849 36.4275 86.4001 32.6059C88.3846 29.3356 89.3769 25.7346 89.3769 21.766C89.4136 18.8264 88.7521 16.3277 87.5394 14.27ZM82.7251 24.8527C82.1739 27.3881 81.2184 29.2621 79.8219 30.5115C78.7194 31.5036 77.6904 31.9445 76.7349 31.7241C75.8161 31.5403 75.0444 30.7319 74.4931 29.2254C74.0521 28.0495 73.7949 26.8369 73.7949 25.7346C73.7949 24.7792 73.8684 23.8238 74.0521 22.9419C74.3829 21.3618 75.0444 19.8553 76.0734 18.3855C77.3229 16.5115 78.6826 15.7398 80.0424 15.997C80.9611 16.1807 81.7329 16.9891 82.2841 18.4957C82.7251 19.6716 82.9824 20.8842 82.9824 21.9865C82.9824 23.0154 82.9089 23.9708 82.7251 24.8527ZM63.6151 14.27C62.2554 11.8448 60.1606 10.4117 57.5146 9.82379C56.7796 9.67681 56.0814 9.60332 55.4566 9.60332C51.7816 9.60332 48.8049 11.5141 46.4529 15.3356C44.4684 18.5692 43.4761 22.1702 43.4761 26.102C43.4761 29.0416 44.1009 31.5771 45.3136 33.6716C46.6734 36.0968 48.7314 37.5298 51.4509 38.1178C52.1859 38.2647 52.8841 38.3382 53.5089 38.3382C57.2206 38.3382 60.1974 36.4275 62.5126 32.6059C64.4971 29.3356 65.4894 25.7346 65.4894 21.766C65.4526 18.8264 64.8279 16.3277 63.6151 14.27ZM58.7641 24.8527C58.2129 27.3881 57.2574 29.2621 55.8609 30.5115C54.7584 31.5036 53.7294 31.9445 52.7739 31.7241C51.8551 31.5403 51.0834 30.7319 50.5321 29.2254C50.0911 28.0495 49.8339 26.8369 49.8339 25.7346C49.8339 24.7792 49.9074 23.8238 50.0911 22.9419C50.4219 21.3618 51.0834 19.8553 52.1124 18.3855C53.3619 16.5115 54.7216 15.7398 56.0814 15.997C57.0001 16.1807 57.7719 16.9891 58.3231 18.4957C58.7641 19.6716 59.0214 20.8842 59.0214 21.9865C59.0581 23.0154 58.9479 23.9708 58.7641 24.8527Z" fill="white"/>
</g>
<defs>
<clipPath id="clip0_2822_27865">
<rect width="94.08" height="56" fill="white" transform="translate(0 0.27002)"/>
</clipPath>
</defs>
</svg>
