<svg width="73" height="73" viewBox="0 0 73 73" fill="none" xmlns="http://www.w3.org/2000/svg">
<g clip-path="url(#clip0_2822_27824)">
<path d="M36.4417 0.257324C16.3069 0.257324 0 16.3424 0 36.2573C0 56.1722 16.3069 72.2573 36.4417 72.2573C56.5765 72.2573 72.8834 56.1722 72.8834 36.2573C72.96 16.3424 56.5765 0.257324 36.4417 0.257324Z" fill="#13B5EA"/>
<path d="M26.7178 34.7254C27.4069 32.1977 29.7036 30.3594 32.3066 30.3594C34.9861 30.3594 37.2829 32.1211 37.8953 34.7254H26.7178ZM39.9624 36.3339C40.3452 35.8743 40.4983 35.2615 40.3452 34.6488C39.8858 32.3509 38.5844 30.5126 36.747 29.2871C35.4455 28.4445 33.9143 28.0615 32.3831 28.0615C30.6223 28.0615 29.0146 28.5977 27.6365 29.5934C25.4929 31.1254 24.1914 33.653 24.1914 36.3339C24.1914 37.0232 24.268 37.636 24.4211 38.3254C25.2632 41.5424 28.0193 43.9934 31.3879 44.453C31.6941 44.5296 32.0003 44.5296 32.3831 44.5296C33.0722 44.5296 33.6846 44.453 34.3737 44.2998C35.2158 43.9168 35.9814 43.5339 36.747 43.0743C37.436 42.6147 38.125 42.0019 38.814 41.0828L38.8906 41.0062C39.1203 40.6998 39.1968 40.3168 39.1968 40.0105C39.1203 39.7041 38.9671 39.3977 38.7375 39.2445C38.5078 39.0913 38.2016 38.9381 37.9719 38.9381C37.7422 38.9381 37.3594 39.0147 36.9766 39.4743C36.9001 39.6275 36.747 39.7807 36.5938 39.9339C36.1345 40.47 35.5986 40.853 34.9861 41.236C34.144 41.6956 33.2253 41.9254 32.3066 41.9254C29.3208 41.9254 27.56 39.9339 26.7944 38.0956C26.7178 37.7892 26.6413 37.4828 26.5647 37.1764V37.0998H38.0484C38.8906 37.0998 39.5796 36.7934 39.9624 36.3339Z" fill="white"/>
<path d="M56.7311 33.9595C55.5828 33.9595 54.6641 34.8786 54.6641 36.0276C54.6641 37.1765 55.5828 38.0956 56.7311 38.0956C57.8795 38.0956 58.7982 37.1765 58.7982 36.0276C58.7982 34.9552 57.8795 33.9595 56.7311 33.9595Z" fill="white"/>
<path d="M49.0723 29.2871C49.0723 28.5978 48.5364 28.1382 47.8474 28.1382H47.5411C46.5459 28.1382 45.5506 28.4446 44.785 29.0573C44.6319 28.5978 44.1726 28.2148 43.6367 28.2148C42.9476 28.2148 42.4883 28.7509 42.4883 29.3637V42.9978C42.4883 43.6105 43.0242 44.1467 43.6367 44.1467C44.3257 44.1467 44.785 43.6105 44.785 42.9978V34.6488C44.785 31.968 45.0147 30.819 47.388 30.5127C47.6177 30.5127 47.7708 30.5127 47.8474 30.5127C48.6129 30.4361 49.0723 29.9765 49.0723 29.2871Z" fill="white"/>
<path d="M17.9909 36.1807L24.1155 30.053C24.3452 29.8232 24.4983 29.5168 24.4983 29.2105C24.4983 28.5211 23.9624 28.0615 23.2734 28.0615C22.9671 28.0615 22.6609 28.2147 22.4312 28.4445L16.3066 34.5722L10.1819 28.4445C9.95225 28.2147 9.64601 28.1381 9.33978 28.1381C8.65076 28.1381 8.19141 28.6743 8.19141 29.2871C8.19141 29.5934 8.34452 29.8998 8.5742 30.1296L14.6989 36.2573L8.5742 42.3849C8.34452 42.6147 8.19141 42.9211 8.19141 43.2275C8.19141 43.8402 8.72731 44.3764 9.33978 44.3764C9.64601 44.3764 9.95225 44.2232 10.1819 44.07L16.3066 37.9424L22.4312 43.9934C22.6609 44.2232 22.9671 44.3764 23.2734 44.3764C23.9624 44.3764 24.4983 43.8402 24.4983 43.2275C24.4983 42.9211 24.3452 42.6147 24.1155 42.3849L17.9909 36.1807Z" fill="white"/>
<path d="M56.7308 41.772C53.5919 41.772 50.9889 39.2444 50.9889 36.0274C50.9889 32.8869 53.5919 30.2827 56.7308 30.2827C59.8697 30.2827 62.4727 32.8103 62.4727 36.0274C62.4727 39.2444 59.8697 41.772 56.7308 41.772ZM56.7308 27.9082C52.2139 27.9082 48.5391 31.5848 48.5391 36.0274C48.5391 40.5465 52.2139 44.1465 56.7308 44.1465C61.2477 44.1465 64.9225 40.4699 64.9225 36.0274C64.9225 31.5848 61.2477 27.9082 56.7308 27.9082Z" fill="white"/>
</g>
<defs>
<clipPath id="clip0_2822_27824">
<rect width="72.96" height="72" fill="white" transform="translate(0 0.257324)"/>
</clipPath>
</defs>
</svg>
