<svg width="20" height="20" viewBox="0 0 20 20" fill="none" xmlns="http://www.w3.org/2000/svg">
<g id="bars" clip-path="url(#clip0_3664_5774)">
<path id="Vector" d="M18.8235 2.70238H1.17647C1.09088 2.70238 0.990214 2.66524 0.902496 2.5676C0.8124 2.46732 0.75 2.31565 0.75 2.14286C0.75 1.97007 0.8124 1.8184 0.902496 1.71812C0.990214 1.62048 1.09088 1.58334 1.17647 1.58334H18.8235C18.9091 1.58334 19.0098 1.62048 19.0975 1.71812C19.1876 1.8184 19.25 1.97007 19.25 2.14286C19.25 2.31565 19.1876 2.46732 19.0975 2.5676C19.0098 2.66524 18.9091 2.70238 18.8235 2.70238ZM18.8235 10.5595H1.17647C1.09088 10.5595 0.990214 10.5224 0.902496 10.4247C0.8124 10.3245 0.75 10.1728 0.75 10C0.75 9.82721 0.8124 9.67554 0.902496 9.57526C0.990215 9.47762 1.09088 9.44048 1.17647 9.44048H18.8235C18.9091 9.44048 19.0098 9.47762 19.0975 9.57526C19.1876 9.67554 19.25 9.82721 19.25 10C19.25 10.1728 19.1876 10.3245 19.0975 10.4247C19.0098 10.5224 18.9091 10.5595 18.8235 10.5595ZM18.8235 18.4167H1.17647C1.09087 18.4167 0.990214 18.3795 0.902497 18.2819C0.812401 18.1816 0.75 18.0299 0.75 17.8571C0.75 17.6844 0.812401 17.5327 0.902495 17.4324L0.344581 16.9312L0.902496 17.4324C0.990213 17.3348 1.09087 17.2976 1.17647 17.2976H18.8235C18.9091 17.2976 19.0098 17.3348 19.0975 17.4324C19.1876 17.5327 19.25 17.6844 19.25 17.8571C19.25 18.0299 19.1876 18.1816 19.0975 18.2819C19.0098 18.3795 18.9091 18.4167 18.8235 18.4167Z" fill="#2D3E50" stroke="#2D3E50" stroke-width="1.5"/>
</g>
<defs>
<clipPath id="clip0_3664_5774">
<rect width="20" height="20" fill="white"/>
</clipPath>
</defs>
</svg>
