<svg width="557" height="557" viewBox="0 0 557 557" fill="none" xmlns="http://www.w3.org/2000/svg">
<path d="M119.046 382.843C119.046 382.843 35.6956 427.063 26.9186 438.337C11.5827 458.032 294.126 465.6 307.894 461.723C318.203 458.814 393.681 394.652 393.681 394.652C395.851 389.864 407.781 332.598 407.781 332.598C407.781 332.598 432.75 323.225 440.683 317.819C438.888 316.137 437.711 313.904 437.335 311.475L409.181 323.461C409.181 323.461 424.239 240.72 424.944 234.882C425.646 229.044 426.464 211.7 402.192 205.29C379.747 199.36 240.806 196.843 240.806 196.843C240.806 196.843 248.356 173.34 249.327 162.943C247.017 164.057 244.368 164.245 241.923 163.471L233.373 196.51C233.373 196.51 198.266 196.174 187.702 198.24C177.138 200.305 173.248 202.173 168.74 214.245C167.157 218.497 161.825 237.439 155.07 262.566C155.07 262.566 135.583 255.481 133.661 255.139C129.639 254.421 102.087 265.031 109.551 291.264C111.265 294.181 113.505 296.755 116.159 298.854C116.708 299.342 94.7524 327.178 95.5366 327.239C98.2467 327.239 100.856 328.265 102.84 330.112C103.797 330.883 122.856 303.721 122.856 303.721C129.944 310.309 140.895 318.821 140.895 318.821C140.188 320.028 126.392 374.91 126.441 379.106C126.441 379.106 102.823 348.487 102.116 345.466C99.7758 346.35 97.3234 346.904 94.83 347.113C102.109 359.539 110.199 371.478 119.046 382.843Z" fill="white"/>
<path d="M546.136 194.516C540.143 189.5 519.361 175.555 514.771 174.584C511.808 173.757 508.677 173.739 505.7 174.531C502.725 175.323 500.017 176.897 497.855 179.088C491.141 185.081 449.015 222.608 445.072 227.282C440.396 232.807 440.352 241.136 447.917 247.046C455.482 252.955 471.336 262.982 471.336 262.982L449.281 300.253C451.641 300.969 453.77 302.306 455.444 304.119L477.328 267.231C477.328 267.231 503.085 283.678 505.675 284.997C508.268 286.317 517.871 291.712 524.122 279.897C530.326 268.082 549.066 213.682 549.579 211.556C550.09 209.43 552.123 199.529 546.136 194.516ZM542.777 212.11C540.569 218.698 521.655 269.483 519.699 273.138C517.743 276.793 515.663 283.085 504.144 276.708C492.628 270.334 455.485 244.707 452.892 242.412C450.296 240.116 447.196 237.481 451.454 231.446C454.302 227.452 496.505 187.46 501.688 183.889C506.871 180.318 510.529 179.939 515.545 182.998C542.056 199.047 546.786 200.239 542.777 212.11Z" fill="white"/>
<path d="M169.05 101.367C164.914 102.206 160.891 103.527 157.064 105.303C155.932 106.121 150.66 112.551 155.946 128.054C161.232 143.556 169.989 143.318 171.4 142.964C172.81 142.611 183.914 137.382 183.914 137.382C183.914 137.382 188.908 113.893 169.05 101.367Z" fill="white"/>
<path d="M208.184 126.291L235.859 148.723C237.432 146.6 239.513 144.908 241.913 143.802L215.461 122.648L208.184 126.291Z" fill="white"/>
<path d="M327.748 154.14C332.015 155.723 336.446 156.808 340.963 157.372L336.734 174.941L322.691 170.709L327.748 154.14Z" fill="white"/>
<path d="M351.076 158.24C387.868 158.24 417.694 128.753 417.694 92.3796C417.694 56.0059 387.868 26.5193 351.076 26.5193C314.287 26.5193 284.461 56.0059 284.461 92.3796C284.461 128.753 314.287 158.24 351.076 158.24Z" fill="#01D2B7"/>
<path d="M350.783 150.022C383.035 150.022 409.175 124.249 409.175 92.4562C409.175 60.6633 383.035 34.8901 350.783 34.8901C318.535 34.8901 292.395 60.6633 292.395 92.4562C292.395 124.249 318.535 150.022 350.783 150.022Z" fill="white"/>
<path d="M313.547 198.871L330.397 199.535L336.738 174.939L322.695 170.708L313.547 198.871Z" fill="#01D2B7"/>
<path d="M114.015 296.834C114.015 296.834 112.556 263.428 142.595 258.095C142.595 258.095 204.85 283.165 240.8 302.734C240.8 302.734 199.073 317.712 203.502 363.54C203.502 363.54 137.691 318.769 114.015 296.834Z" fill="#01D2B7"/>
<path d="M540.5 197.255C533.171 191.906 525.557 186.964 517.688 182.451C513.887 180.439 508.136 177.426 502.086 182.048C485.124 195.884 469.045 210.766 453.937 226.605C448.323 233.006 444.715 237.85 452.036 243.306C455.773 246.095 500.201 275.55 504.136 278.116C505.623 279.246 507.335 280.048 509.16 280.47C510.982 280.89 512.872 280.92 514.708 280.555C516.28 279.946 517.688 278.972 518.81 277.713C519.935 276.456 520.742 274.949 521.17 273.317C524.512 264.606 542.448 218.038 544.369 210.804C545.582 206.23 546.756 201.944 540.5 197.255ZM541.164 201.335L537.718 206.675C535.822 205.526 533.635 204.164 531.264 202.699L535.366 196.709C537.484 198.007 539.433 199.554 541.164 201.335ZM508.929 235.382L516.181 240.111L510.197 249.431L502.704 244.518L508.929 235.382ZM500.574 243.116L492.609 237.876L498.783 228.746L506.795 233.989L500.574 243.116ZM508.235 231.88L500.218 226.628L505.749 218.458L513.794 223.735L508.235 231.88ZM507.184 216.349L512.54 208.445L520.72 213.596L515.229 221.641L507.184 216.349ZM513.975 206.331L519.403 198.335L527.653 203.463L522.163 211.488L513.975 206.331ZM511.819 204.972L503.381 199.645L509.11 191.923L517.235 196.988L511.819 204.972ZM510.381 207.083L505.055 214.947L496.308 209.201L501.864 201.711L510.381 207.083ZM503.617 217.061L498.08 225.235L488.886 219.202L494.79 211.243L503.617 217.061ZM496.648 227.349L490.477 236.477L480.786 230.09L487.352 221.25L496.648 227.349ZM478.654 228.685L469.95 222.939C472.165 220.046 474.428 217.107 476.659 214.229L485.217 219.851L478.654 228.685ZM477.131 230.734L471.248 238.649L462.451 232.845C464.293 230.375 466.295 227.726 468.397 224.968L477.131 230.734ZM479.263 232.139L489.05 238.588L483.543 246.748L473.38 240.054L479.263 232.139ZM491.179 239.99L499.137 245.228L493.61 253.367L485.675 248.15L491.179 239.99ZM501.269 246.627L508.82 251.58L503.518 259.866L495.74 254.766L501.269 246.627ZM510.952 252.976C514.008 254.973 516.7 256.734 518.865 258.124C517.037 260.843 515.18 263.629 513.407 266.324L505.65 261.262L510.952 252.976ZM512.332 250.827L518.319 241.501C521.729 243.717 524.586 245.561 526.545 246.811C524.75 249.431 522.577 252.62 520.289 256.004C518.138 254.617 515.416 252.844 512.332 250.827ZM517.561 237.965L510.378 233.274L515.934 225.134L522.901 229.685L517.561 237.965ZM517.358 223.026L522.879 214.95L529.645 219.19L524.267 227.536L517.358 223.026ZM524.32 212.844L529.821 204.799C532.197 206.273 534.417 207.641 536.332 208.821L531.026 217.047L524.32 212.844ZM533.27 195.255L529.097 201.346L520.835 196.215L525.129 189.894C527.799 191.604 530.641 193.466 533.27 195.255ZM514.853 183.878C517.641 185.284 520.349 186.841 522.967 188.541L518.659 194.862L510.614 189.854L514.727 184.304C514.845 184.189 514.82 184.025 514.853 183.878ZM512.62 182.902L508.463 188.51L502.624 184.861C503.886 183.546 505.521 182.652 507.313 182.301C509.102 181.951 510.952 182.159 512.62 182.902ZM500.495 186.536L506.937 190.558L501.219 198.269L493.136 193.155C495.394 190.74 497.852 188.523 500.495 186.536ZM491.553 195.178L499.699 200.332L494.173 207.784L485.919 202.346L491.553 195.178ZM492.65 209.83L486.743 217.791L478.228 212.2C480.377 209.439 482.438 206.793 484.347 204.354L492.65 209.83ZM481.93 202.76L482.218 202.943C480.306 205.388 478.245 208.035 476.099 210.798L474.478 209.729C476.9 207.443 479.392 205.098 481.93 202.76ZM472.571 211.534L474.527 212.818C472.296 215.691 470.033 218.633 467.821 221.526L464.526 219.348C466.935 216.969 469.648 214.323 472.571 211.534ZM462.682 221.181L466.274 223.554C464.169 226.315 462.166 228.964 460.322 231.435L455.743 228.41C457.587 226.309 460.701 223.175 462.682 221.181ZM454.077 230.375L458.799 233.495C456.552 236.529 454.697 239.117 453.356 241.094C448.924 237.672 449.997 235.259 454.077 230.375ZM455.43 242.573C456.772 240.591 458.651 237.976 460.929 234.9L469.717 240.706L463.993 248.374C460.3 245.877 457.29 243.852 455.43 242.573ZM476.777 256.907L466.125 249.793L471.871 242.108L482.136 248.871C481.557 249.71 477.301 256.036 476.777 256.907ZM478.871 258.303C479.318 257.685 478.871 258.303 484.254 250.258L492.184 255.473C489.884 258.889 488.005 261.67 486.759 263.543L478.871 258.303ZM488.88 264.962C490.123 263.092 491.997 260.305 494.313 256.884L502.147 262.02C499.954 265.468 498.143 268.318 496.906 270.289L488.88 264.962ZM499.035 271.7C500.264 269.734 502.078 266.876 504.281 263.42C507.154 265.304 509.774 267.008 512.016 268.464C510.027 271.51 508.227 274.337 506.778 276.708C506.35 276.464 502.199 273.794 499.035 271.7ZM509.108 277.781C510.518 275.485 512.249 272.771 514.154 269.852C516.129 271.131 517.688 272.13 518.64 272.725C516.442 278.163 513.259 279.293 509.108 277.781ZM519.595 270.312C518.651 269.717 517.273 268.832 515.55 267.726C517.323 265.028 519.18 262.242 521.008 259.521C521.946 260.121 522.673 260.584 523.206 260.914L519.595 270.312ZM524.138 258.481C523.683 258.194 523.11 257.828 522.437 257.395C524.16 254.835 525.826 252.39 527.321 250.212L524.138 258.481ZM527.994 244.711C526.048 243.472 523.162 241.608 519.702 239.361L525.027 231.081C528.474 233.331 531.223 235.103 532.713 236.02C531.802 239.229 530.191 242.202 527.994 244.711ZM533.632 233.587C532.101 232.624 529.568 231.001 526.408 228.938L531.81 220.549C534.217 222.048 536.063 223.187 537.251 223.902C536.167 226.841 534.933 230.127 533.632 233.587ZM538.148 221.463C536.974 220.75 535.289 219.707 533.193 218.403L538.511 210.157C539.732 210.899 540.692 211.476 541.441 211.921C541.106 213.22 539.872 216.754 538.148 221.463ZM542.116 209.356C541.491 208.983 540.744 208.531 539.891 208.011L542.563 203.871C542.895 205.706 542.739 207.6 542.116 209.356Z" fill="#1F2A32"/>
<path d="M231.467 432.476C223.273 429.996 120.225 425.699 111.704 426.588C103.053 427.502 100.95 436.584 107.259 438.845C110.73 440.085 123.454 440.694 141.068 441.536C149.4 441.931 227.832 446.253 229.478 446.152C238.126 446.077 240.514 435.223 231.467 432.476ZM111.968 429.123C119.958 428.3 223.152 432.619 230.728 434.921C233.601 435.783 234.572 437.566 234.601 439.133C234.253 439.945 233.679 440.642 232.948 441.141C232.216 441.641 231.358 441.918 230.472 441.945C226.054 442.519 114.64 435.975 112.534 435.722C110.919 435.53 106.176 435.472 106.176 432.729C106.176 430.846 108.297 429.51 111.968 429.123Z" fill="#1F2A32"/>
<path d="M145.705 387.148C141.215 387.148 137.695 389.733 137.695 393.036C137.695 396.34 141.215 398.93 145.705 398.93C150.196 398.93 153.712 396.343 153.712 393.036C153.712 389.73 150.196 387.148 145.705 387.148ZM145.472 389.132C148.205 389.132 151.009 390.43 150.796 392.081C150.336 395.621 142.217 395.528 140.787 394.068C138.307 391.519 142.514 389.132 145.472 389.132Z" fill="#1F2A32"/>
<path d="M410.491 92.4966C410.272 76.8128 403.889 61.8446 392.722 50.8306C381.555 39.8165 366.502 33.6415 350.815 33.6415C335.129 33.6415 320.073 39.8165 308.906 50.8306C297.738 61.8446 291.353 76.8128 291.137 92.4966C291.353 108.181 297.738 123.149 308.906 134.163C320.073 145.177 335.129 151.352 350.815 151.352C366.502 151.352 381.555 145.177 392.722 134.163C403.889 123.149 410.272 108.181 410.491 92.4966ZM399.431 121.873C390.788 124.97 381.771 126.887 372.618 127.57C391.69 113.306 388.252 93.7352 385.352 84.8805C393.512 91.5242 400.336 99.6559 405.464 108.844C404.027 113.43 401.999 117.81 399.431 121.873ZM367.984 127.835C349.287 128.387 330.843 123.382 314.992 113.452C299.901 84.8805 325.292 68.769 325.369 68.6713C335.134 66.9344 345.152 67.2127 354.805 69.4892C364.458 71.7661 373.543 75.9927 381.502 81.9098C393.847 111.749 368.06 127.745 367.984 127.835ZM350.815 36.2698C386.932 36.2698 414.933 69.3924 406.392 105.296C400.874 95.7121 393.449 87.3593 384.584 80.7513C375.713 74.1436 365.588 69.4201 354.824 66.8727C328.107 59.9143 303.64 71.9839 296.191 76.0662C299.876 64.4836 307.158 54.3789 316.984 47.2216C326.807 40.064 338.657 36.2278 350.815 36.2698ZM293.963 97.9179C293.335 91.753 293.782 85.5259 295.285 79.5139C303.04 75.0285 311.422 71.7299 320.153 69.7285C314.147 74.5072 309.948 81.1936 308.253 88.6816C306.563 96.1693 307.476 104.011 310.843 110.91C304.834 107.099 299.184 102.751 293.963 97.9179ZM350.815 148.729C337.425 148.788 324.447 144.125 314.155 135.56C303.863 126.995 296.923 115.077 294.55 101.9C300.474 107.143 317.878 121.54 340.23 127.182C358.918 132.304 378.717 131.682 397.046 125.395C391.71 132.638 384.743 138.523 376.714 142.576C368.68 146.627 359.81 148.742 350.815 148.729Z" fill="#1F2A32"/>
<path d="M239.143 323.447L239.43 320.673C239.47 320.341 239.636 320.034 239.896 319.82C240.155 319.606 240.488 319.499 240.823 319.526C241.16 319.556 241.47 319.723 241.685 319.981C241.9 320.242 242.004 320.58 241.972 320.914L241.7 323.691C241.683 323.858 241.635 324.02 241.556 324.171C241.476 324.319 241.369 324.451 241.239 324.558C241.109 324.668 240.959 324.747 240.797 324.797C240.636 324.846 240.467 324.863 240.299 324.846C240.131 324.833 239.968 324.783 239.819 324.701C239.67 324.624 239.538 324.514 239.43 324.385C239.323 324.256 239.242 324.108 239.193 323.946C239.144 323.782 239.126 323.614 239.143 323.447Z" fill="#1F2A32"/>
<path d="M246.221 324.468L247.405 320.909C247.511 320.588 247.742 320.324 248.044 320.171C248.347 320.02 248.697 319.992 249.018 320.099C249.339 320.209 249.605 320.44 249.756 320.741C249.908 321.043 249.934 321.392 249.827 321.715L248.646 325.272C248.529 325.579 248.298 325.831 248 325.971C247.702 326.117 247.361 326.136 247.048 326.032C246.735 325.93 246.474 325.708 246.32 325.414C246.166 325.126 246.13 324.783 246.221 324.468Z" fill="#1F2A32"/>
<path d="M254.637 330.032C254.404 330.032 254.175 329.966 253.976 329.846C253.777 329.725 253.615 329.549 253.508 329.341C253.401 329.132 253.354 328.899 253.371 328.666C253.387 328.435 253.467 328.21 253.603 328.021L255.804 324.981C256.007 324.723 256.303 324.55 256.63 324.503C256.956 324.457 257.288 324.542 257.555 324.734C257.822 324.926 258.005 325.217 258.063 325.54C258.122 325.867 258.052 326.199 257.87 326.476C255.594 329.621 255.505 330.032 254.637 330.032Z" fill="#1F2A32"/>
<path d="M260.378 335.413C260.119 335.416 259.866 335.339 259.652 335.193C259.438 335.048 259.273 334.839 259.18 334.598C259.087 334.356 259.069 334.096 259.128 333.841C259.188 333.588 259.324 333.363 259.516 333.19L261.633 331.294C261.888 331.083 262.213 330.981 262.542 331.003C262.871 331.028 263.177 331.179 263.398 331.426C263.618 331.67 263.734 331.991 263.722 332.323C263.71 332.65 263.571 332.963 263.334 333.193C261.136 335.188 261.033 335.413 260.378 335.413Z" fill="#1F2A32"/>
<path d="M323.348 263.948C325.181 258.903 328.652 250.339 331.325 249.681C332.817 249.296 335.122 250.543 340.404 253.671C342.893 255.362 345.601 256.714 348.446 257.694C349.321 255.204 349.961 252.638 350.361 250.028C351.511 244.231 352.084 241.984 353.462 241.3C355.525 240.292 363.076 243.535 369.05 246.426C369.201 246.499 369.338 246.601 369.445 246.726C369.557 246.851 369.645 246.997 369.697 247.155C369.752 247.314 369.777 247.481 369.769 247.649C369.76 247.816 369.716 247.98 369.645 248.131C369.568 248.282 369.469 248.417 369.343 248.528C369.217 248.64 369.072 248.726 368.915 248.781C368.591 248.892 368.243 248.872 367.938 248.724C362.478 246.084 355.758 243.369 354.485 243.627C353.783 245.885 353.24 248.189 352.861 250.523C350.504 262.368 350.208 262.425 339.109 255.855C336.848 254.351 334.422 253.109 331.879 252.154C330.798 252.729 327.799 259.167 325.755 264.81C325.639 265.129 325.403 265.389 325.096 265.534C324.791 265.678 324.437 265.696 324.119 265.581C323.804 265.467 323.54 265.231 323.398 264.925C323.252 264.618 323.233 264.267 323.348 263.948Z" fill="#FF7A59"/>
<path d="M229.008 262.828C228.567 258.537 227.693 254.302 226.399 250.187C223.755 250.793 221.169 251.621 218.665 252.663C211.02 255.507 208.239 256.355 207.11 254.654C205.673 252.477 207.067 238.6 205.843 236.876C200.927 237.708 196.111 239.057 191.478 240.898C191.164 240.997 190.824 240.97 190.529 240.824C190.234 240.678 190.007 240.423 189.895 240.113C189.784 239.803 189.797 239.462 189.931 239.161C190.066 238.861 190.311 238.624 190.616 238.499C195.825 236.626 204.895 233.641 207.133 234.707C208.857 235.535 209.006 238.643 208.946 246.067C208.853 248.367 208.922 250.672 209.152 252.962C212.105 252.334 214.99 251.428 217.771 250.256C224.56 247.73 226.864 247.001 228.051 248.147C229.683 249.713 231.027 258.685 231.533 262.469C231.574 262.801 231.483 263.135 231.279 263.4C231.076 263.666 230.777 263.84 230.447 263.888C230.116 263.935 229.78 263.85 229.51 263.652C229.241 263.454 229.061 263.158 229.008 262.828Z" fill="#FF7A59"/>
<path d="M254.532 242.116C251.693 238.838 248.317 235.508 248.285 235.468C248.045 235.23 247.908 234.908 247.906 234.57C247.904 234.233 248.036 233.908 248.272 233.668C248.51 233.427 248.832 233.291 249.17 233.288C249.507 233.286 249.832 233.418 250.072 233.655C250.107 233.686 253.552 237.102 256.459 240.446C256.668 240.704 256.769 241.032 256.741 241.362C256.712 241.692 256.555 241.999 256.305 242.216C256.054 242.433 255.729 242.544 255.398 242.525C255.067 242.506 254.756 242.36 254.532 242.116Z" fill="#1F2A32"/>
<path d="M331.395 296.834C331.395 296.834 324.733 295.279 320.812 294.587C320.648 294.554 320.491 294.491 320.351 294.401C320.209 294.307 320.088 294.189 319.998 294.052C319.901 293.915 319.836 293.756 319.8 293.591C319.767 293.429 319.764 293.259 319.794 293.095C319.827 292.93 319.89 292.773 319.981 292.634C320.074 292.491 320.192 292.37 320.33 292.28C320.467 292.184 320.626 292.118 320.79 292.085C320.952 292.049 321.122 292.046 321.287 292.077C321.575 292.134 328.492 293.454 331.727 294.326C332.027 294.409 332.287 294.595 332.46 294.851C332.633 295.108 332.704 295.419 332.663 295.726C332.625 296.033 332.471 296.316 332.238 296.519C332.005 296.725 331.708 296.834 331.395 296.834Z" fill="#1F2A32"/>
<path d="M328.9 49.2475L330.558 59.1706C330.632 59.4867 330.827 59.7625 331.095 59.9425C331.367 60.1222 331.694 60.1924 332.012 60.1395C332.333 60.086 332.621 59.9128 332.819 59.6549C333.016 59.3973 333.107 59.0741 333.077 58.7514L331.414 48.828C331.345 48.507 331.156 48.2249 330.887 48.04C330.613 47.8553 330.281 47.7823 329.957 47.8364C329.633 47.8904 329.342 48.0671 329.145 48.33C328.95 48.5928 328.859 48.9213 328.9 49.2475Z" fill="#1F2A32"/>
<path d="M350.631 57.2859L350.755 45.1592C350.757 44.9916 350.724 44.8256 350.661 44.6705C350.598 44.515 350.505 44.3734 350.39 44.2537C350.274 44.1344 350.132 44.0394 349.978 43.9733C349.824 43.908 349.66 43.8734 349.492 43.8721C349.158 43.8798 348.837 44.0142 348.598 44.2485C348.359 44.4826 348.219 44.7987 348.205 45.1334L348.082 57.2601C348.093 57.5877 348.23 57.8986 348.466 58.1274C348.702 58.3565 349.015 58.4861 349.341 58.4893C349.671 58.4929 349.989 58.3694 350.228 58.1455C350.466 57.9214 350.612 57.6135 350.631 57.2859Z" fill="#1F2A32"/>
<path d="M367.809 61.3441L371.135 49.4359C371.214 49.1143 371.165 48.7746 370.995 48.4895C370.827 48.2039 370.558 47.9945 370.24 47.9059C369.922 47.8173 369.579 47.856 369.288 48.0134C368.997 48.1718 368.78 48.4363 368.679 48.7518L365.353 60.6573C365.268 60.9806 365.318 61.323 365.485 61.6117C365.652 61.9 365.924 62.1121 366.245 62.2019C366.566 62.2913 366.909 62.2521 367.203 62.0918C367.494 61.9313 367.71 61.6632 367.809 61.3441Z" fill="#1F2A32"/>
<path d="M380.988 69.1487C381.174 69.1492 381.358 69.108 381.528 69.0285C381.695 68.9492 381.846 68.8334 381.967 68.6891L387.847 61.6157C388.05 61.3545 388.146 61.0244 388.108 60.6949C388.075 60.3656 387.913 60.0627 387.658 59.8509C387.405 59.6388 387.076 59.534 386.747 59.5589C386.418 59.5836 386.11 59.7362 385.888 59.9839L380.008 67.057C379.857 67.2452 379.767 67.4711 379.739 67.709C379.712 67.9468 379.75 68.188 379.852 68.4051C379.956 68.6216 380.112 68.8059 380.315 68.9374C380.516 69.0688 380.749 69.1418 380.988 69.1487Z" fill="#1F2A32"/>
<path d="M316.298 122.606L313.425 126.137C313.213 126.398 313.112 126.734 313.148 127.07C313.181 127.406 313.345 127.715 313.606 127.928C313.872 128.141 314.204 128.242 314.542 128.208C314.876 128.174 315.186 128.007 315.4 127.746L318.273 124.218C318.468 123.954 318.553 123.626 318.512 123.301C318.471 122.975 318.306 122.679 318.054 122.472C317.798 122.264 317.477 122.163 317.148 122.188C316.822 122.213 316.517 122.362 316.298 122.606Z" fill="#1F2A32"/>
<path d="M328.624 129.218L326.572 133.284C326.435 133.583 326.421 133.924 326.528 134.235C326.638 134.546 326.865 134.803 327.159 134.951C327.45 135.099 327.793 135.128 328.106 135.032C328.421 134.935 328.687 134.721 328.846 134.433L330.899 130.367C330.976 130.217 331.022 130.052 331.033 129.884C331.044 129.715 331.025 129.546 330.973 129.385C330.918 129.225 330.833 129.076 330.723 128.949C330.611 128.822 330.476 128.718 330.325 128.644C330.024 128.5 329.675 128.479 329.357 128.586C329.039 128.693 328.775 128.92 328.624 129.218Z" fill="#1F2A32"/>
<path d="M344.743 133.573C344.416 133.485 344.068 133.53 343.774 133.698C343.486 133.866 343.269 134.144 343.181 134.469L341.985 138.865C341.903 139.189 341.949 139.533 342.117 139.822C342.287 140.111 342.564 140.323 342.885 140.41C343.206 140.498 343.552 140.455 343.843 140.29C344.133 140.126 344.35 139.853 344.441 139.532L345.637 135.136C345.681 134.975 345.692 134.806 345.67 134.641C345.651 134.475 345.596 134.315 345.514 134.17C345.429 134.024 345.322 133.897 345.187 133.795C345.055 133.692 344.904 133.617 344.743 133.573Z" fill="#1F2A32"/>
<path d="M357.516 135.843V140.399C357.518 140.738 357.658 141.062 357.9 141.3C358.141 141.538 358.465 141.671 358.802 141.669C358.97 141.668 359.137 141.635 359.288 141.57C359.445 141.505 359.582 141.411 359.7 141.292C359.818 141.173 359.911 141.032 359.974 140.878C360.037 140.723 360.067 140.557 360.065 140.391V135.843C360.051 135.515 359.905 135.206 359.672 134.98C359.434 134.754 359.121 134.628 358.789 134.628C358.462 134.628 358.149 134.754 357.911 134.98C357.672 135.206 357.532 135.515 357.516 135.843Z" fill="#1F2A32"/>
<path d="M221.16 354.856L219.533 356.162C219.329 356.329 219.181 356.551 219.11 356.807C219.039 357.062 219.048 357.328 219.135 357.578C219.223 357.825 219.384 358.041 219.599 358.192C219.813 358.349 220.069 358.428 220.332 358.431C220.907 358.431 220.984 358.275 222.763 356.842C223.027 356.631 223.195 356.324 223.231 355.983C223.267 355.649 223.168 355.311 222.955 355.048C222.743 354.782 222.434 354.617 222.098 354.579C221.761 354.546 221.423 354.642 221.16 354.856Z" fill="#1F2A32"/>
<path d="M225.673 364.223C226.475 364.223 226.722 363.691 228.172 362.017C228.381 361.762 228.481 361.433 228.452 361.103C228.423 360.774 228.268 360.47 228.018 360.25C227.768 360.036 227.444 359.923 227.114 359.94C226.783 359.959 226.473 360.105 226.248 360.346L224.711 362.113C224.55 362.297 224.446 362.525 224.412 362.769C224.377 363.01 224.412 363.257 224.513 363.477C224.615 363.702 224.778 363.888 224.983 364.02C225.189 364.152 225.429 364.223 225.673 364.223Z" fill="#1F2A32"/>
<path d="M231.858 368.183C232.877 368.183 233.119 367.263 234.119 365.425C234.199 365.277 234.249 365.118 234.267 364.95C234.285 364.783 234.269 364.613 234.222 364.454C234.174 364.292 234.096 364.144 233.991 364.012C233.886 363.88 233.755 363.77 233.608 363.694C233.461 363.614 233.3 363.562 233.133 363.545C232.967 363.526 232.798 363.543 232.637 363.587C232.477 363.636 232.327 363.716 232.196 363.82C232.066 363.927 231.958 364.056 231.878 364.204L230.728 366.295C230.623 366.49 230.569 366.709 230.575 366.929C230.579 367.154 230.641 367.368 230.755 367.56C230.869 367.752 231.031 367.908 231.224 368.018C231.417 368.128 231.636 368.183 231.858 368.183Z" fill="#1F2A32"/>
<path d="M239.164 370.158C239.487 370.254 239.835 370.216 240.132 370.057C240.428 369.892 240.648 369.62 240.744 369.296L241.39 367.088C241.48 366.767 241.439 366.418 241.277 366.125C241.114 365.831 240.842 365.617 240.52 365.521C240.198 365.428 239.853 365.461 239.558 365.622C239.262 365.782 239.041 366.048 238.942 366.369L238.296 368.58C238.203 368.907 238.241 369.253 238.404 369.549C238.566 369.845 238.84 370.065 239.164 370.158Z" fill="#1F2A32"/>
<path d="M352.462 79.1288C347.863 77.8532 341.964 84.8747 339.286 94.7262C336.652 104.586 338.18 113.596 342.814 114.837C347.41 116.069 353.268 109.091 355.946 99.2398C358.624 89.3883 357.049 80.3613 352.462 79.1288ZM352.462 96.0418C344.068 102.164 344.738 101.94 344.046 101.94C343.78 101.935 343.522 101.846 343.311 101.689C343.097 101.532 342.938 101.312 342.853 101.061C342.771 100.809 342.765 100.538 342.842 100.284C342.916 100.03 343.07 99.8058 343.278 99.6418L350.972 93.9878C351.104 93.8802 351.26 93.8004 351.425 93.7538C351.589 93.7074 351.762 93.6945 351.932 93.7167C352.102 93.7389 352.264 93.7952 352.412 93.8827C352.561 93.9702 352.687 94.0866 352.788 94.2254C352.893 94.3637 352.964 94.5209 353 94.688C353.038 94.8551 353.043 95.0285 353.013 95.1967C352.98 95.3655 352.917 95.5263 352.821 95.6687C352.728 95.8116 352.604 95.9477 352.462 96.0418ZM353.181 88.2246C344.4 94.8096 344.436 94.7692 343.747 94.7692C343.481 94.7629 343.226 94.6749 343.012 94.5174C342.798 94.3596 342.642 94.1401 342.557 93.8887C342.474 93.6374 342.469 93.366 342.546 93.1125C342.62 92.8587 342.776 92.6348 342.982 92.471L351.693 86.1506C351.828 86.0433 351.987 85.9648 352.154 85.9198C352.319 85.8748 352.495 85.8641 352.668 85.8888C352.84 85.9135 353.002 85.9722 353.15 86.0622C353.299 86.1525 353.428 86.2713 353.529 86.4126C353.631 86.5534 353.702 86.7133 353.735 86.8826C353.773 87.0519 353.776 87.227 353.746 87.3971C353.713 87.5675 353.644 87.7291 353.548 87.8729C353.452 88.0167 353.329 88.1305 353.181 88.2246Z" fill="#1F2A32"/>
<path d="M239.182 344.706C239.709 344.149 240.381 343.751 241.122 343.551C241.863 343.351 242.644 343.362 243.38 343.581C244.116 343.795 244.776 344.215 245.29 344.786C245.803 345.356 246.148 346.056 246.288 346.811C246.427 347.565 246.355 348.345 246.08 349.061C245.804 349.774 245.336 350.402 244.726 350.866C244.117 351.335 243.391 351.623 242.628 351.7C241.865 351.78 241.095 351.645 240.403 351.316C239.388 350.583 238.695 349.489 238.468 348.257C238.24 347.025 238.496 345.754 239.182 344.706Z" fill="#1F2A32"/>
<path d="M161.23 125.312C160.707 123.479 161.37 121.71 162.712 121.362C164.054 121.014 165.571 122.224 166.096 124.054C166.622 125.884 165.955 127.657 164.614 128.004C163.272 128.352 161.755 127.148 161.23 125.312Z" fill="#1F2A32"/>
<path d="M291.982 245.507C294.111 241.728 296.114 237.425 296.133 237.385C296.293 237.109 296.55 236.903 296.852 236.806C297.157 236.711 297.486 236.732 297.774 236.867C298.062 237.001 298.29 237.239 298.411 237.534C298.534 237.827 298.543 238.157 298.433 238.456C298.411 238.502 296.369 242.889 294.191 246.759C294.01 247.019 293.738 247.202 293.428 247.272C293.118 247.342 292.791 247.294 292.517 247.137C292.24 246.981 292.034 246.727 291.933 246.425C291.837 246.124 291.853 245.796 291.982 245.507Z" fill="#1F2A32"/>
<path d="M546.047 193.035C537.392 186.054 528.055 179.96 518.18 174.846C515.129 173.187 511.661 172.457 508.198 172.748C504.741 173.038 501.443 174.336 498.71 176.481C494.61 179.541 447.219 221.756 442.659 228.194C438.096 234.633 441.007 241.749 445.265 246.265C446.741 247.825 457.401 255.197 469.548 263.291C463.125 274.639 454.375 289.799 448.906 298.673C447.202 298.36 445.449 298.45 443.786 298.933C442.126 299.416 440.598 300.281 439.328 301.458C438.057 302.635 437.08 304.092 436.471 305.713C435.865 307.335 435.645 309.077 435.829 310.798C429.905 313.78 421.342 317.6 410.907 321.864C418.397 282.295 425.381 240.847 426.16 234.917C428.311 218.561 417.574 207.681 401.237 203.889C393.711 202.145 361.177 199.737 332.052 198.108C332.131 197.994 341.4 161.909 342.138 158.904C351.659 160.205 361.348 159.463 370.559 156.728C379.772 153.993 388.292 149.327 395.56 143.041C402.829 136.755 408.673 128.992 412.707 120.271C416.74 111.55 418.872 102.069 418.954 92.4606C419.136 80.0357 415.912 67.7987 409.628 57.0771C403.345 46.3558 394.249 37.5593 383.32 31.642C372.394 25.725 360.055 22.913 347.642 23.5115C335.232 24.11 323.219 28.0958 312.91 35.0369C302.607 41.9783 294.395 51.6089 289.176 62.8853C283.952 74.1614 281.919 86.6519 283.293 99.0019C284.668 111.352 289.398 123.09 296.971 132.942C304.542 142.795 314.669 150.385 326.251 154.89C326.251 154.89 312.845 196.942 312.889 197.152C305.06 196.822 259.238 195.678 242.636 195.715C244.767 188.03 248.528 174.033 250.654 163.593C252.988 162.183 254.749 159.995 255.628 157.413C256.506 154.832 256.446 152.024 255.457 149.483C254.468 146.942 252.615 144.832 250.222 143.524C247.83 142.216 245.053 141.794 242.38 142.333C233.761 135.458 221.778 126.43 217.288 123.061C219.949 121.855 222.484 120.387 224.855 118.679C227.728 115.976 229.141 108.951 225.521 99.9189C222.226 91.6877 216.365 87.7689 212.556 88.2946C203.034 89.5475 157.725 103.628 157.662 103.654C152.53 105.774 151.519 117.386 154.289 126.586C157.863 138.431 165.243 144.217 169.754 144.631C172.929 144.918 207.732 127.655 207.784 127.681C216.032 134.096 226.949 142.666 234.361 148.555C233.63 150.01 233.215 151.604 233.146 153.231C233.077 154.858 233.354 156.481 233.96 157.993C234.565 159.505 235.485 160.87 236.658 162C237.832 163.129 239.231 163.996 240.765 164.544C237.849 176.432 232.508 195.399 232.618 195.603C217.927 195.246 203.229 195.671 188.584 196.876C173.202 198.695 170.139 206.713 167.898 212.562C164.893 220.308 156.668 251.123 153.976 261.228C146.793 258.237 140.76 255.878 136.666 254.522C129.567 252.175 118.782 257.809 112.102 267.339C106.52 275.312 105.391 287.308 109.588 294.08C111.134 295.847 112.826 297.482 114.645 298.964C112.2 302.22 101.662 316.305 94.8214 326.309C92.2279 326.671 89.8435 327.933 88.0825 329.87C86.3212 331.807 85.2945 334.301 85.1806 336.919C85.0665 339.534 85.8726 342.108 87.4583 344.19C89.0439 346.276 91.3098 347.738 93.8616 348.325C100.86 360.201 113.111 376.73 117.503 382.568C95.7979 394.158 34.0549 427.589 26.5019 436.938C25.1072 440.507 24.8178 444.409 25.6717 448.143C26.3151 452.043 41.4728 455.549 108.83 460.249C119.333 461.229 296.025 473.195 311.179 468.226C319.712 465.427 386.163 405.639 393.346 397.155C396.293 393.665 402.409 365.782 408.572 334.052C417.193 330.531 431.475 324.297 441.3 319.372C443.358 320.585 445.751 321.112 448.13 320.868C450.509 320.623 452.748 319.625 454.517 318.014C456.287 316.406 457.495 314.274 457.961 311.931C458.43 309.582 458.134 307.148 457.119 304.986C464.187 293.366 475.313 273.533 477.936 268.838C490.602 277.155 503.072 284.901 507.002 287.069C515.733 291.893 522.738 287.094 526.521 277.707C532.956 261.748 544.537 231.001 549.12 217.685C554.654 201.568 549.679 196.635 546.047 193.035ZM173.075 139.348C172.816 139.973 172.425 140.535 171.929 140.996C171.433 141.456 170.844 141.806 170.202 142.019C167.439 142.818 160.118 137.104 156.719 125.842C153.798 116.14 155.645 106.719 158.492 106.044C164.02 104.734 168.743 113.189 171.61 120.527C174.552 128.025 175.106 135.239 173.075 139.348ZM180.361 137.42C178.637 138.201 177.08 138.905 175.736 139.517C179.901 128.844 171.096 108.725 163.546 104.435L167.821 103.137C172.966 107.294 176.894 112.761 179.192 118.964C181.229 124.9 181.633 131.274 180.361 137.42ZM235.732 146.432C227.13 139.554 214.865 129.996 210.321 126.462C211.898 125.71 213.363 125 214.733 124.328C222.203 129.93 232.175 137.515 239.573 143.341C238.085 144.083 236.775 145.137 235.732 146.432ZM285.434 92.4636C285.81 75.344 292.875 59.0524 305.115 47.078C317.355 35.1039 333.799 28.3985 350.921 28.3985C368.048 28.3985 384.489 35.1039 396.729 47.078C408.97 59.0524 416.035 75.344 416.411 92.4636C416.035 109.583 408.97 125.875 396.729 137.849C384.489 149.823 368.048 156.529 350.921 156.529C333.799 156.529 317.355 149.823 305.115 137.849C292.875 125.875 285.81 109.583 285.434 92.4636ZM328.652 155.758C332.227 156.98 335.898 157.904 339.625 158.519C339.188 160.28 337.685 166.379 335.937 173.372C332.595 172.387 326.388 170.456 324.141 169.752L328.652 155.758ZM323.359 172.18C325.62 172.884 331.98 174.866 335.314 175.849C333.251 184.088 329.813 197.715 329.95 197.988C324.887 197.7 319.946 197.462 315.281 197.255L323.359 172.18ZM242.868 165.092C244.628 165.404 246.437 165.271 248.132 164.705C245.357 177.891 240.11 195.537 240.142 195.678C238.338 195.655 236.637 195.635 234.844 195.618C234.879 195.56 239.964 177.438 242.868 165.092ZM238.309 302.994C233.054 304.959 199.162 320.519 201.868 360.969C171.929 341.293 143.216 319.811 115.889 296.642C115.085 287.568 117.706 278.522 123.235 271.28C128.219 265.004 135.399 260.854 143.326 259.668C166.39 268.542 211.381 289.368 238.309 302.994ZM205.149 362.975C201.012 318.332 241.268 304.682 241.438 304.635C241.438 304.635 249.381 308.718 252.323 310.348C241.693 310.51 227.329 319.139 220.008 333.02C211.435 349.28 213.446 363.54 216.319 370.133C212.585 367.845 205.152 363.021 205.149 362.975ZM207.218 367.332C184.082 365.809 150.195 362.837 144.785 361.529C145.466 356.645 149.982 337.663 152.097 328.973C168.096 341.049 188 355.07 207.218 367.332ZM264.404 316.107C265.083 315.561 265.903 315.226 266.769 315.136C267.634 315.048 268.507 315.207 269.282 315.605C270.057 315.997 270.702 316.606 271.14 317.361C271.577 318.11 271.788 318.974 271.748 319.841C271.742 320.881 271.361 321.886 270.675 322.665C269.989 323.444 269.043 323.954 268.013 324.092C267.458 321.18 266.221 318.445 264.404 316.107ZM227.541 327.436C242.914 308.762 265.574 306.462 266.039 329.733C266.036 335.717 264.808 341.636 262.43 347.126C259.546 340.5 254.58 334.99 248.284 331.437C241.989 327.884 234.707 326.479 227.541 327.436ZM261.094 350.131C259.061 353.788 256.83 357.331 254.412 360.747C231.546 364.218 220.916 345.57 219.117 342.006C220.433 337.753 222.543 333.788 225.335 330.32C225.369 330.32 250.531 324.665 261.017 350.026C261.031 350.065 261.074 350.095 261.094 350.131ZM271.374 309.363C269.673 309.914 263.554 309.829 262.755 308.386C260.586 304.514 258.733 276.382 260.373 274.771C263.137 272.096 275.8 272.435 277.202 274.73C279.15 277.858 273.072 308.808 271.374 309.363ZM218.043 345.217C230.736 366.295 250.947 363.694 251.97 363.603C242.685 373.802 231.058 378.804 223.772 374.625C216.219 370.276 214.257 357.923 218.043 345.217ZM268.015 336.088C293.898 336.724 312.979 336.258 314.724 336.376C317.358 336.59 319.693 333.791 318.423 329.788C315.064 319.504 285.958 271.522 274.517 252.991C270.862 247.084 266.783 249.04 265.323 251.08C256.782 263.147 244.078 281.845 233.721 297.737C214.618 288.276 189.144 276.478 168.329 267.37C169.478 262.931 177.436 232.165 179.761 225.916C182.754 217.843 186.851 215.162 197.286 214.447C238.599 211.611 361.35 218.047 383.049 220.193C400.779 221.94 401.49 226.275 401.339 235.132C401.169 244.668 377.78 360.395 374.888 372.134C367.162 372.798 298.075 370.41 250.609 368.547C259.595 359.764 265.671 348.435 268.015 336.088ZM104.719 329.955C109.565 322.958 116.903 313.059 122.531 305.669C127.165 309.516 132.86 314.11 139.372 319.199C132.334 343.705 127.306 368.106 125.66 376.334C117.253 365.09 108.781 353.229 103.88 345.691C104.974 344.717 105.865 343.532 106.5 342.215C107.135 340.892 107.503 339.46 107.58 337.995C107.658 336.532 107.446 335.067 106.955 333.687C106.463 332.304 105.703 331.042 104.719 329.955ZM113.165 294.187C112.659 293.745 112.185 293.265 111.749 292.749C108.419 287.579 108.528 276.898 114.188 268.815C120.158 260.294 129.917 254.999 135.859 256.956C136.761 257.243 137.807 257.631 138.852 258.007C131.157 260.319 124.454 265.132 119.803 271.685C115.153 278.237 112.808 286.161 113.165 294.187ZM116.567 300.646C117.768 301.68 119.092 302.808 120.56 304.037C118.431 306.836 109.051 319.227 102.822 328.229C101.364 327.206 99.6793 326.547 97.9123 326.311C103.288 318.563 110.881 308.227 116.567 300.646ZM96.9443 348.567C98.6723 348.476 100.356 347.985 101.86 347.129C107.543 356.151 117.219 369.354 124.39 378.911C123.58 379.339 121.991 380.179 119.793 381.356C111.039 369.757 102.386 357.396 96.9443 348.567ZM307.453 456.029C299.219 459.396 134.914 452.915 38.1778 441.789C29.5588 440.798 28.7513 440.121 28.9008 438.03C38.6859 427.01 126.145 380.81 126.185 380.777C126.292 380.81 171.291 382.415 213.748 384.676C299.8 389.252 382.618 391.05 385.551 390.512C374.828 399.47 320.697 450.607 307.453 456.029ZM127.892 378.173C129.148 371.758 134.247 346.473 141.541 320.876C144.211 322.95 146.996 325.088 149.896 327.291C149.402 329.302 142.312 358.321 142.162 362.253C142.104 363.825 142.05 365.312 210.484 369.683C210.513 369.683 222.278 376.741 222.51 376.837C232.437 380.766 241.894 375.78 247.962 370.849C248.077 370.893 351.305 374.691 365.504 374.691C376.828 374.691 376.996 374.137 377.158 373.563C379.051 367.085 403.712 245.717 403.899 235.17C404.086 224.623 402.107 219.498 383.309 217.645C361.564 215.502 238.547 209.046 197.139 211.899C187.239 212.577 181.163 214.869 177.399 225.019C175.058 231.32 167.45 260.667 165.988 266.333C162.635 264.874 159.406 263.489 156.372 262.213C158.481 254.321 167.378 220.998 170.294 213.467C172.547 207.65 174.995 200.355 188.908 199.39C242.662 195.692 368.136 201.539 400.749 206.363C403.553 206.78 406.234 207.783 408.624 209.307C413.508 211.996 416.957 219.038 415.16 232.791C411.919 257.786 388.978 379.106 386.273 387.971C346.901 390.065 149.905 378.112 127.892 378.173ZM392.564 393.11C391.198 391.84 389.757 390.644 388.256 389.532C396.046 359.128 414.221 259.831 417.692 233.127C418.757 224.916 418.183 218.702 415.947 214.039C419.007 216.411 421.35 219.585 422.711 223.209C424.074 226.833 424.404 230.764 423.666 234.564C421.674 249.512 400.022 373.549 392.564 393.11ZM409.173 331.031C410.38 324.778 410.306 324.852 410.471 324.783C416.526 322.327 427.998 317.553 436.403 313.361C436.943 314.96 437.84 316.414 439.02 317.622C430.731 321.724 419.193 326.888 409.173 331.031ZM455.601 302.569C454.49 301.205 453.069 300.121 451.461 299.411C458.216 288.43 468.673 270.036 471.694 264.692C473.06 265.6 474.438 266.511 475.818 267.422C469.63 278.475 461.243 293.201 455.601 302.569ZM546.711 216.838C541.703 231.403 530.522 261.024 524.227 276.596C520.114 286.764 514.366 287.958 508.168 284.786C498.767 279.979 449.79 247.323 447.128 244.504C445.405 242.668 440.123 236.172 444.749 229.659C448.912 223.787 494.855 182.543 500.246 178.521C502.579 176.613 505.438 175.459 508.439 175.212C511.447 174.964 514.454 175.634 517.069 177.133C526.667 182.165 535.768 188.095 544.252 194.842C547.753 198.318 551.726 202.251 546.711 216.838Z" fill="#1F2A32"/>
<path d="M192.411 389.966C187.918 389.966 184.398 392.551 184.398 395.857C184.398 399.16 187.918 401.751 192.411 401.751C196.905 401.751 200.415 399.166 200.415 395.857C200.415 392.545 196.902 389.966 192.411 389.966ZM192.176 391.955C194.908 391.955 197.715 393.253 197.499 394.899C197.042 398.439 188.921 398.346 187.493 396.886C185.002 394.342 189.208 391.955 192.176 391.955Z" fill="#1F2A32"/>
<path d="M233.916 391.95C229.425 391.95 225.906 394.534 225.906 397.838C225.906 401.142 229.425 403.735 233.916 403.735C238.406 403.735 241.923 401.147 241.923 397.838C241.923 394.529 238.409 391.95 233.916 391.95ZM233.683 393.934C236.416 393.934 239.222 395.234 239.007 396.88C238.547 400.423 230.428 400.329 229 398.87C226.518 396.323 230.724 393.934 233.683 393.934Z" fill="#1F2A32"/>
<path d="M276.599 393.931C272.109 393.931 268.59 396.518 268.59 399.822C268.59 403.125 272.109 405.713 276.599 405.713C281.091 405.713 284.605 403.128 284.605 399.822C284.605 396.515 281.091 393.931 276.599 393.931ZM276.368 395.917C279.098 395.917 281.903 397.218 281.691 398.864C281.23 402.404 273.112 402.313 271.681 400.853C269.202 398.307 273.408 395.917 276.368 395.917Z" fill="#1F2A32"/>
<path d="M324.258 396.88C319.766 396.88 316.246 399.465 316.246 402.769C316.246 406.072 319.766 408.662 324.258 408.662C328.747 408.662 332.262 406.075 332.262 402.769C332.262 399.462 328.747 396.88 324.258 396.88ZM324.022 398.864C326.752 398.864 329.559 400.165 329.345 401.811C328.887 405.351 320.765 405.26 319.338 403.8C316.855 401.254 321.062 398.864 324.022 398.864Z" fill="#1F2A32"/>
<path d="M115.576 401.806C111.086 401.806 107.566 404.393 107.566 407.697C107.566 411 111.086 413.59 115.576 413.59C120.067 413.59 123.58 411.003 123.58 407.697C123.58 404.39 120.075 401.806 115.576 401.806ZM115.341 403.792C118.073 403.792 120.88 405.09 120.667 406.739C120.208 410.279 112.086 410.188 110.658 408.728C108.176 406.187 112.381 403.792 115.341 403.792Z" fill="#1F2A32"/>
<path d="M162.284 404.626C157.793 404.626 154.273 407.211 154.273 410.515C154.273 413.821 157.793 416.411 162.284 416.411C166.774 416.411 170.291 413.826 170.291 410.515C170.291 407.205 166.774 404.626 162.284 404.626ZM162.051 406.613C164.783 406.613 167.587 407.913 167.374 409.56C166.915 413.099 158.796 413.006 157.365 411.546C154.886 409 159.092 406.613 162.051 406.613Z" fill="#1F2A32"/>
<path d="M203.787 406.607C199.297 406.607 195.777 409.195 195.777 412.498C195.777 415.802 199.297 418.395 203.787 418.395C208.277 418.395 211.794 415.807 211.794 412.498C211.794 409.189 208.275 406.607 203.787 406.607ZM203.554 408.594C206.287 408.594 209.091 409.894 208.878 411.541C208.418 415.08 200.299 414.99 198.869 413.53C196.389 410.984 200.595 408.594 203.554 408.594Z" fill="#1F2A32"/>
<path d="M246.487 408.591C241.996 408.591 238.477 411.176 238.477 414.482C238.477 417.786 241.996 420.373 246.487 420.373C250.977 420.373 254.493 417.788 254.493 414.482C254.493 411.173 250.963 408.591 246.487 408.591ZM246.254 410.578C248.986 410.578 251.79 411.878 251.578 413.525C251.118 417.064 242.996 416.971 241.568 415.511C239.074 412.968 243.295 410.578 246.254 410.578Z" fill="#1F2A32"/>
<path d="M294.13 411.538C289.639 411.538 286.121 414.125 286.121 417.429C286.121 420.733 289.639 423.32 294.13 423.32C298.622 423.32 302.137 420.735 302.137 417.429C302.137 414.123 298.622 411.538 294.13 411.538ZM293.897 413.525C296.63 413.525 299.434 414.825 299.22 416.471C298.762 420.011 290.643 419.92 289.211 418.461C286.733 415.914 290.945 413.525 293.897 413.525Z" fill="#1F2A32"/>
<path d="M144.839 155.397C144.573 155.392 144.316 155.305 144.101 155.148C143.887 154.99 143.727 154.77 143.644 154.518C143.56 154.266 143.556 153.994 143.634 153.74C143.711 153.485 143.865 153.261 144.075 153.098L150.571 148.254C150.842 148.053 151.182 147.966 151.517 148.015C151.852 148.064 152.154 148.243 152.356 148.514C152.559 148.786 152.644 149.126 152.596 149.461C152.547 149.796 152.368 150.098 152.096 150.3C145.138 155.494 145.437 155.397 144.839 155.397Z" fill="#FF7A59"/>
<path d="M133.725 161.233C136.337 159.423 138.79 157.582 138.79 157.582C139.061 157.39 139.395 157.312 139.723 157.363C140.051 157.414 140.346 157.591 140.545 157.856C140.745 158.121 140.834 158.453 140.792 158.782C140.751 159.112 140.583 159.411 140.324 159.619C140.324 159.619 137.833 161.489 135.179 163.33C134.9 163.523 134.557 163.598 134.224 163.537C133.891 163.477 133.596 163.287 133.403 163.009C133.21 162.731 133.136 162.387 133.196 162.054C133.257 161.722 133.447 161.426 133.725 161.233Z" fill="#FF7A59"/>
<path d="M121.693 173.137C121.427 173.126 121.172 173.033 120.961 172.872C120.749 172.711 120.593 172.488 120.513 172.235C120.433 171.981 120.433 171.709 120.513 171.456C120.593 171.202 120.749 170.98 120.96 170.818C123.833 168.807 125.637 167.371 128.074 165.684C128.211 165.576 128.368 165.497 128.537 165.453C128.705 165.408 128.881 165.399 129.053 165.425C129.226 165.451 129.391 165.512 129.539 165.605C129.686 165.697 129.814 165.819 129.912 165.963C130.011 166.107 130.079 166.27 130.112 166.44C130.145 166.612 130.143 166.788 130.105 166.958C130.068 167.128 129.995 167.289 129.893 167.43C129.791 167.571 129.66 167.69 129.51 167.779C127.06 169.782 124.445 171.574 121.693 173.137Z" fill="#FF7A59"/>
<path d="M106.962 183.642C106.697 183.631 106.441 183.539 106.229 183.378C106.017 183.216 105.861 182.993 105.78 182.74C105.699 182.486 105.698 182.214 105.778 181.96C105.858 181.706 106.013 181.483 106.224 181.32C109.428 179.04 111.476 177.456 114.449 175.365C114.726 175.179 115.065 175.108 115.393 175.169C115.721 175.229 116.013 175.416 116.205 175.689C116.397 175.962 116.474 176.299 116.421 176.629C116.367 176.958 116.186 177.253 115.918 177.451C113.103 179.75 110.108 181.821 106.962 183.642Z" fill="#FF7A59"/>
<path d="M92.2265 195.028C91.9603 195.019 91.7027 194.929 91.49 194.768C91.2774 194.608 91.1193 194.386 91.0381 194.131C90.9566 193.878 90.9561 193.605 91.0365 193.351C91.1163 193.097 91.2732 192.873 91.4851 192.712C95.108 190.126 96.0821 189.299 99.8944 186.578C100.17 186.388 100.51 186.315 100.84 186.373C101.17 186.432 101.464 186.617 101.658 186.891C101.851 187.164 101.93 187.502 101.877 187.833C101.823 188.164 101.641 188.46 101.371 188.658C95.516 192.83 93.0021 195.059 92.2265 195.028Z" fill="#FF7A59"/>
<path d="M76.1453 207.231C75.8819 207.221 75.6278 207.13 75.4176 206.972C75.2072 206.812 75.0508 206.593 74.9693 206.342C74.8878 206.092 74.8853 205.822 74.9619 205.57C75.0387 205.318 75.191 205.095 75.3984 204.932C78.8458 202.453 80.2825 201.261 84.0605 198.554C84.1954 198.448 84.3516 198.37 84.5176 198.326C84.6839 198.282 84.8573 198.271 85.0277 198.296C85.1981 198.32 85.3616 198.379 85.5086 198.468C85.6557 198.557 85.7833 198.675 85.8835 198.815C85.9839 198.955 86.0549 199.114 86.0923 199.281C86.1296 199.45 86.1323 199.623 86.1008 199.792C86.0692 199.961 86.0039 200.123 85.9087 200.266C85.8132 200.409 85.6897 200.531 85.5457 200.626C78.415 205.731 76.9786 207.259 76.1453 207.231Z" fill="#FF7A59"/>
<path d="M58.6977 219.9C58.4345 219.889 58.1818 219.798 57.9717 219.64C57.762 219.481 57.6062 219.262 57.5244 219.012C57.4429 218.761 57.4399 218.492 57.5154 218.24C57.5911 217.988 57.7417 217.766 57.9478 217.602C61.3781 215.111 62.1481 214.41 66.8886 210.994C67.1627 210.811 67.4975 210.742 67.822 210.801C68.1464 210.859 68.4358 211.041 68.6287 211.309C68.8222 211.575 68.9042 211.907 68.8584 212.234C68.8123 212.56 68.6419 212.856 68.3823 213.06C60.9098 218.435 59.5538 219.9 58.6977 219.9Z" fill="#FF7A59"/>
<path d="M43.7291 231.03C43.4643 231.024 43.2077 230.935 42.9951 230.777C42.7822 230.619 42.6236 230.399 42.5407 230.147C42.4581 229.896 42.4551 229.625 42.5327 229.371C42.6101 229.118 42.764 228.894 42.9734 228.732C44.516 227.583 47.2829 225.262 50.1787 223.15C50.4523 222.95 50.7942 222.868 51.1281 222.92C51.4626 222.973 51.7622 223.156 51.9614 223.43C52.1609 223.703 52.2432 224.045 52.1908 224.379C52.1381 224.714 51.9548 225.013 51.6813 225.212C50.0179 226.422 48.1047 227.939 46.6194 229.117C44.4241 230.858 44.2863 231.03 43.7291 231.03Z" fill="#FF7A59"/>
<path d="M136.027 140.793C135.738 140.787 135.459 140.683 135.237 140.498C135.014 140.314 134.86 140.059 134.801 139.776C134.742 139.493 134.779 139.198 134.908 138.94C135.037 138.681 135.251 138.474 135.513 138.351L142.87 135.09C143.025 135.016 143.192 134.972 143.363 134.964C143.534 134.956 143.705 134.982 143.866 135.041C144.028 135.1 144.175 135.191 144.3 135.308C144.425 135.425 144.524 135.567 144.594 135.724C144.663 135.88 144.7 136.05 144.702 136.221C144.704 136.393 144.672 136.562 144.608 136.721C144.542 136.88 144.446 137.024 144.324 137.144C144.203 137.265 144.058 137.36 143.899 137.423C135.906 140.957 136.417 140.793 136.027 140.793Z" fill="#FF7A59"/>
<path d="M120.457 147.087C120.164 147.078 119.883 146.97 119.661 146.78C119.438 146.589 119.288 146.329 119.233 146.042C119.179 145.754 119.225 145.456 119.362 145.198C119.5 144.94 119.722 144.737 119.991 144.622L128.384 141.335C128.695 141.227 129.036 141.244 129.335 141.382C129.634 141.52 129.868 141.768 129.988 142.074C130.109 142.382 130.106 142.723 129.98 143.027C129.855 143.332 129.616 143.576 129.314 143.708C126.454 145.063 123.492 146.192 120.457 147.087Z" fill="#FF7A59"/>
<path d="M85.6235 160.681C85.3296 160.673 85.0475 160.565 84.8245 160.374C84.6008 160.184 84.4499 159.922 84.3964 159.633C84.3429 159.344 84.3904 159.046 84.5306 158.788C84.6708 158.53 84.8952 158.328 85.1669 158.216L95.0269 154.435C95.3413 154.32 95.6882 154.333 95.9935 154.471C96.2981 154.61 96.5366 154.863 96.6565 155.176C96.7766 155.489 96.7684 155.836 96.6345 156.143C96.5006 156.45 96.2512 156.692 95.9403 156.817C92.5895 158.329 89.1433 159.62 85.6235 160.681Z" fill="#FF7A59"/>
<path d="M70.3878 166.774C70.0939 166.767 69.8116 166.659 69.5877 166.469C69.3641 166.279 69.2123 166.017 69.1586 165.728C69.1045 165.439 69.1514 165.14 69.2919 164.882C69.4319 164.624 69.6568 164.421 69.9282 164.309L78.8345 160.862C79.15 160.741 79.5004 160.75 79.8088 160.888C80.1172 161.026 80.3584 161.28 80.4791 161.596C80.5998 161.911 80.5902 162.261 80.4528 162.57C80.3153 162.878 80.0607 163.119 79.7451 163.24C76.7063 164.621 73.5808 165.802 70.3878 166.774Z" fill="#FF7A59"/>
<path d="M38.8278 179.482C38.5309 179.482 38.2439 179.378 38.0156 179.188C37.7876 178.998 37.6323 178.735 37.5769 178.444C37.5217 178.152 37.5703 177.851 37.7135 177.59C37.8567 177.331 38.0861 177.129 38.3624 177.02L45.3609 174.294C45.5164 174.233 45.683 174.204 45.8501 174.207C46.0169 174.211 46.1821 174.248 46.3346 174.315C46.4878 174.383 46.626 174.479 46.7416 174.6C46.8574 174.721 46.9479 174.863 47.0083 175.019C47.0692 175.175 47.0983 175.341 47.0947 175.508C47.0909 175.676 47.0544 175.84 46.9869 175.993C46.9199 176.146 46.8228 176.284 46.702 176.4C46.581 176.515 46.4389 176.606 46.2831 176.667C43.8721 177.791 41.3801 178.732 38.8278 179.482Z" fill="#FF7A59"/>
<path d="M137.394 122.362L127.339 121.824C127.001 121.807 126.684 121.656 126.457 121.404C126.231 121.153 126.113 120.822 126.131 120.484C126.148 120.146 126.299 119.829 126.551 119.602C126.802 119.376 127.133 119.258 127.471 119.276L137.526 119.813C137.849 119.85 138.145 120.01 138.356 120.258C138.565 120.506 138.673 120.825 138.656 121.149C138.639 121.474 138.499 121.78 138.265 122.005C138.03 122.23 137.719 122.357 137.394 122.362Z" fill="#FF7A59"/>
<path d="M118.897 121.406L109.643 120.929C109.305 120.912 108.988 120.761 108.762 120.509C108.535 120.258 108.418 119.927 108.435 119.589C108.453 119.251 108.604 118.934 108.855 118.707C109.106 118.481 109.438 118.363 109.775 118.381L119.03 118.858C119.197 118.867 119.361 118.908 119.512 118.98C119.663 119.052 119.799 119.153 119.911 119.278C120.023 119.402 120.11 119.547 120.166 119.705C120.222 119.863 120.246 120.031 120.237 120.198C120.229 120.365 120.187 120.529 120.115 120.681C120.043 120.832 119.942 120.967 119.817 121.079C119.693 121.192 119.548 121.278 119.39 121.334C119.232 121.39 119.064 121.415 118.897 121.406Z" fill="#FF7A59"/>
<path d="M101.304 120.453L91.2684 119.922C91.101 119.913 90.9372 119.871 90.7857 119.799C90.6345 119.728 90.499 119.626 90.3868 119.501C90.2745 119.377 90.1881 119.232 90.1321 119.074C90.0762 118.916 90.0517 118.749 90.0602 118.581C90.069 118.414 90.1105 118.25 90.1826 118.099C90.2545 117.948 90.3555 117.812 90.4803 117.7C90.6049 117.588 90.7501 117.501 90.9078 117.445C91.0656 117.389 91.2335 117.365 91.4006 117.373L101.436 117.905C101.603 117.914 101.767 117.955 101.919 118.027C102.069 118.099 102.205 118.2 102.318 118.325C102.43 118.449 102.516 118.595 102.572 118.752C102.628 118.91 102.653 119.078 102.644 119.245C102.636 119.412 102.594 119.576 102.522 119.728C102.45 119.879 102.349 120.015 102.224 120.127C102.1 120.239 101.954 120.325 101.796 120.381C101.638 120.437 101.471 120.462 101.304 120.453Z" fill="#FF7A59"/>
<path d="M82.8809 119.754L71.6421 119.217C71.3043 119.2 70.9869 119.05 70.7597 118.799C70.5325 118.548 70.4145 118.217 70.4313 117.879C70.4477 117.542 70.5984 117.224 70.8491 116.997C71.0999 116.77 71.4308 116.652 71.7686 116.668L83.0046 117.206C83.3424 117.222 83.6601 117.372 83.8876 117.622C84.1148 117.873 84.2333 118.204 84.2169 118.542C84.201 118.879 84.0506 119.197 83.8004 119.424C83.5496 119.652 83.2189 119.77 82.8809 119.754Z" fill="#FF7A59"/>
<path d="M63.5243 118.991L52.1561 118.474C51.8219 118.453 51.5085 118.302 51.2846 118.054C51.0604 117.805 50.943 117.478 50.9584 117.143C50.9732 116.808 51.1194 116.493 51.365 116.265C51.6106 116.037 51.936 115.915 52.271 115.925L63.6393 116.442C63.9738 116.462 64.2869 116.613 64.511 116.862C64.7349 117.111 64.8521 117.438 64.8373 117.773C64.8222 118.108 64.6759 118.423 64.4304 118.651C64.1845 118.879 63.8594 119.001 63.5243 118.991Z" fill="#FF7A59"/>
<path d="M44.1458 118.317L34.2051 117.886C33.8725 117.865 33.5617 117.714 33.3386 117.466C33.1158 117.218 32.9986 116.893 33.0129 116.56C33.0266 116.227 33.1704 115.913 33.4132 115.685C33.6558 115.456 33.9782 115.332 34.3113 115.338L44.2519 115.769C44.5848 115.79 44.8954 115.941 45.1184 116.189C45.3412 116.437 45.4584 116.762 45.4441 117.095C45.4304 117.428 45.2866 117.742 45.0438 117.971C44.8013 118.199 44.4789 118.324 44.1458 118.317Z" fill="#FF7A59"/>
<path d="M27.4079 117.66L18.3895 117.183C18.0517 117.166 17.7345 117.015 17.5081 116.763C17.2814 116.512 17.1638 116.181 17.1814 115.843C17.1989 115.505 17.3502 115.188 17.6014 114.961C17.8529 114.735 18.1837 114.617 18.5218 114.635L27.5399 115.112C27.7073 115.121 27.8714 115.162 28.0226 115.234C28.1738 115.306 28.3093 115.407 28.4216 115.532C28.5338 115.656 28.6202 115.802 28.6762 115.959C28.7322 116.117 28.7566 116.285 28.7481 116.452C28.7393 116.619 28.6979 116.783 28.6257 116.935C28.5538 117.086 28.4528 117.222 28.328 117.334C28.2037 117.446 28.0583 117.532 27.9005 117.588C27.7427 117.644 27.575 117.669 27.4079 117.66Z" fill="#FF7A59"/>
<path d="M103.415 153.846C103.123 153.837 102.842 153.728 102.62 153.537C102.398 153.347 102.248 153.087 102.194 152.799C102.14 152.512 102.186 152.214 102.324 151.957C102.462 151.699 102.684 151.496 102.953 151.381L111.345 148.094C111.659 147.971 112.01 147.978 112.32 148.114C112.629 148.249 112.872 148.502 112.995 148.817C113.118 149.131 113.111 149.482 112.976 149.792C112.84 150.101 112.587 150.344 112.273 150.467C109.412 151.821 106.451 152.951 103.415 153.846Z" fill="#FF7A59"/>
<path d="M54.5272 172.764C54.2336 172.757 53.9504 172.65 53.726 172.46C53.5015 172.269 53.3498 172.008 53.2955 171.719C53.2411 171.43 53.2881 171.131 53.428 170.873C53.5685 170.614 53.7929 170.411 54.0646 170.299L62.9711 166.851C63.1272 166.791 63.2932 166.762 63.46 166.767C63.6274 166.771 63.792 166.808 63.9451 166.876C64.0974 166.944 64.2354 167.041 64.3504 167.163C64.4659 167.284 64.5556 167.426 64.6157 167.582C64.6758 167.738 64.7044 167.905 64.7002 168.072C64.6959 168.239 64.6588 168.403 64.5908 168.556C64.523 168.709 64.4256 168.847 64.3043 168.962C64.1833 169.077 64.0406 169.167 63.8845 169.227C60.846 170.608 57.7199 171.789 54.5272 172.764Z" fill="#FF7A59"/>
<path d="M6.98462 192.703C6.69135 192.695 6.40978 192.588 6.18616 192.398C5.96281 192.208 5.81129 191.948 5.75672 191.659C5.70212 191.371 5.74835 191.074 5.88705 190.815C6.02575 190.557 6.24883 190.354 6.51896 190.24L13.5149 187.511C13.826 187.406 14.1657 187.425 14.4632 187.564C14.7606 187.703 14.9932 187.952 15.1118 188.258C15.2307 188.564 15.2268 188.904 15.1012 189.208C14.9756 189.511 14.7375 189.755 14.437 189.887C12.0319 191.023 9.53985 191.964 6.98462 192.703Z" fill="#FF7A59"/>
<path d="M22.684 185.982C22.3935 185.969 22.1159 185.858 21.8961 185.667C21.6767 185.477 21.5282 185.217 21.475 184.931C21.4216 184.646 21.4667 184.35 21.6028 184.093C21.7388 183.836 21.9579 183.633 22.2242 183.516L31.1303 180.069C31.2867 180.009 31.453 179.98 31.6201 179.985C31.7878 179.989 31.9524 180.026 32.1055 180.094C32.2581 180.162 32.3961 180.26 32.511 180.381C32.6266 180.503 32.7166 180.645 32.7766 180.801C32.8367 180.958 32.8653 181.124 32.8609 181.291C32.8565 181.459 32.8194 181.623 32.7514 181.776C32.6834 181.929 32.5857 182.067 32.4644 182.182C32.3431 182.297 32.2004 182.388 32.044 182.447C29.0074 183.835 25.8801 185.016 22.684 185.982Z" fill="#FF7A59"/>
<path d="M414.938 176.306C414.647 176.135 414.436 175.857 414.351 175.532C414.266 175.206 414.31 174.86 414.477 174.568C414.647 174.277 414.922 174.064 415.248 173.975C415.572 173.887 415.92 173.931 416.214 174.097C435.144 185.06 449.445 164.041 444.569 153.141C442.009 154.328 439.224 154.949 436.4 154.963C433.577 154.977 430.784 154.383 428.213 153.222C427.239 152.754 426.427 152.005 425.883 151.073C425.337 150.139 425.085 149.064 425.156 147.986C425.225 146.908 425.62 145.876 426.284 145.022C426.942 144.169 427.848 143.534 428.874 143.198C433.305 141.744 441.312 144.255 445.521 149.78C460.376 141.27 460.129 127.678 449.327 119.918C449.184 119.824 449.06 119.701 448.964 119.558C448.868 119.415 448.803 119.254 448.772 119.085C448.739 118.916 448.742 118.742 448.781 118.574C448.819 118.406 448.89 118.248 448.986 118.108C449.088 117.968 449.217 117.85 449.365 117.76C449.51 117.671 449.675 117.613 449.842 117.588C450.015 117.564 450.188 117.574 450.356 117.619C450.523 117.663 450.677 117.741 450.811 117.847C462.92 126.549 463.477 142.393 446.835 151.963C453.006 165.242 435.906 188.441 414.938 176.306ZM427.727 148.2C426.808 152.63 438.62 153.612 443.197 150.955C440.673 146.737 428.959 142.256 427.727 148.2Z" fill="#FF7A59"/>
<path d="M464.608 156.976C470.425 152.442 476.87 148.78 483.743 146.105C483.902 146.042 484.067 146.011 484.237 146.013C484.407 146.016 484.575 146.052 484.728 146.12C484.885 146.187 485.025 146.285 485.14 146.407C485.258 146.529 485.348 146.674 485.409 146.832C485.469 146.99 485.499 147.158 485.494 147.327C485.488 147.496 485.45 147.662 485.379 147.816C485.31 147.97 485.209 148.109 485.085 148.224C484.962 148.339 484.816 148.428 484.657 148.486C478.047 151.077 471.841 154.6 466.227 158.947C466.098 159.053 465.949 159.133 465.788 159.182C465.626 159.231 465.461 159.247 465.294 159.231C465.126 159.215 464.962 159.166 464.816 159.087C464.671 159.008 464.536 158.901 464.432 158.771C464.325 158.642 464.246 158.493 464.196 158.333C464.147 158.172 464.13 158.004 464.147 157.838C464.163 157.671 464.213 157.509 464.289 157.361C464.372 157.213 464.476 157.082 464.608 156.976Z" fill="#1F2A32"/>
<path d="M455.035 175.567C454.752 175.565 454.475 175.466 454.253 175.289C454.031 175.111 453.874 174.865 453.808 174.588C453.743 174.311 453.77 174.02 453.888 173.761C454.006 173.503 454.209 173.291 454.461 173.16C462.712 169.298 471.717 167.316 480.83 167.356C481.156 167.374 481.464 167.517 481.689 167.756C481.914 167.995 482.037 168.311 482.034 168.639C482.032 168.967 481.905 169.281 481.678 169.517C481.45 169.753 481.14 169.891 480.811 169.905C480.588 169.922 480.363 169.922 480.138 169.905C471.473 170.079 462.937 172.006 455.035 175.567Z" fill="#1F2A32"/>
<path d="M246.548 514.544C245.583 511.979 242.296 510.41 238.004 509.737C238.225 509.18 238.514 508.653 238.866 508.168C238.952 508.058 239.016 507.932 239.054 507.8C239.091 507.666 239.102 507.526 239.086 507.389C239.07 507.249 239.026 507.114 238.958 506.993C238.89 506.873 238.799 506.766 238.689 506.681C238.58 506.596 238.455 506.527 238.32 506.491C238.187 506.453 238.046 506.442 237.908 506.458C237.77 506.478 237.636 506.519 237.514 506.585C237.393 506.656 237.286 506.747 237.2 506.856C236.603 507.663 236.13 508.552 235.795 509.496C234.062 509.37 232.321 509.405 230.595 509.595C230.106 508.442 229.471 507.356 228.704 506.365C228.521 506.159 228.266 506.033 227.992 506.014C227.718 505.995 227.447 506.08 227.235 506.255C227.023 506.431 226.888 506.681 226.856 506.952C226.825 507.227 226.9 507.498 227.067 507.718C227.597 508.415 228.057 509.167 228.44 509.957C226.483 510.313 224.573 510.892 222.746 511.68C222.204 510.862 221.534 510.141 220.763 509.534C220.539 509.378 220.263 509.317 219.994 509.361C219.725 509.403 219.483 509.548 219.317 509.762C219.151 509.981 219.075 510.25 219.104 510.525C219.133 510.794 219.266 511.043 219.473 511.219C219.982 511.639 220.435 512.122 220.818 512.657C217.301 514.668 215.164 517.343 215.48 520.068C215.762 521.33 216.376 522.491 217.261 523.432C218.144 524.376 219.265 525.062 220.505 525.424C220.146 526.818 219.585 528.148 218.839 529.378C218.681 529.605 218.62 529.891 218.669 530.168C218.719 530.44 218.875 530.687 219.104 530.848C219.332 531.008 219.615 531.073 219.891 531.027C220.166 530.98 220.412 530.829 220.576 530.601C221.445 529.213 222.1 527.701 222.519 526.118C225.461 526.911 228.523 527.172 231.557 526.884C231.961 528.7 232.123 530.563 232.037 532.423C232.015 532.698 232.102 532.975 232.28 533.186C232.458 533.4 232.712 533.537 232.989 533.562C233.265 533.592 233.541 533.51 233.759 533.34C233.976 533.164 234.117 532.915 234.151 532.637C234.257 530.623 234.093 528.604 233.666 526.634C235.762 526.321 237.814 525.767 239.783 524.979C242.302 529.548 241.604 530.659 242.943 530.659C243.107 530.659 243.268 530.621 243.415 530.547C243.562 530.475 243.69 530.368 243.789 530.237C243.888 530.108 243.956 529.954 243.986 529.795C244.017 529.633 244.01 529.466 243.966 529.309C243.409 527.498 242.654 525.753 241.713 524.107C244.235 522.779 248.209 518.957 246.548 514.544Z" fill="#1F2A32"/>
<path d="M469.467 489.773C469.966 488.98 470.548 488.242 471.206 487.573C471.393 487.372 471.494 487.106 471.492 486.834C471.489 486.56 471.379 486.299 471.187 486.105C470.998 485.907 470.734 485.792 470.463 485.784C470.191 485.775 469.922 485.869 469.719 486.05C468.932 486.859 468.229 487.751 467.631 488.708C465.554 487.751 463.334 487.136 461.062 486.889C461.205 486.088 461.438 485.306 461.751 484.557C461.869 484.299 461.88 484.011 461.784 483.745C461.685 483.481 461.488 483.27 461.235 483.147C460.98 483.031 460.689 483.018 460.426 483.114C460.16 483.21 459.946 483.407 459.825 483.66C459.405 484.637 459.109 485.66 458.939 486.708C457.021 486.64 455.097 486.818 453.226 487.241C453.045 486.269 452.99 485.279 453.061 484.294C453.1 484.025 453.028 483.748 452.869 483.528C452.71 483.306 452.469 483.155 452.203 483.106C451.931 483.053 451.654 483.111 451.426 483.259C451.196 483.41 451.034 483.643 450.973 483.909C450.831 485.155 450.885 486.415 451.132 487.644C451.132 487.707 443.773 489.367 443.773 494.871C443.88 496.073 444.262 497.236 444.893 498.268C445.527 499.3 446.388 500.17 447.409 500.812C445.966 502.732 444.937 504.933 444.394 507.276C444.336 507.55 444.388 507.836 444.539 508.075C444.693 508.31 444.931 508.475 445.203 508.538C445.477 508.579 445.755 508.519 445.988 508.371C446.221 508.22 446.394 507.992 446.471 507.729C446.954 505.665 447.886 503.734 449.206 502.076C451.239 503.259 453.47 504.06 455.791 504.444C455.226 506.371 455.064 508.39 455.311 510.379C455.358 510.656 455.512 510.906 455.742 511.071C455.973 511.235 456.255 511.301 456.535 511.255C456.812 511.208 457.065 511.054 457.226 510.824C457.391 510.593 457.457 510.308 457.41 510.031C457.213 508.239 457.394 506.423 457.943 504.702C460.25 504.722 462.552 504.562 464.838 504.228C465.348 505.932 465.529 507.715 465.368 509.485C465.354 509.633 465.373 509.784 465.417 509.924C465.464 510.064 465.538 510.198 465.639 510.305C465.738 510.418 465.859 510.511 465.993 510.574C466.125 510.637 466.27 510.673 466.421 510.681C466.679 510.684 466.931 510.588 467.124 510.415C467.321 510.242 467.445 510.009 467.475 509.748C467.686 507.701 467.488 505.63 466.901 503.654C474.694 500.858 476.104 494.174 469.467 489.773Z" fill="#1F2A32"/>
<path d="M473.473 384.311L475.196 381.863C475.353 381.63 475.41 381.35 475.358 381.076C475.306 380.804 475.147 380.56 474.922 380.401C474.692 380.244 474.409 380.181 474.137 380.225C473.86 380.272 473.616 380.425 473.454 380.648L471.649 383.235C470.625 382.75 469.547 382.401 468.43 382.198L469.006 379.353C469.064 379.078 469.009 378.79 468.853 378.554C468.699 378.318 468.458 378.151 468.178 378.099C468.043 378.068 467.903 378.066 467.763 378.093C467.626 378.121 467.497 378.173 467.379 378.25C467.143 378.406 466.981 378.647 466.924 378.922L466.29 381.973C464.921 381.918 463.546 382.077 462.224 382.437L461.595 379.783C461.518 379.523 461.346 379.3 461.11 379.163C460.876 379.026 460.596 378.985 460.33 379.048C460.064 379.111 459.836 379.273 459.686 379.504C459.537 379.729 459.483 380.008 459.532 380.275L460.221 383.194C459.296 383.551 458.459 384.097 457.762 384.799C457.065 385.504 456.525 386.347 456.179 387.274C455.907 388.421 456.023 389.623 456.508 390.698C456.991 391.774 457.82 392.655 458.86 393.209L456.346 396.779C456.267 396.891 456.209 397.023 456.179 397.157C456.146 397.292 456.143 397.435 456.165 397.574C456.19 397.712 456.242 397.841 456.316 397.959C456.39 398.079 456.489 398.181 456.604 398.26C456.835 398.414 457.12 398.472 457.394 398.425C457.669 398.378 457.916 398.225 458.083 398.003L460.668 394.323C461.686 394.836 462.767 395.207 463.884 395.432L463.214 399.141C463.187 399.281 463.192 399.421 463.222 399.558C463.25 399.693 463.307 399.822 463.39 399.937C463.469 400.052 463.571 400.151 463.689 400.228C463.807 400.302 463.938 400.354 464.076 400.379C464.356 400.423 464.638 400.359 464.871 400.2C465.102 400.038 465.261 399.792 465.313 399.514L466.007 395.684C467.505 395.761 469.006 395.588 470.447 395.176L472.241 398.431C472.384 398.658 472.612 398.828 472.875 398.894C473.136 398.963 473.418 398.93 473.657 398.798C473.896 398.669 474.074 398.45 474.157 398.189C474.236 397.928 474.217 397.649 474.099 397.404L472.442 394.397C477.117 391.991 477.526 387.367 473.473 384.311Z" fill="#1F2A32"/>
<path d="M454.592 520.938C468.561 520.938 479.885 509.614 479.885 495.645C479.885 481.676 468.561 470.352 454.592 470.352C440.623 470.352 429.297 481.676 429.297 495.645C429.297 509.614 440.623 520.938 454.592 520.938Z" fill="#FFB949"/>
<path d="M446.554 521.056C424.046 513.982 421.724 483.007 442.471 472.207C445.596 470.561 449.02 469.565 452.541 469.282C456.058 468.997 459.6 469.43 462.945 470.555C485.513 477.612 487.758 508.618 467.028 519.409C463.906 521.056 460.479 522.052 456.961 522.334C453.441 522.62 449.898 522.183 446.554 521.056ZM454.631 472.059C450.258 472.086 445.977 473.324 442.262 475.631C438.547 477.939 435.542 481.232 433.581 485.139C431.619 489.049 430.774 493.425 431.141 497.782C431.512 502.142 433.076 506.313 435.669 509.836C438.259 513.362 441.774 516.1 445.824 517.752C449.874 519.404 454.302 519.903 458.618 519.198C462.934 518.493 466.97 516.605 470.282 513.749C473.594 510.89 476.053 507.172 477.383 503.007C478.533 499.437 478.818 495.645 478.215 491.944C477.614 488.242 476.143 484.735 473.921 481.715C471.701 478.694 468.792 476.243 465.439 474.564C462.086 472.885 458.382 472.026 454.631 472.059Z" fill="#501200"/>
<path d="M454.741 516.967C450.274 516.97 445.919 515.565 442.297 512.948C438.675 510.33 435.975 506.637 434.579 502.395C433.182 498.15 433.16 493.573 434.521 489.318C435.879 485.062 438.546 481.344 442.144 478.696C445.741 476.048 450.084 474.602 454.551 474.567C459.018 474.534 463.381 475.911 467.019 478.504C470.658 481.097 473.385 484.771 474.809 489.005C476.233 493.241 476.282 497.818 474.952 502.082C473.613 506.393 470.929 510.165 467.291 512.843C463.655 515.521 459.257 516.967 454.741 516.967ZM454.762 477.423C451.377 477.418 448.056 478.348 445.17 480.112C442.281 481.876 439.937 484.403 438.395 487.419C436.856 490.432 436.181 493.812 436.442 497.184C436.705 500.562 437.893 503.797 439.88 506.538C441.869 509.276 444.575 511.414 447.7 512.709C450.825 514.007 454.249 514.413 457.591 513.883C460.936 513.356 464.067 511.913 466.641 509.715C469.214 507.518 471.129 504.653 472.175 501.432C473.083 498.682 473.325 495.755 472.877 492.893C472.433 490.031 471.313 487.315 469.612 484.971C467.914 482.625 465.68 480.718 463.098 479.407C460.516 478.095 457.657 477.415 454.762 477.423Z" fill="#501200"/>
<path d="M460.429 483.045L460.885 481.885C460.97 481.709 461.019 481.517 461.027 481.319C461.035 481.122 461.003 480.927 460.934 480.743C460.863 480.559 460.753 480.395 460.616 480.255C460.476 480.115 460.311 480.005 460.127 479.934C459.943 479.862 459.749 479.829 459.551 479.835C459.356 479.843 459.161 479.893 458.986 479.978C458.807 480.063 458.651 480.183 458.522 480.334C458.396 480.483 458.3 480.658 458.242 480.845L457.822 481.915C456.813 481.531 455.737 481.355 454.656 481.399C453.578 481.443 452.519 481.704 451.542 482.167C450.565 482.631 449.692 483.287 448.979 484.096C448.263 484.906 447.717 485.852 447.377 486.876C445.678 491.771 449.006 494.254 452.228 496.144L448.551 505.506C446.663 504.387 444.443 502.258 445.341 500.274C445.418 500.104 445.461 499.92 445.47 499.733C445.475 499.547 445.445 499.357 445.379 499.185C445.313 499.012 445.214 498.85 445.085 498.713C444.959 498.575 444.806 498.466 444.636 498.389C442.032 497.234 439.927 504.005 447.5 508.182L447.124 509.142C447.039 509.32 446.99 509.512 446.982 509.71C446.973 509.902 447.006 510.1 447.075 510.283C447.146 510.467 447.256 510.632 447.393 510.772C447.533 510.912 447.698 511.021 447.882 511.093C448.065 511.167 448.26 511.2 448.458 511.189C448.653 511.183 448.847 511.134 449.023 511.052C449.201 510.964 449.358 510.843 449.487 510.692C449.613 510.544 449.709 510.368 449.767 510.182L450.112 509.301C455.199 510.876 459.803 509.12 461.082 503.964C462.262 499.204 458.939 496.762 455.767 494.915L459.37 485.759C460.034 486.165 460.605 486.708 461.041 487.353C461.48 487.998 461.774 488.73 461.905 489.499C461.927 489.683 461.985 489.864 462.078 490.026C462.169 490.187 462.292 490.33 462.44 490.445C462.586 490.561 462.756 490.646 462.934 490.695C463.115 490.747 463.302 490.761 463.488 490.739C463.672 490.714 463.853 490.657 464.015 490.563C464.177 490.473 464.32 490.349 464.435 490.204C464.55 490.056 464.635 489.888 464.685 489.707C464.737 489.529 464.751 489.34 464.729 489.156C464.531 487.874 464.04 486.656 463.294 485.594C462.547 484.535 461.568 483.663 460.429 483.045ZM458.316 503.27C457.455 506.758 454.502 507.614 451.149 506.648L454.708 497.593C457.441 499.242 458.972 500.65 458.316 503.27ZM453.276 493.455C450.323 491.655 449.182 490.333 450.057 487.811C450.274 487.147 450.623 486.535 451.081 486.011C451.539 485.485 452.102 485.059 452.727 484.755C453.355 484.45 454.039 484.277 454.736 484.244C455.43 484.211 456.127 484.318 456.78 484.56L453.276 493.455Z" fill="#501200"/>
<path d="M498.318 536.045C497.988 536.045 497.67 535.93 497.415 535.719C494.158 532.777 490.328 530.536 486.168 529.134C485.987 529.092 485.814 529.016 485.66 528.909C485.507 528.802 485.378 528.664 485.279 528.505C485.177 528.346 485.112 528.17 485.079 527.987C485.048 527.803 485.051 527.613 485.095 527.43C485.136 527.249 485.213 527.076 485.32 526.922C485.427 526.768 485.564 526.639 485.723 526.541C485.883 526.442 486.058 526.373 486.242 526.343C486.426 526.31 486.615 526.316 486.796 526.357C491.403 527.827 495.64 530.269 499.22 533.518C499.445 533.705 499.607 533.957 499.687 534.24C499.764 534.522 499.753 534.822 499.654 535.099C499.555 535.373 499.374 535.612 499.135 535.782C498.897 535.949 498.608 536.045 498.318 536.045Z" fill="#FF7449"/>
<path d="M490.563 540.485C490.368 540.485 490.176 540.444 489.997 540.367C489.819 540.29 489.657 540.175 489.526 540.032C487.758 538.015 485.569 536.419 483.108 535.348C482.756 535.225 482.466 534.967 482.301 534.632C482.136 534.298 482.112 533.911 482.23 533.557C482.348 533.2 482.6 532.906 482.932 532.736C483.267 532.566 483.651 532.536 484.008 532.648C486.927 533.848 489.526 535.711 491.6 538.09C491.789 538.29 491.915 538.545 491.962 538.819C492.011 539.088 491.976 539.374 491.866 539.626C491.756 539.881 491.575 540.098 491.342 540.249C491.111 540.403 490.84 540.485 490.563 540.485Z" fill="#FF7449"/>
<path d="M469.366 358.006C464.219 358.06 459.201 359.638 454.945 362.538C450.689 365.439 447.386 369.535 445.454 374.307C443.522 379.081 443.045 384.322 444.082 389.365C445.122 394.408 447.627 399.034 451.29 402.656C454.95 406.278 459.601 408.736 464.655 409.721C469.712 410.707 474.945 410.174 479.697 408.19C484.449 406.207 488.51 402.862 491.367 398.576C494.22 394.29 495.746 389.255 495.746 384.105C495.727 380.659 495.03 377.251 493.696 374.073C492.36 370.896 490.412 368.015 487.962 365.592C485.514 363.167 482.611 361.252 479.42 359.948C476.229 358.648 472.813 357.986 469.366 358.006Z" fill="#FFB949"/>
<path d="M469.575 411.379C465.382 411.428 461.233 410.509 457.452 408.698C453.671 406.887 450.354 404.231 447.764 400.933C445.174 397.635 443.376 393.785 442.509 389.683C441.645 385.578 441.736 381.331 442.773 377.27C443.813 373.206 445.772 369.436 448.499 366.251C451.229 363.068 454.654 360.552 458.509 358.903C462.364 357.254 466.548 356.513 470.735 356.738C474.922 356.966 479.002 358.151 482.657 360.206C485.818 361.894 488.614 364.19 490.881 366.961C493.15 369.735 494.845 372.929 495.874 376.362C496.901 379.794 497.235 383.397 496.865 386.961C496.492 390.523 495.416 393.977 493.701 397.124C491.333 401.449 487.843 405.054 483.596 407.565C479.351 410.073 474.508 411.39 469.575 411.379ZM469.336 359.6C463.859 359.553 458.528 361.353 454.201 364.709C449.874 368.062 446.804 372.778 445.484 378.093C444.167 383.405 444.677 389.011 446.932 393.999C449.191 398.988 453.062 403.07 457.924 405.589C477.131 415.912 499.293 397.906 493.15 377.243C491.583 372.147 488.428 367.686 484.144 364.514C479.861 361.339 474.667 359.619 469.336 359.6Z" fill="#501200"/>
<path d="M448.44 390.12C447.463 386.684 447.348 383.065 448.094 379.572C448.843 376.082 450.438 372.828 452.734 370.098C455.031 367.365 457.964 365.236 461.273 363.899C464.582 362.56 468.171 362.056 471.721 362.426C475.272 362.796 478.677 364.028 481.64 366.02C484.604 368.012 487.035 370.699 488.72 373.846C490.404 376.993 491.291 380.505 491.304 384.075C491.318 387.645 490.456 391.162 488.796 394.323C486.763 398.189 483.619 401.356 479.769 403.419C475.917 405.48 471.538 406.338 467.194 405.886C462.851 405.433 458.74 403.691 455.398 400.878C452.056 398.068 449.631 394.32 448.44 390.12ZM469.411 365.123C466.47 365.109 463.567 365.782 460.93 367.088C458.296 368.394 455.999 370.295 454.229 372.644C452.457 374.99 451.258 377.72 450.726 380.612C450.193 383.504 450.344 386.481 451.165 389.305C455.931 405.337 478.12 407.952 486.182 393.146C487.762 390.251 488.558 386.992 488.495 383.693C488.429 380.395 487.501 377.171 485.808 374.34C484.115 371.508 481.709 369.17 478.834 367.554C475.958 365.935 472.709 365.098 469.411 365.123Z" fill="#501200"/>
<path d="M481.637 374.131C481.917 373.881 482.09 373.53 482.112 373.152C482.137 372.776 482.008 372.405 481.758 372.123C481.508 371.843 481.157 371.67 480.781 371.648C480.403 371.623 480.035 371.752 479.752 372.002L478.523 373.088C474.863 369.376 469.88 368.745 466.214 372.37C462.09 376.45 464.669 380.19 467.04 383.243L459.322 390.067C458.584 389.187 458.131 388.1 458.027 386.953C457.92 385.806 458.169 384.654 458.737 383.652C458.853 383.501 458.938 383.331 458.984 383.147C459.034 382.964 459.045 382.772 459.017 382.585C458.99 382.396 458.927 382.215 458.828 382.053C458.729 381.891 458.6 381.748 458.449 381.638C458.295 381.526 458.12 381.443 457.936 381.4C457.752 381.358 457.56 381.35 457.374 381.383C457.187 381.413 457.006 381.482 456.847 381.583C456.685 381.685 456.548 381.817 456.438 381.973C455.486 383.501 455.041 385.293 455.17 387.09C455.299 388.89 455.996 390.6 457.16 391.977L455.873 393.116C455.656 393.305 455.502 393.558 455.434 393.84C455.365 394.12 455.382 394.414 455.486 394.685C455.587 394.954 455.768 395.187 456.004 395.352C456.243 395.517 456.526 395.604 456.814 395.604C457.533 395.604 457.832 395.182 459.023 394.126C463.643 398.565 469.855 399.144 472.64 393.316C474.473 389.475 472.835 386.295 470.901 383.619L478.117 377.234C478.619 378.06 478.946 378.977 479.08 379.932C479.212 380.889 479.149 381.861 478.891 382.791C478.773 383.15 478.803 383.543 478.973 383.877C479.143 384.215 479.442 384.47 479.802 384.588C480.161 384.706 480.551 384.676 480.888 384.506C481.226 384.333 481.481 384.036 481.599 383.677C482 382.272 482.093 380.796 481.865 379.35C481.64 377.907 481.1 376.529 480.287 375.314L481.637 374.131ZM468.223 374.397C470.744 371.898 473.911 372.545 476.386 374.971L469.183 381.353C466.708 378.121 466.041 376.559 468.223 374.397ZM470.072 392.095C468.209 396.005 464.274 395.174 461.144 392.257L468.755 385.535C470.426 387.894 471.175 389.785 470.072 392.095Z" fill="#501200"/>
<path d="M225.165 492.454C220.015 492.509 214.997 494.086 210.741 496.987C206.486 499.887 203.184 503.983 201.251 508.755C199.319 513.529 198.841 518.77 199.88 523.813C200.918 528.856 203.425 533.482 207.086 537.104C210.747 540.726 215.398 543.185 220.453 544.17C225.508 545.155 230.742 544.622 235.495 542.639C240.248 540.655 244.307 537.31 247.163 533.024C250.019 528.738 251.543 523.703 251.543 518.553C251.525 515.107 250.828 511.699 249.493 508.522C248.157 505.344 246.209 502.463 243.76 500.04C241.31 497.615 238.407 495.7 235.217 494.396C232.026 493.096 228.611 492.435 225.165 492.454Z" fill="#FFB949"/>
<path d="M225.376 545.827C221.183 545.876 217.035 544.957 213.253 543.146C209.47 541.335 206.156 538.679 203.565 535.381C200.974 532.083 199.176 528.234 198.311 524.132C197.446 520.027 197.536 515.779 198.574 511.718C199.613 507.655 201.573 503.885 204.301 500.699C207.029 497.516 210.454 495 214.309 493.351C218.165 491.702 222.348 490.961 226.535 491.186C230.723 491.414 234.802 492.599 238.458 494.654C241.619 496.342 244.414 498.639 246.682 501.41C248.95 504.184 250.647 507.378 251.674 510.81C252.7 514.243 253.037 517.845 252.665 521.41C252.292 524.971 251.217 528.426 249.502 531.573C247.133 535.897 243.642 539.503 239.397 542.013C235.151 544.521 230.307 545.838 225.376 545.827ZM225.136 494.048C219.66 494.001 214.329 495.801 210.002 499.157C205.675 502.51 202.604 507.227 201.285 512.542C199.967 517.854 200.477 523.459 202.734 528.448C204.991 533.436 208.862 537.519 213.725 540.038C232.932 550.36 255.094 532.355 248.95 511.691C247.383 506.596 244.227 502.134 239.944 498.962C235.661 495.788 230.467 494.067 225.136 494.048Z" fill="#501200"/>
<path d="M204.236 524.568C203.261 521.132 203.143 517.513 203.892 514.02C204.641 510.53 206.234 507.276 208.531 504.546C210.828 501.813 213.76 499.684 217.07 498.348C220.38 497.009 223.967 496.504 227.518 496.874C231.068 497.245 234.475 498.477 237.438 500.469C240.401 502.461 242.831 505.147 244.516 508.294C246.201 511.441 247.089 514.953 247.102 518.523C247.115 522.093 246.253 525.61 244.592 528.771C242.559 532.637 239.415 535.804 235.565 537.867C231.714 539.928 227.334 540.787 222.991 540.334C218.646 539.881 214.538 538.139 211.195 535.326C207.852 532.517 205.428 528.769 204.236 524.568ZM225.208 499.571C222.266 499.558 219.363 500.23 216.727 501.536C214.092 502.842 211.798 504.744 210.026 507.092C208.254 509.438 207.055 512.168 206.523 515.06C205.991 517.952 206.141 520.929 206.961 523.753C211.727 539.785 233.918 542.4 241.977 527.594C243.558 524.699 244.356 521.44 244.29 518.142C244.225 514.844 243.3 511.62 241.606 508.788C239.911 505.956 237.507 503.619 234.631 502.002C231.755 500.384 228.507 499.547 225.208 499.571Z" fill="#501200"/>
<path d="M237.436 508.579C237.718 508.33 237.89 507.979 237.913 507.6C237.936 507.224 237.809 506.854 237.559 506.571C237.309 506.291 236.957 506.118 236.581 506.096C236.204 506.072 235.834 506.201 235.552 506.45L234.322 507.537C230.663 503.824 225.679 503.193 222.015 506.818C217.891 510.898 220.469 514.638 222.839 517.692L215.123 524.516C214.383 523.635 213.93 522.548 213.826 521.401C213.721 520.255 213.969 519.102 214.537 518.101C214.652 517.95 214.737 517.78 214.785 517.596C214.833 517.412 214.844 517.22 214.817 517.033C214.79 516.844 214.726 516.663 214.628 516.501C214.53 516.339 214.401 516.196 214.248 516.087C214.095 515.974 213.921 515.892 213.736 515.848C213.551 515.807 213.36 515.799 213.173 515.831C212.986 515.862 212.807 515.93 212.646 516.032C212.486 516.133 212.348 516.265 212.239 516.421C211.286 517.95 210.842 519.741 210.971 521.539C211.101 523.339 211.797 525.048 212.959 526.425L211.672 527.564C211.457 527.753 211.303 528.006 211.234 528.288C211.165 528.568 211.182 528.862 211.285 529.134C211.387 529.402 211.568 529.636 211.806 529.8C212.043 529.965 212.325 530.053 212.614 530.053C213.334 530.053 213.632 529.63 214.822 528.574C219.444 533.013 225.655 533.592 228.44 527.764C230.272 523.923 228.635 520.743 226.699 518.068L233.917 511.683C234.419 512.509 234.746 513.425 234.879 514.38C235.012 515.338 234.947 516.309 234.689 517.239C234.572 517.599 234.602 517.991 234.773 518.326C234.944 518.663 235.242 518.918 235.601 519.036C235.96 519.154 236.351 519.124 236.688 518.954C237.025 518.781 237.281 518.485 237.398 518.125C237.801 516.72 237.892 515.244 237.666 513.798C237.439 512.355 236.9 510.978 236.087 509.762L237.436 508.579ZM224.023 508.846C226.544 506.346 229.71 506.994 232.185 509.419L224.983 515.801C222.508 512.569 221.843 511.008 224.023 508.846ZM225.871 526.543C224.008 530.453 220.073 529.622 216.945 526.705L224.556 519.983C226.227 522.343 226.976 524.233 225.871 526.543Z" fill="#501200"/>
<path d="M473.181 448.297C472.325 445.77 471.021 436.633 461.531 439.964C458.842 440.683 361.386 466.116 359.1 467.087C356.236 468.297 355.788 469.433 356.219 471.834C357.347 478.814 371.275 527.457 375.138 539.53C376.507 543.81 378.48 544.258 380.936 543.761C385.307 542.812 481.753 516.932 486.236 515.329C490.733 513.661 489.858 509.128 488.283 502.787C483.706 484.502 479.077 466.157 473.181 448.297Z" fill="white"/>
<path d="M473.323 446.719C473.04 445.655 472.678 444.615 472.239 443.605C471.789 442.412 471.056 441.347 470.104 440.496C469.152 439.649 468.011 439.045 466.773 438.735C464.721 438.51 462.644 438.773 460.712 439.498C458.643 440.052 360.878 465.745 359.042 466.382C355.5 467.603 355.063 469.447 355.618 472.421C357.387 481.994 373.96 538.092 374.473 539.719C375.209 542.043 376.937 544.631 379.464 544.576C380.169 544.529 380.872 544.414 381.555 544.23C382.6 543.994 476.969 518.723 482.482 517.115C488.562 515.34 491.855 515.332 488.875 503.158C478.193 459.517 475.134 453.192 473.323 446.719ZM359.525 467.614C360.224 467.408 460.117 440.985 460.918 440.768C462.507 440.192 464.186 439.901 465.876 439.906C468.442 440.112 470.115 442.03 471.125 444.264C471.479 445.04 475.224 457.036 475.26 457.154C469.962 458.754 368.555 485.959 360.913 487.902C356.347 470.86 355.168 468.895 359.525 467.614ZM483.278 486.008C488.293 505.328 488.743 507.35 488.738 510.143C488.73 513.178 487.937 514.001 485.953 514.72C480.591 516.66 440.004 527.355 424.639 531.471C379.116 543.67 379.942 543.635 378.674 543.251C377.234 542.817 376.172 540.715 375.719 539.28C375.17 537.568 363.58 497.744 363.287 496.644C367.655 495.579 470.963 467.863 477.806 465.849C479.738 472.531 481.532 479.278 483.278 486.008Z" fill="#FF7449"/>
<path d="M377.939 518.968C378.373 518.811 412.852 509.433 412.967 509.403C413.752 509.12 413.417 507.869 412.629 508.132C412.018 508.338 377.719 517.667 377.599 517.697C376.822 518.007 377.151 519.242 377.939 518.968Z" fill="#FF7449"/>
<path d="M379.737 525.671C380.371 525.454 428.646 512.402 429.264 512.221C430.062 511.99 429.717 510.698 428.924 510.953C428.18 511.192 379.518 524.37 379.397 524.403C378.615 524.689 378.953 525.948 379.737 525.671Z" fill="#FF7449"/>
<path d="M430.931 516.97C429.957 517.283 381.495 530.382 380.836 530.574C380.038 530.805 380.384 532.097 381.177 531.842C381.923 531.6 431.15 518.273 431.271 518.24C432.053 517.955 431.754 516.707 430.931 516.97Z" fill="#FF7449"/>
</svg>
