<svg width="119" height="32" viewBox="0 0 119 32" fill="none" xmlns="http://www.w3.org/2000/svg">
<path d="M84.2214 0H85.2098L85.9657 0.177122L86.6052 0.413284L87.1867 0.944649L87.5355 1.41697L87.8844 2.00738L87.9425 2.59779L88.0588 2.77491L88.1751 4.01476L88.2332 4.0738V5.90406L88.0007 7.08487L87.8262 8.02952L87.3611 9.15129L87.1867 9.44649L87.1285 9.85978L86.6634 10.6273L86.5471 11.0406L86.1982 11.572L85.8494 12.1624L85.5586 12.6937L85.1516 13.2841L84.8028 13.8155L84.3958 14.2878L84.1632 14.7601L83.9888 14.9373H83.8725L83.7562 15.2915L83.2329 15.941L82.7096 16.6494L82.2445 17.1808L82.1863 17.2989L82.4771 17.1808L82.8841 16.7085L83.4073 16.1181L83.8725 15.5867L84.2795 15.3506L84.8028 15.0554H86.1401L86.8378 15.3506L87.5937 15.8229L88.2914 16.5904L88.6403 17.1808L88.9891 18.0664L89.2217 18.952V21.4908L89.0473 22.4354L88.931 22.8487L88.8728 22.9077V23.262L88.6984 23.4982L88.5821 24.1476L88.0588 25.0923L87.8844 25.3284L88.1751 25.2103L88.7565 24.9151L89.3961 24.5018L89.5124 24.3838L89.8613 24.2657L90.4427 23.7934L90.966 23.4391L91.1986 23.262L91.2567 22.0221L91.373 21.3137L91.4311 21.0775L91.4893 20.2509L91.7218 19.6015L91.9544 19.0701L92.1289 18.5387L92.5359 17.8893L92.7684 17.5941L93.001 17.1808L93.408 16.8266L93.815 16.3542L94.7453 15.6458L95.6756 15.1144L96.4315 14.8192H96.8385L97.1292 14.7011L97.5943 14.6421H99.9782L100.211 14.7601L101.025 14.8192L101.316 14.9963L101.955 15.2325L102.827 15.6458L103.06 15.5277L103.525 14.9963L104.397 14.524L104.92 14.3469H105.444L105.909 14.524L106.141 14.7601L106.607 16.1771L106.839 16.2952L107.188 17.0627L107.653 18.0074L107.944 18.7159L108.235 19.3653L108.351 19.7196H108.467L108.816 19.2472H108.932L109.049 19.0111L109.514 18.5387L109.979 18.1255L110.793 17.417L111.374 16.8856L111.839 16.4723L112.421 16.059L113.002 15.5867L113.816 15.1144L113.933 15.0554L114.805 14.9963L115.27 15.1734L115.793 15.7638L115.909 16L115.968 16.5314L116.026 16.6494V17.0627L115.968 17.1808L115.909 17.9483L115.444 18.5387L114.863 18.952L114.514 19.2472L114.049 19.4834L113.7 19.8967L113.293 20.0738L112.886 20.5461L111.956 21.4908L111.491 21.9041L111.316 22.0812L111.084 22.1993L110.967 22.4354L110.618 22.8487L110.328 23.0258L110.153 23.321L110.037 23.5572L110.27 23.7934L110.386 24.2066L110.909 24.9151L111.258 25.5055L112.072 26.3321L112.246 26.4502H112.77L113.526 26.214L115.212 25.3875L115.502 25.1513L115.793 25.0332L116.549 24.4428L116.898 24.2066H117.538L117.828 24.5609L118.119 25.2694L118.177 25.5646V26.155L118.003 26.5683L117.712 27.0406L116.782 27.7491L116.491 27.9852L116.142 28.1624L115.677 28.5166L115.212 28.8118L114.863 28.9299L114.049 29.3432L113.177 29.6384L112.595 29.8745L112.421 29.9336L111.607 30.1107H110.444L109.804 29.7565L109.107 29.2251L108.235 28.3395L107.886 27.8081L107.246 26.8044L107.13 26.6273H107.014L106.548 27.2768L106.2 27.572L105.851 28.0443L105.56 28.3395L105.269 28.8118L104.862 29.3432L104.455 29.8155L103.99 30.1107H103.292L102.711 29.8155L102.362 29.2841L102.246 28.6937L102.42 28.1624L102.827 27.4539L103.292 26.8635L103.525 26.5092L103.932 25.9188L104.339 25.2694L104.746 24.797L104.92 24.3838L105.269 23.9705L105.502 23.4982L105.444 23.321L105.327 22.6716L105.095 22.0812L104.804 21.4317L104.63 20.9004L104.048 19.8376V19.5424L103.758 19.3063L103.409 19.0701L102.827 18.5978L102.013 18.0664L101.839 17.9483L102.013 18.2435L102.304 19.1292L102.42 19.3653V19.7196L102.537 19.8376L102.595 20.428L102.653 21.9631L102.711 22.1993L102.653 22.2583L102.537 24.2066L102.42 24.3247L102.304 24.8561L102.071 25.4465L101.897 26.0369L101.432 26.8635L101.083 27.4539L100.676 27.9852L99.9782 28.6937L99.5712 29.048L99.1642 29.3432L98.3502 29.7565L97.9432 29.9336L97.5362 30.0517L97.478 30.1107H95.1523L94.4546 29.8155L93.5243 29.2841L93.1173 28.8708L92.8266 28.6937L92.6521 28.2804L92.5359 28.0443L92.3033 27.9262L92.0126 27.2768L91.78 26.6863V26.5092L91.4311 26.6273L90.8497 26.9816H90.7334V27.0996L90.3845 27.2768L89.9775 27.3948L89.0473 27.8672L88.524 28.0443L87.0704 28.4576L86.7797 28.5756L86.2564 28.7528L85.9075 28.9299L85.7912 29.107L84.9191 29.5203L84.1632 29.9336L83.7562 30.1107H80.2095L80.035 29.9926L79.221 29.7565L78.407 29.4022L78.1163 29.2841L77.3023 28.7528L76.8371 28.3985L76.6627 28.3395L76.5464 28.5756L75.965 28.9889L75.4417 29.3432L74.337 29.9926L73.93 30.1107H71.8368L71.1972 29.6384L70.7902 29.166L70.3832 28.6347L70.1507 28.0443L70.0925 27.9262L69.8599 27.9852L69.6855 28.0443L69.5692 28.2804L69.1041 28.6937L68.1738 29.3432L66.8365 29.9926L66.4876 30.1107H63.9875L63.6967 29.9336L62.8246 29.3432L62.4176 28.8708L62.1269 28.5756L61.9524 28.3395L61.6617 28.3985L61.1384 28.7528L60.6733 28.8708L60.2081 29.166L59.6848 29.4022L59.2197 29.5793L58.7546 29.8155L57.8824 30.1107L56.4288 30.1697L55.9055 29.8155L55.5567 29.4022L55.1497 28.6937L54.9752 28.1624L54.9171 27.4539L54.8008 26.9816V23.4982L54.8589 23.262L54.9171 22.8487L54.9752 21.5498L55.0915 21.1956V20.9004L54.4519 22.0221L54.2775 22.3764L54.1612 22.7897L53.8124 23.321L53.5216 23.7934L53.4635 24.1476L53.1728 24.5609L52.8239 25.4465L52.3588 26.2731L51.8936 27.2768L51.4285 28.2214L50.8471 29.2841L50.44 29.8155L50.033 30.1107H48.5795L47.998 29.6974L47.7073 29.2251L47.4166 28.3985L47.3585 28.1033L46.37 28.6347L46.0793 28.8118L45.7886 28.8708L45.0327 29.3432L44.6257 29.4022L43.6954 29.8745L42.8814 30.1107H41.3697L40.9045 29.7565L40.3812 28.9299L40.0905 28.3395L40.0324 27.8081L39.858 26.8044L39.7998 25.9779V24.5018L39.9161 22.9668L40.0324 22.3764L40.1487 20.9594H40.0324L39.9742 21.2546L39.6254 21.845L39.2765 22.6716L38.9277 23.262L38.4625 24.2066L38.1137 24.8561L37.8811 25.4465L37.4741 26.155L37.1252 26.9816L36.7764 27.572L36.7182 27.9262L36.4275 28.3395L36.1949 28.8118L36.0786 28.9299L35.9623 29.3432L35.3228 29.9926L35.1483 30.1107H33.6948L33.2296 29.8745L32.7645 29.166L32.4737 28.3395L32.4156 27.8672L31.9505 28.2214L31.4272 28.7528L30.555 29.3432L29.5666 29.9336L29.1596 30.1107H26.9501L26.2524 29.5793L25.6128 28.7528L25.4384 28.5166L25.3221 28.1033L25.2058 27.9852L25.1477 27.7491L25.0314 27.9852L24.7988 28.1033L24.3918 28.5756L23.4615 29.2251L22.1824 29.8745L21.6591 30.1107H19.1589L18.403 29.6384L17.9379 29.3432L17.6472 29.048L17.589 28.8118H17.2402L16.9495 28.4576L16.6587 28.0443L16.4262 27.8672V27.2768L15.961 27.69L14.6819 28.9889L13.926 29.5793L13.3446 30.1107L12.9376 30.2878L12.3561 30.7011L10.8444 31.4686L10.3793 31.6458L9.85597 31.7638L9.04197 31.941L7.76281 32H7.29767L6.9488 31.8819L6.48366 31.8229L6.1348 31.7048L5.66965 31.6458L4.73936 31.1734L3.92535 30.6421L3.57649 30.3469V30.2288L3.28577 30.1107L3.0532 29.8155L2.64619 29.3432L2.29733 28.8118L1.77404 27.9852L1.54147 27.4539L1.3089 26.3911L1.19261 26.155L1.13447 25.6236L1.01818 25.4465L0.960037 25.0332L0.901893 24.8561L0.84375 23.203L0.960037 22.9668L1.07632 22.4945L1.25075 21.6089L1.54147 20.5461V20.1919L1.7159 19.8967L1.83219 19.3653L2.23919 18.4207L2.35548 17.8893L2.87877 16.9446L3.22763 16.2362L3.63463 15.6458L4.09978 14.9963L4.7975 14.2288L5.84408 13.4613L6.77437 12.9299L7.53024 12.6937L8.34425 12.5166H9.97226L10.6118 12.6347L11.3096 12.8118L12.1236 13.2251L12.7631 13.6384L13.0539 13.9926L13.4027 14.2878L13.8097 14.9963L14.1586 15.8229L14.2167 17.0627L14.1586 18.3026L13.926 18.8339L13.6934 19.3063L13.519 19.7786L12.8794 20.6642L12.4724 21.0775L12.0654 21.3137L11.5421 21.4317H11.077L10.4374 21.2546L10.0885 20.9594L9.85597 20.428V19.2472L9.97226 18.952L10.0304 18.3026L10.1467 18.0074V17.0627L9.97226 16.4133H8.98382L8.40239 16.7085L7.76281 17.2989L7.29767 18.0074L7.00695 18.7159L6.59994 19.7196L6.36737 20.6642L6.07665 21.9041L5.96037 22.6125V24.738L6.19294 25.8007L6.59994 26.8044L7.23952 27.5129L7.53024 27.7491L7.99539 27.9852L8.69311 28.1033L9.15825 28.1624L9.39083 28.0443L10.1467 27.9852L10.8444 27.631L11.484 27.2177L11.8328 27.0996L12.4724 26.6273L13.2283 26.0959L13.8679 25.5646L14.1586 25.2694L14.6237 24.9151L15.0307 24.4428L15.4959 24.0886L15.8447 23.6162L16.3099 23.1439L16.5425 22.7897L16.8332 22.5535L17.2983 21.6089L17.7053 20.7232L17.8798 20.1919L18.2286 19.6605L18.6356 18.893L19.0426 18.3026L19.2171 18.0074L19.6822 17.5351L20.0311 17.0627L20.4381 16.7085L20.6706 16.4133L21.2521 16L21.5428 15.7048L22.7638 14.9963L23.0545 14.8192H23.4034L23.6941 14.6421L24.2755 14.583L24.5081 14.4649H25.3221L25.8454 14.8192L26.1361 15.1144L26.3105 15.5277L26.7757 15.5867L28.2293 15.6458L28.8107 15.941L29.0433 16.2952V18.7159L28.7526 20.1919L28.5781 20.9594L28.3456 21.9041L28.2293 22.8487L28.1711 22.9077L27.9967 23.8524L27.9386 24.4428V25.7417L28.1711 26.2731L28.2293 26.3911L28.4037 26.4502H28.8689L29.5084 26.0959L30.2062 25.6236H30.3224L30.4387 25.3875L31.0202 24.9151L32.2412 23.4982L32.7063 22.6716L32.8226 21.3727L32.8807 21.3137L32.997 20.1919L33.1133 19.6015L33.1715 18.7159L33.2878 18.3026L33.404 17.6531L33.7529 16.2362L33.9855 15.5867L34.3343 15.1144L34.6832 14.8192L35.1483 14.6421H36.3112L36.7764 14.8782L37.1252 15.4096L37.2996 16V17.0627L37.1834 17.5941L37.0671 18.5387L37.0089 18.6568L36.8926 19.6605L36.8345 20.0738L36.7764 20.31L36.7182 21.5498L36.8926 21.4908L37.2996 20.6052L37.5322 20.0148L37.9392 19.1292L38.1718 18.5387L38.7532 17.5351L38.9277 17.1218L39.1602 16.7085L39.5091 16.1771L39.6835 15.7638L39.9161 15.5277H40.0324L40.1487 15.2325L40.6138 14.8782L41.3697 14.6421H42.5907L43.114 14.9373L43.4628 15.3506L43.6954 15.7638L43.8117 16.7675V17.2989L43.6373 18.7159L43.3466 20.369L42.9977 22.3173L42.9396 23.9705V24.797L42.9977 25.6827L43.3466 26.3911L43.4628 26.4502H44.2187L44.9164 26.0959L45.3234 25.7417L46.7189 24.9151L47.3003 24.5018L47.4166 24.2657L47.4747 23.4982L47.591 23.203L47.6492 22.1402L47.7655 21.4908L47.8236 20.31L48.0562 18.952L48.2887 17.8303L48.5213 16.8856L48.5795 16.2362L48.812 15.7048L49.1609 15.2325L49.4516 14.8782L49.9168 14.7011L49.9749 14.6421H51.2541L51.7773 14.9963L52.1262 15.5867L52.1844 15.7638V17.2399L51.8355 19.5424L51.6611 20.7232L51.6029 21.5498L51.8355 21.4317L52.1262 20.9004L52.4751 19.9557L52.8821 19.0701L53.0565 18.5387H53.1728L53.2891 18.2435L53.5216 17.7122L54.1612 16.5904L54.3938 16.1181L54.8008 15.5867L55.1497 15.1144L55.6148 14.8192L56.0218 14.7601L56.1962 14.6421H57.5335L58.0568 14.9373L58.3475 15.2915L58.5801 15.8229L58.7546 16.6494V17.3579L58.5801 18.1845L58.4057 19.2472L58.2894 20.2509L57.9405 22.3173L57.8824 22.8487V25.5646L58.2894 26.3911L58.4638 26.4502H59.0453L59.6848 26.214L60.15 25.8007L60.6733 25.5055L61.3129 25.0923L61.371 24.1476L61.4873 23.8524L61.6036 23.321L61.8943 22.4354L62.0106 21.9041L62.4757 20.9004L62.6502 20.6052L62.8246 20.0738L62.999 19.8967L63.2897 19.3063L63.6386 18.6568L63.9293 18.3026L64.1619 17.9483L64.627 17.417L65.034 16.9446L65.6155 16.3542L66.4876 15.6458L67.1272 15.2915L67.8249 14.8782L68.4645 14.7601L68.6389 14.6421L69.1622 14.583L69.2204 14.524H70.2669L70.7902 14.9373L71.1391 15.3506L71.1972 15.5867L73.1741 15.6458L73.6393 15.941L73.8137 16.2362L73.93 16.6494L73.9881 17.1218V17.7122L73.8718 18.0664L73.8137 19.1882L73.523 20.6052L73.3485 21.3727L73.2904 21.4908L73.1741 22.5535L73.0578 22.9668L72.9997 23.3801L72.8834 23.7343L72.8252 24.4428L72.7671 24.5018V25.5646L72.9997 26.2731L73.2323 26.4502H73.6974L74.5114 26.0369L74.8603 25.7417L75.151 25.5646L75.6743 25.0923L75.965 24.8561L76.1976 24.5018L76.4883 24.2657L76.7209 23.6162L76.779 22.6125L76.9534 21.6089L77.0697 20.4871L77.186 19.4244L77.3023 18.8339L77.3604 18.0074L77.4767 17.476L77.593 16.2362L77.6512 16.059L77.7674 14.8782L78 13.4613L78.0582 13.2841L78.1163 12.1033L78.2326 11.9262L78.3489 11.1587L78.6977 9.50553L78.814 8.97417L78.8722 8.4428L79.1629 7.5572L79.2792 7.08487L79.3955 6.90775L79.4536 6.37638L79.6862 5.84502L80.0932 4.90037L80.3839 4.13284L81.0816 2.77491L81.7793 1.83026L82.2445 1.18081L82.7096 0.708487L83.1748 0.354244L83.9888 0.0590406L84.2214 0ZM84.2795 3.12915L83.9306 3.30627L83.7562 3.54244L83.5818 3.95572L83.3492 4.30996L83.0003 5.01845L82.9422 5.43173L82.7096 5.90406L82.3608 6.96679L82.2445 7.14391L82.1282 7.91144L81.9538 8.50185L81.7793 9.15129L81.7212 9.21033L81.5468 10.2731L81.1979 11.8081L80.9653 12.6937L80.849 13.6384L80.442 15.3506L80.3839 15.6458L80.6746 15.3506L81.256 14.2288L81.4886 13.9926L82.1863 12.6937L82.4189 12.1624L82.8841 11.3948L83.1166 10.8635L83.6399 9.91882L83.7562 9.7417L83.8725 9.21033L84.2214 8.50185L84.5121 7.5572L84.7446 6.90775L84.9772 6.02214L85.0935 5.49077V3.66052L84.9191 3.30627L84.5702 3.12915H84.2795ZM25.3221 17.5941L24.6244 17.7712L24.1011 17.9483L23.3452 18.5387L22.9382 18.952L22.4731 19.5424L21.8917 20.31L21.7754 20.7232L21.5428 21.0775L20.7288 23.1439L20.6125 23.6162L20.5544 23.7343V26.155L20.8451 26.6863L21.3102 27.0996L21.5428 27.2177L21.8917 27.1587L22.4731 26.8635L23.0545 26.155L23.4034 25.5646L23.9848 24.1476L24.1592 23.4982L24.2174 22.8487L24.3337 22.4945L24.45 21.9631L24.7407 20.6642L24.7988 20.1328L24.9151 19.8967L25.0895 19.0701L25.4384 17.7712V17.5941H25.3221ZM70.2088 17.5941L69.5111 17.7712L68.9878 17.9483L68.2319 18.5387L67.9412 18.8339L67.4179 19.4244L66.9528 20.0148L66.8365 20.1328L66.7202 20.5461L66.0806 21.6679L65.9643 22.1402L65.7899 22.6716L65.5573 23.262L65.4992 23.4391L65.441 24.3838L65.3829 24.4428V25.6236L65.441 25.7417L65.4992 26.3911L65.9062 26.9225L66.3713 27.2177L66.7202 27.1587L67.3016 26.8635L67.7668 26.3911L68.2901 25.6236L68.8134 24.2066L68.8715 24.1476L69.0459 23.1439L69.3366 21.786L69.5692 20.9004L69.6274 20.7823L69.6855 20.0148L69.8018 19.7786L70.0344 18.7159L70.3251 17.5941H70.2088ZM97.7688 17.7122L97.5943 17.8303L97.1292 17.8893L96.3733 18.5387L96.1407 18.952L95.7919 19.4244L95.6175 19.7196L95.5012 20.1328L95.0942 21.1956L94.8616 22.0812V25.0923L95.0942 25.7417L95.6756 26.5092L96.1989 26.8635L96.7222 26.9816L96.8385 27.0996L97.071 27.0406L97.5362 26.8635L97.9432 26.5092L98.1758 26.2731L98.6409 25.5055L99.0479 24.6199L99.1642 24.3247L99.2805 23.5572L99.5131 22.6125L99.5712 22.0812V20.0738L99.3386 19.1882L99.1642 18.5978L98.6409 18.0074L98.4665 17.8893L98.0013 17.7712L97.7688 17.7122ZM83.6399 18.5387L82.8841 18.7159L82.3026 19.0111L81.7793 19.3653L81.3723 19.9557L81.1397 20.1328L80.9653 20.4871L80.849 20.8413L80.3839 21.786L80.2676 22.3173V22.4945L80.3257 22.6716V22.9077H80.2095L80.1513 24.2657L80.0932 24.8561L80.035 24.9742L80.0932 25.2103L79.9769 25.4465L79.8606 26.5683L79.8025 26.8044L80.3839 27.0996L80.7909 27.1587L80.9072 27.2177L81.7793 27.2768L81.8956 27.1587L83.0585 27.0996L83.5818 26.8044L84.2795 26.155L84.5121 25.6827L84.7446 25.2694L85.0935 24.5609L85.2098 23.9705L85.2679 23.8524L85.3261 23.4982L85.5586 22.3173L85.6749 21.4908V20.0148L85.4424 19.4244L85.0354 18.952L84.5702 18.6568L83.8143 18.5978L83.6399 18.5387Z" fill="#10161C"/>
</svg>
