<svg width="231" height="32" viewBox="0 0 231 32" fill="none" xmlns="http://www.w3.org/2000/svg">
<path d="M169.26 2.11383H171.471L171.951 2.30602L172.143 2.97869V9.9937L171.855 19.2189L171.759 23.9276L171.663 30.9426L171.278 31.2309L169.933 31.4231L169.068 31.327L168.3 30.8465L167.915 30.366L166.858 27.8675L165.609 25.0808L164.071 21.6213L162.438 18.2579L161.477 16.2399L160.516 14.4141L159.17 11.8195L158.69 11.1468L158.786 12.1078L159.074 14.7024L159.651 22.5823L159.747 23.5432V24.5042L159.363 24.9847L158.498 25.1769L157.537 24.9847L157.248 24.7925L157.152 24.2159L156.96 20.1799L156.48 13.8375L156.095 9.03274L155.999 6.72644L155.807 6.14986L155.711 5.47719L155.999 5.285L156.864 5.0928L157.633 5.1889L158.017 5.38109V5.57328L158.402 5.76548L159.459 7.20691L160.708 9.12883L161.957 11.1468L163.495 13.8375L164.456 15.5673L166.089 18.7384L167.05 20.5642L167.819 22.1018L168.203 12.5883L168.492 6.24596L168.684 2.59431L168.972 2.20993L169.26 2.11383Z" fill="#10161C"/>
<path d="M194.245 2.11383H196.455L196.936 2.30602L197.032 2.40212L197.128 3.07479V9.8015L196.936 16.7204L196.743 24.5042L196.647 31.0387L195.878 31.327L194.629 31.4231L193.86 31.2309L193.092 30.6543L192.515 29.5012L191.842 27.8675L190.785 25.4651L189.632 22.8706L188.863 21.333L187.999 19.4111L184.635 12.6844L183.963 11.5312L183.578 11.1468L183.866 12.8766L184.347 18.4501L184.635 22.294L184.731 23.2549V24.6003L184.251 24.9847L184.059 25.0808H182.713L182.329 24.8886L182.233 24.6964L181.752 17.1048L181.08 9.22493L180.888 6.43815L180.695 5.95767V5.47719L180.888 5.285L181.848 4.99671L182.329 5.0928L182.906 5.38109L183.674 6.14986L184.635 7.4952L186.077 9.8015L187.326 11.8195L188.383 13.6453L189.152 14.9907L189.921 16.5282L190.785 18.0658L191.554 19.6033L192.707 22.0057L192.803 22.1018L192.996 18.0658L193.188 13.0688L193.38 8.36007L193.668 2.7865L193.86 2.30602L194.245 2.11383Z" fill="#10161C"/>
<path d="M56.6376 1.44165L57.5985 1.63384L58.3673 2.11432V5.28549L58.079 10.0903L57.9829 12.1083L58.4634 11.6278L58.9439 11.0512H59.1361L59.3282 10.6669L60.097 9.89809L60.8658 9.22542L61.4424 8.64884H61.6345V8.45665L62.6916 7.59179L63.9408 6.53473L64.9979 5.66987L66.2472 4.70891L67.0159 4.22843L67.3042 4.13234H68.3613L68.8417 4.42062V4.9011L67.7847 5.86206L66.7276 6.72693L65.4784 7.78398L64.7096 8.45665L61.7306 11.2434L61.6345 11.4356L62.2111 12.5888L63.076 14.799L64.3252 18.3545L65.4784 22.1023L66.4393 25.3695L67.4003 28.2524L68.2652 30.4626L68.3613 31.2314L67.8808 31.7119L67.0159 32.0002H65.5745L64.9979 31.7119L64.5174 31.1353L63.9408 29.5978L62.6916 25.5617L61.7306 22.1984L60.3853 17.6819L59.5204 14.5107V14.1263L58.7517 14.799L58.079 15.7599L57.8868 16.4326L57.9829 20.4686L58.2712 24.6008L58.5595 27.2915L58.8478 29.2134V30.2704L58.1751 30.847L57.5985 31.0392H55.8688L55.3883 30.847L54.9078 30.3665L54.4274 27.9641L54.1391 24.8891L54.043 22.7749V15.0873L54.2352 10.3786L54.6195 5.0933L54.8117 2.97919L55.1 2.21042L55.7727 1.63384L56.6376 1.44165Z" fill="#10161C"/>
<path d="M30.6909 -0.000183105H31.4597L32.3245 0.192009L32.6128 0.384201L32.805 1.63345L33.1894 5.47728L33.3816 8.64845L33.5738 14.3181L34.9191 14.5103L35.3035 14.7986V15.6635L34.6308 15.9517L33.5738 16.0478V30.6544L33.1894 31.0388L32.7089 31.231L32.1323 31.3271H31.1714L30.3065 31.1349L29.826 30.7505L29.7299 30.27L29.826 24.1199L29.9221 18.8346L30.0182 16.1439L27.9041 16.24L22.2345 16.3361L22.7149 21.7175L23.1954 25.7535V26.7145L22.811 27.0989L21.754 27.3872H20.9852L20.1204 27.195L19.5438 26.8106L19.3516 26.0418L19.0633 23.4472L18.6789 18.5463L18.4867 14.8947L18.3906 11.6274V6.63044L18.775 6.05386L19.3516 5.76557H20.793L21.4657 6.05386L21.6579 6.53434L21.9462 13.165L22.0423 14.6064L26.5588 14.5103L30.0182 14.4142L29.9221 8.45626L29.7299 3.45927L29.5378 0.480297L29.826 0.192009L30.6909 -0.000183105Z" fill="#10161C"/>
<path d="M72.1078 2.69104H74.6063L76.9126 2.97933L78.4502 3.45981L80.0838 4.13248L81.4291 4.99734L82.3901 5.86221L83.1589 6.63097L83.9276 7.88022L84.4081 8.93728L84.7925 10.5709V12.3967L84.4081 14.1265L83.9276 15.3757L83.255 16.5289L82.3901 17.682L81.2369 18.8352L79.6033 19.9883V20.2766L80.8526 22.1024L81.8135 23.736L82.9667 25.9463L83.4472 27.0033L84.1198 28.733V29.4057L83.1589 29.7901H81.7174L81.2369 29.3096L80.5643 27.7721L79.4111 24.7931L78.258 22.3907L77.4892 21.1415L76.8165 21.2376L75.7595 21.718L76.1439 28.0604V29.7901L75.7595 30.0784L75.0868 30.2706H73.1649L72.3961 29.8862L72.2039 29.5979L71.8195 21.5258L71.243 20.661L71.3391 20.1805L71.7235 19.9883L71.6274 17.8742L71.3391 13.9343L71.0508 8.07241V3.7481L71.3391 3.17152L71.8195 2.78714L72.1078 2.69104ZM74.4141 4.13248V5.67001L74.8946 12.3967L75.279 17.2976L75.4712 19.4117L75.8556 19.5078L77.297 18.643L78.1619 17.9703L78.4502 17.7781V17.5859H78.6424L79.315 16.8171L79.9877 15.8562L80.7565 14.3186L81.2369 12.9733L81.333 12.4928V10.1865L80.9487 8.84118L80.1799 7.30365L79.5072 6.43878L79.0267 5.9583L78.258 5.28563L76.7204 4.51686L75.279 4.13248H74.4141Z" fill="#10161C"/>
<path d="M115.35 2.11383H116.695L118.233 2.30602L119.771 2.7865L121.308 3.55527L122.365 4.32404L123.134 5.1889L123.903 6.53424L124.383 8.07178L124.671 9.8976L124.768 11.0508L124.864 14.7985L124.768 17.5853L124.479 19.8916L123.903 22.294L123.134 24.2159L122.557 25.2729L121.789 26.33L120.635 27.4832L119.674 28.0597L118.521 28.5402L117.176 28.8285H115.446L114.101 28.5402L112.467 27.6753L111.602 26.8105L110.738 25.5612L110.065 24.1198L109.488 22.294L109.104 19.8916L109.008 18.8345V14.7024L109.296 11.9156L109.68 9.8015L110.353 7.39911L111.026 5.86157L111.891 4.32404L113.044 3.07479L114.005 2.49821L114.774 2.20993L115.35 2.11383ZM116.407 3.84356L115.446 4.22794L114.677 4.99671L114.101 5.95767L113.717 6.72643L113.236 8.45616L112.852 10.8586L112.659 13.9336V17.7775L112.948 21.0447L113.428 23.5432L114.005 25.0808L114.677 26.1378L115.35 26.8105L116.119 27.0988H116.888L117.656 26.8105L118.329 26.2339L119.29 24.8886L120.155 23.0627L120.828 21.2369L121.404 18.4501L121.692 15.7594V13.9336L121.5 11.9156L121.116 9.60931L120.635 7.78349L119.963 6.24595L119.386 5.1889L118.521 4.32404L117.753 3.93965L117.176 3.84356H116.407Z" fill="#10161C"/>
<path d="M93.2494 1.44165H94.9791L96.1322 2.01823L96.9971 2.78699L97.862 4.32453L98.3425 5.76597L98.8229 7.78398L99.1112 9.99419L99.3995 14.3185L99.4956 17.2014L100.457 17.4897L101.033 17.8741V18.3545L100.36 18.835L99.7839 19.0272L99.88 20.5647L100.457 24.6969L101.225 28.5407L101.321 28.9251V29.6939L100.841 30.1743L100.36 30.3665L99.7839 30.4626H98.7268L98.0542 30.1743L97.5737 29.6939L97.1893 28.7329L96.3244 24.4086L95.9401 21.2374L95.844 19.0272L92.0001 19.3155L90.0782 19.6038L89.9821 20.7569L89.0211 29.0212L88.829 29.6939L88.2524 30.1743L87.868 30.2704L87.1953 29.9821L86.8109 29.5978L86.7148 29.4056L86.8109 27.9641L87.4836 22.6789L87.7719 20.2765V19.796L87.1953 19.4116L87.2914 18.9311L87.868 18.4506L88.3485 13.0693L88.829 9.60981L89.4055 7.01521L90.0782 5.0933L90.847 3.55576L91.6157 2.49871L92.3845 1.82603L93.2494 1.44165ZM93.8259 2.5948L93.0572 3.26747L92.5767 4.22843L92.0001 5.95816L91.4235 8.45665L90.847 11.9161L90.1743 17.4897V17.8741L91.4235 17.778L93.5377 17.5858L95.7479 17.4897V13.838L95.5557 10.0903L95.0752 5.86206L94.6908 3.74795L94.4025 2.88309L94.1142 2.5948H93.8259Z" fill="#10161C"/>
<path d="M43.8548 1.44165H45.4885L46.4494 1.82603L47.3143 2.49871L47.8909 3.26747L48.5635 4.61282L49.044 6.05426L49.5245 8.36056L49.8128 10.8591L50.1011 16.4326V17.2014L50.9659 17.4897L51.6386 17.9702L51.5425 18.4506L50.6776 18.9311H50.2933L50.7737 22.871L51.3503 26.3305L51.9269 28.9251V29.6939L51.4464 30.1743L50.9659 30.3665L50.3894 30.4626H49.4284L48.5635 30.1743L48.1792 29.6939L47.7948 28.7329L47.026 24.8891L46.6416 22.1984L46.4494 20.0843V19.0272L42.6056 19.3155L40.6837 19.6038L40.5876 20.7569L39.6266 28.9251L39.4344 29.6939L38.9539 30.0782L38.7618 30.1743L37.8008 30.0782L37.4164 29.5978L37.3203 28.7329L38.1852 21.814L38.4735 19.6999L37.993 19.6038L37.8008 19.5077L37.8969 18.9311L38.3774 18.5467L38.4735 18.3545L38.8578 13.7419L39.2422 10.5708L39.8188 7.78398L40.3954 5.76597L41.2602 3.84405L41.9329 2.78699L42.6056 2.11432L43.3744 1.63384L43.8548 1.44165ZM44.3353 2.5948L43.8548 3.07528L43.3744 3.84405L42.8939 4.9972L42.3173 7.01521L41.6446 10.4747L41.0681 15.0873L40.7798 17.8741L41.9329 17.778L44.047 17.5858L46.3533 17.4897L46.4494 17.3936L46.3533 12.2044L46.065 8.84104L45.5846 5.18939L45.2002 3.45967L44.8158 2.6909L44.3353 2.5948Z" fill="#10161C"/>
<path d="M205.296 1.15302H207.603L208.852 1.5374L210.197 2.40226L211.158 3.36322L211.927 4.70856L212.311 6.05391L212.407 7.30315L212.119 7.59144L211.542 7.78363H210.774L210.293 7.49535L209.717 6.2461L209.14 4.80466L208.563 3.9398L207.891 3.36322L207.218 3.07493H205.777L204.912 3.45932L204.239 4.13199L203.567 5.47733L203.182 7.20706L203.086 8.07192L202.99 10.0899V13.5494L203.182 16.6245L203.567 19.6995L204.143 22.4863L204.72 24.216L205.488 25.8497L206.257 26.8106L207.122 27.3872L207.41 27.4833H208.371L209.332 27.0989L209.909 26.6184L210.774 25.3692L211.446 23.8317L212.119 21.2371L212.696 17.7776L212.984 15.7596L209.14 16.3362H208.179L207.603 16.0479L207.506 15.3752L208.179 14.9908L209.717 14.5104L211.254 14.2221L212.792 14.0299H215.002L215.867 14.3182L216.251 14.7025L216.155 15.2791L215.771 15.5674L214.81 15.7596V17.8737L214.618 20.2761L214.233 22.5824L213.849 24.0238L213.176 25.8497L212.407 27.195L211.639 28.156L210.678 29.0208L209.717 29.5974L208.275 30.0779L207.795 30.174H205.873L204.527 29.7896L203.278 29.1169L202.125 28.0599L201.26 26.8106L200.78 25.8497L200.107 23.8317L199.627 21.6214L199.338 19.6034L199.242 18.3542V11.9158L199.53 9.32117L200.011 7.11096L200.684 5.09295L201.356 3.8437L202.221 2.78665L203.086 2.01788L204.431 1.34521L205.296 1.15302Z" fill="#10161C"/>
<path d="M130.823 2.11383L133.225 2.20993L134.763 2.49821L136.396 3.07479L137.742 3.74746L138.799 4.51623L139.664 5.66938L140.048 6.63034L140.144 7.11082V8.26397L139.76 9.60931L138.991 10.9547L137.934 12.1078L137.069 12.8766L135.82 13.6453L134.282 14.4141L132.456 14.9907L130.727 15.279L131.111 21.333L131.592 25.7534L132.072 28.7324V29.309L131.592 29.7895L130.534 30.0777H129.67L128.709 29.7895L128.324 29.4051L127.94 28.1558L127.555 25.8495L127.171 21.5252L126.979 18.2579L126.883 11.7234V9.8015L126.979 3.84356L127.171 2.8826L127.459 2.59431L127.94 2.40212L128.516 2.30602L130.15 2.20993L130.823 2.11383ZM131.111 3.55527L130.438 3.65137V6.63034L130.534 11.1468L130.631 13.3571L131.399 13.261L132.649 12.6844L133.706 12.1078L134.955 11.1468L135.724 10.3781L136.396 9.22493L136.685 8.36007V7.01472L136.3 5.95767L135.916 5.38109L135.147 4.61232L133.802 3.93965L132.841 3.65137L131.111 3.55527Z" fill="#10161C"/>
<path d="M7.91579 1.82642H9.64551L10.7026 2.2108L11.4713 2.78738L12.0479 3.55614L12.4323 4.6132L12.5284 6.05464L12.3362 7.30388L11.8557 8.55313L11.2791 9.2258L10.8948 9.41799H9.8377L9.74161 9.3219L9.8377 8.36094L10.126 7.39998L10.2221 6.63121V5.47806L10.0299 4.32491L9.64551 3.55614L9.35722 3.26785H8.39627L7.5314 3.84443L6.95483 4.70929L6.37825 6.15073L5.99387 7.39998L5.41729 9.99457L5.03291 12.7814L4.74462 16.2408L4.64852 17.7783L4.55243 20.8534V25.9465L4.74462 27.5801L5.3212 28.7333L5.89777 29.2138L6.18606 29.3099H7.6275L8.78065 28.8294L9.8377 27.9645L10.6065 27.0035L11.4713 25.5621L12.2401 23.9285L12.7206 22.7753L13.9698 19.9885L14.7386 18.9315L14.9308 18.7393H15.8917L16.3722 18.9315L16.2761 19.6042L15.5074 22.2948L14.7386 24.3129L13.6815 26.427L12.9128 27.5801L11.7596 28.9255L10.4143 29.9825L8.87675 30.7513L7.91579 31.0396L7.24311 31.1357H5.03291L3.97585 30.8474L3.01489 30.3669L2.43832 29.8864L1.76565 28.9255L1.18907 27.6762L0.900783 26.427L0.804688 25.6582V18.8354L1.09298 15.1838L1.66955 11.5321L2.24613 8.93751L3.20709 6.05464L3.97585 4.6132L4.93681 3.36395L6.08996 2.49909L7.14702 2.01861L7.91579 1.82642Z" fill="#10161C"/>
<path d="M224.9 2.11383H225.957L227.206 2.30602L228.264 2.69041L229.224 3.26698L229.801 3.74746L230.378 4.61232L230.762 5.66938V6.24596L230.185 6.72644L229.897 6.82253H229.032L228.36 6.43815L227.495 4.61232L227.11 4.13184L226.534 3.74746L226.245 3.65137H225.188L224.227 4.13184L223.555 4.99671L223.074 6.43815V8.45616L223.459 10.1859L224.227 12.4922L225.381 14.8946L226.822 17.4892L228.264 19.8916L229.417 22.0057L229.897 22.9666L230.57 24.7925L230.858 25.9456L230.954 26.7144V27.9636L230.57 29.0207L229.897 29.8856L229.128 30.5582L227.975 31.1348L226.726 31.5192L225.285 31.7114H224.42L223.17 31.5192L221.921 31.0387L220.768 30.366L219.903 29.5973L219.038 28.4441L218.366 27.0027L218.27 26.5222V25.6573L218.558 25.1769L219.134 24.8886H220.288L221.152 25.4651L222.113 26.7144L223.17 28.5402L224.035 29.6934L224.516 29.8856H225.188L225.957 29.5012L226.342 29.1168H226.534L226.726 28.6363L227.014 27.9636L227.11 27.3871V26.5222L226.822 24.8886L226.149 23.0627L225.381 21.5252L224.227 19.4111L222.882 17.1048L221.633 14.7985L220.768 12.8766L220.191 11.1468L219.807 9.60931L219.711 9.03274V6.91863L220.095 5.38109L220.576 4.42013L221.441 3.45917L222.209 2.8826L223.267 2.40212L223.939 2.20993L224.9 2.11383Z" fill="#10161C"/>
<path d="M144.082 2.40247H145.427L146.004 2.69075L146.292 3.07514H147.253L150.713 2.49856H152.25L152.827 2.78685L153.115 3.17123L153.019 3.55562L152.25 3.8439L149.752 4.22829L147.734 4.42048H146.292V14.5106H151.097L152.635 14.7027L153.499 15.0871V15.7598L153.211 16.0481H147.445L146.292 15.952L146.196 20.4685V28.2523L149.656 27.8679H151.097L152.25 28.1562L152.827 28.6367L152.923 29.021L152.346 29.5015L151.578 29.7898L149.367 30.0781L147.926 30.1742H143.89L143.121 29.8859L142.641 29.4054L142.352 29.021L142.16 28.0601V25.0811L142.737 12.7808L142.929 7.68774L143.217 3.65171L143.409 2.88295L143.794 2.49856L144.082 2.40247Z" fill="#10161C"/>
<path d="M176.276 7.49518H177.045L178.006 7.97566L178.39 8.45614L178.486 9.03271V15.375L178.198 22.39L178.102 29.2129L177.909 29.6933L176.756 29.9816H175.411L174.738 29.7894L174.258 29.309V26.5222L174.45 21.7174L174.93 14.4141L175.123 8.84052L175.507 8.07175L176.084 7.59127L176.276 7.49518Z" fill="#10161C"/>
<path d="M176.852 0.76825H177.909L178.486 1.05654L178.678 1.34483L178.582 2.59407L178.294 4.03551L177.813 4.90037L177.237 5.38085H176.276L175.411 5.09257L175.219 4.90037L175.315 4.03551L175.699 2.30578L176.084 1.44092L176.468 0.960441L176.852 0.76825Z" fill="#10161C"/>
</svg>
