<svg width="11" height="11" viewBox="0 0 11 11" fill="none" xmlns="http://www.w3.org/2000/svg">
<g clip-path="url(#clip0_3761_7363)">
<path d="M2.18779 3.01022C2.42617 3.01027 2.65478 3.09792 2.82332 3.2539L5.78344 5.99255L8.74357 3.2539C8.82649 3.17446 8.92568 3.11111 9.03535 3.06752C9.14502 3.02393 9.26298 3.00099 9.38234 3.00003C9.50169 2.99907 9.62006 3.02011 9.73054 3.06193C9.84101 3.10375 9.94138 3.1655 10.0258 3.24359C10.1102 3.32167 10.1769 3.41453 10.2221 3.51674C10.2673 3.61895 10.2901 3.72846 10.289 3.83889C10.288 3.94931 10.2632 4.05844 10.2161 4.15991C10.169 4.26138 10.1005 4.35314 10.0146 4.42986L6.41898 7.7565C6.2504 7.91241 6.0218 8 5.78344 8C5.54508 8 5.31648 7.91241 5.14791 7.7565L1.55225 4.42986C1.42657 4.31355 1.34099 4.16538 1.30632 4.00408C1.27166 3.84278 1.28946 3.67559 1.35748 3.52364C1.4255 3.3717 1.54068 3.24182 1.68848 3.15044C1.83627 3.05905 2.01002 3.01025 2.18779 3.01022Z" fill="#1E2022"/>
</g>
<defs>
<clipPath id="clip0_3761_7363">
<rect width="10" height="10" fill="white" transform="matrix(-1 0 0 -1 10.7891 10.5)"/>
</clipPath>
</defs>
</svg>
