<svg width="11" height="11" viewBox="0 0 11 11" fill="none" xmlns="http://www.w3.org/2000/svg">
<g id="chevron-up" clip-path="url(#clip0_3664_7355)">
<path id="Vector" d="M9.39034 7.98978C9.15195 7.98973 8.92335 7.90208 8.75481 7.7461L5.79468 5.00745L2.83456 7.7461C2.75163 7.82554 2.65244 7.88889 2.54277 7.93248C2.4331 7.97607 2.31515 7.99901 2.19579 7.99997C2.07643 8.00093 1.95806 7.97989 1.84759 7.93807C1.73712 7.89625 1.63675 7.8345 1.55235 7.75641C1.46795 7.67833 1.4012 7.58547 1.356 7.48326C1.3108 7.38105 1.28806 7.27154 1.2891 7.16111C1.29013 7.05069 1.31493 6.94156 1.36204 6.84009C1.40915 6.73862 1.47764 6.64686 1.56349 6.57014L5.15915 3.2435C5.32772 3.08759 5.55632 3 5.79468 3C6.03304 3 6.26164 3.08759 6.43021 3.2435L10.0259 6.57014C10.1516 6.68645 10.2371 6.83462 10.2718 6.99592C10.3065 7.15722 10.2887 7.32441 10.2206 7.47636C10.1526 7.6283 10.0374 7.75818 9.88965 7.84956C9.74186 7.94095 9.5681 7.98975 9.39034 7.98978Z" fill="#DE2C00"/>
</g>
<defs>
<clipPath id="clip0_3664_7355">
<rect width="10" height="10" fill="white" transform="translate(0.789062 0.5)"/>
</clipPath>
</defs>
</svg>
