<svg width="66" height="62" viewBox="0 0 66 62" fill="none" xmlns="http://www.w3.org/2000/svg">
<path d="M23.6082 44V41.408V40.076C23.6082 38.756 23.8542 37.616 24.3462 36.656C24.8382 35.684 25.4862 34.844 26.2902 34.136C27.1062 33.416 27.9942 32.786 28.9542 32.246C29.9262 31.706 30.8982 31.196 31.8702 30.716C32.8422 30.236 33.7302 29.756 34.5342 29.276C35.3502 28.784 36.0042 28.238 36.4962 27.638C36.9882 27.038 37.2342 26.33 37.2342 25.514C37.2342 24.47 36.8682 23.618 36.1362 22.958C35.4162 22.298 34.4262 21.968 33.1662 21.968C31.8582 21.968 30.7482 22.346 29.8362 23.102C28.9242 23.858 28.3602 24.998 28.1442 26.522H23.1222C23.1462 24.866 23.5302 23.366 24.2742 22.022C25.0302 20.666 26.1582 19.592 27.6582 18.8C29.1582 18.008 31.0422 17.612 33.3102 17.612C35.2542 17.612 36.9282 17.942 38.3322 18.602C39.7482 19.262 40.8402 20.18 41.6082 21.356C42.3762 22.532 42.7602 23.906 42.7602 25.478C42.7602 26.786 42.5202 27.914 42.0402 28.862C41.5602 29.81 40.9242 30.62 40.1322 31.292C39.3402 31.964 38.4702 32.552 37.5222 33.056C36.5742 33.56 35.6262 34.028 34.6782 34.46C33.7422 34.892 32.8782 35.336 32.0862 35.792C31.2942 36.236 30.6582 36.74 30.1782 37.304C29.6982 37.868 29.4582 38.546 29.4582 39.338V39.572H42.7242V44H23.6082Z" fill="#00A492"/>
<circle cx="33.5" cy="31" r="30" stroke="#00A492" stroke-width="2"/>
</svg>
