<svg width="66" height="62" viewBox="0 0 66 62" fill="none" xmlns="http://www.w3.org/2000/svg">
<path d="M22.7753 25.982C22.7753 24.11 23.2133 22.556 24.0893 21.32C24.9773 20.084 26.1713 19.16 27.6713 18.548C29.1713 17.924 30.8393 17.612 32.6753 17.612C34.6193 17.612 36.3473 17.864 37.8593 18.368C39.3833 18.872 40.5833 19.64 41.4593 20.672C42.3353 21.704 42.7733 23.012 42.7733 24.596C42.7733 25.88 42.4013 27.014 41.6573 27.998C40.9133 28.97 39.7013 29.744 38.0213 30.32C38.9813 30.584 39.8693 30.986 40.6853 31.526C41.5013 32.066 42.1553 32.756 42.6473 33.596C43.1393 34.436 43.3853 35.444 43.3853 36.62C43.3853 37.892 43.1033 39.014 42.5393 39.986C41.9753 40.958 41.1953 41.774 40.1993 42.434C39.2033 43.094 38.0513 43.586 36.7433 43.91C35.4353 44.234 34.0373 44.396 32.5493 44.396C30.4613 44.384 28.6793 44.042 27.2033 43.37C25.7393 42.686 24.6113 41.714 23.8193 40.454C23.0393 39.194 22.6373 37.694 22.6133 35.954H27.6713C27.9233 37.43 28.4993 38.498 29.3993 39.158C30.2993 39.818 31.3673 40.148 32.6033 40.148C33.6833 40.148 34.6073 39.992 35.3753 39.68C36.1553 39.368 36.7493 38.936 37.1573 38.384C37.5773 37.82 37.7873 37.178 37.7873 36.458C37.7873 35.714 37.5713 35.072 37.1393 34.532C36.7193 33.992 36.1313 33.572 35.3753 33.272C34.6193 32.96 33.7553 32.792 32.7833 32.768L30.2993 32.678V28.502L32.5313 28.376C33.4673 28.34 34.2833 28.166 34.9793 27.854C35.6753 27.542 36.2153 27.128 36.5993 26.612C36.9953 26.084 37.1933 25.49 37.1933 24.83C37.1933 24.194 36.9953 23.642 36.5993 23.174C36.2033 22.706 35.6573 22.34 34.9613 22.076C34.2653 21.812 33.4673 21.68 32.5673 21.68C31.7393 21.68 30.9773 21.818 30.2813 22.094C29.5853 22.37 29.0153 22.826 28.5713 23.462C28.1273 24.086 27.8693 24.926 27.7973 25.982H22.7753Z" fill="#00A492"/>
<circle cx="33.5" cy="31" r="30" stroke="#00A492" stroke-width="2"/>
</svg>
