<svg width="442" height="382" viewBox="0 0 442 382" fill="none" xmlns="http://www.w3.org/2000/svg">
<path d="M186.438 1.58797C83.0999 1.58797 1.63281 93.0382 1.63281 201.947H116.306C116.306 169.333 135.044 142.054 160.679 131.136C207.27 111.55 256.239 149.007 256.239 201.947H370.912C372.822 97.1448 291.467 1.58797 186.438 1.58797Z" fill="#FFECE8"/>
<path d="M186.44 126.997C185.886 126.997 185.438 126.51 185.438 125.91V1.58596C185.438 0.986276 185.886 0.499573 186.44 0.499573C186.993 0.499573 187.442 0.986276 187.442 1.58596V125.91C187.442 126.51 186.993 126.997 186.44 126.997Z" fill="#FFFBFA"/>
<path d="M119.799 179.608L8.70302 149.304C7.4264 148.957 7.89336 146.855 9.19202 147.197L120.041 177.468C121.18 177.778 120.973 179.608 119.799 179.608Z" fill="#FFFBFA"/>
<path d="M254.581 180.329C253.408 180.329 253.196 178.506 254.332 178.191L364.087 147.635C365.043 146.679 366.394 148.207 365.476 149.202C364.855 149.876 254.781 180.329 254.581 180.329Z" fill="#FFFBFA"/>
<path d="M136.245 150.058C135.738 150.058 136.069 150.202 41.6051 77.9697C41.1522 77.6242 41.044 76.9463 41.3626 76.4552C41.6813 75.9642 42.3065 75.849 42.7595 76.1923L136.824 148.083C137.622 148.694 137.221 150.058 136.245 150.058Z" fill="#FFFBFA"/>
<path d="M240.288 152.762C239.312 152.762 238.913 151.397 239.709 150.787L332.277 79.9756C332.73 79.6301 333.355 79.7475 333.674 80.2385C333.992 80.7296 333.884 81.4075 333.433 81.7529C240.422 152.905 240.795 152.762 240.288 152.762Z" fill="#FFFBFA"/>
<path d="M160.848 132.222C160.485 132.222 160.135 132.007 159.956 131.634L107.44 21.3648C107.186 20.8303 107.378 20.1763 107.871 19.9003C108.364 19.6266 108.968 19.8352 109.222 20.3675L161.74 130.636C162.087 131.364 161.592 132.222 160.848 132.222Z" fill="#FFFBFA"/>
<path d="M217.629 132.078L269.481 23.4299C269.736 22.8976 270.341 22.689 270.832 22.9649C271.323 23.2387 271.515 23.8949 271.261 24.4294L219.409 133.077C218.803 134.344 217.02 133.355 217.629 132.078Z" fill="#FFFBFA"/>
<path d="M186.608 0.679634C84.1537 0.679634 0.800781 90.9675 0.800781 201.947C0.800781 202.547 1.2497 203.033 1.80284 203.033H116.476C117.029 203.033 117.478 202.547 117.478 201.947C117.478 159.747 148.696 126.997 186.443 126.997C224.564 126.997 255.573 160.618 255.573 201.947C255.573 202.547 256.022 203.033 256.575 203.033H371.248C371.801 203.033 372.25 202.547 372.25 201.947C372.25 89.1858 287.272 0.679634 186.608 0.679634ZM257.569 200.858C257.028 158.832 225.329 124.822 186.441 124.822C147.76 124.822 115.965 158.196 115.48 200.858H2.80689C3.348 91.5759 85.5926 2.85242 186.608 2.85242C286.484 2.85242 369.713 90.7871 370.242 200.858H257.569Z" fill="#FF7A59"/>
<path d="M183.781 155.642C175.305 164.47 175.139 179.064 183.282 188.255C191.424 197.444 204.886 197.624 213.361 188.796C230.979 170.238 257.57 110.598 257.57 110.598C257.57 110.598 201.563 137.264 183.781 155.642Z" fill="#FF7A59"/>
<path d="M204.727 155.822C196.917 152.939 188.442 157.443 185.946 165.732C183.453 173.841 187.443 182.489 194.754 185.372C202.234 188.436 210.709 184.11 213.368 176.003C216.194 167.894 212.206 158.705 204.727 155.822Z" fill="#FFFBFA"/>
<path d="M391.118 73.1237C388.483 70.3898 380.849 82.957 379.363 79.4393C375.246 69.7044 376.934 55.3747 375.444 44.8278C375.222 43.247 374.464 33.8935 372.016 34.263C370.423 34.5029 369.913 38.6313 369.689 39.8501C366.486 57.1819 368.685 67.3787 367.975 66.3239C366.995 64.8667 366.881 60.2496 366.506 58.4275C360.015 26.897 354.362 23.2036 358.302 60.9767C358.302 61.4624 359.282 68.1415 358.792 68.2637C357.384 68.4961 357.766 62.9001 349.609 45.3194C348.99 43.986 347.772 41.1895 346.179 41.1895C340.684 41.1895 352.993 77.124 350.955 78.4724C349.702 76.7021 348.596 74.8336 347.65 72.8853C345.975 69.104 340.34 52.8672 337.486 55.8842C334.584 58.9534 338.556 69.6165 339.439 72.6425C344.279 89.0908 348.99 111.262 358.786 125.831C359.161 126.202 360.632 121.94 378.867 104.458L378.744 104.335C378.324 93.3132 394.208 76.3314 391.118 73.1237Z" fill="#FFD0C4"/>
<path d="M375.18 87.1459C375.075 87.2218 374.998 87.3276 374.959 87.4498C374.919 87.572 374.92 87.7031 374.961 87.8252C375.001 87.9474 375.081 88.0532 375.186 88.1277C375.291 88.2022 375.418 88.2409 375.547 88.2394C376.088 88.2394 378.589 85.7066 378.975 85.3252C383.677 80.6619 384.518 81.7793 384.118 80.5889C382.932 78.8247 377.324 85.729 375.18 87.1459Z" fill="#2D3E50"/>
<path d="M441.918 179.574C412.71 151.854 382.54 103.31 381.063 103.31C380.613 103.31 380.713 103.294 380.084 103.916C380.535 93.1505 396.142 76.6113 392.573 73.0758C389.232 69.7623 382.704 81.3819 380.94 79.6313C376.785 69.8889 378.425 55.583 377.022 45.1419C377.022 44.9929 376.175 36.0536 374.084 34.4564C369.277 31.277 368.388 52.0371 368.329 57.7732C368.263 64.1797 368.006 59.0559 367.961 58.8652C367.123 55.2344 364.288 43.0799 363.186 40.8927C361.834 36.3992 360.612 33.4642 358.9 33.7279C357.429 33.9529 357.186 36.3992 357.186 39.9213C357.333 48.856 357.985 57.7755 359.139 66.638C358.538 65.2554 351.458 41.1356 346.894 41.1356C340.967 41.1356 350.032 68.0921 351.18 77.2028C347.408 70.7963 342.98 55.9749 339.059 55.586C333.972 55.586 337.588 67.4872 339.18 72.2236C339.235 72.4381 342.916 85.1275 342.977 85.3346C347.032 99.5064 351.425 115.579 359.017 126.868C352.434 146.453 384.235 214.427 386.207 214.427C386.554 214.429 444.48 182.006 441.918 179.574ZM359.758 125.655C349.819 110.54 344.98 85.5774 340.779 73.0713C339.648 69.7071 336.202 59.3375 338.697 56.7973C339.44 56.0419 340.912 58.4213 341.513 59.348C343.603 61.4204 349.28 78.9504 351.676 79.6283C355.664 79.6283 343.33 45.7677 346.779 42.3469C348.798 40.3445 355.805 59.9275 356.693 62.7479C358.646 68.9086 359.142 69.5492 359.878 69.4285C360.614 69.3079 360.857 69.1842 359.999 62.1415C359.999 61.9821 355.204 19.5069 362.082 41.2533C368.959 62.9997 366.412 67.6064 369.182 67.6064C370.204 67.2012 369.246 66.5411 369.55 58.013C370.199 39.8156 373.348 25.5544 375.55 44.7754C375.57 45.0212 375.61 45.265 375.672 45.5039C377.081 55.9823 375.441 70.2539 379.591 80.3569C381.093 84.8265 388.191 74.0427 390.978 74.0427C391.101 74.0427 391.346 74.1634 391.346 74.2856C392.196 75.2987 390.243 78.9132 390.243 79.1426C388.405 84.615 378.495 95.4613 378.857 105.131C375.064 108.896 363.43 120.433 359.758 125.655Z" fill="#2D3E50"/>
<path d="M346.934 73.9914C342.375 73.5981 337.443 95.5367 337.261 96.2161C336.649 95.851 337.506 88.6862 337.628 87.9576C338.241 78.6071 339.581 69.2581 339.465 59.9046C339.301 47.4327 334.191 47.8707 331.996 58.0839C330.608 64.5381 330.894 75.526 329.178 83.4224C329.328 83.4224 327.084 57.9334 324.772 44.8478C324.514 43.3921 322.333 36.7607 319.997 37.1972C315.069 38.1179 319.546 61.8637 317.719 83.0157C317.719 82.2871 315.341 73.6294 314.976 72.1723C310.363 53.7498 308.167 44.4529 304.814 44.8478C299.526 45.4705 307.003 67.1052 308.608 85.7735C307.668 85.7735 308.158 86.3143 305.425 81.645C304.488 80.0404 299.059 74.717 298.936 79.58C298.828 83.9007 302.881 94.6964 303.956 102.289C304.902 108.972 304.569 112.855 304.936 113.827C303.812 114.384 303.465 113.326 308.364 118.445C325.328 136.16 322.819 136.54 324.888 136.54C332.97 130.469 337.527 121.431 339.402 111.601C342.056 97.6776 347.514 86.4663 347.79 77.9799C347.87 75.6869 347.646 74.054 346.934 73.9914Z" fill="#FFFBFA"/>
<path d="M324.772 137.506C322.274 131.311 309.051 118.395 301.997 111.397C301.273 110.679 301.34 111.478 288.283 127.305C235.493 191.385 222.086 192.9 224.462 195.704C229.015 201.075 277.859 227.366 283.997 230.651C284.298 230.651 284.211 231.047 284.732 230.53C284.732 229.453 325.545 170.489 324.772 137.506Z" fill="#00A492"/>
<path d="M321.833 151.836C319.629 149.899 316.575 147.344 312.528 144.308C315.098 140.3 318.038 136.292 320.976 132.527C321.064 132.397 321.099 132.24 321.073 132.086C321.047 131.933 320.962 131.794 320.836 131.7C320.71 131.606 320.553 131.565 320.397 131.583C320.24 131.602 320.097 131.678 319.997 131.799C316.934 135.546 314.112 139.48 311.548 143.579C307.263 140.301 302.119 136.414 297.099 132.77C308.215 118.653 308.469 119.03 307.752 118.318C307.189 117.759 307.222 117.776 295.998 132.04C293.426 130.103 290.977 128.397 289.14 127.061C288.895 126.818 288.529 126.94 288.284 127.183C287.662 127.8 288.604 128.174 295.263 132.891C288.406 141.755 281.06 151.228 274.082 160.336C271.142 158.758 268.08 157.058 264.898 155.236C264.752 155.155 264.579 155.136 264.419 155.181C264.258 155.227 264.122 155.334 264.041 155.479C263.96 155.623 263.94 155.795 263.986 155.954C264.032 156.113 264.14 156.248 264.286 156.328C267.469 158.15 270.408 159.85 273.346 161.429C266.856 169.809 260.49 178.31 254.245 186.203C240.828 179.085 241.19 178.992 240.532 179.648C240.126 180.452 240.488 180.269 253.511 187.178C239.524 205.244 239.773 204.831 239.552 205.272C239.102 205.719 239.838 206.689 240.532 206.001C240.982 205.122 241.495 205.031 254.612 187.784C265.691 193.7 267.943 195.014 279.098 200.779C275.295 207.336 271.038 213.625 266.359 219.599C266.271 219.729 266.237 219.887 266.263 220.04C266.289 220.194 266.373 220.332 266.499 220.426C266.625 220.52 266.783 220.562 266.939 220.542C267.095 220.524 267.238 220.448 267.339 220.328C271.987 214.262 276.28 207.938 280.196 201.384C296.57 209.903 296.489 209.407 296.72 209.641C296.865 209.636 297.003 209.583 297.113 209.49C297.223 209.396 297.299 209.27 297.327 209.13C297.355 208.99 297.335 208.844 297.269 208.715C297.204 208.587 297.096 208.486 296.965 208.426C297.171 208.426 295.579 208.106 280.803 200.29C286.077 191.281 290.717 182.702 295.496 173.573C295.496 173.573 303.784 178.18 310.189 181.71C311.24 181.71 311.05 180.986 310.679 180.616C304.273 177.088 295.986 172.48 295.986 172.48C300.883 163.372 306.148 153.779 311.781 145.155C315.699 148.192 318.761 150.62 320.964 152.565C321.349 152.934 322.373 152.372 321.833 151.836ZM275.182 161.066C282.161 151.958 289.385 142.485 296.363 133.741C301.506 137.386 306.648 141.271 310.934 144.55C305.304 153.299 300.039 162.888 295.14 171.996C288.774 168.596 282.161 164.953 275.182 161.066ZM279.712 199.803C277.506 198.663 261.773 190.372 255.345 186.93C261.468 178.915 267.964 170.542 274.325 162.156C281.426 166.164 288.039 169.807 294.405 173.207C289.435 182.365 284.878 191.215 279.712 199.803Z" fill="#FFFBFA"/>
<path d="M346.933 73.3856C343.478 73.1576 339.025 84.8786 338.07 88.0833C338.952 78.7328 343.089 46.2175 335.307 50.0688C330.745 52.2232 330.292 65.1569 330.05 69.7353C328.729 103.769 329.419 34.6426 319.519 36.4617C313.945 37.3333 318.8 63.0502 317.437 79.9366C311.555 60.4966 309.744 43.409 304.458 43.9901C298.331 45.2073 305.424 62.8759 307.641 84.4301C307.063 83.4736 305.921 81.4265 305.688 81.0302C305.077 80.1809 301.771 76.2938 299.567 76.7795C294.49 78.2188 304.096 93.6882 304.096 114.185C304.397 114.781 305.574 114.2 305.199 113.455C304.937 112.935 305.236 108.125 304.341 101.918C303.289 93.277 297.593 78.6061 299.812 77.8731C301.183 77.5751 304.649 81.0615 305.567 83.338C306.769 85.4149 307.153 86.3178 307.771 86.0094C308.081 88.7865 307.736 89.7743 308.627 89.7743C308.786 89.7639 308.936 89.6968 309.049 89.5851C309.162 89.4734 309.229 89.3244 309.24 89.1664C306.686 63.7684 301.506 48.8635 303.851 45.6916C306.175 43.3867 308.308 50.3102 309.109 53.4628C315.483 78.7462 316.629 81.8362 317.071 83.5809C317.076 83.724 317.129 83.8614 317.223 83.9706C317.316 84.08 317.444 84.1546 317.586 84.1828C317.728 84.2108 317.875 84.1907 318.003 84.1256C318.132 84.0603 318.235 83.9541 318.295 83.8237C318.295 83.0594 318.968 77.1371 318.785 70.5861C317.807 45.854 317.219 38.0618 319.519 37.5538C320.988 37.3124 323.275 42.904 323.56 44.7187C325.363 56.0597 327.478 74.5939 328.217 83.8237C327.954 84.8945 327.627 85.9487 327.238 86.9808C326.924 87.8598 329.83 91.5801 330.91 69.6147C331.124 65.6948 331.522 52.916 335.319 51.0343C341.415 48.0098 335.629 89.6015 335.725 95.0366C335.763 97.2118 337.124 97.8331 337.645 94.3885C340.863 80.026 347.218 68.9502 347.074 77.8731C346.951 85.4283 342.661 91.8885 338.869 111.512C335.199 130.508 322.093 135.433 323.565 136.893C323.612 136.959 323.672 137.013 323.741 137.054C323.81 137.096 323.887 137.123 323.967 137.135C324.047 137.145 324.128 137.141 324.206 137.12C324.284 137.099 324.357 137.063 324.421 137.014C332.685 130.87 338.287 121.841 340.093 111.755C343.652 93.3828 352.257 73.697 346.933 73.3856Z" fill="#2D3E50"/>
<path d="M287.99 245.37C286.992 243.569 285.495 242.313 283.669 241.766C252.73 232.503 126.697 193.884 95.8722 184.83C92.0583 183.711 88.1944 186.081 87.0641 190.236C85.6953 195.268 58.7621 300.131 54.9883 314.919C53.838 319.427 56.5936 323.275 59.9746 324.288C90.914 333.55 216.947 372.17 247.772 381.224C251.586 382.343 255.46 379.976 256.58 375.818C260.552 361.088 286.954 257.427 288.656 251.135C289.143 249.329 288.822 247.174 287.99 245.37Z" fill="#00A492"/>
<path d="M281.509 278.342C246.693 266.783 115.232 229.003 80.4162 217.441C79.9132 217.274 79.5845 217.622 79.4182 217.982C79.2518 218.343 74.931 235.64 74.931 236.001C74.7646 236.542 75.0973 236.903 75.43 237.083L276.522 297.984C277.887 297.984 277.124 298.184 282.11 279.474C282.176 279.226 282.426 278.646 281.509 278.342Z" fill="#2D3E50"/>
<path d="M79.4214 308.797C78.7581 308.797 78.2771 308.113 78.4554 307.419L83.109 289.222C83.2573 288.644 83.8104 288.31 84.3415 288.466C84.8746 288.627 85.1872 289.227 85.0389 289.805L80.3854 308.002C80.2631 308.482 79.8603 308.797 79.4214 308.797Z" fill="#FFFBFA"/>
<path d="M87.898 311.5C87.2346 311.5 86.7536 310.816 86.932 310.123L91.5855 291.926C91.7338 291.348 92.287 291.015 92.8181 291.17C93.3512 291.33 93.6638 291.93 93.5155 292.508L88.862 310.705C88.7397 311.185 88.3369 311.5 87.898 311.5Z" fill="#FFFBFA"/>
<path d="M96.3784 314.022C95.7151 314.022 95.2341 313.338 95.4125 312.644L100.066 294.447C100.214 293.869 100.767 293.535 101.299 293.691C101.832 293.852 102.144 294.452 101.996 295.03L97.3424 313.227C97.2182 313.707 96.8173 314.022 96.3784 314.022Z" fill="#FFFBFA"/>
<path d="M104.847 316.545C104.184 316.545 103.703 315.86 103.881 315.167L108.535 296.97C108.683 296.392 109.236 296.055 109.767 296.214C110.3 296.375 110.613 296.974 110.465 297.552L105.811 315.749C105.687 316.23 105.286 316.545 104.847 316.545Z" fill="#FFFBFA"/>
</svg>
