<svg width="93" height="48" viewBox="0 0 93 48" fill="none" xmlns="http://www.w3.org/2000/svg">
<path fill-rule="evenodd" clip-rule="evenodd" d="M72.3739 27.6654H92.8066V48H0.566406V27.6654H21.1164C21.0356 24.4405 21.5049 21.1988 22.5014 18.1573C23.4973 15.1163 25.0198 12.275 26.9544 9.80834C28.8891 7.34171 31.2359 5.24928 33.8421 3.65433C39.0544 0.452089 45.3109 -0.697659 51.2204 0.411661C54.1747 0.960897 57.0406 2.05888 59.6473 3.65433C62.254 5.24977 64.6008 7.34171 66.5354 9.80883C68.4933 12.3122 70.0003 15.1374 70.989 18.1578C71.9874 21.2253 72.4557 24.4406 72.3739 27.6654Z" fill="#10161C"/>
<path fill-rule="evenodd" clip-rule="evenodd" d="M17.8106 36.4792C17.6025 35.4152 17.1406 34.3493 16.3739 33.6142C15.6077 32.8796 14.5364 32.4713 13.4749 32.4713H7.56641V43.4432H13.4744C14.4744 43.4423 15.4374 43.0653 16.1723 42.3872C16.9148 41.6984 17.4211 40.6833 17.6972 39.6444C17.9733 38.6061 18.0187 37.5441 17.8106 36.4792ZM15.0772 38.9803C14.9022 39.6459 14.5739 40.2967 14.0927 40.7385C13.6115 41.1802 12.9779 41.4144 12.3463 41.4144H10.5409V34.3784H12.3463C13.0795 34.3784 13.8392 34.6136 14.3357 35.0918C14.8317 35.57 15.0644 36.2642 15.1694 36.951C15.274 37.6368 15.2523 38.3152 15.0772 38.9803ZM26.9282 41.3799H22.3174L21.5887 43.4437H18.949L22.8213 32.4718H26.4229L30.2951 43.4437H27.6554L26.9282 41.3799ZM26.2607 39.4882L24.6233 34.8482L22.9855 39.4882H26.2607ZM40.8554 32.4585L36.4753 39.961V43.3895H33.6596V39.961L29.7489 32.4585H32.6927L35.3024 37.3602L37.912 32.4585H40.8554ZM41.5929 34.6855C41.4204 35.2915 41.4214 35.9201 41.6161 36.4767C41.8114 37.0338 42.1994 37.519 42.6288 37.8597C43.0582 38.2004 43.5291 38.3946 44.2997 38.6086C45.0703 38.8221 46.1407 39.0543 46.7377 39.5108C47.3353 39.9674 47.4595 40.6483 47.216 41.0624C46.9719 41.477 46.3596 41.6259 45.7561 41.619C45.1521 41.6121 44.5561 41.4509 44.1971 41.1743C43.8382 40.8977 43.7164 40.5058 43.7948 40.1533L41.3203 40.139C41.3021 40.5329 41.342 40.9298 41.4278 41.307C41.5136 41.6841 41.6462 42.0426 41.976 42.4276C42.3059 42.8132 42.8339 43.2263 43.4014 43.4571C43.9689 43.6883 44.5768 43.7361 45.2147 43.7233C45.8527 43.71 46.5213 43.6345 47.2426 43.4763C47.9629 43.318 48.736 43.0759 49.2522 42.6228C49.7674 42.1698 50.0262 41.5056 50.1564 40.9032C50.2866 40.3007 50.2875 39.7588 50.1603 39.2535C50.0331 38.7481 49.7773 38.2797 49.3823 37.9124C48.9864 37.5451 48.45 37.2794 47.6839 37.0743C46.9177 36.8687 45.9203 36.7237 45.2705 36.4614C44.6211 36.1991 44.3189 35.819 44.2533 35.3891C44.1878 34.9592 44.3584 34.479 44.7779 34.2413C45.1975 34.0032 45.8656 34.0071 46.2979 34.1284C46.7303 34.2497 46.9275 34.4878 47.0789 34.7289C47.2293 34.97 47.3343 35.2141 47.389 35.4695H49.7358C49.8054 34.9523 49.7107 34.4124 49.4459 33.9337C49.1812 33.4549 48.7458 33.0368 48.1739 32.708C47.602 32.3796 46.893 32.141 46.2156 32.0675C45.5382 31.9941 44.8933 32.0873 44.2726 32.2554C43.6518 32.4235 43.0543 32.6676 42.5825 33.0817C42.1106 33.4959 41.7655 34.0786 41.5929 34.6855ZM56.7374 43.4432H59.3766V32.4718H56.7374V43.4432ZM70.2331 39.9102V32.4718H72.8723V43.4432H68.9419L65.2441 35.7608V43.4432H62.6054V32.4718H66.6527L70.2331 39.9102ZM83.7289 39.9102V32.4718H86.3681V43.4432H82.4376L78.7399 35.7608V43.4432H76.1002V32.4718H80.1485L83.7289 39.9102Z" fill="white"/>
<path fill-rule="evenodd" clip-rule="evenodd" d="M44.1813 3.80457L42.6706 8.51498L39.2382 5.2881L39.3555 10.0463L35.0691 7.44954L35.9161 12.1422L31.2555 10.745L33.0743 15.1344L28.2815 14.6867L31.0795 18.7991L26.268 19.5086L29.6206 22.7853L25.5156 24.7702L29.6911 27.0628H64.153L68.328 24.7702L64.223 22.7853L67.5761 19.5086L62.7641 18.7991L65.5626 14.6867L60.7698 15.1344L62.5881 10.745L57.9275 12.1422L58.775 7.44954L54.7238 10.0463L54.3713 5.52426L51.1735 8.51498L49.6623 3.80457L46.9058 8.14274L44.1813 3.80457Z" fill="white"/>
</svg>
