<svg width="184" height="169" viewBox="0 0 184 169" fill="none" xmlns="http://www.w3.org/2000/svg">
<path d="M78.6872 12.418C39.3378 12.418 8.31641 47.5287 8.31641 89.3423H51.9821C51.9821 76.8208 59.1174 66.3474 68.8787 62.1556C86.62 54.6361 105.266 69.0169 105.266 89.3423H148.932C149.659 49.1053 118.681 12.418 78.6872 12.418Z" fill="#FFECE8"/>
<path d="M78.6902 60.5664C78.4795 60.5664 78.3086 60.3795 78.3086 60.1493V12.4171C78.3086 12.1869 78.4795 12 78.6902 12C78.9008 12 79.0717 12.1869 79.0717 12.4171V60.1493C79.0717 60.3795 78.9008 60.5664 78.6902 60.5664Z" fill="#FFFBFA"/>
<path d="M53.3132 80.7655L11.0097 69.1309C10.5236 68.9974 10.7014 68.1907 11.1959 68.3217L53.4055 79.9438C53.839 80.0631 53.7604 80.7655 53.3132 80.7655Z" fill="#FFFBFA"/>
<path d="M104.634 81.0424C104.188 81.0424 104.107 80.3425 104.54 80.2215L146.333 68.4902C146.697 68.1231 147.211 68.7096 146.861 69.0916C146.625 69.3502 104.71 81.0424 104.634 81.0424Z" fill="#FFFBFA"/>
<path d="M59.5783 69.4206C59.3853 69.4206 59.5112 69.4757 23.5409 41.7435C23.3684 41.6109 23.3272 41.3506 23.4486 41.1621C23.5699 40.9735 23.808 40.9293 23.9805 41.0611L59.7989 68.6624C60.1026 68.8968 59.95 69.4206 59.5783 69.4206Z" fill="#FFFBFA"/>
<path d="M99.1905 70.4588C98.8189 70.4588 98.667 69.9349 98.97 69.7005L134.218 42.5139C134.391 42.3812 134.629 42.4263 134.75 42.6148C134.872 42.8034 134.83 43.0636 134.659 43.1963C99.2417 70.5139 99.3836 70.4588 99.1905 70.4588Z" fill="#FFFBFA"/>
<path d="M68.942 62.5726C68.8039 62.5726 68.6703 62.49 68.6024 62.3466L48.6053 20.0108C48.5084 19.8056 48.5816 19.5545 48.7694 19.4486C48.9571 19.3435 49.1868 19.4236 49.2837 19.6279L69.2816 61.9637C69.4136 62.2431 69.2251 62.5726 68.942 62.5726Z" fill="#FFFBFA"/>
<path d="M90.5671 62.5166L110.312 20.8032C110.409 20.5988 110.639 20.5187 110.826 20.6247C111.013 20.7298 111.086 20.9817 110.989 21.1869L91.2448 62.9003C91.0143 63.3867 90.3351 63.0071 90.5671 62.5166Z" fill="#FFFBFA"/>
<path d="M78.7524 12.0693C39.7395 12.0693 8 46.7337 8 89.3423C8 89.5726 8.17094 89.7594 8.38157 89.7594H52.0473C52.2579 89.7594 52.4289 89.5726 52.4289 89.3423C52.4289 73.1404 64.3162 60.5665 78.6898 60.5665C93.2054 60.5665 105.013 73.4749 105.013 89.3423C105.013 89.5726 105.184 89.7594 105.395 89.7594H149.061C149.271 89.7594 149.442 89.5726 149.442 89.3423C149.442 46.0497 117.084 12.0693 78.7524 12.0693ZM105.773 88.9244C105.567 72.7892 93.4969 59.7314 78.689 59.7314C63.9598 59.7314 51.8527 72.5448 51.668 88.9244H8.7639C8.96994 46.9673 40.2874 12.9035 78.7524 12.9035C116.784 12.9035 148.476 46.6645 148.678 88.9244H105.773Z" fill="#FF7A59"/>
<path d="M77.6799 71.5641C74.4526 74.9535 74.3892 80.5568 77.4898 84.0854C80.5905 87.6133 85.7163 87.6825 88.9436 84.2932C95.6523 77.1683 105.778 54.2703 105.778 54.2703C105.778 54.2703 84.4511 64.5084 77.6799 71.5641Z" fill="#FF7A59"/>
<path d="M85.653 71.6335C82.6791 70.5265 79.4519 72.2558 78.5018 75.4383C77.5524 78.5515 79.0718 81.8716 81.8557 82.9786C84.7037 84.1548 87.931 82.4939 88.9437 79.3815C90.0197 76.2683 88.501 72.7405 85.653 71.6335Z" fill="#FFFBFA"/>
<path d="M156.621 39.8833C155.617 38.8337 152.71 43.6586 152.145 42.3081C150.577 38.5706 151.22 33.0689 150.652 29.0196C150.568 28.4127 150.279 24.8216 149.347 24.9635C148.741 25.0556 148.546 26.6406 148.461 27.1085C147.241 33.7628 148.079 37.6776 147.808 37.2727C147.435 36.7132 147.392 34.9406 147.249 34.241C144.777 22.1354 142.625 20.7174 144.125 35.2197C144.125 35.4062 144.498 37.9705 144.312 38.0174C143.776 38.1067 143.921 35.9582 140.815 29.2084C140.579 28.6964 140.115 27.6228 139.509 27.6228C137.416 27.6228 142.104 41.4192 141.327 41.9369C140.85 41.2572 140.429 40.5398 140.069 39.7918C139.431 38.34 137.285 32.1062 136.199 33.2645C135.093 34.4429 136.606 38.5368 136.942 39.6986C138.785 46.0136 140.579 54.5258 144.309 60.1195C144.452 60.262 145.012 58.6254 151.956 51.9134L151.909 51.8665C151.749 47.6347 157.797 41.1149 156.621 39.8833Z" fill="#FFD0C4"/>
<path d="M150.552 45.2668C150.512 45.296 150.483 45.3366 150.468 45.3835C150.453 45.4304 150.453 45.4807 150.469 45.5277C150.484 45.5746 150.515 45.6152 150.555 45.6438C150.595 45.6724 150.643 45.6872 150.692 45.6867C150.898 45.6867 151.85 44.7143 151.997 44.5678C153.788 42.7774 154.108 43.2064 153.956 42.7494C153.504 42.0721 151.369 44.7228 150.552 45.2668Z" fill="#2D3E50"/>
<path d="M175.964 80.7531C164.843 70.1102 153.354 51.4728 152.792 51.4728C152.621 51.4728 152.659 51.4665 152.419 51.7057C152.591 47.5723 158.534 41.2223 157.175 39.8649C155.903 38.5928 153.417 43.0539 152.745 42.3818C151.163 38.6414 151.788 33.1489 151.253 29.1402C151.253 29.083 150.931 25.6509 150.135 25.0377C148.304 23.817 147.965 31.7875 147.943 33.9898C147.918 36.4494 147.82 34.4823 147.803 34.4091C147.484 33.0151 146.404 28.3486 145.985 27.5088C145.47 25.7836 145.005 24.6568 144.353 24.758C143.793 24.8444 143.7 25.7836 143.7 27.1359C143.756 30.5662 144.004 33.9907 144.444 37.3933C144.215 36.8624 141.519 27.6021 139.781 27.6021C137.524 27.6021 140.976 37.9515 141.413 41.4494C139.977 38.9898 138.29 33.2993 136.797 33.1501C134.861 33.1501 136.237 37.7193 136.844 39.5377C136.864 39.6201 138.266 44.492 138.289 44.5715C139.834 50.0125 141.506 56.1834 144.397 60.5175C141.891 68.0367 154 94.1343 154.751 94.1343C154.883 94.1349 176.94 81.6867 175.964 80.7531ZM144.679 60.0519C140.895 54.2488 139.052 44.6647 137.452 39.8632C137.022 38.5716 135.709 34.5904 136.66 33.6151C136.943 33.3251 137.503 34.2386 137.732 34.5944C138.528 35.3901 140.689 42.1204 141.602 42.3807C143.12 42.3807 138.424 29.3805 139.737 28.0671C140.506 27.2983 143.174 34.8169 143.512 35.8997C144.256 38.265 144.445 38.511 144.725 38.4646C145.005 38.4183 145.098 38.3708 144.771 35.6669C144.771 35.6057 142.945 19.2981 145.564 27.6473C148.183 35.9964 147.213 37.7651 148.268 37.7651C148.657 37.6095 148.292 37.3561 148.408 34.0819C148.655 27.0953 149.854 21.6199 150.693 28.9995C150.7 29.0939 150.716 29.1875 150.739 29.2792C151.276 33.3022 150.651 38.7815 152.232 42.6604C152.804 44.3764 155.506 40.2362 156.567 40.2362C156.614 40.2362 156.708 40.2825 156.708 40.3294C157.031 40.7184 156.288 42.1061 156.288 42.1942C155.588 44.2952 151.814 48.4595 151.952 52.1718C150.507 53.6173 146.078 58.047 144.679 60.0519Z" fill="#2D3E50"/>
<path d="M139.797 40.2162C138.061 40.0652 136.183 48.4881 136.114 48.7489C135.881 48.6088 136.207 45.858 136.254 45.5783C136.487 41.9883 136.997 38.3989 136.953 34.8078C136.891 30.0194 134.945 30.1876 134.109 34.1088C133.581 36.5867 133.689 40.8054 133.036 43.837C133.093 43.837 132.239 34.051 131.358 29.027C131.26 28.4681 130.429 25.9221 129.54 26.0897C127.664 26.4432 129.368 35.56 128.673 43.6809C128.673 43.4012 127.767 40.0772 127.628 39.5178C125.872 32.4448 125.035 28.8754 123.759 29.027C121.745 29.2661 124.592 37.5723 125.204 44.7397C124.845 44.7397 125.032 44.9473 123.991 43.1546C123.635 42.5386 121.567 40.4948 121.52 42.3618C121.479 44.0207 123.022 48.1655 123.432 51.0805C123.792 53.6465 123.665 55.1372 123.805 55.5102C123.377 55.7241 123.245 55.318 125.11 57.2834C131.57 64.0847 130.615 64.2305 131.402 64.2305C134.48 61.8996 136.215 58.4297 136.929 54.6556C137.94 49.3101 140.018 45.0057 140.123 41.7475C140.154 40.8671 140.069 40.2402 139.797 40.2162Z" fill="#FFFBFA"/>
<path d="M131.357 64.6014C130.406 62.223 125.371 57.2642 122.685 54.5774C122.409 54.3017 122.435 54.6083 117.463 60.6848C97.3615 85.2872 92.2562 85.8689 93.1611 86.9454C94.8949 89.0076 113.494 99.1013 115.831 100.363C115.946 100.363 115.912 100.515 116.111 100.316C116.111 99.9027 131.652 77.2647 131.357 64.6014Z" fill="#00A492"/>
<path d="M130.239 70.1026C129.4 69.359 128.237 68.378 126.696 67.2122C127.675 65.6735 128.794 64.1348 129.913 62.6893C129.947 62.6395 129.96 62.5789 129.95 62.52C129.94 62.4611 129.908 62.4079 129.86 62.3718C129.812 62.3358 129.752 62.3198 129.692 62.3267C129.633 62.3341 129.578 62.3633 129.54 62.4096C128.374 63.8482 127.299 65.3589 126.323 66.9325C124.691 65.6741 122.733 64.1817 120.821 62.7826C125.054 57.3627 125.15 57.5074 124.878 57.234C124.663 57.0195 124.676 57.0258 120.402 62.5023C119.422 61.7586 118.49 61.1037 117.79 60.5906C117.697 60.4974 117.558 60.5443 117.464 60.6375C117.228 60.8743 117.586 61.0179 120.122 62.8289C117.511 66.2324 114.713 69.8692 112.056 73.366C110.937 72.7602 109.771 72.1075 108.559 71.408C108.504 71.3771 108.438 71.3696 108.377 71.3868C108.316 71.4045 108.264 71.4457 108.233 71.5012C108.202 71.5567 108.195 71.6225 108.212 71.6837C108.23 71.7449 108.271 71.7964 108.326 71.8272C109.538 72.5268 110.657 73.1795 111.776 73.7858C109.305 77.0028 106.881 80.2668 104.503 83.2973C99.3938 80.5642 99.5316 80.5287 99.2811 80.7804C99.1266 81.0893 99.2645 81.019 104.223 83.6714C98.8973 90.6077 98.9922 90.4492 98.9081 90.6185C98.7365 90.7901 99.0168 91.1625 99.2811 90.8982C99.4527 90.5608 99.6478 90.5259 104.643 83.9042C108.861 86.1757 109.719 86.6802 113.966 88.8933C112.518 91.4108 110.897 93.8252 109.116 96.119C109.082 96.1688 109.069 96.2294 109.079 96.2883C109.089 96.3473 109.121 96.4005 109.169 96.4365C109.217 96.4725 109.277 96.4885 109.336 96.4811C109.396 96.4742 109.45 96.4451 109.489 96.3987C111.259 94.0701 112.894 91.6419 114.385 89.1256C120.62 92.3964 120.589 92.2059 120.677 92.2957C120.732 92.294 120.784 92.2734 120.826 92.2379C120.868 92.2019 120.897 92.1532 120.908 92.0995C120.919 92.0457 120.911 91.9896 120.886 91.9404C120.861 91.8913 120.82 91.8524 120.77 91.8295C120.848 91.8295 120.242 91.7065 114.616 88.7057C116.624 85.2467 118.391 81.9531 120.211 78.4483C120.211 78.4483 123.366 80.217 125.805 81.5721C126.206 81.5721 126.133 81.2941 125.992 81.1522C123.553 79.7977 120.397 78.0285 120.397 78.0285C122.262 74.5317 124.267 70.8485 126.412 67.5377C127.904 68.7035 129.069 69.6359 129.909 70.3823C130.055 70.5242 130.445 70.3086 130.239 70.1026ZM112.475 73.6463C115.133 70.1495 117.884 66.5127 120.541 63.1555C122.499 64.5547 124.457 66.0465 126.089 67.3055C123.945 70.6643 121.94 74.3458 120.075 77.8426C117.651 76.5372 115.133 75.1387 112.475 73.6463ZM114.2 88.5187C113.36 88.0811 107.369 84.8978 104.922 83.5764C107.253 80.499 109.727 77.2843 112.149 74.065C114.853 75.6037 117.371 77.0023 119.795 78.3076C117.902 81.8238 116.168 85.2216 114.2 88.5187Z" fill="#FFFBFA"/>
<path d="M139.795 39.9833C138.48 39.8958 136.784 44.3958 136.421 45.6262C136.756 42.0362 138.332 29.5526 135.369 31.0312C133.631 31.8584 133.459 36.824 133.367 38.5818C132.864 51.6484 133.126 25.1086 129.357 25.807C127.234 26.1417 129.083 36.0152 128.564 42.4984C126.324 35.0348 125.635 28.4743 123.622 28.6974C121.289 29.1648 123.99 35.9483 124.834 44.2236C124.614 43.8564 124.179 43.0705 124.09 42.9183C123.857 42.5922 122.598 41.0999 121.759 41.2863C119.826 41.8389 123.484 47.7781 123.484 55.6473C123.598 55.8762 124.047 55.6531 123.904 55.3671C123.804 55.1674 123.918 53.321 123.577 50.9379C123.177 47.6203 121.008 41.9876 121.853 41.7062C122.375 41.5918 123.694 42.9303 124.044 43.8043C124.502 44.6017 124.648 44.9484 124.883 44.83C125.001 45.8962 124.87 46.2755 125.209 46.2755C125.27 46.2715 125.327 46.2457 125.37 46.2028C125.413 46.1599 125.439 46.1027 125.442 46.0421C124.47 36.2909 122.498 30.5685 123.391 29.3507C124.276 28.4658 125.088 31.1239 125.393 32.3343C127.82 42.0414 128.256 43.2278 128.424 43.8976C128.426 43.9526 128.447 44.0053 128.482 44.0472C128.518 44.0892 128.567 44.1179 128.621 44.1287C128.675 44.1394 128.731 44.1317 128.78 44.1067C128.829 44.0817 128.868 44.0409 128.891 43.9908C128.891 43.6974 129.147 41.4236 129.077 38.9085C128.705 29.413 128.481 26.4214 129.357 26.2263C129.916 26.1337 130.787 28.2804 130.896 28.9771C131.582 33.3313 132.387 40.4472 132.669 43.9908C132.569 44.4019 132.444 44.8067 132.296 45.2029C132.176 45.5404 133.283 46.9687 133.694 38.5355C133.776 37.0305 133.927 32.1244 135.373 31.4019C137.694 30.2407 135.491 46.2091 135.528 48.2958C135.542 49.131 136.06 49.3695 136.259 48.047C137.484 42.5328 139.904 38.2804 139.849 41.7062C139.802 44.6069 138.169 47.0871 136.725 54.6212C135.327 61.9143 130.337 63.8054 130.897 64.366C130.915 64.3912 130.938 64.4118 130.964 64.4278C130.991 64.4438 131.02 64.4541 131.05 64.4587C131.081 64.4627 131.112 64.461 131.142 64.453C131.171 64.4449 131.199 64.4312 131.223 64.4123C134.37 62.0533 136.503 58.5869 137.191 54.7144C138.546 47.6609 141.823 40.1028 139.795 39.9833Z" fill="#2D3E50"/>
<path d="M117.36 106.013C116.98 105.322 116.41 104.84 115.715 104.63C103.933 101.073 55.942 86.2462 44.2042 82.77C42.752 82.3404 41.2807 83.2505 40.8503 84.8455C40.3291 86.7776 30.0733 127.038 28.6363 132.715C28.1983 134.446 29.2476 135.924 30.535 136.312C42.3163 139.869 90.3075 154.696 102.045 158.172C103.498 158.602 104.973 157.693 105.399 156.096C106.912 150.441 116.965 110.642 117.613 108.227C117.799 107.533 117.677 106.706 117.36 106.013Z" fill="#00A492"/>
<path d="M114.889 118.673C101.632 114.235 51.5736 99.7296 38.3165 95.2908C38.1249 95.2265 37.9998 95.36 37.9364 95.4985C37.8731 95.637 36.2278 102.278 36.2278 102.417C36.1644 102.624 36.2911 102.763 36.4178 102.832L112.991 126.214C113.51 126.214 113.22 126.291 115.118 119.107C115.143 119.012 115.239 118.789 114.889 118.673Z" fill="#2D3E50"/>
<path d="M37.9368 130.366C37.6842 130.366 37.501 130.103 37.569 129.837L39.3409 122.85C39.3974 122.628 39.608 122.5 39.8103 122.56C40.0133 122.622 40.1323 122.852 40.0758 123.074L38.3039 130.06C38.2573 130.245 38.1039 130.366 37.9368 130.366Z" fill="#FFFBFA"/>
<path d="M41.1633 131.404C40.9108 131.404 40.7276 131.141 40.7955 130.875L42.5675 123.888C42.624 123.666 42.8346 123.539 43.0368 123.598C43.2398 123.66 43.3589 123.89 43.3024 124.112L41.5304 131.098C41.4839 131.283 41.3305 131.404 41.1633 131.404Z" fill="#FFFBFA"/>
<path d="M44.3938 132.372C44.1412 132.372 43.9581 132.109 44.026 131.843L45.798 124.856C45.8545 124.634 46.0651 124.506 46.2673 124.566C46.4703 124.628 46.5893 124.858 46.5329 125.08L44.7609 132.066C44.7136 132.251 44.5609 132.372 44.3938 132.372Z" fill="#FFFBFA"/>
<path d="M47.6204 133.34C47.3678 133.34 47.1846 133.078 47.2525 132.812L49.0245 125.825C49.081 125.603 49.2916 125.474 49.4939 125.535C49.6969 125.597 49.8159 125.827 49.7594 126.049L47.9874 133.035C47.9401 133.219 47.7875 133.34 47.6204 133.34Z" fill="#FFFBFA"/>
</svg>
