<svg width="125" height="32" viewBox="0 0 125 32" fill="none" xmlns="http://www.w3.org/2000/svg">
<path d="M0.957031 0H124.844V32H0.957031V0Z" fill="#10161C"/>
<path d="M80.9886 2.78253H82.017L82.2589 3.26646L84.7996 10.0415L86.3724 14.2154L87.6427 17.6634L87.8847 18.3288L88.0056 18.6313L88.6106 17.119L89.3969 15.0018L91.0302 10.6464L92.1796 7.56136L93.0264 5.32317L93.8733 3.0245L94.1153 2.78253H95.6276L95.6881 2.84302L95.8695 5.8676L95.9905 8.95266L96.293 15.7277L96.4744 19.8411L96.5954 22.9262L96.7164 25.4063L96.8374 28.3099V29.2173H92.9055L92.845 29.0963L92.724 27.4631L92.603 24.3175L92.482 21.4744L92.361 19.2967L92.24 17.0585L91.9376 17.9054L90.9697 20.567L89.8204 23.7731L88.792 26.6162L88.3686 27.705L88.3081 27.7655H87.5217L87.3402 27.5235L86.5538 25.2854L85.707 22.9262L84.3762 19.2362L83.8317 17.7239L83.5898 16.998L83.5293 17.361L83.3478 20.8695L83.1663 25.0434L82.9848 29.0358L82.9244 29.2173H79.2344V28.3099L79.4763 22.4423L79.5973 19.8411L79.7788 15.3648L79.8393 14.3364L79.9603 11.2513L80.0813 8.95266L80.1417 6.89595L80.3232 3.20597L80.3837 2.84302L80.9886 2.78253Z" fill="#FDFEFE"/>
<path d="M40.7613 3.14551H44.4513L44.5117 3.206V13.8525H49.472L49.5325 3.26649L49.593 3.206L50.5609 3.14551H53.646L53.7065 3.206L53.7669 5.3232V29.1568L53.7065 29.2173H49.593L49.5325 29.1568V18.0264L44.5117 18.0869V29.1568L44.4513 29.2173H40.3378L40.2773 29.1568V4.35534L40.3378 3.206L40.7613 3.14551Z" fill="#FDFEFE"/>
<path d="M4.22255 3.14551H8.27548L8.33597 3.206V13.8525H13.2963L13.3568 3.9319L13.4173 3.206L14.5061 3.14551H17.3492L17.5912 3.26649V29.1568L17.5307 29.2173H13.4173L13.3568 29.0964V18.0264L8.33597 18.0869V29.1568L8.27548 29.2173H4.22255L4.16205 29.1568L4.10156 27.826V5.50468L4.16205 3.206L4.22255 3.14551Z" fill="#FDFEFE"/>
<path d="M34.6517 2.96423H36.4665L37.3739 3.14571L37.4343 3.2062V4.11357L37.1319 6.71471L37.0109 7.25913L36.9504 7.31962L36.1035 7.25913H35.3171L34.2888 7.4406L33.4419 7.74306L32.595 8.28748L31.9901 8.83191L31.4457 9.49731L30.9013 10.4047L30.4173 11.6145L30.0544 12.9453L29.8729 14.0342L29.8124 14.6996V17.6637L29.9939 19.2364L30.1754 20.0833L30.5383 21.3536L31.0222 22.4425L31.5667 23.3499L32.4136 24.2572L33.0185 24.6807L33.9863 25.1646L34.0468 24.8622V20.3858L33.079 20.3253L33.0185 20.1438V16.6353L33.079 16.2119L33.1395 16.1514H37.9788L38.0393 16.2119V29.3385L37.0109 29.4595L36.2245 29.52H35.3171L33.8653 29.399L32.595 29.0966L31.3247 28.6126L30.2359 28.0077L29.389 27.3423L28.9655 26.9794L28.1187 26.0115L27.5137 25.1041L26.9088 24.0153L26.4249 22.8054L26.0015 21.2932L25.7595 20.0833L25.6385 19.2969L25.457 17.1797V15.3045L25.578 13.5502L25.8805 11.7355L26.2434 10.2837L26.6064 9.25535L27.0298 8.28748L27.5137 7.4406L28.0582 6.65421L28.5421 6.0493L29.51 5.08144L30.4173 4.41603L31.2642 3.9321L32.2321 3.50866L33.2604 3.2062L34.6517 2.96423Z" fill="#FDFEFE"/>
<path d="M98.955 3.14551H109.42L109.481 3.32698V6.65401L109.42 7.07745L109.36 7.13795L103.129 7.19844V14.034H107.908V18.0264L107.847 18.0869L103.129 18.1474V25.4064H109.662V29.2173H98.955L98.8945 29.1568V3.206L98.955 3.14551Z" fill="#FDFEFE"/>
<path d="M117.099 2.84308L118.309 2.90357L119.277 3.02455L120.729 3.3875L121.636 3.75045L121.576 4.17389L120.547 7.19847L120.426 7.56141L119.882 7.37994L118.612 7.07748L118.249 7.01699H116.797L116.071 7.31945L115.708 7.62191L115.345 8.3478V9.43665L115.648 10.344L116.313 11.6143L116.978 12.5822L117.462 13.2476L118.007 13.9735L118.612 14.7599L119.338 15.7278L120.184 16.9376L120.85 17.966L121.455 18.9943L121.999 20.1436L122.423 21.414L122.665 22.6238V24.1966L122.423 25.4064L122.12 26.3138L121.515 27.2816L121.092 27.7656L120.487 28.2495L119.701 28.7334L118.733 29.0964L117.704 29.3384L117.341 29.3988L116.373 29.4593H115.285L114.438 29.3988L112.986 29.0964L111.595 28.6729L110.506 28.189L110.445 28.1285L110.506 27.6446L111.534 25.0435L111.776 24.5595L112.744 24.9225L113.651 25.2249L114.74 25.4669L115.164 25.5274H116.434L117.16 25.3459L117.765 24.983L118.007 24.6805L118.249 24.1361L118.309 23.8941V22.7448L118.067 21.9584L117.583 20.9905L116.918 19.9017L116.192 18.8733L115.587 18.0869L113.772 15.6673L112.925 14.397L112.2 13.1266L111.716 12.0983L111.232 10.6465L111.111 10.1021L111.05 9.43665V8.28731L111.171 7.25896L111.413 6.35158L111.897 5.38372L112.502 4.59733L113.167 3.99242L114.135 3.44799L114.982 3.14554L115.769 2.96406L117.099 2.84308Z" fill="#FDFEFE"/>
<path d="M58.5449 3.20605H71.3691V7.07751L71.3086 7.138H67.1347V29.1569L67.0742 29.2174H62.9003L62.7793 28.8544V7.138H58.6054L58.4844 7.01702V3.26655L58.5449 3.20605Z" fill="#FDFEFE"/>
<path d="M20.5577 3.14551H23.7638L23.8242 3.206V29.1568L23.7638 29.2173H19.7108L19.5898 29.0964V3.44797L19.6503 3.206L20.5577 3.14551Z" fill="#FDFEFE"/>
<path d="M72.9413 3.14551H76.9942L77.0547 3.206V29.2173H72.8808L72.8203 28.068V6.47254L72.8808 3.206L72.9413 3.14551Z" fill="#FDFEFE"/>
<path d="M107.906 14.0338H107.966V18.0867L107.906 18.1472L103.187 18.2077V24.7408L103.248 24.1359V19.1151L103.308 18.4497L103.671 18.2077H106.454L106.998 18.3287L107.603 18.4497L107.664 18.5707L107.966 18.6312L107.724 18.8126H107.543L107.482 19.1151L107.18 19.2361L106.756 19.3571L106.272 19.5385L106.212 19.6595H106.091L106.03 19.841H105.91V20.2644L105.789 20.4459H105.668L105.728 20.8089L105.789 21.2928L105.849 21.4138L105.547 21.7162H105.365V21.8977L105.123 21.9582L104.881 21.8977L104.76 22.2002L104.458 22.2607L104.337 22.5631L104.216 22.6236L104.095 23.3495L104.276 24.0149V24.1359H104.7L105.002 24.2569L105.607 24.3174L105.728 24.3779V24.4988H106.696L106.756 24.4383L107.301 24.4988L107.482 24.6198L107.845 24.5593H108.39L108.813 24.6803L108.934 24.9223L108.874 24.9828H108.027H107.845H106.877L105.97 25.0433L105.668 25.1642L104.881 25.1038L104.821 25.1642L104.216 25.2247H103.248L103.187 25.3457L103.611 25.2852H109.66L109.72 25.3457V29.2172H109.66V25.4062H103.127L103.066 25.2247V18.1472L103.127 18.0867L107.845 18.0263L107.906 14.0338Z" fill="#10161C"/>
<path d="M109.418 3.32721H109.479L109.539 4.05311V7.01719L109.418 7.19866L103.187 7.25916V11.5541L103.248 13.0663L103.308 7.92456L103.369 7.6826H103.49L103.611 7.44063L103.732 7.38014L104.639 7.31965L104.76 7.25916H105.547L106.514 7.31965L106.696 7.44063L107.119 7.56161V7.6826L107.482 7.62211L107.422 7.98505H107.24V8.16653L106.696 8.10604L106.635 8.04555L106.333 8.10604L106.393 8.22702L105.849 8.348L105.97 8.46899L105.849 8.52948L105.547 8.58997L105.123 8.77144L104.458 9.13439L104.397 9.25538H104.518V9.13439L104.76 9.19488V9.31587H104.881V9.43685L105.063 9.37636L105.426 9.49734L105.486 9.7998L105.305 10.4047L105.486 10.7072V10.8886L105.365 11.0096L104.881 11.0701V10.9491H104.7V10.8282L104.518 10.9491L104.337 11.2516L104.216 11.3726L104.155 11.9775L104.216 12.5219L104.276 12.7034H104.7L105.244 13.0058L105.305 12.8849L105.607 13.0058L105.668 13.0663L106.514 13.1268L106.938 13.2478L107.664 13.3688L107.603 13.6713L107.119 13.7317L107.059 13.7922H106.756V13.6713L106.333 13.7317H105.91L105.668 13.7922L104.639 13.8527L104.458 13.9132H107.724L107.906 14.0342H103.127L103.066 13.6108V7.19866L103.127 7.13817L109.358 7.07768L109.418 6.53326V3.32721Z" fill="#10161C"/>
<path d="M76.9961 3.0849L77.1776 3.14539L77.2986 3.75031V27.1L77.1776 29.0962H77.1171V3.20588H76.9961V3.0849Z" fill="#10161C"/>
<path d="M108.39 14.155L108.451 14.3364H108.572L108.753 15.1833L108.814 16.9981L108.935 17.361L108.814 17.724L108.632 18.3289L108.511 18.5708L108.209 18.6313L108.027 18.0869V14.2155L108.39 14.155Z" fill="#10161C"/>
<path d="M91.5741 8.83173H91.6346L91.5741 9.37615L90.5458 12.0983L89.7594 14.2155L89.6384 14.5179H89.5174L89.4569 14.8204L89.3359 14.5784V14.4574H89.4569L89.5174 13.913L89.6989 13.5501L89.7594 13.3081H89.8804L89.9409 13.0661L90.0013 12.7637L90.1223 12.4612L90.1828 12.1588L90.3038 12.0378L90.4248 11.5538L90.7272 10.8884L90.8482 10.465L91.1507 9.67861L91.3926 9.0132L91.5741 8.83173Z" fill="#10161C"/>
<path d="M67.1953 7.19861H67.8607V7.2591L67.4373 7.38008L67.3163 7.50107L67.2558 28.7336H67.1953V7.19861Z" fill="#10161C"/>
<path d="M93.871 2.84308L93.9315 3.02455L92.7822 6.17011L91.8748 8.52928H91.7538L91.6933 8.65026L91.6328 8.46879H91.7538L91.8143 7.80338H91.9353L91.9958 7.25896L92.1772 6.9565L92.2377 6.65404L92.3587 6.53306L92.4797 6.17011L92.6007 6.04913L92.6612 5.62569L92.7822 5.44421L92.8426 5.14176H92.9636L93.0846 4.53684L93.2661 3.87143H93.3871L93.4476 3.44799L93.6895 3.20603V3.02455H93.8105L93.871 2.84308Z" fill="#10161C"/>
<path d="M110.144 25.8298L110.326 25.9508V26.4952L110.205 26.9186L110.265 27.2211L110.205 27.3421H110.084L110.023 27.5235V27.705L110.084 28.1284L110.144 28.3704H110.265V28.4914L110.386 28.5519L110.447 28.4309V28.5519H110.568V28.4309L110.991 28.4914L110.81 28.9148H110.568V28.7939L110.326 29.0358L110.023 29.0963L109.902 28.9753L109.963 28.9148L109.842 28.8543L109.781 28.6729V26.9791L109.963 26.0717L110.084 26.0112L110.144 25.8298Z" fill="#10161C"/>
<path d="M109.902 3.56903H110.023L110.205 4.11345V5.38378L110.084 6.10967L110.023 6.83557H109.902L109.842 7.01705V6.89606L109.66 6.83557L109.842 6.53311L109.721 5.62574L109.66 5.38378L109.781 5.2023H109.66V4.29493H109.781V3.93198H109.902L109.842 3.75051L109.902 3.56903Z" fill="#10161C"/>
<path d="M59.6328 3.0849H70.8237V3.14539L66.7708 3.20588L65.319 3.26637H64.2302L61.2661 3.20588L59.6328 3.14539V3.0849Z" fill="#10161C"/>
<path d="M96.4727 18.6922H96.5331L96.6541 20.3255L96.7751 23.471V25.8907H96.7146L96.6541 25.4068L96.4727 21.7168V18.6922Z" fill="#10161C"/>
<path d="M84.6758 20.2041L84.7968 20.2646L85.8856 23.2892L86.551 25.1644L86.4905 25.4064L86.1276 24.5595L85.9461 24.0756L85.7646 23.7126L85.5832 23.4706V23.2892H85.7041L85.6436 22.9867L85.4622 22.9262L85.3412 22.3818L85.1597 21.8374L84.9782 21.2325H84.8573L84.7363 20.5671L84.6758 20.2041Z" fill="#10161C"/>
<path d="M116.497 2.35901H116.86L116.981 2.47999L116.739 2.60097L116.255 2.66147L116.074 2.84294H115.772L115.59 2.72196V2.84294H115.469V2.72196L115.167 2.84294L114.743 2.96392L114.199 3.08491L114.138 3.20589H113.715V3.08491L114.38 2.78245L114.925 2.60097L115.832 2.4195L116.497 2.35901Z" fill="#10161C"/>
<path d="M95.625 2.72198L95.8065 2.78248L95.867 3.14543L95.9879 5.56508L96.0484 7.44032V8.89212H95.9879L95.9275 7.86376L95.867 7.68229L95.746 4.59722L95.625 2.72198Z" fill="#10161C"/>
<path d="M118.493 2.35901L119.461 2.60097L120.126 2.78245L120.005 2.84294L119.945 2.96392L119.703 2.90343H119.038L118.856 2.84294H118.312V2.90343H117.465V2.84294L117.888 2.78245L117.707 2.72196V2.60097L117.949 2.4195L118.493 2.35901Z" fill="#10161C"/>
<path d="M96.1094 10.4648H96.1699L96.2908 11.9771L96.3513 13.9128V16.03H96.2908L96.2304 15.7275L96.1094 13.0659V10.4648Z" fill="#10161C"/>
<path d="M120.006 16.0909L120.248 16.2119L120.611 16.7563L120.913 17.3007L121.155 17.6032L121.337 17.9661L121.458 18.0871L121.579 18.5105L121.397 18.571L121.095 17.9661L120.974 17.9056L120.792 17.4822L120.671 17.2402H120.55L120.248 16.7563V16.6353H120.127L119.945 16.1514L120.006 16.0909Z" fill="#10161C"/>
<path d="M122.302 28.5517H122.846L122.604 28.6122V28.7332L122.786 28.7937L122.665 28.8542L122 28.9146L121.939 30.0035H121.879L121.818 29.3381L121.637 29.2776L121.516 29.4591L121.576 29.0961L121.879 28.7332L122.302 28.5517Z" fill="#10161C"/>
<path d="M95.8672 5.56555H95.9882L96.0487 7.44079V8.89258H95.9882L95.9277 7.86423L95.8672 7.68275V5.56555Z" fill="#10161C"/>
<path d="M118.734 14.4573L119.037 14.5783L119.218 14.8808L119.4 15.0623L119.46 15.2437L119.642 15.3647L119.823 15.6672V15.7881L119.581 15.7277L119.279 15.3647V15.1832H119.097L118.795 14.7598L118.734 14.4573Z" fill="#10161C"/>
<path d="M86.5508 25.4668H86.6718L87.2767 27.1606V27.463L87.1557 27.2815L86.8532 26.4347H86.7323L86.6113 25.7693L86.5508 25.4668Z" fill="#10161C"/>
<path d="M117.583 7.19861L117.704 7.2591V7.38008L117.946 7.44057V7.50107L117.402 7.56156L116.978 7.62205L116.797 7.56156L116.918 7.31959L117.341 7.38008L117.583 7.19861Z" fill="#10161C"/>
<path d="M83.5898 6.71454L83.7108 6.77503L84.1343 7.92437L84.1948 8.28732L84.0133 8.10584L83.5898 6.9565V6.71454Z" fill="#10161C"/>
<path d="M105.85 21.2329L106.394 21.4144L106.454 21.6564H106.031L105.789 21.4749H105.91L105.85 21.2329Z" fill="#10161C"/>
<path d="M106.213 19.8412L106.576 19.9622L106.636 20.2041L106.334 20.2646L106.152 20.2041V19.9622L106.031 19.9017L106.213 19.8412Z" fill="#10161C"/>
<path d="M79.8983 10.3441H79.9588V11.2515L79.8983 12.1589H79.8378L79.7773 10.949L79.8983 10.3441Z" fill="#10161C"/>
<path d="M90.1833 22.8049L90.2438 22.9864L90.0018 23.7123L89.8203 23.7728L89.9413 23.2284L90.1228 22.8654L90.1833 22.8049Z" fill="#10161C"/>
<path d="M85.2206 21.5958L85.3416 21.7773L85.5836 22.4427V22.5637L85.4021 22.5032L85.2811 22.3217L85.1602 21.7773L85.2206 21.5958Z" fill="#10161C"/>
<path d="M91.5114 19.1758L91.5719 19.3573L91.3299 20.0227L91.1484 20.0832L91.2694 19.5387L91.3904 19.2363L91.5114 19.1758Z" fill="#10161C"/>
<path d="M121.578 18.7523L121.82 18.8732L122.002 19.1152L122.062 19.4177L121.76 19.2967L121.578 18.9337V18.7523Z" fill="#10161C"/>
<path d="M118.25 2.78253H118.855L119.097 2.90351V2.96401H118.31L118.25 2.78253Z" fill="#10161C"/>
<path d="M90.4236 21.8983L90.5445 22.1402L90.3026 22.8056L90.1211 22.8661L90.3026 22.2612L90.4236 21.8983Z" fill="#10161C"/>
<path d="M86.9141 15.5462L87.035 15.6067L87.277 16.2721V16.5141H87.156L86.9141 15.8487V15.5462Z" fill="#10161C"/>
<path d="M85.2227 11.07L85.3436 11.1305L85.6461 11.9169L85.5856 12.1589L85.3436 11.6144L85.2227 11.312V11.07Z" fill="#10161C"/>
<path d="M117.646 12.8848H117.767L117.949 13.0663L117.888 13.4897L117.828 13.3083H117.646L117.586 13.0663L117.646 12.8848Z" fill="#10161C"/>
<path d="M88.9118 26.3138L88.9723 26.4953L88.6699 27.2817H88.6094V26.9188L88.8513 26.3743L88.9118 26.3138Z" fill="#10161C"/>
<path d="M116.918 7.31927L117.22 7.37977L117.281 7.62173H116.797L116.918 7.31927Z" fill="#10161C"/>
<path d="M86.2519 24.439L86.3729 24.6204L86.5544 25.1649L86.4939 25.4068L86.1914 24.6204L86.2519 24.439Z" fill="#10161C"/>
<path d="M83.5292 16.9375L83.6502 16.998L83.7107 17.3004L83.5292 17.7239H83.4688L83.5292 16.9375Z" fill="#10161C"/>
</svg>
