<svg width="16" height="16" viewBox="0 0 16 16" fill="none" xmlns="http://www.w3.org/2000/svg">
<path d="M0 8C0 3.58172 3.58172 0 8 0C12.4183 0 16 3.58172 16 8C16 12.4183 12.4183 16 8 16C3.58172 16 0 12.4183 0 8Z" fill="#8EFFE9"/>
<g clip-path="url(#clip0_2822_26416)">
<path d="M6.86216 11.3333C6.7316 11.3339 6.60601 11.2726 6.51227 11.1625L4.15098 8.38497C4.10391 8.32927 4.06636 8.26288 4.04046 8.18959C4.01456 8.1163 4.00083 8.03754 4.00004 7.95782C3.99844 7.7968 4.04968 7.64162 4.14248 7.5264C4.23528 7.41118 4.36203 7.34536 4.49486 7.34343C4.62769 7.3415 4.75571 7.40361 4.85077 7.5161L6.86416 9.88338L11.1489 4.83919C11.2441 4.72671 11.3722 4.66466 11.5051 4.66671C11.6381 4.66875 11.7649 4.73472 11.8577 4.8501C11.9505 4.96548 12.0016 5.12082 12 5.28195C11.9983 5.44308 11.9439 5.59679 11.8487 5.70928L7.21206 11.1625C7.11831 11.2726 6.99273 11.3339 6.86216 11.3333Z" fill="#0C554F"/>
</g>
<defs>
<clipPath id="clip0_2822_26416">
<rect width="8" height="8" fill="white" transform="translate(4 4)"/>
</clipPath>
</defs>
</svg>
