<svg width="96" height="33" viewBox="0 0 96 33" fill="none" xmlns="http://www.w3.org/2000/svg">
<path d="M22.7027 32.0908H0L12.5172 8.62276H0V2.75064H22.7027L10.2264 26.2187H22.7027V32.0908Z" fill="#2D3E50"/>
<path d="M34.054 26.7302C34.2722 26.7984 34.4904 26.8461 34.7085 26.8734C34.9267 26.887 35.1449 26.8939 35.363 26.8939C35.9084 26.8939 36.4334 26.8188 36.9379 26.6688C37.4424 26.5188 37.9128 26.3073 38.3491 26.0345C38.7991 25.7481 39.1945 25.4071 39.5354 25.0115C39.8899 24.6023 40.1763 24.1522 40.3944 23.6611L44.485 27.7737C43.9669 28.5102 43.3669 29.1718 42.6852 29.7583C42.017 30.3448 41.2875 30.8427 40.4967 31.2519C39.7195 31.6611 38.8946 31.968 38.0219 32.1726C37.1629 32.3909 36.2766 32.5 35.363 32.5C33.8222 32.5 32.3701 32.2136 31.0066 31.6407C29.6567 31.0678 28.4704 30.2698 27.4478 29.2468C26.4387 28.2238 25.6411 27.0098 25.0548 25.6049C24.4685 24.1863 24.1753 22.6313 24.1753 20.9399C24.1753 19.2076 24.4685 17.6253 25.0548 16.1931C25.6411 14.7609 26.4387 13.5401 27.4478 12.5307C28.4704 11.5213 29.6567 10.737 31.0066 10.1777C32.3701 9.6185 33.8222 9.33887 35.363 9.33887C36.2766 9.33887 37.1697 9.448 38.0423 9.66624C38.915 9.88448 39.7399 10.1982 40.5171 10.6074C41.308 11.0166 42.0443 11.5213 42.7261 12.1215C43.4078 12.708 44.0078 13.3696 44.5259 14.1061L34.054 26.7302ZM36.9174 15.211C36.6584 15.1155 36.3993 15.0541 36.1402 15.0269C35.8948 14.9996 35.6357 14.9859 35.363 14.9859C34.5994 14.9859 33.8768 15.1292 33.195 15.4156C32.5269 15.6884 31.9406 16.084 31.4361 16.6023C30.9452 17.1206 30.5566 17.7481 30.2703 18.4847C29.9839 19.2076 29.8407 20.026 29.8407 20.9399C29.8407 21.1445 29.8476 21.3764 29.8612 21.6355C29.8885 21.8947 29.9226 22.1607 29.9635 22.4335C30.018 22.6927 30.0794 22.945 30.1475 23.1905C30.2157 23.4361 30.3043 23.6543 30.4134 23.8453L36.9174 15.211Z" fill="#2D3E50"/>
<path d="M52.932 32.0908H47.3484V10.1777H48.6983L50.5391 12.3056C51.439 11.4872 52.4548 10.8598 53.5865 10.4233C54.7319 9.97314 55.925 9.74808 57.1658 9.74808C58.502 9.74808 59.7633 10.0072 60.9496 10.5256C62.1358 11.0303 63.1721 11.7327 64.0584 12.633C64.9447 13.5196 65.6401 14.5631 66.1446 15.7634C66.6627 16.9501 66.9218 18.2187 66.9218 19.5691V32.0908H61.3382V19.5691C61.3382 18.9962 61.2291 18.4574 61.0109 17.9527C60.7928 17.4344 60.4928 16.9842 60.111 16.6023C59.7292 16.2204 59.2861 15.9203 58.7816 15.702C58.2771 15.4838 57.7385 15.3747 57.1658 15.3747C56.5795 15.3747 56.0272 15.4838 55.5091 15.702C54.991 15.9203 54.541 16.2204 54.1592 16.6023C53.7774 16.9842 53.4774 17.4344 53.2593 17.9527C53.0411 18.4574 52.932 18.9962 52.932 19.5691V32.0908Z" fill="#2D3E50"/>
<path d="M81.607 32.0908C80.2571 32.0908 78.989 31.8384 77.8027 31.3338C76.6165 30.8154 75.5734 30.113 74.6734 29.2263C73.7872 28.3261 73.0849 27.2826 72.5668 26.0959C72.0623 24.9092 71.81 23.6407 71.81 22.2903V15.7839H69.0898V10.2187H71.81V1.46163H77.3732V10.2187H85.8407V15.7839H77.3732V22.2903C77.3732 22.8768 77.4823 23.4292 77.7005 23.9476C77.9186 24.4523 78.2186 24.8956 78.6004 25.2775C78.9822 25.6594 79.4321 25.9663 79.9503 26.1982C80.4684 26.4165 81.0207 26.5256 81.607 26.5256H85.8407V32.0908H81.607Z" fill="#2D3E50"/>
<path d="M94.615 32.0908H88.9905V10.1777H94.615V32.0908Z" fill="#2D3E50"/>
<path d="M95.2695 5.67647C95.474 5.22634 95.5763 4.74211 95.5763 4.22379C95.5763 3.7191 95.474 3.24169 95.2695 2.79156C95.0786 2.32779 94.8127 1.93223 94.4718 1.60486C94.131 1.26385 93.7287 0.997869 93.2651 0.806905C92.8151 0.602302 92.3311 0.5 91.813 0.5C91.2948 0.5 90.8039 0.602302 90.3403 0.806905C89.8904 0.997869 89.495 1.26385 89.1541 1.60486C88.8268 1.93223 88.5609 2.32779 88.3564 2.79156C88.1655 3.24169 88.0701 3.7191 88.0701 4.22379C88.0701 4.74211 88.1655 5.22634 88.3564 5.67647C88.5609 6.1266 88.8268 6.52217 89.1541 6.86317C89.495 7.19054 89.8904 7.45652 90.3403 7.66113C90.8039 7.85209 91.2948 7.94757 91.813 7.94757C92.3311 7.94757 92.8151 7.85209 93.2651 7.66113C93.7287 7.45652 94.131 7.19054 94.4718 6.86317C94.8127 6.52217 95.0786 6.1266 95.2695 5.67647Z" fill="#FF7A59"/>
</svg>
