<svg width="225" height="160" viewBox="0 0 225 160" fill="none" xmlns="http://www.w3.org/2000/svg">
<path d="M167.403 13.5968C112.213 4.0107 65.0212 5.2257 62.1682 5.3922C44.9984 48.5078 35.1007 94.8106 26.9883 140.514V140.829C27.8467 140.686 78.7012 138.282 139.115 153.221C139.027 151.028 148.141 86.8962 167.402 13.598L167.403 13.5968Z" fill="white"/>
<path d="M167.389 12.9905C165.132 12.9905 121.785 3.92751 63.4188 4.77688C61.5052 4.80501 61.9215 4.44163 60.729 7.49601C50.9583 32.5205 41.7918 62.5906 33.198 104.884C32.568 107.987 26.4536 139.605 26.4727 140.829C26.4783 141.201 26.8158 141.401 27.1601 141.344C26.8991 141.396 27.0723 141.252 32.9977 141.144C62.1116 140.612 102.267 144.701 139.029 153.708C139.602 153.848 139.887 153.135 139.572 152.82C140.241 151.485 146.43 96.0279 167.962 13.6486C168.019 13.3336 167.761 12.9905 167.389 12.9905ZM138.57 152.333V152.505C100.419 143.116 57.84 139.244 29.3628 140.171C28.761 140.19 28.1321 140.171 27.5313 140.228C27.762 138.383 32.8503 110.182 38.0625 87.1415C43.1767 64.5324 49.4103 41.444 57.3517 19.4593C57.5891 18.8011 61.998 6.90088 62.5312 5.86588C64.5956 5.65888 78.1237 5.79163 82.5067 5.89401C129.174 6.98638 166.575 14.0086 166.702 14.0221C154.246 61.8346 145.355 106.245 138.57 152.334V152.333Z" fill="#2D3E50"/>
<path d="M133.304 32.4508C111.386 28.6157 92.1766 27.052 77.5268 26.899C76.8406 26.8922 76.8395 27.9655 77.5268 27.9868C94.9868 28.5223 111.727 29.5618 132.989 33.5106C133.705 33.5961 133.991 32.5712 133.304 32.452V32.4508Z" fill="#2D3E50"/>
<path d="M130.929 45.1283C115.315 42.0019 90.8535 39.7396 75.1518 39.5764C74.4656 39.5697 74.4645 40.6429 75.1518 40.6643C95.3253 41.2831 108.86 42.3552 130.614 46.1881C131.301 46.3084 131.59 45.2611 130.929 45.1294V45.1283Z" fill="#2D3E50"/>
<path d="M128.039 58.3213C106.12 54.4862 86.911 52.9226 72.2612 52.7696C71.575 52.7628 71.5738 53.8361 72.2612 53.8574C89.7212 54.3929 106.461 55.4324 127.724 59.3812C128.439 59.4667 128.725 58.4417 128.039 58.3224V58.3213Z" fill="#2D3E50"/>
<path d="M123.859 72.0295C107.959 68.803 84.9782 66.5856 69.6557 66.4202C68.9695 66.4123 68.9684 67.4867 69.6557 67.5081C88.6266 68.0953 103.291 69.3148 123.602 73.0892C124.231 73.2062 124.52 72.1645 123.859 72.0306V72.0295Z" fill="#2D3E50"/>
<path d="M108.347 97.271C104.049 78.5792 88.1632 69.3553 73.1523 70.3161C47.1333 71.9811 33.9967 104.29 47.2177 122.941C55.5168 134.649 72.2152 140.579 87.4837 135.734C104.635 130.291 111.986 113.103 108.347 97.271Z" fill="#00A492"/>
<path d="M93.6125 98.1868C89.0912 98.2093 86.7804 93.5506 85.1705 89.4005C81.1914 79.1495 82.4278 77.1661 79.991 76.2358C78.4172 75.635 77.2663 77.2055 76.643 78.4396C75.0422 81.6031 74.8397 89.7661 74.8397 93.2356C71.1767 92.0904 67.2842 91.6055 63.4772 91.9194C60.3294 92.1781 56.0308 93.1243 55.6078 96.9279C55.4987 97.9021 55.7507 98.9023 56.294 99.6751C54.6628 100.276 53.378 101.794 53.1744 103.567C52.9775 105.284 53.9192 107.029 55.3502 107.973C53.3927 109.643 53.6604 112.78 56.2378 113.811C54.7415 115.701 55.2433 118.553 57.9838 120.307C59.534 121.3 61.4443 121.635 63.2499 121.938C66.5574 122.492 70.1315 122.608 72.7224 120.479C78.7232 122.527 87.2304 120.885 92.5269 120.364C92.8982 120.327 94.5407 98.18 93.6148 98.1845L93.6125 98.1868Z" fill="#FFFBFA"/>
<path d="M100.593 101.822C100.033 95.4846 92.7712 94.9435 92.3515 97.0427L88.4883 120.824C88.4039 121.397 88.2858 121.97 88.6312 122.513C89.143 123.316 90.2905 123.462 91.1782 123.629C93.0648 123.983 95.2169 123.918 96.4443 122.198C97.0754 121.312 97.3499 120.163 97.6458 119.135C98.5728 115.927 99.4537 112.482 100.021 108.718C100.303 106.841 100.763 103.739 100.593 101.821V101.822Z" fill="#10161C"/>
<path d="M75.7525 102.938C76.9405 101.828 77.4951 100.082 76.783 98.6165C75.523 96.0245 69.2432 93.9905 66.6231 93.1794C65.9661 92.9758 65.6804 94.0029 66.3374 94.2099C68.4614 94.877 70.5707 95.5599 72.5474 96.5848C74.4014 97.5467 76.486 98.6818 75.9246 100.648C74.8142 104.535 68.5322 103.3 64.6206 102.28C62.0747 101.616 59.6042 100.721 57.2946 99.5323C56.6916 99.2218 56.1471 100.139 56.7512 100.448C60.0621 102.142 63.7859 103.371 67.6266 103.996C69.8474 104.359 72.2729 104.677 74.3226 103.813C75.5837 103.281 76.405 105.376 75.9831 106.773C75.5849 108.09 74.2945 109.005 73.0064 109.405C71.2604 109.949 69.3434 109.773 67.54 109.606C63.2425 109.205 59.6481 108.459 55.7207 107.402C55.0637 107.225 54.778 108.256 55.435 108.432C59.3849 109.494 69.1566 111.579 73.093 110.464C73.4361 111.294 73.156 112.243 72.6632 112.983C71.3346 114.98 68.2454 114.941 65.8525 114.844C62.4516 114.703 59.899 114.34 56.6084 113.47C55.9502 113.296 55.6645 114.327 56.3226 114.5C59.4715 115.326 62.7329 115.829 65.9954 115.931C68.0552 115.997 70.4886 115.989 72.2346 114.844C73.2359 116.303 73.228 118.329 72.2627 119.795C71.887 120.365 72.8039 120.91 73.1785 120.338C74.4014 118.473 74.2945 115.988 73.0356 114.185C74.1201 113.101 74.6162 111.484 74.0942 110.093C75.4105 109.492 76.5794 108.431 77.0417 107.002C77.4951 105.598 77.0136 103.825 75.7536 102.939L75.7525 102.938Z" fill="#2D3E50"/>
<path d="M86.0266 111.094C82.5357 109.579 81.4321 108.881 79.8166 105.8C79.3351 104.882 78.884 103.906 78.5004 102.938C78.2506 102.306 77.2145 102.565 77.4699 103.224C79.9561 109.621 81.6729 110.375 85.7409 112.123C85.9996 112.235 86.336 112.008 86.399 111.751C86.4777 111.434 86.2854 111.205 86.0266 111.093V111.094Z" fill="#2D3E50"/>
<path d="M24.5257 95.2968C17.544 97.6446 10.3968 99.5808 6.03859 100.534C5.35347 100.683 5.58184 101.743 6.26809 101.592C14.8575 99.7124 21.3127 97.4658 24.7845 96.3554C25.6282 96.0854 25.0083 95.1348 24.5268 95.2968H24.5257Z" fill="#FF7A59"/>
<path d="M7.98308 73.7474C7.50496 73.5325 6.83671 74.3313 7.63996 74.7779C13.7521 77.6545 19.3265 80.9497 23.7803 84.1075C24.3507 84.5114 24.9188 83.6024 24.353 83.2199C19.2545 79.774 13.6475 76.2933 7.98308 73.7474Z" fill="#FF7A59"/>
<path d="M29.678 60.1529C29.4822 59.4937 28.4349 59.6984 28.6194 60.3824C30.065 65.734 31.4172 71.1217 32.5119 76.552C32.6502 77.2394 33.6942 77.0088 33.5705 76.3225C32.5861 70.8708 31.262 65.4933 29.678 60.1529Z" fill="#FF7A59"/>
<path d="M165.239 101.449C166.09 107.084 165.927 114.011 163.894 119.336C160.988 126.95 154.351 130.273 149.041 129.151C146.037 128.517 143.382 126.737 140.999 124.858C125.594 112.716 119.55 93.0803 124.372 75.0343C126.051 68.7478 129.047 64.0183 135.505 63.215C144.073 62.1497 150.725 67.9018 155.222 75.4067C159.377 82.3388 164.984 99.7583 165.238 101.449H165.239Z" fill="#FFFBFA"/>
<path d="M164.439 93.4652C168.189 104.693 168.46 121.353 158.429 128.151C154.563 131.282 147.5 134.542 142.575 133.675C138.788 133.008 135.35 130.513 132.415 128.038C119.304 116.978 111.987 99.0947 115.329 80.3882C115.966 76.8241 117.208 72.2273 119.05 69.0548C124.243 60.1066 137.389 60.6004 144.377 63.5603C155.26 68.1706 160.915 82.9149 164.438 93.4663L164.439 93.4652ZM165.64 110.636C166.348 99.1869 157.211 74.3794 148.269 67.1929C142.21 62.3228 133.01 61.3103 128.008 67.2211C126.119 69.4531 125.077 72.3117 124.316 75.0916C119.392 93.0804 125.703 112.958 140.943 124.916C143.317 126.778 145.979 128.588 148.985 129.209C152.074 129.847 155.199 128.986 157.799 127.262C163.156 123.711 165.244 117.051 165.64 110.635V110.636Z" fill="#2D3E50"/>
<path d="M145.438 108.289C149.533 111.176 155.484 111.638 159.547 108.661C162.123 106.774 163.678 103.805 165.872 101.478C170.01 97.0886 176.174 95.1828 182.184 94.5236C192.545 93.3885 204.366 95.4033 212.462 89.1146C220.017 83.2466 220.209 70.8323 216.383 62.8426C213.945 57.7508 208.969 54.5232 203.505 53.5985C197.808 52.6343 191.999 53.1102 187.25 56.4031C173.373 66.0263 169.899 83.3692 154.71 78.8108C151.873 77.9592 147.185 76.3313 142.459 78.7805C134.156 83.0835 134.733 100.741 145.438 108.287V108.289Z" fill="#FFFBFA"/>
<path d="M213.377 57.8633C210.801 55.403 207.454 53.7953 203.962 53.1417C193.982 51.2742 187.941 54.1148 181.354 60.6398C174.74 67.1907 169.747 77.0221 162.122 78.7557C161.916 78.2922 159.352 76.6565 156.999 78.8412C153.987 78.3248 149.562 76.1389 144.722 77.4102C140.299 78.5723 138.928 80.7278 137.856 83.1758C132.816 94.6778 140.765 110.908 152.764 111.238C160.092 111.439 162.604 106.187 165.757 102.481C169.187 102.728 171.384 99.7876 170.908 98.36C178.549 94.1536 187.565 94.8792 195.95 94.4393C204.133 94.0107 212.356 92.3423 216.555 85.3392C221.482 77.1233 219.683 63.8843 213.378 57.8656L213.377 57.8633ZM158.287 108.833C155.196 110.577 151.309 110.511 148.07 109.148C139.981 105.741 134.556 93.2401 138.677 83.7079C142.643 74.5324 153.005 79.1236 156.169 79.7569C153.319 84.5067 157.863 100.27 164.468 102.309C162.579 104.627 160.976 107.316 158.286 108.834L158.287 108.833ZM217.355 80.6727C215.172 88.118 209.605 91.4682 201.958 92.7777C192.073 94.4719 179.852 91.9474 169.934 97.6141C164.795 93.7092 161.449 87.0323 162.064 79.8132C171.779 77.6048 175.978 65.6596 186.045 57.8915C189.196 55.4603 192.362 53.9483 197.006 53.6851C206.41 53.1507 212.701 57.0893 215.551 62.4421C218.131 67.2908 219.134 74.6 217.354 80.6716L217.355 80.6727Z" fill="#2D3E50"/>
<path d="M200.013 44.9856C197.263 41.2855 195.974 38.4831 195.72 38.0601C196.89 36.5391 197.607 34.6547 197.781 33.2519C198.178 30.0377 194.49 28.7384 193.488 31.9356C192.878 33.8807 193.553 36.07 194.432 37.9172C192.733 39.697 189.879 39.5316 187.964 35.656C187.358 34.4286 186.963 33.0235 186.819 31.6499C189.771 28.6979 191.12 24.7626 190.911 23.6657C190.797 23.065 190.281 22.606 189.681 22.5779C188.45 22.5205 187.536 23.7524 186.991 24.6951C185.832 26.6942 185.522 28.9454 185.703 31.2482C183.63 33.2204 180.945 34.6446 177.89 35.1689C177.203 35.287 177.489 36.3152 178.175 36.1994C181.038 35.7179 183.699 34.396 185.874 32.5071C186.467 35.6684 188.11 39.3156 191.197 39.976C192.657 40.2887 193.916 39.7757 194.946 38.8881C195.903 40.6667 196.95 42.6681 199.096 45.5279C199.268 45.7574 199.554 45.871 199.839 45.7281C200.04 45.5852 200.181 45.214 200.012 44.9845L200.013 44.9856ZM189.624 24.9809C189.16 26.5154 188.116 28.4774 186.677 30.103C186.677 24.3306 190.913 21.76 189.624 24.9809ZM194.747 31.678C195.298 30.7499 196.32 31.1616 196.635 32.0504C197.01 33.1079 196.449 34.4027 196.035 35.3702C195.813 35.8889 195.549 36.4289 195.204 36.9441C194.502 35.4006 193.88 33.1349 194.747 31.678Z" fill="#FF7A59"/>
<path d="M193.773 141.429C192.716 140.312 191.656 139.112 190.796 137.824C192.65 135.043 193.171 132.296 192.743 129.868C192.243 127.041 189.52 126.164 188.335 129.295C187.518 131.454 187.605 134.396 189.508 137.709C188.731 138.642 187.471 139.613 186.303 139.283C185.492 139.055 184.348 137.67 183.956 137.136C183.013 135.848 182.268 134.417 181.81 132.901C183.298 131.184 184.598 129.212 185.101 126.977C185.365 125.804 185.497 124.432 184.958 123.314C184.379 122.114 182.96 121.861 181.895 122.626C180.813 123.406 180.496 124.887 180.292 126.146C179.944 128.314 180.012 130.528 180.607 132.643C178.821 134.654 176.771 136.299 174.197 136.994C173.54 137.17 173.825 138.195 174.483 138.024C177.029 137.363 179.176 135.705 180.98 133.818C181.901 136.441 183.585 138.693 184.872 139.742C186.555 141.113 188.639 140.298 190.109 138.654C191.11 140.068 192.011 141.128 193.028 142.146C193.486 142.689 194.259 141.945 193.772 141.431L193.773 141.429ZM181.639 125.06C181.79 124.518 182.003 123.935 182.469 123.571C182.808 123.307 183.303 123.166 183.671 123.428C184.422 123.963 184.276 125.375 184.157 126.176C183.852 128.238 182.755 130.068 181.467 131.67C181.439 131.585 181.409 131.47 181.409 131.384C180.98 129.295 181.069 127.1 181.639 125.06ZM189.623 135.591C187.661 130.654 190.256 126.488 191.426 129.295C191.856 130.183 191.828 131.299 191.741 132.272C191.6 133.875 191.054 135.477 190.168 136.823C189.995 136.422 189.794 136.022 189.624 135.592L189.623 135.591Z" fill="#00A492"/>
</svg>
