<svg width="155" height="32" viewBox="0 0 155 32" fill="none" xmlns="http://www.w3.org/2000/svg">
<path d="M89.2849 0L89.9641 0.0754717L90.8698 0.377358V0.528302L91.4735 0.603774L92.1528 0.754717L92.2283 0.528302L92.832 0.603774L93.8132 0.90566L93.6622 1.66038L92.832 4.45283V4.60377L93.2849 3.92453L94.0396 3.09434L95.0207 2.41509L95.7754 2.03774L96.7566 1.73585L97.9641 1.58491H98.6434L99.9264 1.73585L101.058 2.03774L102.341 2.64151L102.417 2.86792L101.587 4.60377L101.209 5.35849L100.832 5.28302L99.7 4.75472L98.7188 4.5283H97.8886L97.1339 4.75472L96.4547 5.28302L96.0018 5.81132L95.3981 7.01887L95.0962 8.15094L95.0207 8.60377V10.3396L95.3226 11.1698L95.6245 11.5472L96.3037 11.8491H97.5867L98.8698 11.5472L100.002 11.1698V14.0377L98.6434 14.4906L97.4358 14.717L95.9264 14.7925L94.7188 14.6415L93.7377 14.2642L93.1339 13.8868L92.5301 13.3585L92.0018 12.5283L91.7 11.7736L91.4735 10.6415L91.3981 9.28302L90.3415 12.9057L88.6056 18.7925L88.3037 20L88.832 19.3208L89.4358 18.717L90.1905 18.1887L91.0962 17.7358L92.2283 17.434L92.6811 17.3585H94.4169L95.7 17.5849L96.9075 18.0377L97.6622 18.4151L97.5867 18.7925L96.4547 21.1321L96.0018 20.9811L94.8698 20.4528L94.266 20.3019H92.9075L92.0018 20.7547L91.7754 20.9811H91.6245L91.4735 21.283L91.0207 21.9623L90.6434 22.7925L90.3415 23.9245L90.266 24.3774V26.0377L90.4924 26.7925L90.9452 27.3208L91.3981 27.5472L91.8509 27.6226L93.0584 27.5472L94.4924 27.1698L95.2471 26.9434V29.7358L94.0396 30.1887L92.9075 30.4151L92.3037 30.4906H90.6434L89.5867 30.2642L88.5301 29.7358L87.7754 29.0566L87.3226 28.3774L86.9452 27.4717L86.7188 26.3396L86.6434 25.434L84.7566 31.8491L84.6056 32L83.3981 31.6226L83.3226 32L81.8132 31.5472V31.3962L81.2849 31.3208L80.3037 31.0189L80.2283 30.7925L81.3603 26.9434L79.3226 27.1698H77.5867L75.8509 26.9434L74.266 26.4906L72.9075 25.8113L72.832 22.8679V21.7358L72.9075 20.6038L73.2849 20.7547L74.8698 21.5094L76.4547 22.0377L77.5113 22.2642L78.115 22.3396H79.0962L79.7754 22.1887L80.3792 21.8113L80.6811 21.434L80.7566 21.2075V20.1509L80.4547 19.5472L79.7754 18.7925L78.9452 18.1132L77.8132 17.1321L76.6811 16L76.1528 15.2453L75.549 14.1132L75.2471 13.0566L75.0962 11.8491L75.1717 10.566L75.4735 9.35849L76.0773 8.15094L76.6811 7.32076L77.4358 6.56604L78.1905 6.03774L79.3981 5.43396L80.6811 5.0566L81.5867 4.90566L83.0962 4.83019L84.9075 4.98113L86.4169 5.28302L87.6245 5.66038L89.2849 0ZM82.1905 9.58491L81.5867 9.81132L81.2094 10.1132L80.9075 10.7925V11.5472L81.2094 12.3019L81.8132 13.0566L82.6434 13.7358L83.9264 14.7925L84.5301 15.3208L84.7566 15.4717L84.983 14.8679L86.266 10.4906L86.0396 10.2642L84.4547 9.73585L83.7754 9.58491H82.1905Z" fill="#FEFEFE"/>
<path d="M53.8098 5.1322L53.8853 5.35862L52.9042 6.64164L51.8476 8.0756L50.9419 9.28315L48.8287 12.1511L47.6966 13.6605L46.64 15.0945L46.1117 15.7737L46.1872 16.453L48.8287 23.8492L49.8098 26.6416V26.868H43.4702L43.2438 26.2643L41.8853 21.6605L41.357 19.8492V19.5473L41.0551 19.8492L39.8476 21.6605L38.5646 23.5473L36.9797 25.8869L36.3004 26.868H29.7344L29.8853 26.5662L30.791 25.2831L31.8476 23.8492L32.6023 22.7926L33.5834 21.4341L34.64 20.0001L35.3948 18.9435L36.3759 17.585L37.4325 16.1511L37.9608 15.3964L37.7344 14.5662L36.5268 10.8681L35.4702 7.5473L34.7155 5.20767H40.9042L41.1306 5.88692L42.7155 11.9247L42.791 12.0001L43.9231 10.2643L46.1117 6.94352L47.2438 5.20767L53.8098 5.1322Z" fill="#10161C"/>
<path d="M60.9056 5.20734H68.3773L68.4528 5.28281L70.1886 25.9621V26.8677H64.6037L64.5282 26.6413L64.3773 22.8677H57.8112L56.9811 24.6036L55.9999 26.7922L55.9245 26.8677H49.8867L52.3773 21.8866L53.132 20.4526L54.415 17.8866L55.1697 16.4526L56.7546 13.2828L57.5094 11.8488L58.8679 9.13186L59.6226 7.6979L60.8301 5.28281L60.9056 5.20734ZM63.9245 8.82998L63.4716 10.1885L62.4905 12.4526L61.0565 15.547L59.9245 18.0375V18.1885H64.2263V16.7545L64.0754 12.9054L63.9999 8.82998H63.9245Z" fill="#10161C"/>
<path d="M19.5452 5.20734H32.3754L32.2999 5.88658L31.5452 9.58469L31.3942 9.88658H24.3754L23.998 11.8488L23.6961 13.2828H30.2622L29.9603 14.7922L29.281 17.7356L29.2056 17.9621L22.6395 18.0375L21.8093 22.0375L28.8282 22.113L28.4508 24.0753L27.8471 26.7922L27.7716 26.8677H14.9414L15.0923 25.9621L17.1301 16.3017L19.0923 7.01866L19.4697 5.28281L19.5452 5.20734Z" fill="#10161C"/>
<path d="M89.2849 0L89.9641 0.0754717L90.8698 0.377358L90.7943 0.90566L89.2094 6.26415L87.8509 10.8679L86.1905 16.5283L85.1339 20.2264L83.3981 26.1132L82.8698 27.7736L81.8886 31.0943L81.7377 31.3962L81.0584 31.2453L80.3037 31.0189L80.2283 30.7924L81.3603 26.9434L79.3226 27.1698H77.5867L75.8509 26.9434L74.266 26.4906L72.9075 25.8113L72.832 22.8679V21.7358L72.9075 20.6038L73.2849 20.7547L74.8698 21.5094L76.4547 22.0377L77.5113 22.2641L78.115 22.3396H79.0962L79.7754 22.1887L80.3792 21.8113L80.6811 21.434L80.7566 21.2075V20.1509L80.4547 19.5472L79.7754 18.7925L78.9452 18.1132L77.8132 17.1321L76.6811 16L76.1528 15.2453L75.549 14.1132L75.2471 13.0566L75.0962 11.8491L75.1717 10.566L75.4735 9.35849L76.0773 8.15094L76.6811 7.32075L77.4358 6.56604L78.1905 6.03774L79.3981 5.43396L80.6811 5.0566L81.5867 4.90566L83.0962 4.83019L84.9075 4.98113L86.4169 5.28302L87.6245 5.66038L89.2849 0ZM82.1905 9.5849L81.5867 9.81132L81.2094 10.1132L80.9075 10.7925V11.5472L81.2094 12.3019L81.8132 13.0566L82.6434 13.7358L83.9264 14.7925L84.5301 15.3208L84.7566 15.4717L84.983 14.8679L86.266 10.4906L86.0396 10.2641L84.4547 9.73585L83.7754 9.5849H82.1905Z" fill="#10161C"/>
<path d="M0.981132 5.20734H16.3019L15.3208 9.73564L15.2453 9.96205H10.4906L10.3396 10.9432L8.30189 20.7545L7.09434 26.4904L6.9434 26.8677H1.20755L1.28302 26.1885L4.45283 10.9432L4.67924 9.96205H0L0.150943 9.05639L0.981132 5.20734Z" fill="#10161C"/>
<path d="M103.848 17.3584H105.508L106.565 17.5848L107.772 18.1886L108.3 18.6414L108.98 19.6225L109.357 20.6037L109.508 21.5848V23.0942L109.282 24.6792L108.904 25.9622L108.225 27.3961L107.546 28.3018L107.017 28.9056L105.961 29.6603L104.829 30.1886L103.319 30.4905H101.81L100.678 30.2641L99.4702 29.6603L98.8665 29.132L98.3381 28.3773L97.9608 27.5471L97.7344 26.5659V24.3773L97.9608 23.0942L98.4891 21.5093L99.0929 20.3773L99.7721 19.4716L100.527 18.7169L101.583 18.0376L102.489 17.6603L103.395 17.4339L103.848 17.3584ZM103.772 20.2263L103.017 20.6037L102.338 21.2829L101.734 22.3395L101.282 23.698L101.131 24.5282L101.055 25.6603L101.206 26.5659L101.432 27.0188L101.961 27.4716L102.338 27.6225H103.319L104.225 27.1697L104.753 26.6414L105.357 25.5848L105.734 24.5282L105.961 23.2452V21.6603L105.659 20.8301L105.055 20.3018L104.829 20.2263H103.772Z" fill="#10161C"/>
<path d="M116.983 1.73596H120.681L122.039 1.88691L123.171 2.26426L123.926 2.79257L124.379 3.32087L124.681 3.92464L124.832 4.52841V5.96238L124.53 7.09445L124.001 8.00011L123.398 8.60389L122.643 9.05672L122.492 9.13219L122.718 9.81143L124.681 14.3397V14.4907H120.983L120.605 13.585L119.247 9.8869H118.643L118.266 11.8492L117.737 14.3397L117.662 14.4907H114.266L114.417 13.585L116.303 4.60389L116.907 1.81143L116.983 1.73596ZM119.926 4.302L119.775 4.75483L119.322 6.94351V7.32087H120.001L120.756 7.09445L121.284 6.64162L121.586 5.88691V5.13219L121.36 4.67936L120.983 4.37747L120.605 4.302H119.926Z" fill="#10161C"/>
<path d="M128.602 1.73596H132.376L133.735 1.88691L134.64 2.18879L135.546 2.71709L136.15 3.47181L136.452 4.302L136.527 4.8303V5.66049L136.376 6.56615L135.999 7.47181L135.395 8.302L134.64 8.90577L134.187 9.13219L134.263 9.50955L136.301 14.2643V14.4907H132.678L132.376 13.8869L131.319 10.9435L130.942 9.96238L130.791 9.8869H130.263L130.187 10.6416L129.357 14.4907H125.961L126.036 13.8114L128.225 3.39634L128.602 1.73596ZM131.47 4.302L131.319 4.67936L130.791 7.16992V7.32087H131.546L132.301 7.09445L132.829 6.64162L133.131 5.81143V5.20766L132.904 4.67936L132.678 4.45294L132.15 4.302H131.47Z" fill="#10161C"/>
<path d="M125.662 17.5096H130.04L131.172 17.736L131.926 18.0379L132.757 18.6417L133.209 19.3209L133.511 20.302V21.736L133.209 22.8681L132.757 23.6228L132.228 24.2266L131.398 24.7549L131.096 24.8303L132.53 28.1511L133.36 30.1134V30.1888L131.021 30.2643H129.813L129.587 30.1134L128.002 25.8115L127.926 25.6605L127.323 25.5851L127.172 26.5662L126.417 30.1134L126.342 30.1888L123.398 30.2643L122.945 30.1888L123.323 28.2266L124.757 21.4341L125.587 17.5851L125.662 17.5096ZM128.455 20.0756L128.228 20.9813L127.851 22.7926V23.019H128.832L129.587 22.6417L129.889 22.2643L130.115 21.736V20.7549L129.813 20.302L129.36 20.0756H128.455Z" fill="#10161C"/>
<path d="M112.979 17.5096H116.376L115.998 19.4718L114.715 25.5096L114.64 25.9624V26.8681L114.791 27.2454L115.017 27.4718L115.243 27.5473H115.998L116.677 27.2454L117.13 26.6417L117.508 25.5851L119.168 17.8115L119.243 17.5096H122.64L122.564 18.1134L121.13 24.9813L120.677 26.7926L120.225 27.8492L119.545 28.8303L118.791 29.5096L117.96 29.9624L117.13 30.2643L115.923 30.4907H114.338L113.432 30.2643L112.602 29.8115L111.998 29.2832L111.47 28.453L111.168 27.4718V25.8115L112.451 19.6983L112.904 17.6605L112.979 17.5096Z" fill="#10161C"/>
<path d="M107.323 1.73596H111.7L111.926 4.07558L112.757 13.9624V14.4907H109.436L109.36 13.2077V12.0756H105.436L105.209 12.7548L104.455 14.4152L104.379 14.4907H100.832L101.511 13.0567L103.096 9.96238L104.228 7.69823L104.983 6.26426L106.492 3.2454L107.323 1.73596ZM109.134 3.92464L108.832 4.8303L107.624 7.47181L106.87 9.13219L106.794 9.3586H109.36V8.22653L109.209 3.92464H109.134Z" fill="#10161C"/>
<path d="M146.944 17.5096H154.566L154.415 18.3398L154.038 20.1511L153.962 20.2266H149.811L149.661 21.2077L149.434 22.2643H153.283L152.906 24.1511L152.679 24.9813L148.83 25.0568L148.302 27.3964H152.378L152.453 27.5473L151.925 30.0379L151.849 30.1888H144.227L145.661 23.3964L146.868 17.736L146.944 17.5096Z" fill="#10161C"/>
<path d="M92.681 17.3584H94.4169L95.6999 17.5848L96.9074 18.0376L97.6621 18.415L97.5867 18.7924L96.4546 21.132L96.0018 20.981L94.8697 20.4527L94.2659 20.3018H92.9074L92.0018 20.7546L91.7754 20.981H91.6244L91.4735 21.2829L91.0206 21.9622L90.6433 22.7924L90.3414 23.9244L90.2659 24.3773V26.0376L90.4923 26.7924L90.9452 27.3207L91.398 27.5471L91.8508 27.6225L93.0584 27.5471L94.4923 27.1697L95.2471 26.9433V29.7358L94.0395 30.1886L92.9074 30.415L92.3037 30.4905H90.6433L89.5867 30.2641L88.5301 29.7358L87.7754 29.0565L87.3225 28.3773L86.9452 27.4716L86.7188 26.3395V24.6037L86.9452 23.0942L87.3225 21.8867L87.8508 20.6792L88.3791 19.849L89.2093 18.9433L90.0395 18.2641L91.0961 17.7358L92.2282 17.4339L92.681 17.3584Z" fill="#10161C"/>
<path d="M97.9632 1.58478H98.6425L99.9255 1.73572L101.058 2.03761L102.341 2.64138L102.416 2.8678L101.586 4.60365L101.209 5.35836L100.831 5.28289L99.6991 4.75459L98.7179 4.52817H97.8878L97.133 4.75459L96.4538 5.28289L96.001 5.81119L95.3972 7.01874L95.0953 8.15081L95.0198 8.60364V10.3395L95.3217 11.1697L95.6236 11.547L96.3028 11.8489H97.5859L98.8689 11.547L100.001 11.1697V14.0376L98.6425 14.4904L97.4349 14.7169L95.9255 14.7923L94.7179 14.6414L93.7368 14.264L93.133 13.8867L92.5293 13.3584L92.001 12.5282L91.6991 11.7735L91.4727 10.6414V9.05647L91.6236 7.77346L92.001 6.33949L92.5293 5.13195L93.0576 4.22629L93.7368 3.3961L94.4161 2.79232L95.5481 2.11308L96.7557 1.73572L97.9632 1.58478Z" fill="#10161C"/>
<path d="M139.697 17.3584H141.358L142.867 17.6603L144.15 18.1886L144.226 18.415L143.169 20.7546L142.867 20.8301L141.81 20.3773L140.603 20.1509L139.848 20.3018L139.471 20.6792L139.395 21.132L139.622 21.8112L140.301 22.4905L141.358 23.3207L141.961 23.9244L142.49 24.7546L142.716 25.4339L142.792 25.8867V27.0188L142.565 27.9999L142.112 28.8301L141.735 29.2829L140.754 29.9622L139.697 30.3395L138.792 30.4905H137.131L135.924 30.2641L134.943 29.8867L134.641 29.7358V26.6414L135.018 26.7924L136.452 27.3961L137.584 27.6225H138.414L139.093 27.3961L139.244 27.0188V26.3395L138.792 25.6603L137.961 24.981L136.98 24.0754L136.301 23.0942L135.999 22.1886L135.924 21.7358V21.0565L136.075 20.1509L136.603 19.0942L137.282 18.3395L138.112 17.8112L139.244 17.4339L139.697 17.3584Z" fill="#10161C"/>
<path d="M138.719 1.73596H142.19L142.341 2.26426L142.945 5.88691V6.33974L143.172 6.11332L144.379 4.00011L145.436 2.18879L145.738 1.73596H149.511L149.36 2.03785L148.606 3.16992L147.775 4.37747L145.813 7.2454L144.983 8.45294L144.228 9.58502L143.172 14.4152L143.096 14.4907H139.7L140.077 12.6039L140.681 9.73596L140.606 9.13219L138.87 2.56615L138.719 2.03785V1.73596Z" fill="#10161C"/>
</svg>
