<svg width="13" height="13" viewBox="0 0 13 13" fill="none" xmlns="http://www.w3.org/2000/svg">
<path d="M10.8231 9.25727C10.537 9.25721 10.2627 9.15203 10.0605 8.96486L6.50831 5.67847L2.95615 8.96486C2.85665 9.06017 2.73762 9.1362 2.60601 9.18851C2.47441 9.24081 2.33286 9.26834 2.18963 9.26949C2.0464 9.27065 1.90436 9.24539 1.77179 9.19521C1.63923 9.14503 1.51879 9.07093 1.41751 8.97723C1.31622 8.88352 1.23613 8.77209 1.18189 8.64944C1.12765 8.5268 1.10036 8.39538 1.1016 8.26287C1.10285 8.13036 1.13261 7.9994 1.18914 7.87764C1.24567 7.75588 1.32785 7.64576 1.43088 7.5537L5.74567 3.56173C5.94795 3.37464 6.22227 3.26953 6.50831 3.26953C6.79434 3.26953 7.06866 3.37464 7.27094 3.56173L11.5857 7.5537C11.7365 7.69327 11.8392 7.87107 11.8808 8.06464C11.9225 8.2582 11.9011 8.45883 11.8195 8.64116C11.7378 8.82349 11.5996 8.97934 11.4223 9.08901C11.2449 9.19867 11.0364 9.25723 10.8231 9.25727Z" fill="#10161C"/>
</svg>
