<svg width="65" height="63" viewBox="0 0 65 63" fill="none" xmlns="http://www.w3.org/2000/svg">
<path d="M23.1082 44.2695V41.6775V40.3455C23.1082 39.0255 23.3542 37.8855 23.8462 36.9255C24.3382 35.9535 24.9862 35.1135 25.7902 34.4055C26.6062 33.6855 27.4942 33.0555 28.4542 32.5155C29.4262 31.9755 30.3982 31.4655 31.3702 30.9855C32.3422 30.5055 33.2302 30.0255 34.0342 29.5455C34.8502 29.0535 35.5042 28.5075 35.9962 27.9075C36.4882 27.3075 36.7342 26.5995 36.7342 25.7835C36.7342 24.7395 36.3682 23.8875 35.6362 23.2275C34.9162 22.5675 33.9262 22.2375 32.6662 22.2375C31.3582 22.2375 30.2482 22.6155 29.3362 23.3715C28.4242 24.1275 27.8602 25.2675 27.6442 26.7915H22.6222C22.6462 25.1355 23.0302 23.6355 23.7742 22.2915C24.5302 20.9355 25.6582 19.8615 27.1582 19.0695C28.6582 18.2775 30.5422 17.8815 32.8102 17.8815C34.7542 17.8815 36.4282 18.2115 37.8322 18.8715C39.2482 19.5315 40.3402 20.4495 41.1082 21.6255C41.8762 22.8015 42.2602 24.1755 42.2602 25.7475C42.2602 27.0555 42.0202 28.1835 41.5402 29.1315C41.0602 30.0795 40.4242 30.8895 39.6322 31.5615C38.8402 32.2335 37.9702 32.8215 37.0222 33.3255C36.0742 33.8295 35.1262 34.2975 34.1782 34.7295C33.2422 35.1615 32.3782 35.6055 31.5862 36.0615C30.7942 36.5055 30.1582 37.0095 29.6782 37.5735C29.1982 38.1375 28.9582 38.8155 28.9582 39.6075V39.8415H42.2242V44.2695H23.1082Z" fill="#00A492"/>
<circle cx="33" cy="31.2695" r="30" stroke="#00A492" stroke-width="2"/>
</svg>
