<svg width="66" height="63" viewBox="0 0 66 63" fill="none" xmlns="http://www.w3.org/2000/svg">
<path d="M22.7753 26.7515C22.7753 24.8795 23.2133 23.3255 24.0893 22.0895C24.9773 20.8535 26.1713 19.9295 27.6713 19.3175C29.1713 18.6935 30.8393 18.3815 32.6753 18.3815C34.6193 18.3815 36.3473 18.6335 37.8593 19.1375C39.3833 19.6415 40.5833 20.4095 41.4593 21.4415C42.3353 22.4735 42.7733 23.7815 42.7733 25.3655C42.7733 26.6495 42.4013 27.7835 41.6573 28.7675C40.9133 29.7395 39.7013 30.5135 38.0213 31.0895C38.9813 31.3535 39.8693 31.7555 40.6853 32.2955C41.5013 32.8355 42.1553 33.5255 42.6473 34.3655C43.1393 35.2055 43.3853 36.2135 43.3853 37.3895C43.3853 38.6615 43.1033 39.7835 42.5393 40.7555C41.9753 41.7275 41.1953 42.5435 40.1993 43.2035C39.2033 43.8635 38.0513 44.3555 36.7433 44.6795C35.4353 45.0035 34.0373 45.1655 32.5493 45.1655C30.4613 45.1535 28.6793 44.8115 27.2033 44.1395C25.7393 43.4555 24.6113 42.4835 23.8193 41.2235C23.0393 39.9635 22.6373 38.4635 22.6133 36.7235H27.6713C27.9233 38.1995 28.4993 39.2675 29.3993 39.9275C30.2993 40.5875 31.3673 40.9175 32.6033 40.9175C33.6833 40.9175 34.6073 40.7615 35.3753 40.4495C36.1553 40.1375 36.7493 39.7055 37.1573 39.1535C37.5773 38.5895 37.7873 37.9475 37.7873 37.2275C37.7873 36.4835 37.5713 35.8415 37.1393 35.3015C36.7193 34.7615 36.1313 34.3415 35.3753 34.0415C34.6193 33.7295 33.7553 33.5615 32.7833 33.5375L30.2993 33.4475V29.2715L32.5313 29.1455C33.4673 29.1095 34.2833 28.9355 34.9793 28.6235C35.6753 28.3115 36.2153 27.8975 36.5993 27.3815C36.9953 26.8535 37.1933 26.2595 37.1933 25.5995C37.1933 24.9635 36.9953 24.4115 36.5993 23.9435C36.2033 23.4755 35.6573 23.1095 34.9613 22.8455C34.2653 22.5815 33.4673 22.4495 32.5673 22.4495C31.7393 22.4495 30.9773 22.5875 30.2813 22.8635C29.5853 23.1395 29.0153 23.5955 28.5713 24.2315C28.1273 24.8555 27.8693 25.6955 27.7973 26.7515H22.7753Z" fill="#00A492"/>
<circle cx="33.5" cy="31.7695" r="30" stroke="#00A492" stroke-width="2"/>
</svg>
