<svg width="381" height="367" viewBox="0 0 381 367" fill="none" xmlns="http://www.w3.org/2000/svg">
<path d="M78.1759 81.5598C64.8202 78.0801 30.6101 68.7399 26.7861 67.746C25.8881 67.5123 24.8995 68.1414 24.705 68.8251C24.4811 69.618 25.1233 70.2973 26.0214 70.531C39.3771 74.0107 73.5872 83.3509 77.4112 84.3448C78.3092 84.5785 79.2978 83.9494 79.4923 83.2657C79.7162 82.4728 79.074 81.7935 78.1759 81.5598Z" fill="#FF7A59"/>
<path d="M74.8471 22.209C73.5307 20.7302 70.6315 22.257 71.9345 23.7446C79.5744 32.4513 98.9098 55.0702 101.132 57.569C102.449 59.0478 105.345 57.521 104.045 56.0334C93.6603 44.1594 80.2619 28.2967 74.8471 22.209Z" fill="#FF7A59"/>
<path d="M132.199 1.74373C133.377 13.0936 134.696 26.5207 134.696 39.6617C134.696 41.4813 138.176 41.3677 138.162 39.5481C138.053 24.1682 136.318 6.05343 135.666 1.68694C135.354 -0.403473 132.015 -0.00810736 132.199 1.74373Z" fill="#FF7A59"/>
<path d="M350.821 115.866C350.664 113.989 348.838 111.156 346.734 110.881C346.779 109.506 346.743 108.021 345.914 106.784C345.078 105.533 342.372 104.832 340.794 105.472C339.01 100.911 334.869 100.069 332.951 101.833C331.886 98.5354 329.276 98.3823 327.388 101.101C325.361 104.018 324.297 107.664 324.67 111.1C323.611 110.628 322.531 110.191 321.433 109.794C320.382 109.413 319.228 109.064 318.071 109.308C316.472 109.646 315.398 111.152 315.315 112.611C315.232 114.067 315.936 115.468 316.804 116.739C319.274 120.359 323.09 123.248 327.556 124.801C328.327 138.836 328.161 152.872 327.06 166.907C318.33 159.464 303.905 148.601 292.851 140.629C284.663 89.4829 276.551 56.7104 275.894 54.4263C275.254 51.4219 273.356 51.0132 269.829 51.4144C223.381 56.6918 179.629 60.0582 133.48 67.1979L88.1588 121.641C88.3516 124.526 92.6119 136.259 97.3191 159.557C82.9156 162.692 66.3745 167.811 53.0386 173.317C49.8439 174.637 46.4141 176.326 45.4862 179.291C44.4842 182.493 46.8039 185.705 49.0156 188.325C58.8623 199.995 69.7471 211.054 81.4348 221.302C76.2529 226.305 78.3926 234.192 80.939 240.583C81.6381 242.337 82.4728 244.293 84.3583 245.147C86.0022 245.892 88.4935 244.905 88.7139 243.447C89.0994 244.905 90.8091 246.129 92.5187 245.972C94.5058 245.791 96.0481 243.884 95.6053 242.184C96.3213 244.127 99.0796 245.196 101.175 244.418C103.27 243.64 104.264 241.066 103.105 239.318C104.704 241.212 106.359 243.154 108.123 245C109.778 269.284 110.604 293.713 111.432 317.996C114.134 317.511 224.019 319.357 308.928 304.689L309.368 303.476C307.311 252.636 302.297 205.648 296.757 166.493C307.818 172.097 322.876 176.857 334.455 178.173C336.39 178.393 337.343 178.074 337.985 176.182C339.258 172.429 339.262 168.41 339.144 164.526C338.784 152.71 338.703 136.505 337.226 124.76C337.998 124.554 338.919 124.108 339.889 123.606C340.527 130.403 346.124 131.004 349.069 125.43C350.446 122.369 351.105 119.117 350.833 115.862L350.821 115.866ZM94.1668 218.779C92.6225 219.072 90.9277 219.578 89.4808 219.022C88.5529 218.666 87.9194 217.968 87.2754 217.274C77.2444 206.489 68.0883 195.078 58.9915 183.714C71.8296 180.071 86.7246 176.328 99.8719 173.217C102.134 186.32 104.35 202.154 106.132 221.013C102.713 218.875 98.2492 218.005 94.169 218.779H94.1668Z" fill="#FFFBFA"/>
<path d="M347.623 129.027C345.629 130.524 342.708 130.927 340.731 129.124C339.403 127.913 338.967 126.258 338.801 124.608C338.342 125.013 338.581 124.729 338.581 125.433C339.67 134.066 339.969 149.864 340.181 157.341C340.405 165.31 340.971 170.6 339.52 175.555C338.82 177.939 337.958 179.47 335.109 179.44C332.101 179.408 324.307 177.895 321.436 177.206C313.267 175.245 305.503 172.203 298.389 168.221C303.999 208.143 310.02 265.841 310.795 303.577C310.799 303.765 310.274 305.797 309.306 305.956C297.599 307.873 286.788 309.75 262.331 312.366C262.104 322.785 261.79 333.621 262.771 345.002C263.93 345.099 265.08 345.506 266.19 345.827C274.249 348.164 283.846 350.011 290.892 353.84C293.714 355.374 298.999 358.868 299.493 361.756C299.84 363.794 298.114 365.199 296.019 365.544C293.701 365.927 291.277 365.839 288.907 365.933C281.234 366.235 268.811 366.3 258.252 365.884C250.298 365.571 243.421 366.073 243.641 358.211C243.698 356.171 244.056 354.124 244.688 352.189C245.173 350.703 246.306 347.841 247.279 346.555C247.719 345.973 248.438 345.486 249.154 345.243C246.827 335 244.186 324.382 240.828 314.404C221.878 315.977 202.231 317.149 185.692 317.804C185.692 318.601 182.474 326.14 177.587 345.585C179.462 346.215 180.178 348.208 180.896 349.712C181.778 351.558 182.381 353.549 182.716 355.54C184.19 364.303 180.78 365.72 172.405 366.08C157.898 366.703 143.992 366.617 133.976 366.129C126.362 365.757 125.892 362.519 128.794 359.377C135.448 352.172 146.95 349.819 160.497 346.215C161.65 345.909 162.758 345.536 163.972 345.391C164.429 339.342 165.313 331.479 164.963 318.485C160.741 318.623 112.486 319.235 111.923 319.358C110.522 319.358 110.19 318.728 110.158 318.144C109.823 311.834 108.063 263.458 106.849 245.633C106.078 244.808 105.304 243.981 104.588 243.108C103.296 246.017 99.3071 246.941 96.4831 245.099C94.9769 247.549 91.206 248.307 88.7083 245.875C87.6046 246.603 86.0644 246.935 84.7383 246.651C81.9313 246.051 80.603 243.3 79.7768 241.163C77.2769 234.701 75.1818 227.095 79.7217 221.543C67.2608 210.567 55.2024 197.92 47.5229 188.517C42.2754 182.092 42.5486 176.926 50.6646 173.121C55.9438 170.645 66.2312 167.012 72.3875 165.06C81.8508 162.059 94.6189 158.941 95.9302 158.941C91.2759 135.478 86.7805 123.401 86.9436 121.738C87.0665 120.477 88.8248 119.071 89.6447 118.095C91.922 115.388 128.125 71.8087 130.389 69.0917C130.586 68.8547 132.904 65.0534 135.131 65.8372C135.59 65.8372 150.676 63.5867 160.824 62.2916C175.386 60.4348 267.235 50.5389 270.929 50.2963C273.851 50.1022 276.177 50.942 277.215 53.5023C279.185 58.3616 288.405 102.812 294.472 140.728C294.913 140.679 295.298 140.825 295.686 141.067C304.654 147.386 315.915 155.931 325.955 164.379C326.79 153.344 327.001 139.587 326.285 125.719C321.93 123.97 318.172 121.109 315.699 117.463C314.483 115.668 313.532 113.427 314.32 111.344C315.129 109.202 317.303 107.864 319.835 108.235C321.051 108.414 322.205 108.866 323.364 109.304C323.309 107.265 323.646 105.227 324.468 103.331C325.245 101.536 326.442 99.1826 328.603 98.3764C330.743 97.5796 332.463 98.7646 333.399 100.368C336.098 99.2311 340.21 100.444 341.394 104.301C343.159 103.671 345.305 104.303 346.576 105.565C347.951 106.927 348.231 108.722 348.231 110.471C354.639 111.458 352.756 125.174 347.625 129.023L347.623 129.027ZM348.118 112.902C347.915 117.564 346.218 122.214 341.502 123.782C341.613 125.093 341.882 126.801 342.937 127.521C344.305 128.454 345.867 127.333 346.741 126.306C349.112 123.528 351.006 115.446 348.121 112.902H348.118ZM345.087 108.045C344.642 106.929 343.267 105.859 342.055 106.539C341.469 106.798 341.858 106.382 341.67 108.336C341.314 112.025 340.125 115.573 338.251 118.876C339.022 119.7 339.685 120.721 339.85 121.742C343.765 120.917 345.062 116.983 345.254 113.826C345.386 111.676 345.625 109.392 345.089 108.047L345.087 108.045ZM336.211 116.981C337.92 113.873 338.994 110.329 338.967 106.88C338.956 105.471 338.636 103.725 337.257 102.849C336.263 102.219 334.886 102.025 334.06 102.655C334.531 106.378 334.692 109.875 333.069 114.263C333.014 114.36 333.014 114.408 332.959 114.505C334.117 115.233 335.219 116.06 336.213 116.981H336.211ZM337.479 158.7C337.229 147.578 337.149 136.408 335.825 125.334C334.497 125.112 333.634 124.476 325.845 119.846C324.362 118.965 325.735 116.931 327.224 117.758C327.3 117.791 334.571 121.656 336.761 122.906C337.092 122.712 337.153 122.128 337.092 121.837C336.939 121.106 336.268 120.475 335.713 119.943C331.637 116.022 326.565 112.96 321.267 111.006C320.445 110.704 319.392 110.271 318.456 110.424C317.019 110.657 316.576 112.318 316.801 113.436C317.375 116.282 321.919 121.531 327.938 123.537C328.542 123.739 328.914 124.119 328.929 124.703C329.124 132.054 330.177 140.914 328.434 166.81C328.366 167.829 326.985 168.428 326.063 167.683C323.093 165.285 312.719 156.095 294.801 143.448C295.682 149.179 297.832 163.556 297.997 164.963C308.577 171.231 320.316 175.183 332.952 176.667C333.779 176.764 334.66 176.95 335.488 176.861C335.984 176.807 336.204 176.618 336.424 176.23C338.314 172.295 337.579 163.41 337.471 158.698L337.479 158.7ZM331.635 107.22C331.679 104.376 331.175 98.9325 328.934 100.907C327.665 102.025 326.927 103.816 326.453 105.326C325.639 107.91 326.067 110.183 326.067 110.426C326.783 110.637 329.578 112.284 330.202 112.66C330.313 112.417 330.588 112.271 330.863 112.174C331.359 110.523 331.609 108.871 331.635 107.22ZM308.037 303.625C304.878 232.172 296.514 162.682 284.109 99.0127C282.282 89.6431 276.446 61.0992 274.404 54.3308C273.539 51.4645 270.883 52.4367 260.288 53.7001C229.952 57.3185 198.914 59.192 140.315 67.3469C138.567 67.5895 136.743 67.9291 136.014 67.9291C137.753 78.3177 141.086 91.2404 143.679 103.674C145.795 113.826 146.098 114.085 142.244 115.184C126.911 119.557 108.703 122.781 90.0874 123.879C99.1164 154.367 104.557 188.882 107.51 220.283C113.378 224.327 114.977 231.043 112.747 236.505C112.526 236.942 112.141 237.233 111.7 237.33C115.23 242.139 118.054 247.396 120.081 252.871C120.46 253.894 119.089 254.765 118.041 254.231C114.899 252.629 112.196 250.589 109.715 248.307C111.204 271.036 111.976 293.813 112.747 316.591C119.806 316.229 121.511 316.886 160.273 315.96C206.068 314.867 263.047 311.241 308.035 303.623L308.037 303.625ZM260.013 345.295C259.187 337.28 259.28 321.213 259.572 312.514C256.816 312.805 246.175 313.825 243.584 314.02C249.776 333.324 251.636 345.297 252.13 345.297C253.407 346.422 255.316 346.764 256.816 346.561C257.875 346.417 258.774 345.844 260.015 345.297L260.013 345.295ZM182.769 317.709C177.752 317.903 172.734 318.097 167.662 318.242C167.861 326.33 167.868 333.582 166.616 345.732C167.662 346.169 168.658 346.743 169.87 346.947C171.526 347.225 173.314 346.777 174.556 345.732C174.952 345.398 176.221 337.493 182.771 317.709H182.769ZM142.575 112.66V112.417C142.575 112.368 142.575 112.271 142.52 112.223C140.139 97.5423 136.088 84.6176 133.478 69.1439C133.351 69.2914 90.1891 121.456 90.0323 121.596C107.097 120.602 121.88 118.097 137.613 114.068C138.829 113.757 141.446 113.042 142.575 112.66ZM116.056 250.201C113.092 243.597 108.874 237.224 103.154 231.405C102.004 230.235 103.788 228.612 105.084 229.705C105.241 229.838 109.726 233.337 110.654 234.027C111.899 228.302 108.446 221.759 100.563 219.992C95.2502 218.8 92.261 221.233 89.1511 220.138C87.488 219.552 86.9838 218.921 80.2195 211.104C72.5654 202.259 65.1274 193.318 57.8356 184.295C57.2848 183.614 57.8865 182.73 58.6618 182.498C63.492 181.056 83.6599 175.633 98.305 172.203C97.6441 168.512 96.981 164.869 96.2649 161.227C95.8878 161.559 81.4122 163.813 60.3164 171.815C57.0709 173.047 53.6813 174.217 50.6667 175.846C48.2813 177.135 46.2687 179.05 46.6416 181.674C47.0292 184.404 49.8235 187.373 52.0458 189.978C61.2824 200.812 71.4956 210.972 82.3698 220.574C82.9206 221.062 82.8613 221.786 82.3698 222.275C77.8744 226.748 79.6687 233.704 81.819 239.37C82.41 240.928 82.9863 243.096 84.6853 244.031C85.5899 244.53 87.1491 244.41 87.2698 242.927C87.3969 241.378 90.0895 241.135 90.0895 243.304C90.3649 244.225 91.4136 245.052 92.5152 244.858C93.6168 244.664 94.4388 243.548 94.2248 242.576C93.8837 241.023 96.3009 240.445 96.8708 241.945C97.3517 243.212 99.2329 243.871 100.565 243.354C101.989 242.802 102.474 241.081 101.834 240.002C101.019 238.627 103.086 237.429 104.205 238.788C107.554 242.858 111.543 247.127 116.06 250.201H116.056ZM104.588 218.777C103.154 204.013 101.279 189.248 98.7435 174.581C90.5196 176.57 80.6072 178.822 61.1955 184.294C70.5317 195.974 85.9204 213.746 87.2741 215.23C88.0346 216.064 88.8185 217.367 89.9751 217.852C91.6763 218.567 93.3923 217.135 97.6949 217.221C100.123 217.27 102.436 217.852 104.586 218.776L104.588 218.777Z" fill="#2D3E50"/>
<path d="M296.405 286.773C296.581 287.353 296.187 288.139 295.414 288.279C280.284 291.007 256.084 293.349 233.277 292.795C231.512 292.752 231.512 290.324 233.277 290.367C253.466 290.861 274.99 289.622 294.753 285.948C295.473 285.814 296.2 286.09 296.407 286.773H296.405Z" fill="#2D3E50"/>
<path d="M295.023 269.677C295.198 270.258 294.804 271.043 294.031 271.183C278.901 273.911 254.701 276.253 231.894 275.699C230.129 275.656 230.129 273.228 231.894 273.271C252.083 273.766 273.607 272.527 293.37 268.852C294.09 268.718 294.817 268.994 295.025 269.677H295.023Z" fill="#2D3E50"/>
<path d="M293.207 255.058C293.382 255.638 292.988 256.424 292.215 256.564C277.333 259.247 252.684 261.63 230.023 261.08C228.258 261.037 228.258 258.609 230.023 258.652C250.212 259.147 271.736 257.908 291.499 254.233C292.219 254.099 293.001 254.375 293.209 255.058H293.207Z" fill="#2D3E50"/>
<path d="M290.89 239.175C291.066 239.756 290.672 240.547 289.953 240.681C276.355 243.23 251.687 245.777 227.761 245.197C225.996 245.154 225.996 242.726 227.761 242.769C248.19 243.269 268.086 241.92 289.237 238.35C289.898 238.205 290.684 238.492 290.892 239.175H290.89Z" fill="#2D3E50"/>
<path d="M290.39 226.599C290.544 227.185 290.172 227.965 289.398 228.105C274.268 230.833 250.069 233.175 227.261 232.621C225.496 232.578 225.496 230.15 227.261 230.193C247.45 230.687 268.974 229.448 288.737 225.774C289.458 225.639 290.214 225.921 290.392 226.599H290.39Z" fill="#2D3E50"/>
<path d="M260.014 345.295C257.565 346.374 256.637 346.979 254.224 346.413C252.737 346.064 252.093 345.247 251.908 345.247C249.286 334.091 246.763 324.276 243.473 314.018C246.064 313.775 256.705 312.803 259.461 312.512C259.056 330.618 259.582 336.971 260.012 345.294L260.014 345.295Z" fill="#FFFBFA"/>
<path d="M233.384 98.8673C234.602 100.028 232.67 101.73 231.454 100.567C227.938 97.2064 223.239 95.1351 218.112 94.4483C217.396 94.3513 216.943 93.5228 217.121 92.9424C217.328 92.2594 218.059 92.0168 218.83 92.1176C224.402 92.8323 229.599 95.2601 233.386 98.8691L233.384 98.8673Z" fill="#2D3E50"/>
<path d="M220.368 110.329C223.996 113.154 224.427 117.855 223.952 121.839C222.823 131.328 217.359 131.201 214.58 125.724C211.991 120.628 212.228 114.662 213.919 111.251C215.122 108.823 217.817 108.34 220.37 110.329H220.368Z" fill="#2D3E50"/>
<path d="M221.804 157.244C220.999 161.619 220.143 165.983 218.607 170.163C212.934 185.6 200.545 190.739 190.488 188.668C181.305 186.775 177.271 178.809 175.106 170.697C173.952 166.373 173.507 161.906 173.782 157.439C173.782 156.918 174.613 155.686 175.602 155.739C189.787 156.491 204.386 155.552 218.387 153.408C221.384 153.156 222.287 154.626 221.806 157.244H221.804Z" fill="#2D3E50"/>
<path d="M209.288 132.086C209.542 133.836 208.407 135.534 207.633 137.089C206.642 139.08 205.716 141.075 204.767 143.111C204.494 143.695 203.443 143.842 202.892 143.547C202.174 143.163 202.113 142.476 202.396 141.896C207.434 131.548 207.216 132.256 205.703 132.56C204.437 132.816 201.873 133.353 198.316 134.368C197.653 134.557 196.761 134.127 196.607 133.543C194.946 127.253 193.134 120.93 191.037 114.748C190.529 113.246 193.177 112.613 193.683 114.117C195.632 119.906 197.433 125.773 198.975 131.698C200.85 131.164 202.721 130.714 204.6 130.289C207.027 129.738 208.968 129.895 209.286 132.086H209.288Z" fill="#2D3E50"/>
<path d="M202.233 290.754C202.333 293.236 202.612 295.027 201.627 296.242C200.337 297.832 197.602 297.74 195.617 297.942C172.085 300.327 148.892 300.717 131.715 299.739C130.997 299.698 130.332 299.205 130.336 298.524C130.461 278.361 129.777 258.392 126.807 238.398C126.779 238.208 127.016 235.734 128.406 235.68C151.551 234.75 174.754 233 197.6 229.609C198.538 229.469 199.316 229.949 199.365 230.775C200.532 250.483 200.939 258.638 202.231 290.756L202.233 290.754ZM199.422 294.736C199.752 294.057 199.513 293.135 199.477 292.454C199.254 288.33 197.161 239.953 196.721 232.182C175.468 235.114 153.017 237.148 129.51 238.059C129.887 238.721 133.643 266.92 133.094 297.36C144.676 298.143 168.342 298.185 197.657 295.32C198.208 295.266 199.201 295.32 199.422 294.738V294.736Z" fill="#2D3E50"/>
<path d="M178.69 126.696C177.555 136.241 172.047 135.907 169.318 130.533C166.729 125.437 166.967 119.471 168.657 116.059C171.21 110.907 180.046 115.313 178.692 126.696H178.69Z" fill="#2D3E50"/>
<path d="M182.824 317.708C178.39 330.754 176.602 338.334 174.718 345.634C173.386 346.808 171.593 347.228 169.922 346.946C168.765 346.75 167.772 346.17 166.668 345.731C167.823 334.544 168.005 324.118 167.715 318.242C172.731 318.096 182.821 317.708 182.821 317.708H182.824Z" fill="#FFFBFA"/>
<path d="M170.583 99.0613C172.29 98.6153 173.004 100.944 171.299 101.392C166.435 102.67 162.054 105.15 158.672 108.483C157.501 109.638 155.533 107.951 156.743 106.783C160.503 103.15 165.28 100.444 170.58 99.0613H170.583Z" fill="#2D3E50"/>
<path d="M168.373 139.614C163.014 136.325 152.934 134.829 146.816 137.914C138.967 141.872 140.441 155.345 157.897 155.688C175.64 156.037 177.048 144.932 168.373 139.612V139.614Z" fill="#FFD0C4"/>
<path d="M231.722 131.017C223.867 134.421 219.086 141.731 225.327 146.51C230.951 153.75 245.601 148.475 251.295 141.216C257.424 133.406 247.708 124.09 231.722 131.017Z" fill="#FFD0C4"/>
<path d="M232.116 209.649C209.487 225.431 193.213 242.903 173.619 261.178C173.407 261.116 173.604 261.217 169.373 260.256C159.039 257.907 148.102 255.148 138.276 254.428C136.285 253.551 135.469 256.065 137.117 256.71C147.097 264.529 172.761 284.659 175.602 286.919C176.326 287.495 177.201 287.307 177.752 286.676C198.108 263.329 217.221 237.95 234.267 211.107C235.046 210.125 233.587 208.625 232.116 209.649Z" fill="#FF7A59"/>
<path d="M24.221 243.411H13.4714C13.3328 240.74 13.3088 238.01 13.5406 235.281C13.6046 234.541 12.7092 233.859 11.8059 233.859C10.8359 233.859 10.1378 234.484 10.0711 235.281C9.84729 238.01 9.794 240.681 10.0019 243.411H2.16481C-0.0549352 243.411 -0.0549352 246.253 2.16481 246.253H10.2097C10.4868 249.095 11.0065 251.887 11.7366 254.667C12.2003 256.435 15.5232 255.696 15.0649 253.929C14.4014 251.378 13.9563 248.813 13.6765 246.255H24.2183C26.4381 246.255 26.4381 243.414 24.2183 243.414L24.221 243.411Z" fill="#00A492"/>
<path d="M38.1592 135.455C36.8428 135.387 35.5931 135.341 34.2767 135.341C33.7917 131.248 33.36 127.156 32.9603 123.061C32.8883 122.322 32.1982 121.639 31.2256 121.639C30.3249 121.639 29.4242 122.263 29.4908 123.061C29.8452 127.211 30.3222 131.304 30.8072 135.455C29.9758 135.511 29.0751 135.573 28.241 135.682C25.2885 136.071 26.6608 138.709 28.241 138.524C29.211 138.41 30.1836 138.353 31.1536 138.296C31.5 140.854 31.7452 143.36 32.1929 145.913C32.3234 146.654 32.8857 147.335 33.9276 147.335C34.759 147.335 35.8009 146.654 35.6624 145.913L34.6231 138.24C35.8009 138.24 36.9814 138.288 38.1592 138.353C39.0626 138.403 39.9553 137.672 39.894 136.931C39.8167 136.023 39.1319 135.503 38.1592 135.452V135.455Z" fill="#00A492"/>
<path d="M208.282 230.904C206.755 231.009 205.3 231.188 203.773 231.358C203.288 228.232 202.846 225.1 202.316 222.035C202.188 221.295 201.623 220.613 200.581 220.613C199.749 220.613 198.721 221.295 198.846 222.035C199.392 225.27 199.816 228.573 200.373 231.812C198.569 232.096 196.837 232.387 195.102 232.721C194.201 232.896 193.644 233.743 193.924 234.484C194.204 235.224 195.166 235.661 196.075 235.449C197.66 235.08 199.264 234.881 200.861 234.597C201.207 237.042 201.569 239.493 201.969 241.93C202.092 242.671 202.662 243.352 203.704 243.352C204.535 243.352 205.567 242.671 205.439 241.93C204.986 239.32 204.607 236.701 204.261 234.084C205.577 233.914 206.963 233.785 208.282 233.687C209.183 233.619 210.017 233.062 210.017 232.265C210.017 231.64 209.183 230.838 208.282 230.899V230.904Z" fill="#00A492"/>
<path d="M380.066 229.257C379.789 228.518 378.819 228.068 377.915 228.291C376.737 228.582 375.488 228.746 374.31 228.916V218.228C374.31 216.408 370.843 216.408 370.843 218.228V229.2C369.316 229.257 367.723 229.248 366.196 229.143C365.295 229.082 364.461 229.825 364.461 230.565C364.461 231.36 365.226 231.922 366.196 231.987C367.723 232.09 369.316 232.101 370.843 232.044V242.959C370.843 244.779 374.31 244.779 374.31 242.959V231.76C375.837 231.59 377.353 231.336 378.888 231.022C379.786 230.836 380.346 229.999 380.066 229.259V229.257Z" fill="#00A492"/>
<path d="M366.407 56.0929C367.241 55.8111 367.452 54.7255 367.031 54.1598C366.482 53.4171 365.501 53.3538 364.672 53.6486C363.276 54.1445 361.829 54.5005 360.302 54.8435C359.956 50.9204 359.548 46.9973 359.194 43.1332C359.01 41.1302 355.562 41.3923 355.727 43.1332C356.113 47.2289 356.489 51.3201 356.905 55.3568C355.727 55.4704 354.546 55.5272 353.438 55.5272C352.468 55.5272 351.703 56.1519 351.703 56.9492C351.703 57.6875 352.465 58.3712 353.438 58.3712C354.685 58.3712 355.935 58.2576 357.182 58.144L358.221 68.7752C358.293 69.5135 358.983 70.1972 359.956 70.1972C360.857 70.1972 361.763 69.5725 361.691 68.7752C361.358 65.0793 360.998 61.3856 360.582 57.6329C362.594 57.2353 364.539 56.7286 366.407 56.0973V56.0929Z" fill="#00A492"/>
</svg>
