<svg width="359" height="397" viewBox="0 0 359 397" fill="none" xmlns="http://www.w3.org/2000/svg">
<path d="M199.63 138.406L48.3008 125.674L66.1773 331.601C66.1773 331.601 213.435 343.706 215.468 339.303C216.412 337.261 199.628 138.406 199.628 138.406H199.63Z" fill="#FFFBFA"/>
<path d="M101.97 158.432C102.595 158.986 103.206 159.368 103.889 159.642C109.517 161.995 115.709 162.115 121.418 159.969C127.069 165.85 146.289 160.907 145.457 155.081C145.376 154.514 144.85 154.122 144.287 154.201C143.722 154.282 143.329 154.807 143.409 155.375C143.517 156.133 142.045 157.583 138.574 158.976C134.751 160.451 126.806 161.513 123.426 158.98C126.489 157.44 129.685 154.581 128.636 151.599C126.796 146.065 117.816 153.817 120.308 158.17C115.216 159.978 109.712 159.828 104.671 157.724C103.835 157.394 104.297 157.778 106.464 156.226C109.153 154.267 111.368 151.248 109.53 148.669C106.187 143.795 96.3852 150.51 100.449 156.776C95.905 158.291 90.2932 158.287 85.8882 156.041C89.813 154.948 91.9595 152.939 92.1438 150.294C92.4874 145.395 84.611 144.994 81.4998 148.368C78.9082 151.184 81.2204 154.637 81.3963 154.877C78.5563 155.137 73.9298 155.402 71.1871 154.616C69.4317 153.732 69.7526 153.549 68.9887 153.564C67.8875 153.585 67.5791 155.048 68.5375 155.529C69.32 155.923 69.5021 156.106 70.4295 156.539C73.9195 157.589 79.4692 157.212 83.0896 156.791C86.9232 159.808 94.8741 161.136 101.97 158.438V158.432ZM126.266 151.765C126.342 151.779 126.524 151.813 126.676 152.269C127.28 153.989 124.5 156.116 122.374 157.191C122.312 157.233 122.252 157.272 122.196 157.307C122.138 157.195 122.074 157.083 122.004 156.969C121.43 155.048 124.794 151.479 126.266 151.765ZM102.703 150.889C103.56 149.935 105.28 148.972 106.487 149.069C107.064 149.107 107.489 149.352 107.834 149.854C109.132 151.676 105.404 154.427 105.251 154.537C104.458 155.106 103.514 155.622 102.492 156.054C101.167 154.51 101.366 152.338 102.701 150.887L102.703 150.889ZM83.0234 149.771C84.8822 147.754 90.258 147.586 90.08 150.142C89.8916 152.861 85.8986 153.998 83.6547 154.419C83.398 154.11 83.3007 153.944 82.9261 153.471C82.1105 151.968 82.1436 150.723 83.0213 149.769L83.0234 149.771Z" fill="#FF7A59"/>
<path d="M135.464 253.728C137.828 251.999 140.749 249.153 140.887 246.308C141.028 243.488 137.892 240.828 134.334 242.672C131.701 244.042 129.676 247.306 129.914 249.796C130.045 251.23 130.637 252.566 131.541 253.564C126.635 255.739 120.506 256.463 116.422 254.162C119.951 252.4 122.222 249.761 122.719 246.538C123.501 241.454 115.288 241.413 111.924 245.635C109.995 248.059 110.56 251.03 112.47 253.466C107.308 254.973 98.8208 254.983 96.018 251.589C99.3548 250.925 101.764 249.263 102.998 246.895C103.751 245.449 103.6 244.06 102.526 243.139C99.3631 240.435 90.4518 242.967 92.7122 249.829C89.8908 249.92 87.6717 249.804 85.697 249.474C83.2689 248.866 80.76 248.237 78.4809 247.322C77.949 247.109 77.3486 247.368 77.1375 247.901C76.9243 248.433 77.181 249.036 77.713 249.25C80.1224 250.217 82.7017 250.862 85.2975 251.51C88.0671 251.972 90.8782 251.991 93.6851 251.867C94.1012 252.531 94.5938 253.224 95.3162 253.801C99.5742 257.328 108.318 257.131 114.122 255.12C119.283 259.119 127.546 257.892 133.392 254.987C138.244 257.938 147.462 257.189 151.204 254.122C151.647 253.759 151.711 253.105 151.349 252.661C150.987 252.217 150.337 252.153 149.894 252.514C147.064 254.834 139.796 255.61 135.464 253.728ZM101.183 244.718C101.323 244.841 101.607 245.086 101.164 245.934C99.8806 248.397 97.1855 249.354 94.865 249.682C92.6666 244.502 99.5328 243.305 101.183 244.716V244.718ZM120.674 246.223C120.121 249.823 116.821 251.777 114.578 252.726C108.065 245.889 121.257 242.419 120.674 246.223ZM138.116 244.675C140.502 246.706 136.155 250.879 133.497 252.57C132.655 251.898 132.086 250.806 131.978 249.601C131.734 247.038 135.704 242.598 138.118 244.673L138.116 244.675Z" fill="#FF7A59"/>
<path d="M175.557 284.239C175.445 283.676 174.898 283.309 174.34 283.425C172.534 283.786 170.806 283.741 169.415 283.444C171.984 281.811 173.033 279.954 172.383 278.13C170.932 273.909 164.389 276.074 163.551 279.892C163.371 280.713 163.364 282.116 164.776 283.452C160.831 285.017 155.937 285.585 152.317 283.772C154.637 282.61 157.378 280.022 157.974 277.696C158.651 275.059 156.635 272.353 153.557 272.779C149.15 273.384 145.155 279.186 148.423 283.309C140.534 286.405 133.351 284.554 130.857 282.008C131.428 281.782 133.192 280.549 134.057 279.645C135.746 277.881 135.088 276.673 134.745 276.254C132.944 274.055 125.966 276.298 127.669 281.066C122.991 282.533 115.707 282.597 112.258 279.964C113.293 279.491 117.971 277.209 118.839 274.165C119.565 271.612 117.139 268.487 113.537 269.523C110.77 270.318 108.174 273.15 108.112 275.64C108.081 276.906 108.34 278.018 108.789 278.966C103.409 280.639 96.6007 280.844 92.5124 277.736C94.51 277.014 96.5013 275.864 98.3892 274.212C100.801 272.102 102.531 268.301 100.113 266.068C94.9612 261.437 86.7206 270.299 89.1114 276.524C87.1387 277.02 84.8741 277.279 82.4874 277.279C80.022 277.279 78.4488 276.987 77.9872 276.75C77.6353 275.621 75.9648 275.879 75.9648 277.059C75.9648 278.128 76.7059 279.354 82.4874 279.354C85.286 279.354 87.9439 279.016 90.2209 278.375C92.6221 281.211 97.4432 282.216 101.204 282.216C104.239 282.216 107.334 281.653 110.035 280.747C113.989 285.009 123.467 284.704 128.847 282.863C131.793 286.546 140.594 289.063 150.121 284.861C150.17 284.911 150.232 284.961 150.292 285C155.035 288.111 161.76 287.221 166.865 284.809C169.314 285.868 172.241 285.965 174.741 285.465C175.302 285.353 175.666 284.807 175.555 284.245L175.557 284.239ZM98.7245 267.599C100.062 268.836 98.3208 271.519 97.0333 272.646C95.1372 274.306 93.1355 275.403 91.1442 276.003C89.1777 271.683 95.338 264.553 98.7245 267.599ZM116.613 272.303C118.11 274.447 113.068 277.495 110.799 278.337C110.391 277.624 110.157 276.727 110.182 275.692C110.238 273.405 114.794 269.683 116.611 272.305L116.613 272.303ZM130.228 278.275C131.294 277.431 132.861 277.362 133.086 277.408C133.049 278.039 131.395 279.228 130.166 280.049C129.977 280.122 129.787 280.209 129.599 280.303C129.323 279.481 129.526 278.831 130.228 278.275ZM154.219 274.806C155.469 274.806 156.281 275.966 155.972 277.18C155.556 278.802 153.412 280.778 151.656 281.784L150.4 282.415C147.349 279.358 151.381 274.806 154.221 274.806H154.219ZM165.573 280.338C165.983 278.474 169.73 276.765 170.431 278.819C170.849 279.989 168.984 281.423 166.906 282.485C166.107 281.977 165.374 281.247 165.573 280.338Z" fill="#FF7A59"/>
<path d="M168.723 312.224C165.165 313.424 161.234 315.096 158.474 312.747C159.296 312.1 160.112 311.374 160.89 310.589C161.832 309.51 163.807 305.877 162.879 303.704C162.639 303.142 161.985 302.146 160.267 302.109C155.485 302.005 153.624 307.935 155.597 312.229C151.583 314.652 146.332 315.69 142.689 313.577C146.069 311.737 149.373 308.516 147.543 305.184C144.512 299.316 134.763 307.122 139.041 312.957C134.046 314.727 127.565 314.982 123.347 311.289C123.941 310.998 124.469 310.668 124.889 310.324C125.98 309.666 126.785 308.913 127.199 308.203C128.902 306.099 128.327 304.744 127.832 304.124C125.754 301.511 118.47 303.624 119.902 309.371C119.931 309.488 119.981 309.595 120.045 309.695C120.134 309.83 120.217 310.01 120.302 310.22C116.559 311.471 110.401 311.052 107.167 308.936C110.252 307.585 113.589 304.615 112.816 301.331C111.666 296.519 105.207 298.583 103.514 302.208C102.647 304.068 102.663 306.23 103.624 308.087C100.92 308.857 97.5295 308.994 94.9338 307.419C99.1959 305.099 101.15 302.223 100.599 299.052C99.7341 293.554 91.2844 295.019 89.9782 301.241C89.5166 303.441 90.2825 305.775 91.2202 306.769L91.2347 306.811C89.5497 307.417 87.7633 307.85 85.8568 308.108C84.1656 308.502 82.3709 308.452 80.2161 307.954C79.9221 307.84 78.9989 307.365 78.6367 307.126C77.9432 306.085 76.3286 306.96 76.8171 308.139C77.1028 308.83 79.0113 309.743 79.7441 309.954C81.8969 310.452 84.0476 310.658 86.2253 310.147C88.5106 309.842 90.7172 309.268 92.7892 308.438C96.0557 311.094 100.86 311.245 104.957 309.847C107.927 312.538 115.149 314.123 121.25 312.09C121.637 312.588 122.071 312.947 122.407 313.196C126.942 317.252 134.881 316.866 140.526 314.613C144.991 318.14 151.846 316.933 156.729 313.965C160.255 317.424 164.703 315.771 169.371 314.192C169.911 314.009 170.205 313.422 170.025 312.88C169.845 312.339 169.259 312.042 168.717 312.224H168.723ZM92.0068 301.673C92.8182 297.811 98.0553 296.201 98.5604 299.397C99.0696 302.329 96.1075 304.541 93.2571 305.962C93.2012 305.902 93.137 305.844 93.0708 305.786C92.9548 305.578 92.8141 305.443 92.7582 305.402C92.0068 304.273 91.7398 302.947 92.0089 301.673H92.0068ZM105.389 303.092C105.959 301.872 108.051 300.445 109.544 300.582C110.003 300.623 110.56 300.8 110.802 301.814C111.276 303.839 108.592 305.898 107.035 306.744C106.466 306.973 105.892 307.236 105.59 307.369C104.812 306.043 104.748 304.462 105.387 303.092H105.389ZM126.216 305.421C126.352 305.593 126.216 306.128 125.508 307.018C125.193 307.547 124.609 308.077 123.711 308.628C123.291 308.967 122.796 309.268 122.249 309.519C122.142 309.251 122.028 308.981 121.877 308.722C121.138 305.281 125.53 304.561 126.216 305.423V305.421ZM140.366 308.303C141.337 305.997 144.568 303.943 145.717 306.165C146.951 308.417 143.179 311.193 140.989 312.077C140.799 311.855 139.441 310.496 140.364 308.305L140.366 308.303ZM160.222 304.188C160.845 304.2 160.936 304.433 160.975 304.526C161.41 305.543 160.139 308.303 159.379 309.178C158.744 309.815 158.038 310.446 157.328 311.015C156.27 308.191 157.177 304.124 160.222 304.188Z" fill="#FF7A59"/>
<path d="M200.663 138.319C200.62 137.815 200.222 137.414 199.717 137.373L48.3876 124.641C47.7686 124.578 47.2118 125.114 47.2698 125.765L65.1463 331.692C65.1898 332.197 65.5913 332.595 66.0944 332.636C94.4658 334.902 175.815 341.295 204.811 341.295C215.689 341.295 216.103 340.401 216.409 339.739C217.362 337.67 205.714 198.193 200.663 138.321V138.319ZM214.48 338.722C207.624 341.096 123.466 335.259 67.1356 330.638L49.4391 126.811L198.674 139.367C204.288 205.912 214.559 330.205 214.478 338.722H214.48Z" fill="#2D3E50"/>
<path d="M189.682 182.778C189.63 182.288 189.239 181.904 188.748 181.859L67.8413 170.54C67.1996 170.473 66.6449 171.031 66.7173 171.687L72.6769 227.021C72.7307 227.512 73.124 227.896 73.6146 227.94C111.026 231.2 180.876 237.263 191.942 237.263C194.213 237.263 194.401 237.074 194.561 236.914C194.763 236.711 194.873 236.431 194.863 236.142C194.569 227.905 194.476 227.346 189.682 182.776V182.778ZM109.136 214.791L107.821 203.588L132.138 205.696L132.924 216.807L109.136 214.791ZM189.131 197.214C189.533 200.88 189.936 204.762 190.338 208.659L134.077 203.781L133.268 192.369L189.131 197.212V197.214ZM131.989 203.6L107.558 201.482L105.96 190.001L131.181 192.188L131.989 203.6ZM105.675 187.895L104.122 176.02L130.208 178.462L131.032 190.092L105.675 187.893V187.895ZM103.845 189.818L105.443 201.299L71.675 198.372L70.4433 186.922L103.845 189.818ZM71.9006 200.471L105.716 203.403L107.033 214.61L73.1136 211.732L71.9027 200.469L71.9006 200.471ZM134.224 205.874L190.551 210.759C190.946 214.703 191.342 218.519 191.737 222.016L135.013 216.986L134.226 205.874H134.224ZM188.907 195.11L133.119 190.271L132.297 178.655L187.717 183.842C187.903 185.558 188.359 189.758 188.907 195.11ZM102.009 175.82L103.561 187.71L70.2198 184.857L68.9136 172.722L102.007 175.82H102.009ZM73.3372 213.834L107.289 216.714L108.892 228.907C91.8471 227.458 78.1003 226.251 74.6392 225.946L73.3372 213.836V213.834ZM111.003 229.083L109.401 216.893L133.073 218.899L133.928 230.967C129.107 230.602 113.766 229.303 111.005 229.081L111.003 229.083ZM136.015 231.137L135.16 219.084L191.965 224.122C192.339 227.826 192.606 231.563 192.758 235.258C188.239 235.314 166.257 233.725 136.015 231.137Z" fill="#2D3E50"/>
<path d="M156.82 255.833L153.996 261.021L213.587 292.617L216.881 287.587L156.82 255.833Z" fill="#FF7A59"/>
<path d="M144.586 252.061L154.151 261.02L156.818 255.675L144.586 252.061Z" fill="#FFFBFA"/>
<path d="M220.39 288.269L157.11 254.681L144.879 251.064C143.846 250.749 143.08 252.069 143.879 252.818L153.183 261.533C153.275 261.759 153.575 262.157 154.179 262.137L216.532 295.254C218.453 296.324 220.796 295.669 221.843 293.78C223.071 291.728 222.125 288.939 220.39 288.269ZM153.757 259.232L148.489 254.295L155.461 256.358L153.757 259.232ZM213.327 291.149L155.438 260.456L157.361 257.213L215.453 288.006L213.327 291.151V291.149Z" fill="#2D3E50"/>
<path d="M207.161 301.42C206.533 298.747 205.591 296.075 204.494 293.56C200.416 283.814 195.241 273.594 187.4 266.207C185.049 263.692 182.068 261.648 178.775 260.391C177.678 260.078 175.169 259.447 174.854 261.177C174.324 265.425 183.453 268.791 188.367 280.056C185.962 278.128 179.822 273.754 176.736 273.754C175.169 273.596 173.6 274.696 173.442 276.427C173.442 278.711 174.088 279.699 175.618 281.158C174.591 280.676 173.316 280.452 172.188 280.201C169.992 280.201 168.58 281.772 169.209 284.602C169.679 285.86 170.306 287.117 171.405 288.219V288.376C168.739 287.748 166.543 287.903 165.603 289.005C164.976 290.105 164.976 291.52 165.603 292.622C166.388 294.037 169.211 297.181 169.211 297.181C167.957 297.809 167.172 298.909 167.172 300.167C166.7 303.783 168.584 309.913 173.914 309.284H175.483C175.796 309.597 175.953 309.913 176.111 310.228C182.097 319.41 185.662 320.114 187.243 321.703C191.636 316.516 206.2 305.238 207.786 304.097C207.786 303.153 207.473 302.368 207.158 301.424L207.161 301.42Z" fill="#FFD0C4"/>
<path d="M266.465 368.683C243.573 349.855 215.021 311.745 209.112 303.721C208.921 302.773 208.762 301.862 208.466 301.127C204.76 288.497 197.919 274.59 188.445 265.475C186.039 263.063 183.034 261.034 179.372 259.393C177.053 258.729 174.567 258.669 174.141 261.049C173.572 265.62 181.345 268.938 186.172 277.346C183.677 275.289 180.732 273.129 177.565 272.735C175.418 272.308 173.164 273.787 172.721 276.111C172.721 277.122 172.752 278.068 173.131 279.076C169.63 278.425 166.758 282.203 169.755 287.03C167.65 286.901 165.915 287.389 165.016 288.486C163.317 291.464 165.573 294.857 168.128 297.002C164.209 300.382 166.991 311.347 174.226 310.473C175.282 310.473 175.027 310.193 175.279 310.529C176.443 312.083 179.865 318.58 186.151 321.985C185.915 322.355 185.71 322.78 185.594 323.251C181.655 346.468 209.925 394.394 211.13 396.424C211.401 396.88 211.968 397.052 212.44 396.841C248.288 380.847 266.604 371.731 266.879 369.745C266.929 369.389 266.745 368.911 266.465 368.681V368.683ZM173.659 303.802C173.325 303.335 172.68 303.227 172.214 303.561C171.748 303.893 171.643 304.543 171.974 305.008C172.547 305.813 173.46 307.46 174.006 308.415C172.615 308.55 171.433 308.143 170.496 307.19C168.836 305.506 168.239 302.524 168.511 300.447C168.631 299.496 169.227 298.587 169.848 298.316C171.231 297.853 172.369 297.805 173.427 298.158C173.971 298.341 174.555 298.046 174.737 297.502C174.917 296.959 174.623 296.371 174.083 296.191C172.874 295.784 171.589 295.745 170.136 296.085C169.887 295.587 168.123 294.72 166.815 292.101C166.366 291.317 166.366 290.3 166.712 289.665C167.521 288.696 173.272 288.7 177.989 292.338C178.442 292.686 179.09 292.601 179.44 292.147C179.788 291.692 179.703 291.041 179.25 290.692C177.283 289.177 175.048 288.096 172.771 287.538C172.572 287.185 171.4 286.316 170.69 284.216C170.212 282.05 171.148 281.097 172.531 281.068C173.545 281.197 174.805 281.728 175.811 282.448C178.039 284.085 180.61 286.013 182.806 287.899C183.239 288.273 183.893 288.223 184.265 287.787C184.638 287.353 184.588 286.698 184.154 286.324C177.24 280.384 174.793 280.298 174.793 276.422C174.698 275.899 175.689 274.476 177.238 274.779C180.686 275.213 184 278.244 186.739 280.52C187.012 280.747 186.801 280.454 187.722 281.34C190.794 283.65 190.792 284.849 191.794 284.849C192.663 284.849 193.152 283.824 192.589 283.147C191.955 282.388 190.891 281.284 189.846 280.394C189.852 280.244 189.827 280.091 189.763 279.946C187.356 274.314 185.052 271.822 180.761 267.359C179.484 266.029 175.958 263.2 176.186 261.36C176.544 259.418 192.206 264.555 203.837 293.921C204.686 296.06 206.559 301.409 206.959 303.511C204.272 305.638 192.003 315.43 187.509 320.363C177.995 314.005 176.871 308.311 173.661 303.8L173.659 303.802Z" fill="#2D3E50"/>
<path d="M354.566 258.347C370.63 296.029 329.526 335.365 267.689 316.354C252.992 311.834 231.861 303.19 225.191 299.847C226.446 299.376 233.19 296.388 234.13 296.075C266.705 283.226 278.968 268.577 295.915 251.589C302.659 244.829 310.5 236.97 321.633 236.184C337.158 235.086 349.482 246.428 354.564 258.349L354.566 258.347Z" fill="#FFD0C4"/>
<path d="M331.986 258.818C328.038 255.708 291.509 258.636 289.644 260.076C285.841 263.014 281.662 309.73 286.038 313.208C291.546 317.586 322.381 316.455 324.772 314.781C328.479 312.181 335.414 261.52 331.986 258.818Z" fill="#FF7A59"/>
<path d="M293.43 274.937C293.877 275.02 294.591 275.379 296.231 275.379C298.688 275.379 301.23 274.389 303.37 273.128C304.867 274.547 306.401 274.97 308.106 274.97C310.228 274.97 312.261 274.437 314.167 273.381C317.388 276.057 322.106 274.057 325.527 271.609C325.993 271.277 326.101 270.627 325.768 270.162C325.434 269.695 324.786 269.588 324.323 269.922C322.304 271.366 320.539 272.26 318.078 272.563C317.31 272.659 316.562 272.472 315.927 272.092C316.531 271.617 317.123 271.094 317.657 270.557C318.245 269.967 319.723 268.073 319.518 266.402C319.226 264.039 315.753 263.188 313.443 266.67C312.335 268.098 312.157 269.988 312.907 271.702C310.661 272.872 307.351 273.592 305.237 272.005C306.061 271.343 307.367 270.254 307.131 268.608C306.887 266.398 304.233 266.436 302.956 268.058C302.132 269.104 301.847 270.32 302.188 271.414C296.881 274.495 294.37 272.872 293.558 272.872C292.109 272.872 292.147 274.929 293.426 274.939L293.43 274.937ZM315.124 267.882C315.511 267.299 316.401 266.396 317.053 266.396C318.102 266.396 316.906 268.378 316.198 269.087C315.724 269.563 315.198 270.027 314.664 270.449C314.438 269.656 314.478 268.718 315.124 267.882Z" fill="#FFFBFA"/>
<path d="M326.045 285.988C325.684 285.544 325.032 285.476 324.589 285.837C322.557 287.493 319.472 289.692 316.044 289.697C315.206 289.784 314.362 289.504 313.678 288.941C313.925 288.788 314.181 288.63 314.5 288.466C315.351 287.935 318.123 286.013 318.123 283.656C318.123 282.978 317.843 282.403 317.338 282.038C314.579 280.046 309.789 284.374 310.743 288.234C307.86 289.711 304.161 290.443 301.693 289.026C309.843 285.082 306.187 278.274 300.36 282.162C298.402 283.471 297.613 285.924 298.307 288.122C296.528 288.57 294.812 289.003 293.214 288.281C293.026 288.084 292.761 287.962 292.467 287.962C291.378 287.962 290.797 289.613 292.519 290.205C292.954 290.641 294.295 290.771 294.91 290.771C296.139 290.771 298.116 290.311 299.308 290.008C299.534 289.95 299.356 289.956 299.718 290.174C302.983 292.869 308.054 291.981 311.805 290.02C312.948 291.251 314.562 291.933 316.146 291.767C320.129 291.767 323.617 289.302 325.894 287.447C326.336 287.086 326.405 286.433 326.045 285.986V285.988ZM301.509 283.891C302.194 283.434 303.722 282.729 304.281 283.289C304.568 283.577 304.148 284.492 303.653 285.123C302.678 286.101 301.453 286.914 300.25 287.399C299.882 286.09 300.358 284.658 301.509 283.891ZM314.906 283.855C315.535 283.644 316.026 283.669 316.053 283.656C316.053 284.611 314.678 285.905 313.488 286.659C313.223 286.792 312.958 286.949 312.691 287.113C312.726 286.038 313.606 284.438 314.904 283.855H314.906Z" fill="#FFFBFA"/>
<path d="M322.965 300.349C320.93 302.269 315.805 306.57 312.141 305.014C311.814 304.883 311.466 304.609 311.201 304.292C312.522 303.13 314.252 301.401 313.865 299.463C313.114 296.069 307.384 298.941 308.638 303.682C305.943 305.392 301.609 306.618 299.031 305.114C299.824 304.504 301.174 303.25 301.627 302.358C302.165 301.287 303.066 299.497 301.882 298.071C300.528 296.488 297.845 297.339 296.876 298.839C295.409 300.474 295.063 302.796 295.897 304.653C294.363 305.485 291.935 306.301 290.294 305.952C289.472 305.292 288.319 306.151 288.659 307.139C289.155 308.593 292.652 308.114 294.134 307.614C295.252 307.334 296.231 306.844 297.164 306.323C300.497 309.015 305.935 307.782 309.559 305.554C310.048 306.162 310.694 306.668 311.356 306.933C315.687 308.77 320.955 305.099 324.387 301.862C324.803 301.47 324.824 300.812 324.43 300.395C324.039 299.978 323.385 299.959 322.967 300.352L322.965 300.349ZM299.971 299.289C300.836 299.272 300.159 300.657 299.795 301.426C299.191 302.234 298.506 302.92 297.678 303.541C297.001 301.536 298.65 299.312 299.971 299.289ZM311.845 300.156C311.766 300.721 311.174 301.437 310.545 302.065C310.63 301.171 311.06 300.588 311.845 300.156Z" fill="#FFFBFA"/>
<path d="M311.755 251.588C307.843 248.432 271.278 251.406 269.413 252.846C265.611 255.784 261.431 302.501 265.807 305.978C271.316 310.357 302.167 309.251 304.541 307.551C308.116 304.991 315.055 254.253 311.755 251.588Z" fill="#FF7A59"/>
<path d="M265.164 306.791C260.061 302.757 264.605 255.351 268.598 252.046C270.985 250.249 308.019 247.387 312.244 250.778C313.012 251.374 313.714 252.851 313.548 259.491C313.213 272.9 308.7 305.913 305.131 308.403C302.248 310.523 271.003 311.468 265.162 306.791H265.164ZM269.828 253.708C267.857 255.409 264.669 279.884 264.99 295.478C265.164 303.91 266.319 305.06 266.449 305.164C271.428 309.133 301.294 308.347 303.939 306.705C307.28 303.807 313.484 255.565 310.925 252.372C307.611 249.72 272.614 252.253 269.828 253.708Z" fill="#FFFBFA"/>
<path d="M305.383 262.776C305.052 262.309 304.404 262.201 303.938 262.535C301.92 263.981 300.156 264.871 297.693 265.176C296.925 265.272 296.178 265.087 295.542 264.705C296.147 264.23 296.739 263.705 297.273 263.168C297.861 262.58 299.339 260.686 299.134 259.014C298.838 256.602 295.246 255.804 292.988 259.385C291.976 260.989 291.881 262.95 292.58 264.471C290.388 265.658 286.931 266.336 284.855 264.774C285.679 264.112 286.985 263.022 286.751 261.377C286.376 257.993 280.729 260.01 281.868 264.143C280.458 264.94 278.806 265.571 277.084 265.971C276.136 266.129 275.07 266.12 274.089 265.84C273.598 265.699 273.391 265.643 273.176 265.643C271.721 265.643 271.766 267.71 273.052 267.71C273.151 267.729 273.333 267.785 273.518 267.836C276.583 268.718 280.212 267.486 282.98 265.896C284.491 267.33 286.031 267.743 287.726 267.743C289.941 267.743 292.088 267.175 293.913 266.102C297.149 268.635 301.8 266.618 305.141 264.226C305.607 263.892 305.714 263.245 305.381 262.78L305.383 262.776ZM296.952 259.08C297.505 259.414 296.331 261.182 295.811 261.701C295.337 262.176 294.812 262.643 294.275 263.064C293.733 260.674 296.136 258.623 296.95 259.08H296.952Z" fill="#FFFBFA"/>
<path d="M305.658 278.756C305.298 278.31 304.644 278.244 304.203 278.605C302.17 280.261 299.086 282.46 295.656 282.464C294.818 282.552 293.971 282.271 293.29 281.709C295.207 280.514 297.734 278.686 297.734 276.424C297.734 273.355 292.004 273.328 290.353 278.891C290.222 279.545 290.249 280.23 290.433 280.96C287.539 282.464 283.797 283.224 281.307 281.794C282.545 281.194 283.753 280.333 284.805 279.273C288.102 275.142 284.281 272.052 280.025 274.899C278.049 276.057 277.233 278.478 277.904 280.777C276.407 281.151 274.65 281.491 273.472 281.138C273.345 281.066 273.196 281.004 273.016 280.931C272.288 280.103 270.982 280.823 271.205 281.881C271.338 282.51 271.894 282.724 272.29 282.819C272.404 282.933 272.542 283.018 272.693 283.07C274.602 283.711 276.78 283.209 278.924 282.664C282.335 285.635 287.415 284.888 291.421 282.792C292.563 284.023 294.178 284.705 295.761 284.539C299.746 284.539 303.232 282.074 305.509 280.219C305.952 279.858 306.02 279.205 305.66 278.758L305.658 278.756ZM281.122 276.659C281.808 276.202 283.335 275.497 283.894 276.057C284.182 276.345 283.762 277.26 283.267 277.891C282.296 278.862 281.079 279.674 279.883 280.161C279.493 278.773 279.951 277.345 281.125 276.659H281.122ZM292.36 279.393C292.853 277.748 293.934 276.424 295.648 276.424C295.648 277.476 293.963 278.758 293.104 279.427C292.849 279.555 292.594 279.705 292.34 279.86C292.329 279.688 292.338 279.532 292.363 279.393H292.36Z" fill="#FFFBFA"/>
<path d="M304.039 293.006C303.648 292.589 302.994 292.57 302.576 292.962C299.438 295.923 295.022 299.139 291.752 297.627C291.435 297.5 291.097 297.237 290.837 296.934C291.932 296.029 293.88 294.099 293.476 292.078C292.992 289.893 290.394 290.292 289.079 292.068C288.164 293.537 287.893 295.151 288.303 296.519C285.645 298.168 281.47 299.326 278.827 297.861C280.919 296.222 283.225 292.927 281.532 290.895C280.236 289.163 277.547 289.97 276.485 291.609C275.069 293.188 274.771 295.483 275.622 297.359C274.051 298.222 271.584 299.077 269.903 298.722C269.079 298.062 267.93 298.924 268.267 299.909C268.764 301.364 272.258 300.884 273.743 300.384C274.9 300.096 275.908 299.581 276.87 299.042C279.768 301.744 285.475 300.685 289.309 298.336C290.373 299.552 292.037 300.108 293.588 300.108C296.535 300.108 300.023 298.222 303.998 294.475C304.414 294.083 304.434 293.425 304.041 293.008L304.039 293.006ZM279.909 292.18C280.242 292.599 279.835 293.547 279.356 294.267C278.882 295.027 278.259 295.693 277.429 296.322C276.467 293.794 279.178 291.259 279.909 292.18ZM290.785 293.238C290.913 293.066 291.22 292.846 291.46 292.73C291.41 293.255 290.915 293.979 290.23 294.676C290.311 294.195 290.499 293.697 290.783 293.238H290.785Z" fill="#FFFBFA"/>
<path d="M299.837 134.318C286.827 157.901 260.631 169.826 232.719 172.832C210.742 175.2 187.407 174.09 185.359 174.09C186.301 173.146 191.631 167.487 192.259 166.858C218.56 140.494 223.327 124.043 233.501 99.1056C237.227 89.9735 241.651 79.1316 251.85 73.9545C280.863 59.222 320.837 96.2504 299.837 134.318Z" fill="#FFD0C4"/>
<path d="M285.408 147.682H257.809C257.809 139.979 263.925 133.848 271.609 133.848C279.293 133.848 285.41 139.979 285.41 147.682H285.408Z" fill="#FF7A59"/>
<path d="M282.584 110.424H254.984C255.142 102.722 261.256 96.5904 268.94 96.7481C276.467 96.9037 282.584 102.88 282.584 110.424Z" fill="#FF7A59"/>
<path d="M271.764 118.127C275.058 118.127 277.724 120.8 277.724 124.101C277.724 127.402 275.058 130.075 271.764 130.075C268.471 130.075 265.805 127.402 265.805 124.101C265.805 120.8 268.471 118.127 271.764 118.127Z" fill="#FF7A59"/>
<path d="M268.94 80.8721C272.233 80.8721 274.9 83.5447 274.9 86.846C274.9 90.1473 272.233 92.8199 268.94 92.8199C265.647 92.8199 262.98 90.1473 262.98 86.846C262.98 83.5447 265.647 80.8721 268.94 80.8721Z" fill="#FF7A59"/>
<path d="M256.239 133.219H228.64C228.482 125.517 234.599 119.385 242.283 119.229C250.035 119.072 256.32 125.322 256.239 133.219Z" fill="#FF7A59"/>
<path d="M242.598 103.666C245.891 103.666 248.557 106.339 248.557 109.64C248.557 112.941 245.891 115.614 242.598 115.614C239.305 115.614 236.56 112.941 236.638 109.64C236.717 106.339 239.462 103.666 242.598 103.666Z" fill="#FF7A59"/>
<path d="M287.609 243.414C265.809 253.314 239.901 248.035 217.51 235.396C199.232 225.079 182.215 212.123 181.285 211.502C182.54 211.345 189.439 210.087 190.223 209.93C222.298 205.643 236.72 195.372 255.929 183.677C263.446 179.102 272.235 173.792 282.589 175.504C312.006 180.365 322.699 227.476 287.607 243.412L287.609 243.414Z" fill="#FFD0C4"/>
<path d="M286.196 198.455L262.045 193.268C261.549 195.262 261.261 199.505 261.261 201.441C261.261 208.994 265.887 211.588 266.121 214.646C266.121 217.566 261.443 218.943 259.692 220.305C255.115 223.859 253.043 229.047 253.043 232.448L277.883 237.755C279.694 233.215 279.139 228.117 276.941 224.079C275.767 221.923 272.282 218.96 273.648 216.219C275.285 214.03 277.136 213.422 278.164 212.816C284.279 209.205 286.124 198.669 286.194 198.457L286.196 198.455Z" fill="#FFFBFA"/>
<path d="M279.103 234.938C274.852 231.084 272.293 221.726 273.692 216.87C274.233 214.995 276.189 213.441 277.886 212.76C276.036 207.195 265.843 205.284 263.272 208.409C263.963 209.967 266.352 212.442 266.443 214.268C266.913 223.508 256.551 230.675 253.735 229.267C253.642 229.738 253.266 231.939 253.266 231.939L278.356 237.284C278.356 237.284 278.938 235.689 279.103 234.94V234.938Z" fill="#00A492"/>
<path d="M249.816 210.341C249.551 210.341 240.673 208.834 237.761 208.444C237.194 208.367 236.796 207.846 236.873 207.278C236.949 206.711 237.473 206.319 238.036 206.388C240.377 206.701 249.593 208.214 249.984 208.278C251.232 208.483 251.083 210.341 249.819 210.341H249.816Z" fill="#2D3E50"/>
<path d="M239.778 216.157C238.468 216.157 238.381 214.204 239.685 214.086C240.933 213.972 244.73 213.611 246.729 213.422C248.485 213.254 248.932 215.296 247.005 215.48L239.778 216.159V216.157Z" fill="#2D3E50"/>
<path d="M289.318 195.162C288.997 194.517 288.322 194.12 287.811 194.137C283.812 193.336 266.451 189.912 261.671 189.118C260.28 188.767 258.945 189.958 258.995 190.863L258.682 192.433C258.57 192.996 258.933 193.541 259.494 193.653L260.673 193.875C260.531 194.633 260.388 195.55 260.39 196C258.98 211.538 265.724 211.554 264.811 215.005C264.497 216.188 262.603 217.202 261.079 218.016C256.227 220.61 252.745 225.312 252.002 230.773L251.303 230.611C250.74 230.482 250.183 230.837 250.061 231.397L249.752 232.786C249.458 233.968 250.263 235.317 251.462 235.62C251.669 235.668 277.722 241.492 277.981 241.492C278.997 241.492 280.04 240.789 280.312 239.685L280.626 238.114C280.738 237.552 280.374 237.01 279.815 236.894C279.185 236.761 279.568 237.135 280.005 234.937C280.928 229.387 279.587 224.913 276.815 220.971C275.321 218.842 274.367 217.236 274.793 216.211C275.712 214.982 276.861 214.067 278.192 213.53C283.259 211 286.182 204.429 287.341 198.876C287.557 198.915 288.026 199.021 288.238 199.021C288.722 199.021 289.153 198.679 289.252 198.188C289.252 198.188 289.403 197.426 289.554 196.82C289.627 196.536 289.61 195.745 289.318 195.162ZM285.251 198.764C284.296 203.431 281.651 209.403 277.345 211.639C275.54 212.364 272.611 214.681 272.622 216.464C272.429 219.329 275.505 222.259 276.352 224.104C278.442 227.947 278.751 232.759 277.441 236.375L254.033 231.238C254.553 226.733 257.347 222.367 262.056 219.85C264.414 218.591 267.018 217.138 267.004 214.409C266.743 211.023 262.145 208.639 262.145 201.285C262.145 199.708 262.369 196.117 262.712 194.262C287.049 198.826 285.335 198.37 285.255 198.766L285.251 198.764Z" fill="#2D3E50"/>
<path d="M61.4749 107.124C90.4021 107.124 113.852 83.6169 113.852 54.62C113.852 25.623 90.4021 2.11621 61.4749 2.11621C32.5477 2.11621 9.09766 25.623 9.09766 54.62C9.09766 83.6169 32.5477 107.124 61.4749 107.124Z" fill="#FFFBFA"/>
<path d="M54.2599 0.607422C24.8079 0.607422 0.847656 24.6255 0.847656 54.1486C0.847656 82.8148 22.1811 108.161 61.4738 108.161C90.9258 108.161 114.886 84.1428 114.886 54.6197C114.886 26.5014 94.1467 0.607422 54.2599 0.607422ZM61.4738 106.086C33.1624 106.086 10.1316 82.9995 10.1316 54.6197C10.1316 26.2399 33.1624 3.15345 61.4738 3.15345C89.7852 3.15345 112.816 26.2399 112.816 54.6197C112.816 82.9995 89.7852 106.086 61.4738 106.086Z" fill="#00A492"/>
<path d="M61.4725 20.6021C60.9012 20.6021 60.4375 20.1373 60.4375 19.5646V8.24551C60.4375 7.67281 60.9012 7.20801 61.4725 7.20801C62.0438 7.20801 62.5075 7.67281 62.5075 8.24551V19.5646C62.5075 20.1373 62.0438 20.6021 61.4725 20.6021Z" fill="#2D3E50"/>
<path d="M106.478 55.1863H95.0311C94.4598 55.1863 93.9961 54.7215 93.9961 54.1488C93.9961 53.5761 94.4598 53.1113 95.0311 53.1113H106.478C107.05 53.1113 107.513 53.5761 107.513 54.1488C107.513 54.7215 107.05 55.1863 106.478 55.1863Z" fill="#2D3E50"/>
<path d="M26.5026 55.657H15.2108C14.6395 55.657 14.1758 55.1922 14.1758 54.6195C14.1758 54.0468 14.6395 53.582 15.2108 53.582H26.5026C27.074 53.582 27.5376 54.0468 27.5376 54.6195C27.5376 55.1922 27.074 55.657 26.5026 55.657Z" fill="#2D3E50"/>
<path d="M61.4725 103.289C60.9012 103.289 60.4375 102.824 60.4375 102.252V90.7768C60.4375 90.2041 60.9012 89.7393 61.4725 89.7393C62.0438 89.7393 62.5075 90.2041 62.5075 90.7768V102.252C62.5075 102.824 62.0438 103.289 61.4725 103.289Z" fill="#2D3E50"/>
<path d="M84.3701 68.1382L63.0429 58.2342L47.6752 25.8518C46.9507 24.0361 43.914 25.4368 45.0091 27.2669L60.5341 59.6494L61.7885 60.9068L83.273 70.8108C84.0575 71.1262 84.8421 70.8108 85.312 70.0244C85.4693 69.3956 85.1546 68.4515 84.3701 68.1382Z" fill="#FF7A59"/>
</svg>
