<svg width="400" height="401" viewBox="0 0 400 401" fill="none" xmlns="http://www.w3.org/2000/svg">
<path d="M269.957 252.044L87.3555 257.468L120.107 288.494C122.981 291.216 126.813 292.696 130.771 292.61L320.251 288.532L269.957 252.044Z" fill="white"/>
<path d="M187.779 255.016C186.885 255.016 186.433 253.92 187.087 253.294L254.803 188.371C255.101 188.083 255.547 188.011 255.923 188.189L266.665 193.327C267.165 193.563 267.377 194.159 267.143 194.659C266.907 195.159 266.309 195.371 265.811 195.135L255.691 190.291C187.977 255.214 188.417 255.016 187.781 255.016H187.779Z" fill="#2D3E50"/>
<path d="M320.839 287.721L270.543 251.231L87.3253 256.465C86.4333 256.493 86.0213 257.593 86.6773 258.199C86.6773 258.199 118.749 288.139 120.699 289.921C122.985 292.029 125.833 293.183 128.963 293.143C132.187 293.101 319.445 289.527 320.251 289.527C321.217 289.527 321.621 288.285 320.839 287.717V287.721ZM219.183 289.427L219.675 254.537L268.805 253.079C268.575 254.171 268.627 254.093 265.883 288.545L219.183 289.427ZM165.761 290.439L164.759 256.167L217.675 254.595L217.183 289.463L165.761 290.437V290.439ZM128.937 291.147C126.343 291.147 123.963 290.215 122.051 288.451C120.099 286.669 92.8293 261.181 89.8253 258.393L162.759 256.227L163.761 290.477C143.777 290.857 129.801 291.125 128.937 291.147ZM267.893 288.507L270.695 253.815L317.233 287.577L267.893 288.507Z" fill="#2D3E50"/>
<path d="M120.717 52.5117C120.717 52.5117 93.1054 231.334 95.0774 234.95C97.0494 238.566 231.823 266.836 231.823 266.836L247.931 85.7117L120.717 52.5117Z" fill="#FFD0C4"/>
<path d="M173.643 76.0157L167.397 128.61C164.973 128.126 124.897 118.864 123.677 118.256C123.019 117.106 131.567 64.3457 131.567 64.3457L173.643 76.0157Z" fill="#FF7A59"/>
<path d="M158.523 106.586C160.699 113.476 160.853 121.094 159.345 127.13C148.991 124.828 130.027 119.978 130.027 119.978C130.523 110.556 133.247 104.878 137.649 100.34C138.781 99.1724 141.757 97.8744 142.415 96.5604C142.743 95.9024 141.757 93.7665 141.757 92.9445C141.593 90.8085 141.957 88.6864 142.743 86.6984C145.593 79.4964 156.089 80.1064 158.521 88.0124C159.015 90.6424 158.521 93.4365 156.877 95.7365C156.549 96.3945 154.741 97.8724 154.741 98.5304C154.741 99.1884 155.891 100.502 156.221 101.16C157.207 102.474 158.029 104.448 158.523 106.584V106.586Z" fill="white"/>
<path d="M219.337 248.936C219.137 248.936 109.569 226.026 108.549 224.494C108.287 224.1 107.671 223.178 114.147 184.984C114.193 184.716 114.345 184.48 114.569 184.326C115.125 183.944 114.765 184.022 224.471 206.688C224.981 206.794 225.325 207.272 225.261 207.788L220.329 248.056C220.267 248.56 219.839 248.934 219.337 248.934V248.936ZM110.335 223.232C117.283 225.288 189.117 240.548 218.477 246.732L223.165 208.46L115.947 186.338C113.719 199.526 110.493 219.612 110.335 223.23V223.232Z" fill="#2D3E50"/>
<path d="M159.842 127.146C159.214 127.146 158.748 126.58 158.856 125.97C159.994 119.628 159.608 113.142 157.736 107.218C157.142 105.29 156.484 103.264 155.51 101.478C155.144 100.752 153.908 99.47 153.908 98.37C153.908 97.206 155.868 95.654 156.152 95.126C157.652 93.006 158.176 90.536 157.706 88.036C155.568 81.128 146.18 80.664 143.846 86.888C143.084 88.72 142.768 90.72 142.92 92.704C142.93 93.546 144.056 95.682 143.474 96.844C142.646 98.498 139.61 99.796 138.52 100.884C134.336 105.332 131.7 110.608 131.25 119.132C131.18 120.468 129.184 120.34 129.252 119.026C129.714 110.238 132.406 104.46 137.082 99.492C138.24 98.332 141.222 96.872 141.682 95.95C141.642 95.394 140.918 93.708 140.918 92.782C140.744 90.56 141.11 88.24 141.98 86.152C144.944 78.242 156.886 78.618 159.638 87.558C160.91 94.272 156.392 97.718 155.934 98.426C156.616 100.014 157.45 99.51 159.638 106.624C161.604 112.85 162.012 119.666 160.816 126.326C160.73 126.81 160.308 127.15 159.832 127.15L159.842 127.146Z" fill="#2D3E50"/>
<path d="M234.95 102.163C234.748 102.163 234.772 102.147 228.762 100.835C185.002 91.2834 184.754 90.9634 184.348 90.4234C183.676 89.5274 184.772 88.3694 185.704 88.9914C188.24 90.0314 229.254 98.8934 235.162 100.187C236.324 100.441 236.14 102.163 234.95 102.163Z" fill="#2D3E50"/>
<path d="M209.31 114.982C208.46 114.982 183.582 110.054 182.54 108.664C181.842 107.73 183.048 106.558 183.962 107.282C185.626 108.074 202.558 111.87 209.47 112.994C210.676 113.19 210.532 114.982 209.31 114.982Z" fill="#2D3E50"/>
<path d="M232.65 120.736C232.65 120.736 223.904 118.734 215.362 117.102C214.82 116.994 214.468 116.468 214.574 115.928C214.682 115.386 215.204 115.034 215.748 115.14C216.292 115.248 229.134 117.788 232.9 118.77C234.03 119.066 233.816 120.738 232.648 120.738L232.65 120.736Z" fill="#2D3E50"/>
<path d="M229.856 137.336C228.71 137.336 180.214 128.412 178.786 127.698C177.636 127.122 178.446 125.378 179.628 125.884C181.574 126.532 219.096 133.582 230.016 135.348C231.224 135.542 231.08 137.336 229.858 137.336H229.856Z" fill="#2D3E50"/>
<path d="M227.885 157.221C226.373 157.221 123.029 134.245 121.673 134.047C120.565 134.007 120.339 132.449 121.391 132.099C122.469 131.737 213.847 152.707 228.059 155.237C229.253 155.449 229.099 157.221 227.885 157.221Z" fill="#2D3E50"/>
<path d="M226.736 176.29C225.22 176.29 121.882 153.312 120.524 153.116C119.416 153.076 119.192 151.518 120.242 151.168C121.332 150.8 212.2 171.686 226.91 174.306C228.104 174.518 227.95 176.29 226.736 176.29Z" fill="#2D3E50"/>
<path d="M224.433 196.012C222.921 196.012 119.577 173.034 118.219 172.838C117.111 172.796 116.887 171.24 117.939 170.888C119.033 170.522 209.915 191.412 224.605 194.028C225.799 194.24 225.645 196.012 224.431 196.012H224.433Z" fill="#2D3E50"/>
<path d="M231.825 267.838C231.367 267.838 96.4813 239.61 94.2013 235.43C92.2213 231.8 113.241 94.3879 119.731 52.3599C119.847 51.6159 120.321 51.5599 120.921 51.6619C123.965 52.1759 140.953 56.7239 248.019 84.5799C248.491 84.7019 248.807 85.1499 248.763 85.6359L232.821 266.924C232.775 267.442 232.339 267.836 231.825 267.836V267.838ZM95.9833 234.42C101.061 237.596 178.689 254.66 230.929 265.628L246.699 86.3039L121.539 53.7579C110.759 123.614 95.3053 227.754 95.9833 234.418V234.42Z" fill="#FF7A59"/>
<path d="M263.713 184.001L132.555 177.097C132.555 177.097 141.267 357.89 143.895 361.014C146.525 364.136 284.257 364.794 284.257 364.794L263.713 184.001Z" fill="#00A492"/>
<path d="M189.257 189.589L193.859 242.348C193.859 242.348 190.573 242.32 185.641 242.184C152.213 241.264 152.531 241.596 149.153 241.034C148.331 240.048 146.031 186.633 146.031 186.633L189.257 189.591V189.589Z" fill="#FF7A59"/>
<path d="M185.479 242.349C176.767 242.185 163.127 242.021 155.237 241.691C155.237 238.103 153.045 229.619 159.017 220.489C159.865 219.191 162.469 217.367 162.961 215.723C163.125 214.901 161.811 213.093 161.481 212.271C160.823 210.299 160.823 207.997 161.317 206.025C162.721 198.065 173.201 197.163 177.095 204.053C178.081 206.519 178.115 209.493 176.931 211.943C176.611 212.605 175.287 214.409 175.451 215.065C175.615 215.721 177.095 216.873 177.423 217.367C182.991 224.327 185.477 233.301 185.477 242.349H185.479Z" fill="white"/>
<path d="M268.478 350.017C156.248 349.769 155.518 348.647 155.126 348.177C154.868 347.869 154.084 346.929 152.758 308.291C152.738 307.725 153.192 307.257 153.758 307.257L265.196 307.421C265.716 307.421 266.15 307.821 266.192 308.339L269.48 348.935C269.528 349.519 269.064 350.017 268.482 350.017H268.478ZM156.698 346.673C163.204 347.319 225.232 347.823 267.396 348.011L264.272 309.419L154.794 309.257C155.264 322.687 156.138 343.113 156.7 346.673H156.698Z" fill="#FFD0C4"/>
<path d="M254.348 202.917C245.942 202.861 203.712 202.375 202.632 201.567C201.71 200.877 202.506 199.425 203.584 199.829C206.294 200.321 251.084 200.871 254.36 200.915C254.912 200.923 255.354 201.375 255.346 201.929C255.338 202.477 254.892 202.919 254.346 202.915L254.348 202.917Z" fill="#FFD0C4"/>
<path d="M204.406 219.609C203.75 218.733 204.786 217.587 205.722 218.151C207.562 218.625 224.082 218.851 231.786 218.501C232.334 218.473 232.806 218.903 232.83 219.455C232.854 220.007 232.428 220.475 231.876 220.499C230.278 220.577 205.55 221.135 204.404 219.607L204.406 219.609Z" fill="#FFD0C4"/>
<path d="M255.824 221.488C249.4 221.418 244.826 221.324 238.402 221.324C237.85 221.324 237.402 220.876 237.402 220.324C237.402 219.772 237.85 219.324 238.402 219.324C238.96 219.324 252.108 219.324 255.868 219.49C257.162 219.544 257.12 221.504 255.826 221.49L255.824 221.488Z" fill="#FFD0C4"/>
<path d="M204.709 239.06C203.439 238.848 203.695 236.926 205.009 237.082C206.521 237.206 244.673 236.764 256.275 236.252C256.797 236.222 257.293 236.654 257.317 237.208C257.341 237.76 256.913 238.226 256.361 238.25C246.123 238.702 205.945 239.266 204.707 239.058L204.709 239.06Z" fill="#FFD0C4"/>
<path d="M150.008 256.806C148.938 257.014 148.352 255.596 149.26 254.992C150.17 254.39 245.728 256.496 258.442 256.304C259.012 256.272 259.448 256.738 259.456 257.29C259.464 257.842 259.022 258.296 258.47 258.304C251.714 258.396 151.662 256.694 150.01 256.806H150.008Z" fill="#FFD0C4"/>
<path d="M152.634 275.873C151.568 276.087 150.982 274.661 151.886 274.059C153.008 273.309 245.536 275.797 261.054 275.371C261.584 275.357 262.066 275.791 262.08 276.343C262.096 276.895 261.66 277.355 261.108 277.371C255.002 277.531 152.658 275.871 152.634 275.873Z" fill="#FFD0C4"/>
<path d="M154.447 295.594C153.383 295.808 152.793 294.386 153.699 293.78C154.657 293.144 249.501 295.46 262.869 295.092C264.207 295.078 264.231 297.054 262.923 297.092C256.915 297.25 154.483 295.592 154.449 295.594H154.447Z" fill="#FFD0C4"/>
<path d="M185.809 242.032C185.269 242.032 184.823 241.6 184.809 241.058C184.649 234.616 183.029 228.52 179.999 222.938C175.333 214.382 172.755 216.704 175.657 211.978C177.093 209.638 177.127 206.652 176.169 204.258C172.867 198.45 163.557 198.936 162.303 206.034C161.811 208.012 161.863 210.084 162.431 211.788C162.503 211.964 162.687 212.28 162.885 212.63C164.439 215.378 164.647 216.002 161.311 219.27C160.729 219.84 160.129 220.43 159.863 220.854C156.051 226.426 155.169 233.55 156.223 240.22C156.429 241.52 154.455 241.848 154.247 240.532C153.125 233.414 154.089 225.754 158.189 219.76C158.995 218.468 161.627 216.516 162.001 215.27C161.953 214.984 160.783 213.058 160.551 212.476C159.845 210.366 159.779 207.886 160.345 205.618C161.901 196.76 173.679 195.814 177.965 203.396C179.185 206.42 179.159 210.09 177.357 213.024C177.093 213.456 176.473 214.464 176.435 214.792C176.507 214.846 177.091 215.416 177.405 215.724C178.945 217.226 180.721 220.092 181.751 221.982C184.935 227.846 186.635 234.246 186.803 241.008C186.809 241.248 186.629 242.034 185.803 242.034L185.809 242.032Z" fill="#2D3E50"/>
<path d="M242.017 158.852L110.859 151.948C110.859 151.948 119.571 332.742 122.199 335.866C124.829 338.988 262.561 339.646 262.561 339.646L242.017 158.852Z" fill="white"/>
<path d="M167.396 164.442L171.998 217.203C171.998 217.203 168.71 217.203 163.78 217.039C163.78 209.631 162.036 203.009 158.85 197.15C155.262 190.556 153.724 190.778 153.426 189.59C153.262 188.932 154.586 187.13 154.906 186.468C156.09 184.018 156.056 181.208 155.07 178.578C151.278 171.87 140.958 172.362 139.292 180.55C138.854 182.698 138.964 184.824 139.62 186.796C139.784 187.454 141.272 189.428 141.1 190.248C140.788 191.73 137.978 193.536 137.156 195.014C131.066 204.383 133.55 212.217 133.536 216.217C131.4 216.217 129.266 216.053 127.13 215.723C126.308 214.737 124.008 161.32 124.008 161.32L167.398 164.442H167.396Z" fill="#FF7A59"/>
<path d="M246.615 324.87C134.385 324.622 133.655 323.5 133.263 323.03C133.005 322.722 132.221 321.78 130.895 283.144C130.875 282.58 131.329 282.11 131.895 282.11L243.331 282.274C243.851 282.274 244.285 282.674 244.327 283.192L247.615 323.788C247.663 324.372 247.199 324.87 246.617 324.87H246.615ZM134.835 321.526C141.341 322.172 203.369 322.676 245.531 322.864L242.407 284.272L132.929 284.11C133.399 297.54 134.273 317.966 134.835 321.526Z" fill="#00A492"/>
<path d="M232.485 177.768C199.099 177.566 181.555 177.22 180.661 176.324C179.875 175.538 180.781 174.242 181.789 174.71C184.579 175.302 226.075 175.684 232.497 175.768C233.049 175.776 233.491 176.228 233.483 176.782C233.475 177.328 233.029 177.772 232.483 177.768H232.485Z" fill="#FFD0C4"/>
<path d="M182.543 194.462C181.885 193.586 182.925 192.439 183.859 193.003C185.697 193.475 202.217 193.704 209.923 193.354C210.473 193.316 210.943 193.755 210.967 194.307C210.991 194.859 210.565 195.326 210.013 195.352C208.441 195.428 183.687 195.986 182.541 194.46L182.543 194.462Z" fill="#FFD0C4"/>
<path d="M233.965 196.504C227.541 196.434 222.967 196.34 216.543 196.34C215.991 196.34 215.543 195.892 215.543 195.34C215.543 194.788 215.991 194.34 216.543 194.34C217.101 194.34 230.249 194.34 234.009 194.506C235.303 194.56 235.261 196.52 233.967 196.506L233.965 196.504Z" fill="#FFD0C4"/>
<path d="M182.848 213.914C182.304 213.824 181.934 213.308 182.026 212.764C182.116 212.23 182.618 211.87 183.146 211.936C184.664 212.068 222.818 211.618 234.412 211.106C234.936 211.068 235.43 211.508 235.454 212.062C235.478 212.614 235.05 213.08 234.498 213.104C224.254 213.556 184.084 214.122 182.846 213.914H182.848Z" fill="#FFD0C4"/>
<path d="M128.146 231.66C127.066 231.862 126.494 230.448 127.396 229.846C128.342 229.214 222.65 231.348 236.578 231.156C237.116 231.156 237.584 231.59 237.592 232.142C237.6 232.694 237.158 233.148 236.606 233.156C230.454 233.24 129.782 231.542 128.146 231.658V231.66Z" fill="#FFD0C4"/>
<path d="M130.776 250.724C129.716 250.94 129.118 249.518 130.028 248.91C131.132 248.172 223.838 250.642 239.198 250.222C240.536 250.208 240.56 252.184 239.252 252.222C233.184 252.382 130.804 250.722 130.778 250.724H130.776Z" fill="#FFD0C4"/>
<path d="M132.585 270.448C131.517 270.66 130.931 269.238 131.837 268.634C132.831 267.968 227.117 270.326 241.005 269.946C242.421 270.048 242.295 271.912 241.059 271.946C234.891 272.108 132.585 270.448 132.585 270.448Z" fill="#FFD0C4"/>
<path d="M262.559 340.648C221.007 340.548 124.077 339.65 121.435 336.512C118.793 333.374 111.907 194.49 109.861 151.998C109.833 151.406 110.325 150.916 110.913 150.952L242.071 157.856C242.559 157.882 242.957 158.256 243.011 158.742C264.901 351.344 264.215 340.654 262.559 340.65V340.648ZM122.979 335.164C128.613 337.242 208.071 338.376 261.441 338.642L241.119 159.808L111.911 153.008C115.319 223.616 120.999 328.744 122.979 335.166V335.164Z" fill="#2D3E50"/>
<path d="M163.618 216.884C163.078 216.884 162.632 216.452 162.618 215.91C162.458 209.468 160.838 203.372 157.808 197.79C156.994 196.298 155.16 193.342 154.228 192.47C151.722 190.126 151.732 189.658 153.464 186.834C154.9 184.494 154.938 181.512 153.978 179.112C150.672 173.298 141.364 173.796 140.114 180.888C139.672 182.662 139.788 184.786 140.406 186.642C140.478 186.818 140.662 187.134 140.86 187.484C142.398 190.204 142.642 190.834 139.286 194.124C138.704 194.694 138.104 195.282 137.84 195.706C135.844 198.624 134.538 202.168 134.04 205.988C133.852 209.618 133.95 212.444 134.364 215.072C134.57 216.382 132.596 216.694 132.388 215.384C131.95 212.612 131.846 209.658 132.048 205.806C132.594 201.598 134.016 197.754 136.166 194.61C136.958 193.338 139.61 191.348 139.978 190.12C139.928 189.818 138.766 187.924 138.528 187.328C137.762 185.038 137.636 182.558 138.158 180.47C139.718 171.584 151.502 170.682 155.778 178.248C157.014 181.31 156.952 184.974 155.17 187.878C154.906 188.308 154.288 189.316 154.25 189.644C154.728 190.456 156.298 190.84 159.566 196.832C162.75 202.698 164.45 209.098 164.618 215.858C164.624 216.098 164.444 216.884 163.618 216.884Z" fill="#2D3E50"/>
<path d="M311.016 318.116C318.238 288.626 318.084 289.18 318.084 288.532C316.112 288.532 136.632 291.902 126.934 291.984C124.174 292.008 121.856 291.386 119.374 289.19C115.54 285.798 85.3516 257.468 85.3516 257.468L93.5696 350.166C93.8916 353.618 95.3776 356.904 97.8436 359.37C127.728 389.254 126.008 388.252 128.58 389.284C129.884 389.808 131.21 390.12 132.688 390.106C141.236 390.024 287.514 388.134 287.514 388.134C291.13 386.49 293.924 383.696 295.568 380.08C297.294 374.9 306.12 338.166 311.018 318.116L309.868 317.788C306.8 317.788 306.8 317.788 309.868 317.788L311.018 318.116H311.016Z" fill="white"/>
<path d="M318.084 287.532C316.11 287.532 130.842 290.916 126.934 290.984C124.34 290.984 121.96 290.052 120.048 288.286C103.514 273.026 86.0337 256.614 85.5737 256.494C85.1497 256.408 84.7397 256.562 84.4857 256.97C84.2417 257.418 92.5557 350.226 92.5737 350.426C92.9297 354.172 94.5497 357.656 97.1357 360.242C113.364 376.47 122.128 385.398 124.748 388.018C126.844 390.114 129.664 391.268 132.706 391.268L287.926 389.206C291.772 387.458 294.728 384.502 296.516 380.558C296.962 379.216 319.386 289.584 319.386 289.584C319.5 289.114 319.16 287.53 318.086 287.53L318.084 287.532ZM190.378 291.816C199.992 291.654 240.35 290.86 250.028 290.698C249.912 292.528 249.464 298.314 247.658 317.958C224.948 318.52 205.27 318.948 189.126 319.232C189.84 304.99 190.298 293.732 190.376 291.816H190.378ZM247.47 319.964C245.882 336.398 244.406 350.534 243.082 362.014C224.014 362.642 204.29 363.154 187.304 363.292C187.834 348.54 188.458 333.334 189.03 321.236C205.14 320.952 224.792 320.526 247.472 319.966L247.47 319.964ZM188.374 291.85C188.286 294.066 187.828 305.232 187.124 319.276C162.352 319.902 141.904 320.238 138.31 320.076C133.746 319.87 129.468 319.282 125.592 318.218L124.058 292.646C126.402 293.208 124.194 293.034 188.376 291.85H188.374ZM118.694 289.758C119.698 290.686 120.812 291.42 122.01 291.952L123.48 317.586C116.51 315.362 110.358 312.082 105.07 308.042L103.682 275.82C109.256 281.08 114.998 286.386 118.692 289.758H118.694ZM86.5517 259.942L101.598 273.862L103.004 306.502C98.4577 303.096 94.1517 299.278 89.7597 295.744L86.5517 259.942ZM90.0037 298.52C94.2077 301.968 98.5837 305.794 103.112 309.066L104.486 343.374C102.346 341.628 94.6937 335.15 93.1597 333.932L90.0037 298.52ZM100.87 361.184C98.0097 358.268 95.0977 355.848 94.5637 350.242C94.2657 346.968 93.8337 342.208 93.3877 336.694C94.5437 337.646 101.936 343.904 104.588 346.032L105.298 365.644C103.694 364.066 102.216 362.56 100.87 361.186V361.184ZM105.17 310.608C110.508 314.448 116.692 317.504 123.602 319.714L125.832 358.594C119.562 355.278 112.604 349.932 106.486 344.99L105.17 310.606V310.608ZM107.35 367.632L106.586 347.64C112.794 352.606 119.728 357.804 125.964 360.912L127.502 387.712C125.88 386.62 125.662 385.952 107.35 367.632ZM184.288 388.632C173.104 388.786 136.996 389.188 132.684 389.272C131.6 389.272 130.548 389.092 129.564 388.748L128.05 361.87C129.932 362.65 131.92 363.258 134.012 363.648C146.006 365.478 172.972 365.392 185.216 365.31C184.666 376.846 184.39 385.238 184.288 388.632ZM185.3 363.308C159.36 363.48 142.652 363.088 134.348 361.676C132.084 361.292 129.944 360.552 127.926 359.634L125.712 320.34C134.744 322.746 142.16 322.418 187.024 321.282C186.452 333.396 185.83 348.588 185.3 363.31V363.308ZM186.29 388.606C186.392 385.156 186.67 376.782 187.218 365.294C204.156 365.158 223.82 364.648 242.846 364.024C241.54 375.122 240.462 382.728 239.454 387.97L186.29 388.608V388.606ZM294.654 379.83C293.138 383.166 290.592 385.746 287.282 387.302L241.494 387.948C242.498 382.628 243.574 374.99 244.868 363.958C269.126 363.152 289.8 362.37 299.482 361.896C296.626 372.776 295.034 378.678 294.654 379.832V379.83ZM299.998 359.864C290.648 360.334 269.748 361.126 245.1 361.948C246.424 350.454 247.898 336.328 249.482 319.918C278.808 319.288 304.756 318.786 310.226 318.79L299.996 359.864H299.998ZM310.716 316.792C306.458 316.752 279.416 317.274 249.672 317.912C251.506 297.938 251.93 292.354 252.034 290.662C284.4 290.062 311.776 289.604 317.336 289.538C316.79 291.808 314.086 303.022 310.716 316.792Z" fill="#2D3E50"/>
<path d="M229.001 301.202C228.095 301.202 227.653 300.08 228.325 299.464L316.323 218.772L307.129 214.32C306.631 214.078 306.425 213.482 306.665 212.984C306.905 212.486 307.503 212.28 308.001 212.52L318.521 217.614C319.157 217.922 319.281 218.774 318.761 219.252C229.253 301.464 229.623 301.202 229.003 301.202H229.001Z" fill="#2D3E50"/>
<path d="M309.866 207.668C309.044 207.01 308.228 206.344 307.4 205.86C300.54 201.842 276.172 192.218 271.242 191.396C269.27 190.902 267.134 191.232 265.326 191.89C262.696 193.37 261.676 196.674 263.024 199.286C265.588 204.25 298.706 216.664 303.128 218.352C308.448 220.382 315.1 212.902 309.866 207.668Z" fill="#FF7A59"/>
<path d="M297.676 217.076C294.482 212.002 298.344 203.758 304.376 203.382C305.748 203.354 305.778 205.298 304.5 205.378C300.024 205.658 296.956 212.18 299.366 216.01C299.66 216.478 299.52 217.094 299.052 217.39C298.584 217.682 297.968 217.544 297.674 217.076H297.676Z" fill="white"/>
<path d="M88.1752 129.94C87.7252 129.94 87.3172 129.636 87.2052 129.18C81.0452 104.204 79.4431 77.588 78.6291 52.546C78.4591 47.34 78.8231 36.116 79.1571 27.616C79.9171 8.34205 79.8352 8.44605 80.9432 10.2701L81.9392 10.3541C81.8592 11.4521 80.3112 42.852 80.6272 52.478C82.9392 123.694 92.1391 129.938 88.1731 129.938L88.1752 129.94Z" fill="#FF7A59"/>
<path d="M98.204 113.998C97.79 113.998 97.402 113.74 97.26 113.326C90.75 94.592 90.576 32.712 91.628 31.232C92.3 30.282 93.796 31.052 93.39 32.15C92.806 36.136 92.74 94.226 99.148 112.67C99.374 113.32 98.89 113.998 98.204 113.998Z" fill="#FF7A59"/>
<path d="M285.406 186.314C281.9 186.314 289.476 178.866 279.32 108.702C278.13 99.6358 271.718 72.5718 270.804 68.0578C270.532 66.7158 272.418 66.6898 272.732 67.7078C273.638 70.6578 280.194 99.9798 281.302 108.428C284.922 133.436 288.046 160.076 286.404 185.378C286.37 185.908 285.93 186.314 285.406 186.314Z" fill="#FF7A59"/>
<path d="M274.396 178.918C273.782 178.918 273.314 178.372 273.406 177.766C276.332 158.668 265.974 100.948 264.734 97.2044C264.416 96.2504 265.558 95.4704 266.338 96.1264C267.606 97.1964 278.36 158.642 275.384 178.068C275.308 178.564 274.882 178.916 274.398 178.916L274.396 178.918Z" fill="#FF7A59"/>
</svg>
