<svg width="17" height="17" viewBox="0 0 17 17" fill="none" xmlns="http://www.w3.org/2000/svg">
<g clip-path="url(#clip0_3751_33737)">
<path d="M9.50101 4.60273C9.50101 4.86795 9.39566 5.1223 9.20812 5.30984C9.02058 5.49737 8.76623 5.60273 8.50101 5.60273C8.2358 5.60273 7.98144 5.49737 7.79391 5.30984C7.60637 5.1223 7.50101 4.86795 7.50101 4.60273C7.50101 4.33751 7.60637 4.08316 7.79391 3.89562C7.98144 3.70809 8.2358 3.60273 8.50101 3.60273C8.76623 3.60273 9.02058 3.70809 9.20812 3.89562C9.39566 4.08316 9.50101 4.33751 9.50101 4.60273V4.60273ZM16.501 12.9361V8.49606C16.5259 6.44103 15.7724 4.45266 14.3919 2.93018C13.0114 1.4077 11.106 0.463822 9.05835 0.288064C7.91545 0.208102 6.7687 0.374557 5.6957 0.776165C4.6227 1.17777 3.64848 1.80517 2.83896 2.6159C2.02943 3.42662 1.40348 4.40177 1.00346 5.47537C0.603444 6.54896 0.43869 7.69595 0.520345 8.83873C0.815012 13.0747 4.55568 16.2694 9.22301 16.2694H13.1677C14.0514 16.2683 14.8986 15.9168 15.5235 15.2919C16.1484 14.667 16.5 13.8198 16.501 12.9361V12.9361ZM8.96768 1.61873C10.6787 1.77009 12.269 2.56334 13.4191 3.8391C14.5692 5.11486 15.1939 6.77861 15.1677 8.49606V12.9361C15.1677 13.4665 14.957 13.9752 14.5819 14.3503C14.2068 14.7254 13.6981 14.9361 13.1677 14.9361H9.22301C5.20035 14.9361 2.10101 12.3361 1.85101 8.74673C1.78538 7.83245 1.909 6.91446 2.21413 6.05011C2.51927 5.18576 2.99938 4.39362 3.62446 3.72318C4.24954 3.05274 5.00616 2.51841 5.84706 2.15356C6.68795 1.78872 7.59505 1.6012 8.51168 1.60273C8.66301 1.60273 8.81568 1.60873 8.96768 1.61873ZM9.83435 12.2694V8.2694C9.83435 7.91578 9.69387 7.57664 9.44382 7.32659C9.19377 7.07654 8.85464 6.93606 8.50101 6.93606H7.83435C7.65754 6.93606 7.48797 7.0063 7.36294 7.13133C7.23792 7.25635 7.16768 7.42592 7.16768 7.60273C7.16768 7.77954 7.23792 7.94911 7.36294 8.07414C7.48797 8.19916 7.65754 8.2694 7.83435 8.2694H8.50101V12.2694C8.50101 12.4462 8.57125 12.6158 8.69628 12.7408C8.8213 12.8658 8.99087 12.9361 9.16768 12.9361C9.34449 12.9361 9.51406 12.8658 9.63908 12.7408C9.76411 12.6158 9.83435 12.4462 9.83435 12.2694Z" fill="#00A492"/>
</g>
<defs>
<clipPath id="clip0_3751_33737">
<rect width="16" height="16" fill="white" transform="translate(0.5 0.269531)"/>
</clipPath>
</defs>
</svg>
