<svg width="24" height="25" viewBox="0 0 24 25" fill="none" xmlns="http://www.w3.org/2000/svg">
<path d="M22.2234 0.269531H1.77187C0.792187 0.269531 0 1.04297 0 1.99922V22.5352C0 23.4914 0.792187 24.2695 1.77187 24.2695H22.2234C23.2031 24.2695 24 23.4914 24 22.5398V1.99922C24 1.04297 23.2031 0.269531 22.2234 0.269531ZM7.12031 20.7211H3.55781V9.26484H7.12031V20.7211ZM5.33906 7.70391C4.19531 7.70391 3.27188 6.78047 3.27188 5.64141C3.27188 4.50234 4.19531 3.57891 5.33906 3.57891C6.47813 3.57891 7.40156 4.50234 7.40156 5.64141C7.40156 6.77578 6.47813 7.70391 5.33906 7.70391ZM20.4516 20.7211H16.8937V15.1523C16.8937 13.8258 16.8703 12.1148 15.0422 12.1148C13.1906 12.1148 12.9094 13.5633 12.9094 15.0586V20.7211H9.35625V9.26484H12.7687V10.8305H12.8156C13.2891 9.93047 14.4516 8.97891 16.1813 8.97891C19.7859 8.97891 20.4516 11.3508 20.4516 14.4352V20.7211Z" fill="#01D2B7"/>
</svg>
