<svg width="88" height="17" viewBox="0 0 88 17" fill="none" xmlns="http://www.w3.org/2000/svg">
<path d="M4.73159 13.6529C2.34538 13.6529 0.874416 12.4529 0.89076 10.6529H3.24428C3.26063 11.5362 3.8817 11.9195 4.79696 11.9195C5.67954 11.9195 6.13717 11.5695 6.13717 10.9862C6.13717 10.2862 5.67954 10.1362 4.45374 9.95286C2.18193 9.60286 1.10323 8.96953 1.10323 7.2362C1.10323 5.51953 2.59053 4.3862 4.81331 4.3862C6.95437 4.3862 8.35994 5.50286 8.40897 7.21953H6.0391C6.0391 6.45286 5.53244 6.10286 4.74793 6.10286C3.97976 6.10286 3.5058 6.4362 3.5058 7.01953C3.5058 7.66953 4.04514 7.86953 5.41803 8.05286C7.57543 8.3362 8.58876 9.01953 8.58876 10.7695C8.58876 12.6195 7.05243 13.6529 4.73159 13.6529Z" fill="black"/>
<path d="M13.1843 13.6362C11.1577 13.6362 10.0626 12.4029 10.0626 10.1195V4.55286H12.4652V9.46953C12.4652 10.8862 12.9392 11.6529 14.1323 11.6529C15.3417 11.6529 16.0445 10.6695 16.0445 9.4862V4.55286H18.4471V13.4862H16.1426L16.0445 11.8529H15.9301C15.5052 13.0195 14.4428 13.6362 13.1843 13.6362Z" fill="black"/>
<path d="M20.4232 16.2695V4.55286H22.744L22.8257 6.10286H22.9565C23.3651 5.06953 24.3784 4.3862 25.735 4.3862C27.827 4.3862 29.2489 5.9362 29.2489 9.01953C29.2489 12.0862 27.827 13.6529 25.735 13.6529C24.3784 13.6529 23.3651 12.9529 22.9565 11.9362H22.8257V16.2695H20.4232ZM24.836 11.6695C26.0128 11.6695 26.781 10.8362 26.781 9.01953C26.781 7.20286 26.0128 6.36953 24.836 6.36953C23.4795 6.36953 22.8584 7.45286 22.8584 8.5862V9.45286C22.8584 10.5862 23.4795 11.6695 24.836 11.6695Z" fill="black"/>
<path d="M34.7009 13.6529C31.9714 13.6529 30.4024 11.8362 30.4024 9.0862C30.4024 6.20287 32.0205 4.3862 34.6028 4.3862C37.5774 4.3862 38.9993 6.56953 38.7215 9.55286H32.756C32.756 11.0362 33.5241 11.8029 34.7009 11.8029C35.5998 11.8029 36.2372 11.3529 36.417 10.6529H38.6725C38.46 12.4862 36.8583 13.6529 34.7009 13.6529ZM34.6028 6.21953C33.5568 6.21953 32.8704 6.8862 32.7723 8.0362H36.368C36.3189 6.81953 35.6161 6.21953 34.6028 6.21953Z" fill="black"/>
<path d="M40.2945 13.4862V4.55286H42.4682L42.5663 5.9862H42.648C43.0402 4.8362 43.9555 4.4362 45.0669 4.4362C45.263 4.4362 45.4101 4.4362 45.5572 4.4362V6.7362C45.4428 6.7362 45.2303 6.7362 45.0179 6.7362C43.3998 6.7362 42.7297 7.4862 42.697 8.81953V13.4862H40.2945Z" fill="black"/>
<path d="M49.5683 16.2695C48.4242 16.2695 47.8848 15.5362 47.8848 14.5695V10.6029C47.8848 9.76953 47.4435 9.2862 46.8552 9.2862H46.4466V7.45286H46.8552C47.4762 7.45286 47.8848 6.95286 47.8848 6.11953V1.96953C47.8848 1.00286 48.4242 0.269531 49.5683 0.269531H52.314V2.1362H50.1403V6.20286C50.1403 7.51953 49.5519 8.11953 48.7674 8.26953V8.31953C49.7317 8.6362 50.1403 9.4362 50.1403 10.4529V14.4195H52.314V16.2695H49.5683Z" fill="#0070F3"/>
<path d="M56.8119 13.6529C54.4257 13.6529 52.9548 12.4529 52.9711 10.6529H55.3246C55.341 11.5362 55.962 11.9195 56.8773 11.9195C57.7599 11.9195 58.2175 11.5695 58.2175 10.9862C58.2175 10.2862 57.7599 10.1362 56.5341 9.95286C54.2623 9.60286 53.1836 8.96953 53.1836 7.2362C53.1836 5.51953 54.6709 4.3862 56.8937 4.3862C59.0347 4.3862 60.4403 5.50286 60.4893 7.21953H58.1195C58.1195 6.45286 57.6128 6.10286 56.8283 6.10286C56.0601 6.10286 55.5861 6.4362 55.5861 7.01953C55.5861 7.66953 56.1255 7.86953 57.4984 8.05286C59.6558 8.3362 60.6691 9.01953 60.6691 10.7695C60.6691 12.6195 59.1328 13.6529 56.8119 13.6529Z" fill="black"/>
<path d="M62.2247 3.40286V1.3362H64.6273V3.40286H62.2247ZM62.2247 13.4862V4.55286H64.6273V13.4862H62.2247Z" fill="black"/>
<path d="M69.5866 13.4862C67.8052 13.4862 67.3475 12.6529 67.3475 11.3029V6.51953H65.7785V4.55286H67.3475V2.11953L69.7337 1.8862V4.55286H71.4989V6.51953H69.7337V10.8362C69.7337 11.3695 69.9789 11.5029 70.4365 11.5029H71.4989V13.4862H69.5866Z" fill="black"/>
<path d="M76.5343 13.6529C73.8049 13.6529 72.2359 11.8362 72.2359 9.0862C72.2359 6.20287 73.8539 4.3862 76.4363 4.3862C79.4109 4.3862 80.8328 6.56953 80.555 9.55286H74.5894C74.5894 11.0362 75.3576 11.8029 76.5343 11.8029C77.4333 11.8029 78.0707 11.3529 78.2505 10.6529H80.5059C80.2934 12.4862 78.6917 13.6529 76.5343 13.6529ZM76.4363 6.21953C75.3903 6.21953 74.7038 6.8862 74.6058 8.0362H78.2014C78.1524 6.81953 77.4496 6.21953 76.4363 6.21953Z" fill="black"/>
<path d="M83.9748 0.269531C85.1189 0.269531 85.6582 1.00286 85.6582 1.96953V5.9362C85.6582 6.76953 86.0995 7.25286 86.6879 7.25286H87.1128V9.0862H86.6879C86.0832 9.0862 85.6582 9.5862 85.6582 10.4195V14.5695C85.6582 15.5362 85.1189 16.2695 83.9748 16.2695H81.2454V14.4029H83.4191V10.3362C83.4191 9.01953 84.0075 8.41953 84.792 8.26953V8.21953C83.8114 7.90286 83.4191 7.10286 83.4191 6.0862V2.11953H81.2454V0.269531H83.9748Z" fill="#0070F3"/>
</svg>
