<svg width="24" height="25" viewBox="0 0 24 25" fill="none" xmlns="http://www.w3.org/2000/svg">
<g clip-path="url(#clip0_3751_39288)">
<path d="M17.0725 0.269531H13.0278V16.6173C13.0278 18.5652 11.4722 20.1652 9.53626 20.1652C7.60034 20.1652 6.04469 18.5652 6.04469 16.6173C6.04469 14.7043 7.56577 13.1391 9.43257 13.0695V8.9652C5.31872 9.03473 2 12.4087 2 16.6173C2 20.8609 5.38786 24.2695 9.57085 24.2695C13.7538 24.2695 17.1416 20.8261 17.1416 16.6173V8.23473C18.6627 9.3478 20.5295 10.0087 22.5 10.0435V5.9391C19.4579 5.83475 17.0725 3.3304 17.0725 0.269531Z" fill="#01D2B7"/>
</g>
<defs>
<clipPath id="clip0_3751_39288">
<rect width="24" height="24" fill="white" transform="translate(0 0.269531)"/>
</clipPath>
</defs>
</svg>
