<svg width="96" height="33" viewBox="0 0 96 33" fill="none" xmlns="http://www.w3.org/2000/svg">
<path d="M22.7027 31.8603H0L12.5172 8.39229H0V2.52017H22.7027L10.2264 25.9882H22.7027V31.8603Z" fill="white"/>
<path d="M34.054 26.4997C34.2722 26.5679 34.4904 26.6157 34.7085 26.6429C34.9267 26.6566 35.1449 26.6634 35.363 26.6634C35.9084 26.6634 36.4334 26.5884 36.9379 26.4383C37.4424 26.2883 37.9128 26.0769 38.3491 25.8041C38.7991 25.5176 39.1945 25.1766 39.5354 24.781C39.8899 24.3718 40.1763 23.9217 40.3944 23.4307L44.485 27.5432C43.9669 28.2798 43.3669 28.9413 42.6851 29.5278C42.017 30.1144 41.2875 30.6122 40.4967 31.0214C39.7195 31.4307 38.8945 31.7376 38.0219 31.9422C37.1629 32.1604 36.2766 32.2695 35.363 32.2695C33.8222 32.2695 32.3701 31.9831 31.0066 31.4102C29.6567 30.8373 28.4704 30.0394 27.4478 29.0163C26.4387 27.9933 25.6411 26.7793 25.0548 25.3744C24.4685 23.9558 24.1753 22.4008 24.1753 20.7094C24.1753 18.9771 24.4685 17.3948 25.0548 15.9626C25.6411 14.5304 26.4387 13.3096 27.4478 12.3002C28.4704 11.2908 29.6567 10.5065 31.0066 9.94728C32.3701 9.38803 33.8222 9.1084 35.363 9.1084C36.2766 9.1084 37.1697 9.21753 38.0423 9.43577C38.915 9.65401 39.7399 9.96774 40.5171 10.3769C41.308 10.7862 42.0443 11.2908 42.7261 11.891C43.4078 12.4775 44.0078 13.1391 44.5259 13.8757L34.054 26.4997ZM36.9174 14.9805C36.6584 14.885 36.3993 14.8237 36.1402 14.7964C35.8948 14.7691 35.6357 14.7555 35.363 14.7555C34.5994 14.7555 33.8768 14.8987 33.195 15.1851C32.5269 15.4579 31.9406 15.8535 31.4361 16.3718C30.9452 16.8902 30.5566 17.5176 30.2703 18.2542C29.9839 18.9771 29.8407 19.7955 29.8407 20.7094C29.8407 20.914 29.8476 21.1459 29.8612 21.4051C29.8885 21.6642 29.9226 21.9302 29.9635 22.203C30.018 22.4622 30.0794 22.7145 30.1475 22.9601C30.2157 23.2056 30.3043 23.4238 30.4134 23.6148L36.9174 14.9805Z" fill="white"/>
<path d="M52.932 31.8603H47.3484V9.94728H48.6983L50.5391 12.0752C51.439 11.2567 52.4548 10.6293 53.5865 10.1928C54.7319 9.74267 55.925 9.51761 57.1658 9.51761C58.502 9.51761 59.7633 9.77678 60.9496 10.2951C62.1358 10.7998 63.1721 11.5023 64.0584 12.4025C64.9447 13.2891 65.6401 14.3326 66.1446 15.533C66.6627 16.7197 66.9218 17.9882 66.9218 19.3386V31.8603H61.3382V19.3386C61.3382 18.7657 61.2291 18.2269 61.0109 17.7222C60.7928 17.2039 60.4928 16.7538 60.111 16.3718C59.7292 15.9899 59.2861 15.6898 58.7816 15.4716C58.2771 15.2533 57.7385 15.1442 57.1658 15.1442C56.5795 15.1442 56.0272 15.2533 55.5091 15.4716C54.991 15.6898 54.541 15.9899 54.1592 16.3718C53.7774 16.7538 53.4774 17.2039 53.2593 17.7222C53.0411 18.2269 52.932 18.7657 52.932 19.3386V31.8603Z" fill="white"/>
<path d="M81.607 31.8603C80.2571 31.8603 78.989 31.608 77.8027 31.1033C76.6165 30.585 75.5734 29.8825 74.6734 28.9959C73.7871 28.0956 73.0849 27.0521 72.5668 25.8654C72.0623 24.6787 71.81 23.4102 71.81 22.0598V15.5534H69.0898V9.9882H71.81V1.23117H77.3732V9.9882H85.8407V15.5534H77.3732V22.0598C77.3732 22.6463 77.4823 23.1988 77.7005 23.7171C77.9186 24.2218 78.2186 24.6651 78.6004 25.047C78.9822 25.429 79.4321 25.7359 79.9503 25.9677C80.4684 26.186 81.0206 26.2951 81.607 26.2951H85.8407V31.8603H81.607Z" fill="white"/>
<path d="M94.615 31.8603H88.9904V9.94728H94.615V31.8603Z" fill="white"/>
<path d="M95.2695 5.446C95.474 4.99587 95.5763 4.51165 95.5763 3.99332C95.5763 3.48863 95.474 3.01122 95.2695 2.56109C95.0786 2.09732 94.8127 1.70176 94.4718 1.37439C94.1309 1.03338 93.7287 0.7674 93.2651 0.576437C92.8151 0.371833 92.3311 0.269531 91.8129 0.269531C91.2948 0.269531 90.8039 0.371833 90.3403 0.576437C89.8904 0.7674 89.495 1.03338 89.1541 1.37439C88.8268 1.70176 88.5609 2.09732 88.3564 2.56109C88.1655 3.01122 88.0701 3.48863 88.0701 3.99332C88.0701 4.51165 88.1655 4.99587 88.3564 5.446C88.5609 5.89613 88.8268 6.2917 89.1541 6.6327C89.495 6.96007 89.8904 7.22605 90.3403 7.43066C90.8039 7.62162 91.2948 7.7171 91.8129 7.7171C92.3311 7.7171 92.8151 7.62162 93.2651 7.43066C93.7287 7.22605 94.1309 6.96007 94.4718 6.6327C94.8127 6.2917 95.0786 5.89613 95.2695 5.446Z" fill="#FF7A59"/>
</svg>
