<svg width="336" height="42" viewBox="0 0 336 42" fill="none" xmlns="http://www.w3.org/2000/svg">
<path d="M23.8979 0.550781H26.3208L27.574 0.676102L28.8272 0.88497L30.164 1.17739L31.459 1.55335L32.7122 2.01286L33.7565 2.47237L34.6755 2.97365L35.5528 3.47493L36.3047 3.93444L37.2655 4.60282L37.9756 5.18765L38.4351 5.56361L39.0617 6.14844L39.8554 6.94214L40.1479 7.27633L40.5238 7.69407L40.8998 8.15357L41.4846 8.9055L42.153 9.90807L42.4872 10.4511L43.0302 11.4119L43.4897 12.3727L43.991 13.5424L44.4923 15.0462L44.8265 16.383L45.0771 17.7197L45.2442 19.0147L45.3278 20.2261V21.5629L45.2442 22.7326L45.0771 24.0275L44.7847 25.5314L44.4923 26.6175L43.991 28.1214L43.6151 28.9986L43.1138 30.0429L42.696 30.8366L42.2365 31.6303L41.9023 32.1316L41.4011 32.8418L40.482 34.0114L39.9808 34.5545L39.6883 34.8887L38.7693 35.8077L38.4351 36.1001L37.8921 36.5596L37.349 36.9774L36.5553 37.5622L35.9287 37.9799L35.135 38.4394L34.3831 38.8572L33.4641 39.3167L32.2526 39.818L31.2083 40.1939L30.0386 40.5281L28.7019 40.8205L27.198 41.0294L26.1955 41.1129L25.36 41.1547H24.6499L23.2713 41.0712L21.9346 40.9041L20.7649 40.6952L19.1357 40.2775L17.799 39.818L16.5458 39.2749L15.4597 38.7318L14.4989 38.1888L13.7887 37.7293L13.1203 37.2698L12.5773 36.852L12.1178 36.4761L11.5747 36.0166L11.157 35.6406L10.6139 35.1393L10.0291 34.5127L9.52781 33.9279L9.02653 33.3013L8.48347 32.5494L7.89864 31.7139L7.27204 30.6278L6.81253 29.7505L6.26947 28.5391L5.80996 27.3277L5.434 26.0327L5.09981 24.5288L4.93272 23.4427L4.8074 22.2313L4.76562 21.3958V20.3515L4.84917 19.0147L5.01627 17.678L5.22513 16.5918L5.64287 14.9209L6.10238 13.5841L6.52012 12.5816L7.0214 11.5372L7.39736 10.8271L7.85687 10.0752L8.52525 9.07259L9.11008 8.2789L9.56959 7.73584L9.94555 7.27633L10.238 6.98391L10.5304 6.64973L11.157 6.02312L11.4912 5.73071L11.9089 5.35474L12.4937 4.89523L12.9532 4.51927L13.7052 3.97622L14.4989 3.47493L15.1672 3.09897L16.128 2.59769L17.2977 2.05463L18.2585 1.67867L19.3028 1.34448L20.5978 1.01029L21.9346 0.759649L23.3966 0.592555L23.8979 0.550781ZM23.9815 1.38625L22.8536 1.4698L21.6839 1.63689L20.1801 1.97108L19.1775 2.2635L18.0079 2.68123L16.9217 3.14074L16.0863 3.55848L15.1255 4.10154L14.3318 4.60282L13.5381 5.14588L12.6608 5.81425L12.1178 6.31554L11.7836 6.60795L11.0734 7.27633L10.4886 7.90293L10.0291 8.44599L9.40249 9.28146L8.85944 10.0334L8.35815 10.8271L7.89864 11.6208L7.56446 12.2892L7.10495 13.25L6.68721 14.4196L6.35302 15.464L6.06061 16.5918L5.85174 17.678L5.68464 18.8894L5.6011 20.1844V21.354L5.68464 22.649L5.85174 23.9858L6.14415 25.4061L6.52012 26.7428L6.93785 27.9543L7.48091 29.2075L7.8151 29.8758L8.19106 30.586L8.73412 31.4632L9.11008 32.0063L9.52781 32.5494L9.98732 33.1342L10.3633 33.5937L10.7392 34.0114L11.3241 34.638L11.8254 35.1393L12.1596 35.4317L12.5773 35.8077L13.1621 36.2672L13.7469 36.6849L14.7495 37.3533L15.3761 37.7293L16.3787 38.2723L17.1724 38.6483L18.2167 39.066L19.7206 39.5673L20.8902 39.8597L22.2688 40.1104L23.3549 40.2357L23.8144 40.2775H26.1955L27.8246 40.1104L29.412 39.818L30.6653 39.4838L32.3362 38.8989L33.5894 38.3559L34.4666 37.8964L35.3021 37.3951L36.054 36.8938L36.806 36.3507L37.3908 35.8912L37.9339 35.4317L38.4769 34.9304L39.3959 34.0114L39.6883 33.6772L40.0643 33.2595L40.482 32.7164L41.0669 31.9227L41.6935 30.962L42.1948 30.0847L42.7378 28.9986L43.1973 27.8707L43.6151 26.701L43.9075 25.6567L44.1999 24.2782L44.367 23.1503L44.4505 22.2313L44.4923 21.4794V20.0173L44.367 18.4299L44.1163 16.926L43.8657 15.8817L43.4897 14.6285L43.1556 13.7095L42.6543 12.5398L42.153 11.5372L41.4846 10.4093L40.9416 9.61565L39.939 8.2789L39.2706 7.56874L38.7276 7.02569L38.6022 6.85859H38.5187V6.77505L38.1845 6.48263L37.6414 5.98135L37.0566 5.52184L36.3465 4.97878L35.8452 4.64459L35.135 4.18508L34.4249 3.76735L33.6312 3.34961L32.5868 2.8901L31.5007 2.47237L30.0386 2.01286L28.8272 1.72044L27.9082 1.55335L26.8221 1.42803L26.1955 1.38625H23.9815Z" fill="#10161C"/>
<path d="M33.4238 7.90332H35.972L36.2226 8.07041L36.4733 8.36283L36.5568 8.52992L36.5986 8.82234V9.82491L36.4315 10.0755L36.0973 10.368L35.8467 10.4515L34.6352 10.4933L34.5935 13.125V23.7773L34.6352 25.6153L36.5986 25.6571L36.6404 27.7458L36.5986 27.7876H34.5935V33.2599H32.7136L32.6719 31.3801V10.5351L32.7136 8.52992L33.0061 8.15396L33.2567 7.94509L33.4238 7.90332Z" fill="#10161C"/>
<path d="M15.5023 7.86133H16.0036L16.672 7.9031L17.0062 8.0702L17.2568 8.44616L17.3404 8.73857L17.3821 31.4216L18.1341 31.4634L18.3847 31.547L18.6354 31.7558L18.8442 32.09L18.886 32.2571V32.5495L18.7189 32.8837L18.3429 33.2179L18.1341 33.2597H14.834L14.4998 33.0926L14.2074 32.7584L14.1238 32.5077V32.2153L14.2491 31.8811L14.4162 31.6723L14.7086 31.5052L14.8757 31.4634H15.5441V10.3677L14.7922 10.2842L14.4998 10.1589L14.2074 9.95001L14.082 9.61582V8.65503L14.2074 8.23729L14.5415 7.94488L14.6669 7.9031L15.5023 7.86133Z" fill="#10161C"/>
<path d="M23.4422 7.86133L24.2777 7.9031L24.6537 8.02842L24.9878 8.40438L25.0296 8.52971L25.0714 14.4198L25.1549 15.9236L25.322 16.9262L25.5309 17.511L25.7815 17.887L25.9904 18.0541L26.3664 18.2212L26.9094 18.3465L27.4525 18.3883L31.6298 18.43V20.8529H27.9955L26.993 20.8111L26.3246 20.7276L25.6562 20.5187L25.1549 20.3099L24.6954 19.9757L24.2777 19.5579L23.9435 19.0149L23.7346 18.5554L23.484 17.7199L23.3587 16.8844L23.3169 16.2996L23.2751 15.1299L23.2334 10.2842H22.8156L22.4814 10.1589L22.2726 9.95001L22.1472 9.65759L22.1055 9.3234V8.61325L22.189 8.32084L22.5232 7.98665L22.7321 7.9031L23.4422 7.86133Z" fill="#10161C"/>
<path d="M18.3867 20.2266H23.1489L23.9008 20.3519L24.6528 20.6443L25.1123 20.8949L25.53 21.2291L25.9477 21.7304L26.2819 22.357L26.4908 22.9836L26.6579 23.8609L26.7414 24.571L26.825 26.1584L26.8668 28.2889V29.8763L26.825 31.4637L27.368 31.5054L27.6187 31.6308L27.9111 31.9649L27.9946 32.132V32.6333L27.7858 32.9675L27.5351 33.1764L27.2427 33.2599H25.9895L25.5718 33.1764L25.2376 32.9257L25.0705 32.6751L25.0287 32.4662L24.9869 26.2837L24.9452 25.3647L24.7781 24.2368L24.5692 23.6102L24.3603 23.276L24.0262 22.9836L23.5666 22.7748L23.2325 22.6912L22.8565 22.6494L18.4285 22.6077L18.3867 22.5659V20.2266Z" fill="#10161C"/>
<path d="M49.6725 11.2871H50.7586L51.1346 11.4124L51.1764 11.496L51.2181 19.3494L51.8865 19.0988L52.6802 18.8064L53.3904 18.6393L53.6828 18.5975H54.4765L55.0195 18.7228L55.4373 18.9735L55.7297 19.2659L55.9803 19.6836L56.1892 20.352L56.3145 21.271L56.3563 22.2318V25.7825H56.8158L57.1082 25.8661L57.2753 26.0332V26.4091L57.1082 26.5762L56.8576 26.6598H55.8132L55.5208 26.4927L55.479 25.4901L55.4373 22.2318L55.3955 21.2292L55.312 20.5191L55.1866 20.1013L54.936 19.7671L54.6853 19.6001L54.3929 19.5165H53.8081L53.098 19.6418L52.2207 19.9342L51.2599 20.352L51.2181 20.3938V25.6572L51.2599 25.699L51.803 25.7825L52.0536 25.9914L52.0954 26.1167V26.4091L51.8865 26.618L51.803 26.6598H49.8396L49.4636 26.5345L49.4219 26.4927V25.9914L49.5472 25.7825L50.2991 25.7408L50.2573 12.2061L49.5054 12.1226L49.4219 12.039V11.3707L49.6725 11.2871Z" fill="#10161C"/>
<path d="M72.6897 11.2871H73.5251L74.0682 11.3707L74.11 11.4124L74.1517 12.9998V19.3494L74.5695 19.2241L75.4049 18.8899L76.1569 18.681L76.6581 18.5975H77.4518L77.9531 18.7228L78.4544 19.0152L78.7886 19.3912L78.9975 19.8089L79.1646 20.4355L79.2899 21.3545L79.3317 22.0229L79.4152 25.7408L79.7912 25.7825L79.8747 25.8243L79.8329 26.6598H78.7468L78.538 26.5762L78.4962 26.4927L78.4126 22.3153L78.3291 20.9368L78.2038 20.2267L77.9949 19.8507L77.7443 19.6418L77.4101 19.5165H76.6999L75.9062 19.6836L75.029 20.0178L74.1935 20.3938V25.7408L74.6948 25.7825L74.9872 25.9079L75.0708 26.075L75.029 26.4927L74.9454 26.618L74.8201 26.6598H72.7314L72.4808 26.5345L72.3555 26.2838L72.3972 25.9914L72.5643 25.8243L73.0656 25.7408H73.2745L73.2327 12.2897L73.1909 12.2061L72.5643 12.1226L72.3972 12.039L72.3555 11.9555V11.4542L72.5643 11.3289L72.6897 11.2871Z" fill="#10161C"/>
<path d="M63.5021 18.8477H64.0034L64.4629 18.8894L64.6717 19.0148L64.7553 19.3072L64.7971 20.8528V24.696L64.7553 26.5758L64.4629 26.6175L63.9616 26.5758L63.9198 26.534L63.878 25.7403L63.5021 26.0327L62.9172 26.4087L62.416 26.6175L62.2489 26.6593H61.2045L60.5361 26.534L60.0766 26.3669L59.6589 26.0745L59.3665 25.7403L59.0741 25.0719L58.9488 24.4871L58.907 24.1529L58.8652 22.9832V19.8084L58.4057 19.7667L58.1968 19.6414L58.1133 19.4743V19.1401L58.2804 18.9312L58.3639 18.8894H59.3247L59.6589 19.0148L59.7425 19.1818L59.7842 20.6021L59.826 23.6934L59.9095 24.5289L60.0766 25.1137L60.3273 25.4479L60.6615 25.615L61.3298 25.7403H62.04L62.4577 25.615L62.8755 25.3643L63.2097 25.0301L63.5438 24.4871L63.7527 23.8605L63.7945 23.5681L63.8363 22.4402V19.8084L63.3768 19.7249L63.2097 19.516L63.1679 19.4325V19.1818L63.335 18.8894L63.5021 18.8477Z" fill="#10161C"/>
<path d="M68.0559 18.8896H69.3091L70.061 19.0567L70.6877 19.3074L71.0636 19.5998L71.2307 19.8504L71.2725 19.9758V20.31L71.1889 20.6024L70.9383 20.8112L70.6041 20.7695L70.4788 20.6859L70.3535 20.1846L70.0193 20.0175L69.4344 19.8504L69.1838 19.8087H68.2648L67.7635 19.9758L67.3875 20.2682L67.1787 20.6441L67.1369 20.8112V21.1872L67.2622 21.5632L67.4711 21.7303L67.9306 21.8973L69.8522 22.2733L70.3952 22.4822L70.813 22.7328L71.1889 23.1506L71.3978 23.6518L71.4813 24.1113V24.5291L71.3978 25.1139L71.0636 25.7823L70.6877 26.1583L70.2699 26.4089L69.6433 26.6178L69.4762 26.6595H68.5572L67.5964 26.4924L66.7192 26.2418L66.1343 25.9494L66.0508 25.8658V25.0721L66.1761 24.8633L66.385 24.738L66.6356 24.7797L66.8445 24.9468L66.9698 25.3228L67.3875 25.4899L68.3483 25.6987H69.3927L69.9357 25.5317L70.2699 25.281L70.4788 24.9468L70.5206 24.7797V23.9443L70.3952 23.6518L70.1864 23.4012L69.6851 23.1923L68.599 22.9835L67.5546 22.7746L67.1369 22.6075L66.6774 22.2733L66.385 21.8556L66.2596 21.4378V20.5188L66.4685 19.9758L66.8027 19.5163L67.1787 19.2238L67.5964 19.015L68.0559 18.8896Z" fill="#10161C"/>
<path d="M26.6992 18.3467L27.4511 18.3885L31.6285 18.4302V20.8531H27.9942V20.8113H31.545V18.6809L31.5032 18.5555L30.6259 18.5138L27.3676 18.472L26.6992 18.3885V18.3467Z" fill="#10161C"/>
<path d="M33.4219 7.90332H35.9701L36.2207 8.07041L36.4713 8.36283L36.5549 8.52992L36.5967 8.82234V9.82491L36.4296 10.0755L36.2625 10.2426L36.1789 10.2009L36.4713 9.86668L36.5131 9.53249L36.4713 8.65524L36.3043 8.32106L36.0954 8.07041L35.9283 7.98687L33.4219 7.94509V7.90332Z" fill="#10161C"/>
<path d="M36.5571 27.2441L36.6407 27.3695V27.7454L36.5989 27.7872H34.5938L34.6355 27.7037H36.5571V27.2441Z" fill="#10161C"/>
<path d="M34.5938 25.6152L36.5989 25.657V26.033L36.5571 25.8659L36.4318 25.8241V25.7406L34.5938 25.6988V25.6152Z" fill="#10161C"/>
<path d="M151.51 11.5635L151.9 11.6069L152.421 11.7806V11.8674L152.769 11.9109L153.16 11.9977L153.203 11.8674L153.551 11.9109L154.115 12.0846L154.028 12.5188L153.551 14.1255V14.2124L153.811 13.8216L154.245 13.3439L154.81 12.9531L155.244 12.7359L155.809 12.5622L156.503 12.4754H156.894L157.632 12.5622L158.284 12.7359L159.022 13.0833L159.065 13.2136L158.588 14.2124L158.371 14.6466L158.154 14.6032L157.502 14.2992L156.938 14.169H156.46L156.026 14.2992L155.635 14.6032L155.374 14.9072L155.027 15.602L154.853 16.2533L154.81 16.5139V17.5127L154.984 17.9903L155.157 18.2075L155.548 18.3812H156.286L157.024 18.2075L157.676 17.9903V19.6405L156.894 19.901L156.199 20.0313L155.331 20.0747L154.636 19.9879L154.072 19.7707L153.724 19.5536L153.377 19.2496L153.073 18.772L152.899 18.3377L152.769 17.6864L152.725 16.9047L152.117 18.9891L151.119 22.3762L150.945 23.071L151.249 22.6802L151.596 22.3328L152.031 22.0288L152.552 21.7683L153.203 21.5946L153.464 21.5512H154.462L155.201 21.6814L155.895 21.942L156.33 22.1591L156.286 22.3762L155.635 23.7224L155.374 23.6355L154.723 23.3316L154.376 23.2447H153.594L153.073 23.5053L152.943 23.6355H152.856L152.769 23.8092L152.508 24.2001L152.291 24.6777L152.117 25.3291L152.074 25.5897V26.545L152.204 26.9792L152.465 27.2832L152.725 27.4135L152.986 27.4569L153.681 27.4135L154.506 27.1964L154.94 27.0661V28.6728L154.245 28.9334L153.594 29.0636L153.247 29.1071H152.291L151.683 28.9768L151.075 28.6728L150.641 28.282L150.381 27.8912L150.163 27.3701L150.033 26.7187L149.99 26.1976L148.904 29.8887L148.817 29.9755L148.122 29.7584L148.079 29.9755L147.211 29.715V29.6281L146.907 29.5847L146.342 29.411L146.299 29.2808L146.95 27.0661L145.777 27.1964H144.779L143.78 27.0661L142.868 26.8055L142.086 26.4147L142.043 24.7212V24.0698L142.086 23.4184L142.304 23.5053L143.215 23.9395L144.127 24.2435L144.735 24.3738L145.083 24.4172H145.647L146.038 24.3303L146.385 24.1132L146.559 23.8961L146.603 23.7658V23.1579L146.429 22.8105L146.038 22.3762L145.56 21.9854L144.909 21.4209L144.258 20.7695L143.954 20.3353L143.606 19.6839L143.433 19.0759L143.346 18.3812L143.389 17.6429L143.563 16.9481L143.91 16.2533L144.258 15.7757L144.692 15.3414L145.126 15.0375L145.821 14.6901L146.559 14.4729L147.08 14.3861L147.949 14.3427L148.991 14.4295L149.859 14.6032L150.554 14.8203L151.51 11.5635ZM147.428 17.0784L147.08 17.2087L146.863 17.3824L146.689 17.7732V18.2075L146.863 18.6417L147.211 19.0759L147.688 19.4668L148.426 20.0747L148.774 20.3787L148.904 20.4655L149.034 20.1181L149.773 17.5995L149.642 17.4692L148.73 17.1653L148.34 17.0784H147.428Z" fill="#FEFEFE"/>
<path d="M131.099 14.5166L131.142 14.6469L130.577 15.3851L129.97 16.2102L129.448 16.905L128.233 18.5551L127.581 19.4236L126.973 20.2487L126.669 20.6395L126.713 21.0303L128.233 25.2859L128.797 26.8926V27.0229H125.149L125.019 26.6755L124.237 24.0266L123.933 22.9844V22.8107L123.76 22.9844L123.065 24.0266L122.327 25.1122L121.415 26.4584L121.024 27.0229H117.246L117.333 26.8492L117.854 26.111L118.462 25.2859L118.896 24.678L119.461 23.8963L120.069 23.0713L120.503 22.4633L121.067 21.6817L121.675 20.8566L121.979 20.4224L121.849 19.9447L121.154 17.8169L120.546 15.9062L120.112 14.56H123.673L123.803 14.9508L124.715 18.4248L124.759 18.4682L125.41 17.4695L126.669 15.5588L127.321 14.56L131.099 14.5166Z" fill="#10161C"/>
<path d="M135.18 14.5596H139.479L139.522 14.603L140.521 26.5014V27.0225H137.308L137.264 26.8922L137.177 24.7209H133.399L132.922 25.7197L132.357 26.979L132.314 27.0225H128.84L130.273 24.1564L130.707 23.3314L131.445 21.8549L131.88 21.0298L132.791 19.206L133.226 18.3809L134.007 16.8177L134.442 15.9926L135.136 14.603L135.18 14.5596ZM136.917 16.644L136.656 17.4256L136.092 18.7283L135.267 20.5088L134.615 21.9418V22.0286H137.091V21.2035L137.004 18.9889L136.96 16.644H136.917Z" fill="#10161C"/>
<path d="M111.383 14.5596H118.765L118.722 14.9504L118.288 17.0782L118.201 17.2519H114.162L113.945 18.3809L113.772 19.206H117.55L117.376 20.0745L116.985 21.7681L116.942 21.8983L113.164 21.9418L112.686 24.2433L116.725 24.2867L116.507 25.4157L116.16 26.979L116.117 27.0225H108.734L108.821 26.5014L109.994 20.943L111.123 15.6018L111.34 14.603L111.383 14.5596Z" fill="#10161C"/>
<path d="M151.51 11.5635L151.9 11.6069L152.421 11.7806L152.378 12.0846L151.466 15.1677L150.684 17.8166L149.729 21.0735L149.121 23.2013L148.122 26.5884L147.818 27.5438L147.254 29.4544L147.167 29.6281L146.776 29.5413L146.342 29.411L146.299 29.2808L146.95 27.0661L145.777 27.1964H144.779L143.78 27.0661L142.868 26.8055L142.086 26.4147L142.043 24.7212V24.0698L142.086 23.4184L142.304 23.5053L143.215 23.9395L144.127 24.2435L144.735 24.3738L145.083 24.4172H145.647L146.038 24.3303L146.385 24.1132L146.559 23.8961L146.603 23.7658V23.1579L146.429 22.8105L146.038 22.3762L145.56 21.9854L144.909 21.4209L144.258 20.7695L143.954 20.3353L143.606 19.6839L143.433 19.0759L143.346 18.3812L143.389 17.6429L143.563 16.9481L143.91 16.2533L144.258 15.7757L144.692 15.3414L145.126 15.0375L145.821 14.6901L146.559 14.4729L147.08 14.3861L147.949 14.3427L148.991 14.4295L149.859 14.6032L150.554 14.8203L151.51 11.5635ZM147.428 17.0784L147.08 17.2087L146.863 17.3824L146.689 17.7732V18.2075L146.863 18.6417L147.211 19.0759L147.688 19.4668L148.426 20.0747L148.774 20.3787L148.904 20.4655L149.034 20.1181L149.773 17.5995L149.642 17.4692L148.73 17.1653L148.34 17.0784H147.428Z" fill="#10161C"/>
<path d="M100.701 14.5596H109.516L108.952 17.1651L108.909 17.2953H106.173L106.086 17.8598L104.913 23.5051L104.219 26.8053L104.132 27.0225H100.832L100.875 26.6316L102.699 17.8598L102.829 17.2953H100.137L100.224 16.7742L100.701 14.5596Z" fill="#10161C"/>
<path d="M159.888 21.5518H160.844L161.452 21.682L162.147 22.0294L162.451 22.29L162.841 22.8545L163.058 23.419L163.145 23.9835V24.852L163.015 25.764L162.798 26.5022L162.407 27.3272L162.016 27.8483L161.712 28.1957L161.104 28.63L160.453 28.934L159.585 29.1077H158.716L158.065 28.9774L157.37 28.63L157.022 28.326L156.718 27.8918L156.501 27.4141L156.371 26.8496V25.5903L156.501 24.852L156.805 23.9401L157.153 23.2887L157.544 22.7676L157.978 22.3334L158.586 21.9426L159.107 21.7255L159.628 21.5952L159.888 21.5518ZM159.845 23.2019L159.411 23.419L159.02 23.8098L158.673 24.4178L158.412 25.1994L158.325 25.6771L158.282 26.3285L158.369 26.8496L158.499 27.1101L158.803 27.3707L159.02 27.4575H159.585L160.106 27.197L160.41 26.893L160.757 26.285L160.974 25.6771L161.104 24.9389V24.027L160.931 23.5493L160.583 23.2453L160.453 23.2019H159.845Z" fill="#10161C"/>
<path d="M167.446 12.5625H169.574L170.356 12.6493L171.007 12.8665L171.441 13.1704L171.702 13.4744L171.875 13.8218L171.962 14.1692V14.9943L171.789 15.6457L171.485 16.1667L171.137 16.5141L170.703 16.7747L170.616 16.8181L170.746 17.2089L171.875 19.8144V19.9013H169.748L169.53 19.3802L168.749 17.2524H168.401L168.184 18.3814L167.88 19.8144L167.837 19.9013H165.883L165.97 19.3802L167.055 14.2126L167.403 12.6059L167.446 12.5625ZM169.14 14.0389L169.053 14.2995L168.792 15.5588V15.7759H169.183L169.617 15.6457L169.921 15.3851L170.095 14.9509V14.5166L169.965 14.2561L169.748 14.0824L169.53 14.0389H169.14Z" fill="#10161C"/>
<path d="M174.133 12.5625H176.304L177.086 12.6493L177.607 12.823L178.128 13.127L178.476 13.5613L178.649 14.0389L178.693 14.3429V14.8206L178.606 15.3417L178.389 15.8628L178.041 16.3404L177.607 16.6878L177.347 16.8181L177.39 17.0352L178.562 19.771V19.9013H176.478L176.304 19.5539L175.696 17.8603L175.479 17.2958L175.392 17.2524H175.088L175.045 17.6866L174.567 19.9013H172.613L172.657 19.5105L173.916 13.5178L174.133 12.5625ZM175.783 14.0389L175.696 14.2561L175.392 15.6891V15.7759H175.827L176.261 15.6457L176.565 15.3851L176.739 14.9074V14.56L176.608 14.2561L176.478 14.1258L176.174 14.0389H175.783Z" fill="#10161C"/>
<path d="M172.438 21.6377H174.957L175.608 21.768L176.043 21.9417L176.52 22.2891L176.781 22.6799L176.954 23.2444V24.0695L176.781 24.7208L176.52 25.1551L176.216 25.5025L175.739 25.8065L175.565 25.8499L176.39 27.7606L176.868 28.8896V28.933L175.521 28.9765H174.827L174.696 28.8896L173.784 26.4144L173.741 26.3276L173.394 26.2841L173.307 26.8487L172.873 28.8896L172.829 28.933L171.136 28.9765L170.875 28.933L171.092 27.804L171.917 23.8958L172.395 21.6811L172.438 21.6377ZM174.045 23.1141L173.915 23.6352L173.698 24.6774V24.8077H174.262L174.696 24.5906L174.87 24.3735L175 24.0695V23.505L174.827 23.2444L174.566 23.1141H174.045Z" fill="#10161C"/>
<path d="M165.144 21.6377H167.098L166.881 22.7667L166.143 26.2407L166.099 26.5013V27.0224L166.186 27.2395L166.316 27.3698L166.446 27.4132H166.881L167.272 27.2395L167.532 26.8921L167.749 26.2841L168.705 21.8114L168.748 21.6377H170.702L170.659 21.9851L169.834 25.9367L169.573 26.9789L169.313 27.5869L168.922 28.1514L168.487 28.5422L168.01 28.8028L167.532 28.9765L166.837 29.1067H165.925L165.404 28.9765L164.927 28.7159L164.579 28.4119L164.275 27.9343L164.102 27.3698V26.4144L164.84 22.897L165.1 21.7245L165.144 21.6377Z" fill="#10161C"/>
<path d="M161.887 12.5625H164.405L164.536 13.9087L165.013 19.5973V19.9013H163.103L163.059 19.1631V18.5117H160.801L160.671 18.9025L160.237 19.8578L160.193 19.9013H158.152L158.543 19.0762L159.455 17.2958L160.106 15.9931L160.541 15.168L161.409 13.431L161.887 12.5625ZM162.929 13.8218L162.755 14.3429L162.061 15.8628L161.626 16.8181L161.583 16.9484H163.059V16.297L162.972 13.8218H162.929Z" fill="#10161C"/>
<path d="M184.684 21.6377H189.07L188.983 22.1154L188.766 23.1576L188.723 23.201H186.335L186.248 23.7655L186.117 24.3735H188.332L188.115 25.4591L187.985 25.9367L185.77 25.9802L185.466 27.3263H187.811L187.854 27.4132L187.55 28.8462L187.507 28.933H183.121L183.946 25.0248L184.641 21.768L184.684 21.6377Z" fill="#10161C"/>
<path d="M153.462 21.5518H154.461L155.199 21.682L155.894 21.9426L156.328 22.1597L156.284 22.3768L155.633 23.723L155.372 23.6361L154.721 23.3322L154.374 23.2453H153.592L153.071 23.5059L152.941 23.6361H152.854L152.767 23.8098L152.506 24.2007L152.289 24.6783L152.116 25.3297L152.072 25.5903V26.5456L152.202 26.9798L152.463 27.2838L152.724 27.4141L152.984 27.4575L153.679 27.4141L154.504 27.197L154.938 27.0667V28.6734L154.243 28.934L153.592 29.0642L153.245 29.1077H152.289L151.681 28.9774L151.073 28.6734L150.639 28.2826L150.379 27.8918L150.162 27.3707L150.031 26.7193V25.7205L150.162 24.852L150.379 24.1572L150.683 23.4624L150.987 22.9848L151.464 22.4637L151.942 22.0729L152.55 21.7689L153.201 21.5952L153.462 21.5518Z" fill="#10161C"/>
<path d="M156.5 12.4756H156.891L157.629 12.5624L158.281 12.7361L159.019 13.0835L159.062 13.2138L158.585 14.2126L158.367 14.6468L158.15 14.6034L157.499 14.2994L156.934 14.1691H156.457L156.022 14.2994L155.632 14.6034L155.371 14.9074L155.024 15.6022L154.85 16.2535L154.807 16.5141V17.5128L154.98 17.9905L155.154 18.2076L155.545 18.3813H156.283L157.021 18.2076L157.673 17.9905V19.6407L156.891 19.9012L156.196 20.0315L155.328 20.0749L154.633 19.9881L154.068 19.7709L153.721 19.5538L153.374 19.2498L153.07 18.7722L152.896 18.3379L152.766 17.6865V16.7746L152.852 16.0364L153.07 15.2113L153.374 14.5165L153.678 13.9955L154.068 13.5178L154.459 13.1704L155.111 12.7796L155.805 12.5624L156.5 12.4756Z" fill="#10161C"/>
<path d="M180.515 21.5518H181.47L182.339 21.7255L183.077 22.0294L183.12 22.1597L182.512 23.5059L182.339 23.5493L181.731 23.2887L181.036 23.1585L180.602 23.2453L180.385 23.4624L180.341 23.723L180.471 24.1138L180.862 24.5046L181.47 24.9823L181.818 25.3297L182.122 25.8074L182.252 26.1982L182.295 26.4587V27.1101L182.165 27.6746L181.905 28.1523L181.687 28.4129L181.123 28.8037L180.515 29.0208L179.994 29.1077H179.038L178.344 28.9774L177.779 28.7603L177.605 28.6734V26.893L177.823 26.9798L178.648 27.3272L179.299 27.4575H179.777L180.168 27.3272L180.254 27.1101V26.7193L179.994 26.3285L179.516 25.9377L178.952 25.4166L178.561 24.852L178.387 24.3309L178.344 24.0704V23.6796L178.431 23.1585L178.735 22.5505L179.125 22.1163L179.603 21.8123L180.254 21.5952L180.515 21.5518Z" fill="#10161C"/>
<path d="M179.953 12.5625H181.951L182.038 12.8665L182.385 14.9509V15.2114L182.515 15.0811L183.21 13.8652L183.818 12.823L183.992 12.5625H186.163L186.076 12.7362L185.642 13.3876L185.164 14.0824L184.035 15.7325L183.557 16.4273L183.123 17.0787L182.515 19.8578L182.472 19.9013H180.518L180.735 18.8157L181.082 17.1655L181.039 16.8181L180.04 13.0402L179.953 12.7362V12.5625Z" fill="#10161C"/>
<path d="M256.944 10.7695H257.559L258.03 10.8802L258.428 11.0278L258.789 11.3599L259.006 11.6551L259.223 12.0241L259.26 12.3931L259.332 12.5038L259.404 13.2788L259.44 13.3157V14.4596L259.296 15.1976L259.187 15.788L258.898 16.4891L258.789 16.6736L258.753 16.9319L258.464 17.4116L258.391 17.6699L258.174 18.002L257.957 18.371L257.776 18.7031L257.523 19.0721L257.306 19.4042L257.053 19.6994L256.908 19.9946L256.8 20.1053H256.727L256.655 20.3267L256.329 20.7326L256.004 21.1754L255.715 21.5075L255.678 21.5813L255.859 21.5075L256.112 21.2123L256.438 20.8433L256.727 20.5112L256.981 20.3636L257.306 20.1791H258.138L258.572 20.3636L259.043 20.6588L259.477 21.1385L259.694 21.5075L259.911 22.061L260.055 22.6145V24.2013L259.947 24.7917L259.875 25.05L259.838 25.0869V25.3083L259.73 25.4559L259.658 25.8618L259.332 26.4522L259.223 26.5998L259.404 26.526L259.766 26.3415L260.164 26.0832L260.236 26.0094L260.453 25.9356L260.815 25.6404L261.141 25.419L261.285 25.3083L261.322 24.5334L261.394 24.0906L261.43 23.943L261.466 23.4264L261.611 23.0205L261.756 22.6883L261.864 22.3562L262.117 21.9503L262.262 21.7658L262.407 21.5075L262.66 21.2861L262.913 20.9909L263.492 20.5481L264.071 20.216L264.541 20.0315H264.794L264.975 19.9577L265.265 19.9208H266.748L266.892 19.9946L267.399 20.0315L267.58 20.1422L267.978 20.2898L268.52 20.5481L268.665 20.4743L268.954 20.1422L269.497 19.847L269.823 19.7363H270.148L270.438 19.847L270.582 19.9946L270.872 20.8802L271.016 20.954L271.233 21.4337L271.523 22.0241L271.704 22.4669L271.884 22.8729L271.957 23.0943H272.029L272.246 22.7991H272.319L272.391 22.6514L272.68 22.3562L272.97 22.0979L273.476 21.6551L273.838 21.323L274.127 21.0647L274.489 20.8064L274.851 20.5112L275.357 20.216L275.43 20.1791L275.972 20.1422L276.262 20.2529L276.587 20.6219L276.66 20.7695L276.696 21.1016L276.732 21.1754V21.4337L276.696 21.5075L276.66 21.9872L276.37 22.3562L276.008 22.6145L275.791 22.7991L275.502 22.9467L275.285 23.205L275.032 23.3157L274.778 23.6109L274.2 24.2013L273.91 24.4596L273.802 24.5703L273.657 24.6441L273.585 24.7917L273.368 25.05L273.187 25.1607L273.078 25.3452L273.006 25.4928L273.151 25.6404L273.223 25.8987L273.549 26.3415L273.766 26.7105L274.272 27.2271L274.381 27.3009H274.706L275.176 27.1533L276.225 26.6367L276.406 26.4891L276.587 26.4153L277.057 26.0463L277.274 25.8987H277.672L277.853 26.1201L278.034 26.5629L278.07 26.7474V27.1164L277.962 27.3747L277.781 27.6699L277.202 28.1127L277.021 28.2603L276.804 28.371L276.515 28.5924L276.225 28.7769L276.008 28.8507L275.502 29.109L274.959 29.2935L274.598 29.4411L274.489 29.478L273.983 29.5887H273.259L272.861 29.3673L272.427 29.0352L271.884 28.4817L271.667 28.1496L271.27 27.5223L271.197 27.4116H271.125L270.835 27.8175L270.618 28.002L270.401 28.2972L270.22 28.4817L270.04 28.7769L269.786 29.109L269.533 29.4042L269.244 29.5887H268.81L268.448 29.4042L268.231 29.0721L268.159 28.7031L268.267 28.371L268.52 27.9282L268.81 27.5592L268.954 27.3378L269.208 26.9688L269.461 26.5629L269.714 26.2677L269.823 26.0094L270.04 25.7511L270.184 25.4559L270.148 25.3452L270.076 24.9393L269.931 24.5703L269.75 24.1644L269.642 23.8323L269.28 23.1681V22.9836L269.099 22.836L268.882 22.6883L268.52 22.3931L268.014 22.061L267.905 21.9872L268.014 22.1717L268.195 22.7253L268.267 22.8729V23.0943L268.339 23.1681L268.376 23.5371L268.412 24.4965L268.448 24.6441L268.412 24.681L268.339 25.8987L268.267 25.9725L268.195 26.3046L268.05 26.6736L267.941 27.0426L267.652 27.5592L267.435 27.9282L267.182 28.2603L266.748 28.7031L266.494 28.9245L266.241 29.109L265.735 29.3673L265.482 29.478L265.228 29.5518L265.192 29.5887H263.745L263.311 29.4042L262.732 29.0721L262.479 28.8138L262.298 28.7031L262.19 28.4448L262.117 28.2972L261.973 28.2234L261.792 27.8175L261.647 27.4485V27.3378L261.43 27.4116L261.068 27.633H260.996V27.7068L260.779 27.8175L260.526 27.8913L259.947 28.1865L259.621 28.2972L258.717 28.5555L258.536 28.6293L258.211 28.74L257.994 28.8507L257.921 28.9614L257.379 29.2197L256.908 29.478L256.655 29.5887H254.448L254.34 29.5149L253.833 29.3673L253.327 29.1459L253.146 29.0721L252.64 28.74L252.35 28.5186L252.242 28.4817L252.169 28.6293L251.808 28.8876L251.482 29.109L250.795 29.5149L250.542 29.5887H249.239L248.841 29.2935L248.588 28.9983L248.335 28.6662L248.19 28.2972L248.154 28.2234L248.009 28.2603L247.901 28.2972L247.828 28.4448L247.539 28.7031L246.96 29.109L246.128 29.5149L245.911 29.5887H244.356L244.175 29.478L243.632 29.109L243.379 28.8138L243.198 28.6293L243.09 28.4817L242.909 28.5186L242.583 28.74L242.294 28.8138L242.004 28.9983L241.679 29.1459L241.389 29.2566L241.1 29.4042L240.557 29.5887L239.653 29.6256L239.327 29.4042L239.11 29.1459L238.857 28.7031L238.749 28.371L238.713 27.9282L238.64 27.633V25.4559L238.676 25.3083L238.713 25.05L238.749 24.2382L238.821 24.0168V23.8323L238.423 24.5334L238.315 24.7548L238.242 25.0131L238.025 25.3452L237.844 25.6404L237.808 25.8618L237.627 26.1201L237.41 26.6736L237.121 27.1902L236.831 27.8175L236.542 28.4079L236.18 29.0721L235.927 29.4042L235.674 29.5887H234.77L234.408 29.3304L234.227 29.0352L234.046 28.5186L234.01 28.3341L233.395 28.6662L233.214 28.7769L233.033 28.8138L232.563 29.109L232.31 29.1459L231.731 29.4411L231.224 29.5887H230.284L229.994 29.3673L229.669 28.8507L229.488 28.4817L229.452 28.1496L229.343 27.5223L229.307 27.0057V26.0832L229.38 25.1238L229.452 24.7548L229.524 23.8692H229.452L229.416 24.0537L229.199 24.4227L228.982 24.9393L228.765 25.3083L228.475 25.8987L228.258 26.3046L228.113 26.6736L227.86 27.1164L227.643 27.633L227.426 28.002L227.39 28.2234L227.209 28.4817L227.064 28.7769L226.992 28.8507L226.92 29.109L226.522 29.5149L226.413 29.5887H225.509L225.219 29.4411L224.93 28.9983L224.749 28.4817L224.713 28.1865L224.424 28.4079L224.098 28.74L223.555 29.109L222.94 29.478L222.687 29.5887H221.313L220.879 29.2566L220.481 28.74L220.372 28.5924L220.3 28.3341L220.227 28.2603L220.191 28.1127L220.119 28.2603L219.974 28.3341L219.721 28.6293L219.142 29.0352L218.346 29.4411L218.021 29.5887H216.465L215.995 29.2935L215.706 29.109L215.525 28.9245L215.489 28.7769H215.272L215.091 28.5555L214.91 28.2972L214.765 28.1865V27.8175L214.476 28.0758L213.68 28.8876L213.21 29.2566L212.848 29.5887L212.595 29.6994L212.233 29.9577L211.292 30.4374L211.003 30.5481L210.677 30.6219L210.171 30.7326L209.375 30.7695H209.086L208.869 30.6957L208.579 30.6588L208.362 30.585L208.073 30.5481L207.494 30.2529L206.988 29.9208L206.771 29.7363V29.6625L206.59 29.5887L206.445 29.4042L206.192 29.109L205.975 28.7769L205.649 28.2603L205.504 27.9282L205.36 27.264L205.287 27.1164L205.251 26.7843L205.179 26.6736L205.143 26.4153L205.106 26.3046L205.07 25.2714L205.143 25.1238L205.215 24.8286L205.324 24.2751L205.504 23.6109V23.3895L205.613 23.205L205.685 22.8729L205.938 22.2824L206.011 21.9503L206.336 21.3599L206.553 20.9171L206.807 20.5481L207.096 20.1422L207.53 19.6625L208.181 19.1828L208.76 18.8507L209.23 18.7031L209.737 18.5924H210.75L211.148 18.6662L211.582 18.7769L212.088 19.0352L212.486 19.2935L212.667 19.5149L212.884 19.6994L213.137 20.1422L213.354 20.6588L213.39 21.4337L213.354 22.2086L213.21 22.5407L213.065 22.836L212.956 23.1312L212.558 23.6847L212.305 23.943L212.052 24.0906L211.726 24.1644H211.437L211.039 24.0537L210.822 23.8692L210.677 23.5371V22.7991L210.75 22.6145L210.786 22.2086L210.858 22.0241V21.4337L210.75 21.0278H210.135L209.773 21.2123L209.375 21.5813L209.086 22.0241L208.905 22.4669L208.652 23.0943L208.507 23.6847L208.326 24.4596L208.254 24.9024V26.2308L208.398 26.895L208.652 27.5223L209.049 27.9651L209.23 28.1127L209.52 28.2603L209.954 28.3341L210.243 28.371L210.388 28.2972L210.858 28.2603L211.292 28.0389L211.69 27.7806L211.907 27.7068L212.305 27.4116L212.775 27.0795L213.173 26.7474L213.354 26.5629L213.644 26.3415L213.897 26.0463L214.186 25.8249L214.403 25.5297L214.693 25.2345L214.837 25.0131L215.018 24.8655L215.308 24.2751L215.561 23.7216L215.669 23.3895L215.886 23.0574L216.14 22.5776L216.393 22.2086L216.501 22.0241L216.791 21.7289L217.008 21.4337L217.261 21.2123L217.406 21.0278L217.768 20.7695L217.948 20.585L218.708 20.1422L218.889 20.0315H219.106L219.287 19.9208L219.649 19.8839L219.793 19.8101H220.3L220.625 20.0315L220.806 20.216L220.915 20.4743L221.204 20.5112L222.108 20.5481L222.47 20.7326L222.615 20.954V22.4669L222.434 23.3895L222.326 23.8692L222.181 24.4596L222.108 25.05L222.072 25.0869L221.964 25.6773L221.928 26.0463V26.8581L222.072 27.1902L222.108 27.264L222.217 27.3009H222.506L222.904 27.0795L223.338 26.7843H223.411L223.483 26.6367L223.845 26.3415L224.605 25.4559L224.894 24.9393L224.966 24.1275L225.002 24.0906L225.075 23.3895L225.147 23.0205L225.183 22.4669L225.256 22.2086L225.328 21.8027L225.545 20.9171L225.69 20.5112L225.907 20.216L226.124 20.0315L226.413 19.9208H227.137L227.426 20.0684L227.643 20.4005L227.752 20.7695V21.4337L227.679 21.7658L227.607 22.3562L227.571 22.43L227.498 23.0574L227.462 23.3157L227.426 23.4633L227.39 24.2382L227.498 24.2013L227.752 23.6478L227.896 23.2788L228.15 22.7253L228.294 22.3562L228.656 21.7289L228.765 21.4706L228.909 21.2123L229.126 20.8802L229.235 20.6219L229.38 20.4743H229.452L229.524 20.2898L229.814 20.0684L230.284 19.9208H231.044L231.369 20.1053L231.586 20.3636L231.731 20.6219L231.803 21.2492V21.5813L231.695 22.4669L231.514 23.5002L231.297 24.7179L231.261 25.7511V26.2677L231.297 26.8212L231.514 27.264L231.586 27.3009H232.056L232.491 27.0795L232.744 26.8581L233.612 26.3415L233.974 26.0832L234.046 25.9356L234.082 25.4559L234.155 25.2714L234.191 24.6072L234.263 24.2013L234.299 23.4633L234.444 22.6145L234.589 21.9134L234.733 21.323L234.77 20.9171L234.914 20.585L235.131 20.2898L235.312 20.0684L235.602 19.9577L235.638 19.9208H236.434L236.759 20.1422L236.976 20.5112L237.012 20.6219V21.5444L236.795 22.9836L236.687 23.7216L236.651 24.2382L236.795 24.1644L236.976 23.8323L237.193 23.2419L237.446 22.6883L237.555 22.3562H237.627L237.7 22.1717L237.844 21.8396L238.242 21.1385L238.387 20.8433L238.64 20.5112L238.857 20.216L239.147 20.0315L239.4 19.9946L239.508 19.9208H240.34L240.666 20.1053L240.847 20.3267L240.992 20.6588L241.1 21.1754V21.6182L240.992 22.1348L240.883 22.7991L240.811 23.4264L240.594 24.7179L240.557 25.05V26.7474L240.811 27.264L240.919 27.3009H241.281L241.679 27.1533L241.968 26.895L242.294 26.7105L242.692 26.4522L242.728 25.8618L242.8 25.6773L242.873 25.3452L243.053 24.7917L243.126 24.4596L243.415 23.8323L243.524 23.6478L243.632 23.3157L243.741 23.205L243.922 22.836L244.139 22.43L244.32 22.2086L244.464 21.9872L244.754 21.6551L245.007 21.3599L245.369 20.9909L245.911 20.5481L246.309 20.3267L246.743 20.0684L247.141 19.9946L247.25 19.9208L247.575 19.8839L247.611 19.847H248.263L248.588 20.1053L248.805 20.3636L248.841 20.5112L250.071 20.5481L250.361 20.7326L250.469 20.9171L250.542 21.1754L250.578 21.4706V21.8396L250.505 22.061L250.469 22.7622L250.288 23.6478L250.18 24.1275L250.144 24.2013L250.071 24.8655L249.999 25.1238L249.963 25.3821L249.89 25.6035L249.854 26.0463L249.818 26.0832V26.7474L249.963 27.1902L250.107 27.3009H250.397L250.903 27.0426L251.12 26.8581L251.301 26.7474L251.627 26.4522L251.808 26.3046L251.952 26.0832L252.133 25.9356L252.278 25.5297L252.314 24.9024L252.423 24.2751L252.495 23.574L252.567 22.9098L252.64 22.5407L252.676 22.0241L252.748 21.692L252.821 20.9171L252.857 20.8064L252.929 20.0684L253.074 19.1828L253.11 19.0721L253.146 18.3341L253.218 18.2234L253.291 17.7437L253.508 16.7105L253.58 16.3784L253.616 16.0463L253.797 15.4928L253.87 15.1976L253.942 15.0869L253.978 14.7548L254.123 14.4227L254.376 13.8323L254.557 13.3526L254.991 12.5038L255.425 11.9134L255.715 11.5075L256.004 11.2123L256.293 10.9909L256.8 10.8064L256.944 10.7695ZM256.981 12.7253L256.764 12.836L256.655 12.9836L256.547 13.2419L256.402 13.4633L256.185 13.9061L256.149 14.1644L256.004 14.4596L255.787 15.1238L255.715 15.2345L255.642 15.7142L255.534 16.0832L255.425 16.4891L255.389 16.526L255.28 17.1902L255.063 18.1496L254.919 18.7031L254.846 19.2935L254.593 20.3636L254.557 20.5481L254.738 20.3636L255.1 19.6625L255.244 19.5149L255.678 18.7031L255.823 18.371L256.112 17.8913L256.257 17.5592L256.583 16.9688L256.655 16.8581L256.727 16.526L256.944 16.0832L257.125 15.4928L257.27 15.0869L257.415 14.5334L257.487 14.2013V13.0574L257.379 12.836L257.161 12.7253H256.981ZM220.3 21.7658L219.866 21.8765L219.54 21.9872L219.07 22.3562L218.817 22.6145L218.527 22.9836L218.165 23.4633L218.093 23.7216L217.948 23.943L217.442 25.2345L217.37 25.5297L217.333 25.6035V27.1164L217.514 27.4485L217.804 27.7068L217.948 27.7806L218.165 27.7437L218.527 27.5592L218.889 27.1164L219.106 26.7474L219.468 25.8618L219.576 25.4559L219.612 25.05L219.685 24.8286L219.757 24.4965L219.938 23.6847L219.974 23.3526L220.047 23.205L220.155 22.6883L220.372 21.8765V21.7658H220.3ZM248.226 21.7658L247.792 21.8765L247.467 21.9872L246.996 22.3562L246.816 22.5407L246.49 22.9098L246.201 23.2788L246.128 23.3526L246.056 23.6109L245.658 24.312L245.586 24.6072L245.477 24.9393L245.332 25.3083L245.296 25.419L245.26 26.0094L245.224 26.0463V26.7843L245.26 26.8581L245.296 27.264L245.549 27.5961L245.839 27.7806L246.056 27.7437L246.418 27.5592L246.707 27.264L247.033 26.7843L247.358 25.8987L247.394 25.8618L247.503 25.2345L247.684 24.3858L247.828 23.8323L247.865 23.7585L247.901 23.2788L247.973 23.1312L248.118 22.4669L248.299 21.7658H248.226ZM265.373 21.8396L265.265 21.9134L264.975 21.9503L264.505 22.3562L264.36 22.6145L264.143 22.9098L264.035 23.0943L263.962 23.3526L263.709 24.0168L263.564 24.5703V26.4522L263.709 26.8581L264.071 27.3378L264.396 27.5592L264.722 27.633L264.794 27.7068L264.939 27.6699L265.228 27.5592L265.482 27.3378L265.626 27.1902L265.916 26.7105L266.169 26.157L266.241 25.9725L266.314 25.4928L266.458 24.9024L266.494 24.5703V23.3157L266.35 22.7622L266.241 22.3931L265.916 22.0241L265.807 21.9503L265.518 21.8765L265.373 21.8396ZM256.583 22.3562L256.112 22.4669L255.751 22.6514L255.425 22.8729L255.172 23.2419L255.027 23.3526L254.919 23.574L254.846 23.7954L254.557 24.3858L254.485 24.7179V24.8286L254.521 24.9393V25.0869H254.448L254.412 25.9356L254.376 26.3046L254.34 26.3784L254.376 26.526L254.304 26.6736L254.231 27.3747L254.195 27.5223L254.557 27.7068L254.81 27.7437L254.883 27.7806L255.425 27.8175L255.497 27.7437L256.221 27.7068L256.547 27.5223L256.981 27.1164L257.125 26.8212L257.27 26.5629L257.487 26.1201L257.559 25.7511L257.596 25.6773L257.632 25.4559L257.776 24.7179L257.849 24.2013V23.2788L257.704 22.9098L257.451 22.6145L257.161 22.43L256.691 22.3931L256.583 22.3562Z" fill="#10161C"/>
<path d="M309.382 9.70898H309.435V18.6312L310.649 17.9976L311.916 17.5753L312.708 17.4169L313.13 17.3641H314.978L316.034 17.5225L317.142 17.8392L318.093 18.2616L318.885 18.7367L319.518 19.2119L320.046 19.687L320.468 20.0566L320.944 20.6373L321.472 21.3236L322 22.2739L322.316 23.0658L322.58 23.9105L322.739 24.808L322.791 25.336V26.8142L322.633 27.9229L322.369 28.926L322 29.7707L321.524 30.6682L320.891 31.5129L320.257 32.1992L319.835 32.6215L318.937 33.3079L318.146 33.783L317.248 34.2053L316.192 34.5221L315.453 34.6805L315.031 34.7333H313.077L312.127 34.5749L311.335 34.3637L310.332 33.9414L309.435 33.4662L308.643 32.8855L308.115 32.4104L307.323 31.6184L306.848 30.9849L306.953 30.7737L308.379 29.6651H308.59L309.276 30.5098L309.857 31.0905L310.438 31.5129L311.177 31.9352L311.969 32.252L312.919 32.4632L313.394 32.5159H314.767L315.717 32.3576L316.562 32.0936L317.406 31.6712L318.093 31.1961L318.779 30.5626L319.413 29.7707L319.835 29.0843L320.205 28.2396L320.468 27.2366L320.521 26.8142V25.1776L320.363 24.2801L320.099 23.4882L319.677 22.6435L319.149 21.9044L318.357 21.1125L317.618 20.5845L316.878 20.1622L315.875 19.7926L315.084 19.6342L314.661 19.5814H313.447L312.391 19.7398L311.282 20.1094L310.702 20.4261L310.015 20.9013L309.276 21.5876L309.012 21.9044L308.695 21.7988L307.376 21.0069L307.27 20.9013V11.8207L309.382 9.70898Z" fill="#10161C"/>
<path d="M328.915 2.63477H329.021V14.4606L331.502 14.5134L331.555 14.7246L331.502 15.8332L331.45 15.886H328.968L329.021 16.0972V19.6344L328.915 19.6872H327.648L327.596 19.6344V15.886H318.304L317.934 15.3581L317.301 14.355L317.459 14.091L318.145 13.4575L318.621 12.9824L318.99 12.56L328.915 2.63477ZM327.543 5.90799L327.12 6.27754L319.782 13.6159L319.36 13.9855L318.937 14.4078L318.99 14.5134H327.015L327.596 14.4606L327.648 5.90799H327.543Z" fill="#10161C"/>
<path d="M305.687 13.2998H305.792V25.1784H308.327V26.4983L308.274 26.5511H305.792V30.3522H304.42V26.5511H295.128L294.97 26.3927L294.389 25.4952L294.125 25.1256L294.178 24.8617L305.634 13.4054L305.687 13.2998ZM304.314 16.573L297.979 22.9083L297.662 23.1723L297.293 23.5946L297.029 23.8058V23.9114L296.817 24.017L295.709 25.1256V25.1784H304.42V16.573H304.314Z" fill="#10161C"/>
<path d="M312.442 20.6377H312.6L312.653 24.2277H312.811L313.286 23.6997L314.817 22.1687L315.398 21.7992L315.768 21.7464L316.296 21.9047L316.612 22.1159L316.507 22.3271L313.92 24.914L313.603 25.178V25.2308H317.668L318.407 25.3891L318.882 25.7059L318.83 25.9699L318.407 26.2866L317.668 26.445H313.55L313.92 26.8674L316.032 28.9791L316.454 29.3487L316.559 29.6127L316.084 29.8766L315.715 29.9294L315.24 29.8238L314.712 29.4015L312.706 27.3953L312.653 27.4481V30.9853L312.442 31.0381L311.808 30.7741L311.491 30.3518L311.438 30.1406V27.2369L310.911 27.7121L309.749 28.8735H309.643L309.538 29.0847H309.432L309.327 29.2959H309.116L308.904 28.8207L308.852 28.4512L309.116 27.9233L309.591 27.3953L310.066 26.9202H310.171V26.8146L310.594 26.445L311.122 25.9699L311.016 25.7587L310.066 24.8084L309.696 24.3861L309.327 24.0165L308.957 23.4886L308.904 23.383V22.8022L309.116 22.3799L309.221 22.3271L309.643 22.6967L309.96 23.0662L310.277 23.3302L311.386 24.4389L311.438 21.5352L311.597 21.1656L312.019 20.7961L312.442 20.6377Z" fill="#10161C"/>
<path d="M311.704 7.43945H319.781L319.834 7.49225V9.604L319.728 9.6568H309.539L309.645 9.44562L311.598 7.49225L311.704 7.43945Z" fill="#10161C"/>
<path d="M335.25 21.2188H335.356L335.409 21.4299L335.039 21.8523L321.577 35.3147H321.471L321.365 35.5259H321.26L321.154 35.7371H321.049L320.943 35.9482H320.837L320.732 36.1594H320.626L320.574 36.3178L320.151 36.6874L317.934 38.9047L317.723 38.7991L317.775 38.5879L327.542 28.8211H327.648L327.701 28.6627L328.017 28.3987L328.651 27.7652L328.915 27.4484L329.285 27.1317L329.548 26.8149L329.812 26.5509L329.971 26.4981L330.024 26.3398L330.446 25.9702L335.145 21.2715L335.25 21.2188Z" fill="#10161C"/>
<path d="M311.545 3.11035L311.756 3.16315L311.703 3.42711L311.281 3.84947L310.964 4.11344L310.648 4.48299L310.331 4.74696L310.014 5.11652L309.697 5.38049L309.592 5.53887H309.486L309.381 5.75005H309.275L309.169 5.96122H309.064L308.958 6.1724H308.853L308.747 6.38357H308.641L308.536 6.59475H308.43L308.325 6.80592H308.219L308.113 7.0171H308.008L307.902 7.22828H307.797L307.691 7.43945H307.586L307.48 7.65063H307.374L307.269 7.8618L306.952 8.12577L306.635 8.49533L306.318 8.7593L306.002 9.12886L305.685 9.39283L305.368 9.76238L304.999 10.0791L304.735 10.3959L304.365 10.7127L304.101 11.0294L303.732 11.3462L303.468 11.663L303.045 12.0325L302.465 12.6133L302.201 12.93L301.831 13.2468L294.334 20.7435L294.07 20.6907L294.176 20.4268L311.44 3.16315L311.545 3.11035Z" fill="#10161C"/>
<path d="M323.583 20.4785H324.533L324.902 20.6369L325.061 20.9009V21.376L324.955 21.5344L325.008 21.7984L325.219 22.0623L325.377 22.4847L325.272 23.171L324.902 23.5934L324.586 23.7517H323.583L323.53 23.6989V21.8512L323.213 21.7984L323.16 21.6928L323.319 21.5344L323.477 21.4816L323.53 20.5313L323.583 20.4785ZM323.846 20.7425L323.794 20.8481V21.4816L323.899 21.5344H324.48L324.744 21.376L324.797 21.0065L324.586 20.7953L324.374 20.7425H323.846ZM323.846 21.7984L323.794 21.8512V23.2766L323.846 23.4878L324.058 23.5406L324.638 23.435L324.955 23.171L325.114 22.8014L325.061 22.3263L324.85 22.0095L324.427 21.7984H323.846Z" fill="#10161C"/>
<path d="M328.544 21.7461H329.125L329.547 21.9573L329.864 21.9045L329.916 22.1157V24.2274L329.652 24.7553L329.283 25.0193L329.125 25.0721H328.544L328.121 24.8609L328.016 24.7553V24.5442L328.28 24.597L328.649 24.7553H329.072L329.389 24.5442L329.547 24.2274L329.652 23.5939L329.177 23.8051H328.491L328.174 23.5939L327.91 23.2771L327.805 22.9604V22.5908L327.963 22.2212L328.28 21.8517L328.544 21.7461ZM328.597 22.0101L328.28 22.2212L328.121 22.4852L328.069 22.8548L328.227 23.2771L328.491 23.4883L328.597 23.5411H329.125L329.494 23.2771L329.6 23.0659V22.538L329.389 22.2212L329.177 22.0629L329.019 22.0101H328.597Z" fill="#10161C"/>
<path d="M326.223 21.7461H326.857L327.227 21.9045H327.543L327.596 21.9573L327.649 23.5939L327.491 23.6995L327.438 23.6467H327.174L326.857 23.8051H326.171L325.748 23.4883L325.484 22.9604V22.538L325.696 22.1684L326.118 21.7989L326.223 21.7461ZM326.329 22.0101L326.065 22.1684L325.854 22.3796L325.801 22.538V23.0131L326.012 23.3299L326.329 23.5411H326.804L327.227 23.2243L327.332 23.0131V22.5908L327.121 22.2212L326.699 22.0101H326.329Z" fill="#10161C"/>
<path d="M330.551 21.7461L330.921 21.7989L331.132 22.0101V22.1157H330.815L330.604 22.0629L330.446 22.1684L330.498 22.4324L330.974 22.6436L331.29 22.9604V23.3827L330.974 23.7523L330.868 23.8051H330.446L330.129 23.5411V23.3827L330.446 23.4355L330.498 23.4883H330.815L330.974 23.2243L330.868 22.9604L330.34 22.6964L330.129 22.4324V22.1157L330.287 21.8517L330.551 21.7461Z" fill="#10161C"/>
</svg>
