<svg width="147" height="147" viewBox="0 0 147 147" fill="none" xmlns="http://www.w3.org/2000/svg">
<path d="M20.7489 105.01C20.7992 104.86 36.1165 90.0449 36.9422 90.0449C37.5782 90.0449 43.6075 96.3937 47.1422 100.177C47.1858 100.224 47.2091 100.285 47.2071 100.349C47.205 100.413 47.1777 100.473 47.1313 100.517C47.0849 100.561 47.023 100.584 46.9593 100.582C46.8957 100.579 46.8355 100.552 46.792 100.506C43.3734 96.8489 37.7702 91.0094 36.9445 90.5422C35.7047 91.2674 21.9444 104.28 21.1772 105.217C21.0144 105.417 20.6582 105.286 20.7489 105.01Z" fill="#2D3E50"/>
<path d="M105.992 106.56C105.623 106.56 102.084 103.031 95.4745 96.0719C95.4348 96.0246 95.4153 95.9646 95.4183 95.9031C95.422 95.8424 95.4483 95.7846 95.4933 95.7419C95.5375 95.6999 95.5968 95.6766 95.6583 95.6759C95.719 95.6759 95.7783 95.6991 95.8233 95.7411C99.5215 99.6306 105.147 105.45 105.994 106.05C107.372 105.167 121.778 92.5041 121.894 92.4081C121.944 92.3736 122.006 92.3594 122.066 92.3684C122.126 92.3774 122.181 92.4089 122.218 92.4561C122.256 92.5034 122.275 92.5641 122.271 92.6241C122.266 92.6849 122.238 92.7419 122.194 92.7831C121.458 93.3914 106.635 106.56 105.992 106.56Z" fill="#2D3E50"/>
<path d="M122.751 95.0038C123.077 93.4378 123.401 91.7121 123.457 91.1526C122.897 91.2081 121.157 91.6116 119.593 92.0211C119.532 92.0353 119.467 92.0256 119.413 91.9933C119.359 91.9611 119.32 91.9093 119.305 91.8486C119.289 91.7878 119.297 91.7233 119.329 91.6686C119.359 91.6138 119.41 91.5741 119.471 91.5568C123.716 90.4438 123.812 90.6291 123.91 90.8263C123.952 90.9111 124.052 91.1098 123.222 95.1013C123.205 95.1591 123.166 95.2078 123.114 95.2386C123.062 95.2693 123.001 95.2798 122.942 95.2678C122.883 95.2551 122.83 95.2213 122.795 95.1726C122.76 95.1238 122.744 95.0638 122.751 95.0038Z" fill="#2D3E50"/>
<path d="M59.5965 76.0907C59.6093 75.1157 58.9163 69.1592 64.3635 69.1592C69.8108 69.1592 80.3461 69.2589 82.1671 69.4194C83.9881 69.5799 86.3746 70.5542 86.3746 74.6957C86.3746 78.8372 86.0536 111.089 86.0423 111.398C85.9703 111.866 85.7326 112.291 85.3733 112.598C85.0141 112.905 84.5566 113.072 84.0841 113.071C82.5991 113.071 81.4291 111.792 80.2681 109.292C79.1071 106.793 76.6868 103.288 74.7713 104.127C72.8558 104.966 74.7556 108.956 75.1553 110.059C75.5551 111.162 76.5758 113.818 76.4431 116.209L65.5815 116.081C65.5815 116.081 67.9733 114.686 68.0063 108.686C68.034 103.667 71.0303 98.5292 69.4013 97.1597C66.6263 94.8242 63.3008 103.592 61.2855 105.586C60.2528 106.607 59.5965 106.004 59.5965 106.004V76.0907Z" fill="#FFFBFA"/>
<path d="M65.4937 82.5835H63.8347C63.5636 82.5835 63.3036 82.6915 63.1119 82.8828C62.9202 83.0748 62.8125 83.3342 62.8125 83.6057V103.481C63.2753 101.987 66.54 97.8947 66.54 97.8947V83.6005C66.533 83.3283 66.4195 83.0687 66.224 82.879C66.0285 82.6885 65.7664 82.5828 65.4937 82.5835Z" fill="#FFD0C4"/>
<path d="M70.9485 86.7856H69.2918C69.1575 86.7856 69.0246 86.8119 68.9006 86.8629C68.7766 86.9147 68.6639 86.9897 68.5689 87.0849C68.4741 87.1794 68.3987 87.2919 68.3473 87.4164C68.2959 87.5402 68.2695 87.6729 68.2695 87.8072V114.665L71.9955 114.632V87.8049C71.9892 87.5319 71.876 87.2717 71.6802 87.0812C71.4845 86.8907 71.2218 86.7849 70.9485 86.7856Z" fill="#FFD0C4"/>
<path d="M76.3501 84.8374H74.6934C74.4226 84.8374 74.1624 84.9447 73.9711 85.1367C73.7799 85.3279 73.6719 85.5882 73.6719 85.8589V114.741L77.3979 114.708V85.8574C77.3911 85.5844 77.2779 85.3242 77.0821 85.1337C76.8864 84.9432 76.6239 84.8367 76.3501 84.8374Z" fill="#FFD0C4"/>
<path d="M83.0798 81.8892C83.0738 81.6154 82.9598 81.3552 82.7633 81.1647C82.5668 80.9734 82.3036 80.8677 82.0298 80.8692H80.3738C80.2396 80.8692 80.1068 80.8954 79.9823 80.9464C79.8586 80.9982 79.7461 81.0732 79.6508 81.1684C79.5563 81.2629 79.4806 81.3754 79.4296 81.4999C79.3778 81.6237 79.3516 81.7564 79.3516 81.8907V107.706C80.2448 109.664 81.5101 111.428 83.0776 112.902L83.0798 81.8892Z" fill="#FFD0C4"/>
<path d="M68.9996 116.143C67.8891 118.252 66.089 119.917 63.8996 120.859C63.8996 120.859 55.8611 116.153 51.7129 114.979C51.7129 114.979 50.3426 102.707 52.6234 97.0168C54.0484 93.4558 59.5324 87.395 59.5324 87.395V105.9C59.5324 105.9 60.0394 106.8 61.2814 105.59C62.9036 104.007 66.4909 95.4868 68.9981 96.998C71.4079 98.45 68.5481 102.064 68.2789 106.365C68.1206 108.867 68.2789 113.565 65.5789 116.086L68.9996 116.143Z" fill="#FFD0C4"/>
<path d="M76.4399 116.209H72.5234C72.9367 118.569 73.8517 120.812 75.2054 122.788C76.5599 124.764 78.3217 126.426 80.3729 127.663C80.3729 127.663 89.7622 120.843 92.5079 119.359C92.5079 119.359 93.3494 111.343 90.5579 104.29C89.3647 101.275 86.1952 98.3008 86.1952 98.3008L85.9702 112.008C85.7272 112.316 85.4219 112.57 85.0754 112.754C84.7282 112.939 84.3464 113.048 83.9549 113.076C81.9847 113.076 80.9437 110.569 79.5299 107.867C78.1162 105.166 75.9659 103.507 74.7697 104.128C71.8672 105.631 76.6942 110.657 76.4399 116.209Z" fill="#FFD0C4"/>
<path d="M78.5781 129.479C78.5781 129.479 81.2571 125.98 93.6134 118.883C93.6134 118.883 97.4669 121.458 106.958 132.9C106.958 132.9 100.456 145.223 87.4934 146.095C87.4934 146.095 80.3609 135.79 78.5781 129.479Z" fill="#FFFBFA"/>
<path d="M48.8167 114.067C54.5556 115.76 59.9893 118.353 64.9147 121.751C64.9147 121.751 64.9147 125.393 60.5084 140.019C60.5084 140.019 45.9487 140.406 39.3164 132.734C39.3164 132.734 43.8232 121.407 48.8167 114.067Z" fill="#FFFBFA"/>
<path d="M107.1 132.792C107.025 132.657 95.3299 118.887 93.5997 118.749C93.2817 118.81 92.9772 118.926 92.6997 119.091C93.4144 115.786 92.3292 107.138 90.5172 103.701C89.5377 101.844 88.5462 100.71 86.4537 97.9526C86.5654 88.0924 86.7049 75.0986 86.6697 74.2969C86.5947 72.8471 86.0284 69.4354 82.2724 69.1714C78.5569 68.9231 65.7723 68.9066 64.4223 68.9711C60.2576 69.1549 59.4168 71.7581 59.4326 75.6101C59.4416 77.5061 59.4176 82.1501 59.3831 87.2486C58.8528 87.8486 53.2706 94.1644 52.4126 96.9731C50.3306 103.785 51.2449 110.297 51.4114 114.598C49.2042 113.822 48.8043 113.91 48.6918 114.005C46.5168 115.831 39.2268 132.196 39.1548 132.68C39.1448 132.759 39.1652 132.84 39.2118 132.905C44.6868 140.012 60.1488 140.544 60.6251 140.238C60.7848 140.136 65.6456 123.039 65.1191 121.684C64.9059 121.369 64.6238 121.106 64.2941 120.916C66.3263 119.882 68.0353 118.31 69.2344 116.37L72.3679 116.407C72.3582 116.442 73.4179 123.77 80.0434 127.747C79.4067 128.189 78.8442 128.728 78.3754 129.345C77.9254 130.628 85.4374 143.718 86.9802 145.741C87.1347 145.944 87.3792 146.275 87.6072 146.253C100.35 145.353 106.866 133.528 106.932 133.409C107.142 133.018 107.17 132.915 107.1 132.792ZM64.4463 69.4496C65.7918 69.3851 78.5411 69.4009 82.2416 69.6491C85.6129 69.8816 86.1251 72.9889 86.1897 74.3186C86.2459 75.5756 85.8514 108.643 85.8454 108.988C85.8056 111.23 86.0404 112.371 84.2877 112.714C84.2877 112.714 84.6949 112.42 84.7564 110.526C84.9747 103.725 85.2604 76.7756 85.2927 75.4879C85.4127 70.9631 82.4254 70.5949 82.0812 70.5626C81.3447 70.5064 79.3122 70.4261 78.7174 70.4824C78.2127 70.5304 77.4042 71.9111 77.1424 71.9396C76.5424 72.0064 69.9423 71.9321 69.3093 71.8759C69.0251 71.8924 68.4491 70.4861 67.4516 70.3759C66.5627 70.2856 65.6679 70.2695 64.7763 70.3279C60.8126 70.4479 60.8448 73.9001 60.8606 75.5659C60.8606 75.5659 60.5718 105.742 60.5801 105.766C60.4664 105.871 60.3202 105.934 60.1656 105.945C60.0111 105.956 59.8576 105.914 59.7303 105.825C59.6471 105.794 59.9636 85.4329 59.9156 75.6004C59.8968 71.2136 61.0826 69.6034 64.4463 69.4496ZM66.0828 115.851C66.3671 115.529 66.6256 115.185 66.8561 114.822C66.8733 114.827 75.9739 114.958 76.1487 114.954C76.1666 115.254 76.1982 115.935 76.1996 115.968C74.9299 115.954 68.0778 115.87 66.0828 115.853V115.851ZM67.1276 114.367C68.9163 111.081 67.6406 108.555 69.1953 102.918C69.7953 100.743 70.6203 98.7611 69.9558 97.5514C69.8091 97.2904 69.6043 97.0669 69.3572 96.8974C69.1101 96.7286 68.8273 96.6184 68.5308 96.5764C66.8418 96.2846 64.9308 99.3229 63.1488 102.382C62.8203 102.943 61.8371 104.965 61.0488 105.426L61.3376 75.5614C61.3211 73.9436 61.2888 70.9166 64.7876 70.8124C65.6601 70.7434 66.5373 70.7596 67.4066 70.8604C68.1896 70.9639 68.6321 72.3364 69.2643 72.3604C69.8433 72.3799 76.6039 72.4609 77.2332 72.4159C77.7656 72.3784 78.5614 70.9856 78.7707 70.9586C79.8604 70.9253 80.9517 70.9549 82.0384 71.0471C82.5184 71.0869 84.9132 71.4874 84.8089 75.4834C84.7774 76.7726 84.5209 103.722 84.2727 110.508C84.2322 111.613 84.2787 112.361 83.5017 112.809C82.3504 112.61 81.7901 111.365 80.6689 109.451C80.3486 108.906 77.3104 102.685 74.6944 103.925C71.9763 105.214 75.2757 110.595 75.5112 111.621C75.7797 112.56 75.9799 113.516 76.1112 114.483C75.0889 114.501 70.4163 114.43 67.1246 114.369L67.1276 114.367ZM60.2862 139.833C58.9309 139.845 45.7563 139.647 39.6491 132.669C39.9108 131.745 42.5516 125.967 44.9876 121.147C46.0638 121.876 54.4376 127.41 63.2186 129.309C62.0666 133.816 60.6229 138.871 60.2862 139.836V139.833ZM64.6998 121.908C64.8881 122.34 64.2146 125.376 63.3378 128.838C54.4541 126.923 45.9716 121.233 45.2066 120.711C46.8491 117.486 48.3618 114.774 48.9356 114.407C49.9286 114.108 63.7421 120.232 64.6998 121.914V121.908ZM63.8373 120.59C60.0263 118.325 56.0332 116.381 51.8996 114.779C51.7496 110.448 50.7843 103.94 52.8746 97.1141C53.5961 94.7501 57.9498 89.5511 59.3133 87.9836V105.492C59.0138 105.133 58.7847 104.721 58.6383 104.278C58.6249 104.216 58.5873 104.161 58.5338 104.127C58.4803 104.092 58.4153 104.081 58.3529 104.094C58.2907 104.107 58.2363 104.145 58.2018 104.199C58.1672 104.252 58.1554 104.317 58.1688 104.379C58.1823 104.442 58.6766 106.377 60.2156 106.38C60.9888 106.38 61.7906 105.57 62.6156 104.225C62.9201 103.728 66.5576 96.7249 68.4303 97.0414C68.66 97.0699 68.8797 97.1524 69.0717 97.2821C69.2636 97.4111 69.4223 97.5836 69.5351 97.7861C70.1036 98.8031 69.3161 100.687 68.7423 102.759C68.2538 104.629 67.9455 106.542 67.8213 108.47C67.7171 111.705 67.6211 114.765 63.4646 117.447C63.4167 117.485 63.3846 117.539 63.3747 117.598C63.3649 117.658 63.378 117.72 63.4115 117.77C63.4449 117.821 63.4963 117.857 63.5552 117.871C63.6141 117.886 63.6764 117.877 63.7293 117.848C64.4168 117.409 65.0567 116.901 65.6388 116.33C65.9726 116.33 67.1793 116.343 68.6741 116.361C67.4793 118.188 65.8064 119.653 63.8373 120.596V120.59ZM72.8209 116.403L76.2229 116.445C76.1899 119.1 77.1056 121.68 78.8059 123.72C78.8464 123.768 78.9042 123.799 78.9672 123.805C79.0302 123.811 79.0932 123.792 79.1419 123.752C79.1907 123.711 79.2214 123.654 79.2274 123.591C79.2334 123.528 79.2147 123.465 79.1742 123.416C75.5817 119.039 77.4574 115.935 75.9627 111.435C75.5209 110.105 72.8209 105.292 74.9217 104.339C77.0082 103.392 79.9347 109.144 80.2549 109.681C81.1684 111.243 81.8479 112.542 82.7539 112.996C84.6454 113.945 87.3522 112.267 87.5284 110.055C87.5314 109.993 87.5104 109.932 87.4707 109.886C87.4302 109.839 87.3732 109.809 87.3117 109.803C87.2502 109.797 87.1886 109.815 87.1399 109.852C87.0911 109.89 87.0589 109.946 87.0499 110.007C86.9577 110.654 86.6757 111.259 86.2399 111.747C86.3442 108.716 86.3149 110.247 86.4454 98.7259C87.3259 99.8846 89.6997 102.756 90.2974 104.287C92.1177 109.084 92.7754 114.243 92.2167 119.343C88.1382 121.797 84.2096 124.492 80.4514 127.413C80.0711 127.224 74.4829 124.244 72.8246 116.409L72.8209 116.403ZM93.5524 119.222C94.1112 119.275 96.4512 121.622 99.0049 124.363C94.6699 129.978 88.8379 134.254 82.1794 136.7C80.3149 133.204 78.7294 129.936 78.8314 129.495C79.1749 128.52 92.3929 119.304 93.5524 119.228V119.222ZM87.6349 145.76C86.9884 145.276 84.5554 141.124 82.4096 137.13C89.0974 134.652 94.9602 130.356 99.3364 124.725C102.584 128.23 106.066 132.243 106.628 132.954C106.05 134.366 99.2194 144.915 87.6349 145.766V145.76Z" fill="#2D3E50"/>
<path d="M70.7085 83.4438C70.449 83.4438 69.9765 83.0328 63.5992 78.172C63.5528 78.1323 63.5233 78.076 63.517 78.0145C63.5105 77.9538 63.5277 77.8923 63.5648 77.8435C63.6019 77.7948 63.6562 77.7625 63.7168 77.752C63.7772 77.7423 63.8393 77.7558 63.8902 77.7895C66.3652 79.6765 70.053 82.4725 70.704 82.9323C71.304 82.582 73.4573 81.4615 81.4493 77.3328C81.5056 77.3065 81.5693 77.3035 81.6286 77.3238C81.6871 77.344 81.7358 77.386 81.7636 77.4408C81.7921 77.4963 81.7981 77.56 81.7808 77.6193C81.7636 77.6793 81.7238 77.7295 81.6698 77.7603C78.7643 79.261 70.9695 83.4438 70.7085 83.4438Z" fill="#2D3E50"/>
<path d="M82.4033 131.671C82.7423 131.671 83.0176 131.396 83.0176 131.057C83.0176 130.718 82.7423 130.442 82.4033 130.442C82.0643 130.442 81.7891 130.718 81.7891 131.057C81.7891 131.396 82.0643 131.671 82.4033 131.671Z" fill="#2D3E50"/>
<path d="M61.4502 124.726C61.7894 124.726 62.0644 124.451 62.0644 124.112C62.0644 123.773 61.7894 123.498 61.4502 123.498C61.1109 123.498 60.8359 123.773 60.8359 124.112C60.8359 124.451 61.1109 124.726 61.4502 124.726Z" fill="#2D3E50"/>
<path d="M74.9608 59.8703C88.4765 59.8703 99.4333 48.8854 99.4333 35.3348C99.4333 21.7843 88.4765 10.7993 74.9608 10.7993C61.445 10.7993 50.4883 21.7843 50.4883 35.3348C50.4883 48.8854 61.445 59.8703 74.9608 59.8703Z" fill="#FFFBFA"/>
<path d="M74.6823 56.3724C86.2668 56.3724 95.6575 46.9815 95.6575 35.3971C95.6575 23.8128 86.2668 14.4219 74.6823 14.4219C63.098 14.4219 53.707 23.8128 53.707 35.3971C53.707 46.9815 63.098 56.3724 74.6823 56.3724Z" fill="#00A492"/>
<path d="M78.3974 34.1497C79.6357 33.3756 80.6557 32.2989 81.3622 31.0209C82.0679 29.7431 82.4369 28.3063 82.4339 26.8462C82.2734 22.6177 76.6274 21.0877 76.6274 21.0877V17.7322L74.0729 17.6685V20.7832L72.3269 20.7435L72.2872 17.7H69.9562C69.8999 17.7 69.7499 20.6392 69.7499 20.6392L65.6729 20.8072L65.7052 24.0187L68.4052 24.1552L68.6129 46.107L65.5859 46.227V49.5427L70.1024 49.6387L70.1512 52.5135H72.6817L72.7454 49.755H74.3474V52.6417H76.5817L76.6777 49.4302C76.6777 49.4302 85.6957 47.7562 85.8877 41.7262C86.1179 34.425 78.3974 34.1497 78.3974 34.1497ZM72.2549 24.3712C72.2549 24.3712 78.2054 23.7547 78.2054 28.0552C78.2054 31.347 72.2549 32.2275 72.2549 32.2275V24.3712ZM72.2549 45.8212V37.0567C72.2549 37.0567 80.7299 36.192 80.8709 40.965C81.0082 45.3457 72.2564 45.8205 72.2564 45.8205L72.2549 45.8212Z" fill="#FFFBFA"/>
<path d="M74.2211 52.8554C74.0216 52.8201 74.0606 51.7229 74.0786 49.9514C73.8003 49.9409 73.2761 49.9476 72.9956 49.9596C72.9408 51.6224 73.1403 52.7511 72.7766 52.7519C71.8767 52.778 70.9761 52.7462 70.0803 52.6566C69.8381 52.5426 69.9468 52.4819 69.8703 49.8974C68.411 49.9263 66.9513 49.8622 65.5001 49.7054C65.2473 49.5096 65.3066 46.8959 65.3073 46.8696C65.3328 46.2546 65.3928 46.1144 65.5173 46.0326C65.6418 45.9509 68.1543 45.9299 68.4101 45.9104C68.4138 44.4719 68.2766 31.5284 68.1956 24.3959C65.6996 24.3209 65.6613 24.3081 65.5533 24.0914C65.3625 22.9983 65.3342 21.883 65.4693 20.7816C65.5293 20.6166 65.6156 20.3661 69.6033 20.4021C69.6978 17.5754 69.6956 17.5521 69.8756 17.5049C70.6797 17.3721 71.4983 17.3522 72.3078 17.4456C72.6348 17.4794 72.5223 17.6271 72.5223 20.5206C72.8516 20.5424 73.5281 20.5679 73.8723 20.5746C73.8723 20.3414 73.8723 19.9394 73.8678 19.5996C73.8476 17.5476 73.8528 17.5079 74.1153 17.4666C74.9493 17.3336 75.8013 17.3573 76.6263 17.5364C76.8326 17.5964 76.9368 17.6271 76.8513 20.9054C77.8331 21.2054 82.3653 22.7946 82.6376 26.8079C82.7073 28.2337 82.4043 29.6531 81.7593 30.9265C81.1143 32.2 80.1491 33.2836 78.9581 34.0709C79.7141 34.1676 86.2646 34.8434 86.1716 41.4584C86.0831 47.7096 77.7281 49.5209 76.9128 49.6454C76.9031 52.1616 77.0148 52.6686 76.7628 52.8171C76.3563 53.0504 74.4678 52.8989 74.2211 52.8554ZM74.5818 52.3709C75.1871 52.4395 75.7991 52.4342 76.4028 52.3551C76.4531 49.4511 76.3751 49.3124 76.5918 49.2254C76.6158 49.2156 85.6923 47.5004 85.6908 41.4449C85.6908 34.7699 78.5343 34.4886 78.2253 34.4796C78.1736 34.4766 78.1241 34.4568 78.0843 34.4233C78.0446 34.3898 78.0168 34.3442 78.0048 34.2936C77.9928 34.243 77.9981 34.1899 78.0191 34.1423C78.0401 34.0947 78.0761 34.0552 78.1211 34.0296C78.1653 34.0071 82.4883 31.6881 82.1591 26.8371C81.8786 22.7061 76.6008 21.3276 76.5476 21.3141C76.4951 21.3006 76.4478 21.2696 76.4148 21.2261C76.3818 21.1827 76.3646 21.1294 76.3661 21.0749C76.3998 19.7961 76.4058 18.3786 76.3661 17.9646C75.7023 17.8471 75.0251 17.8299 74.3561 17.9136C74.3358 18.2376 74.3471 20.8319 74.2991 20.9429C74.2091 21.1499 72.1916 21.1334 72.1241 20.9069C72.0896 20.7899 72.0708 18.2421 72.0663 17.9114C71.4408 17.8519 70.8104 17.8643 70.1876 17.9481C70.1583 18.4281 70.1081 19.7804 70.0788 20.6556C70.0765 20.7178 70.0503 20.7766 70.0055 20.8198C69.9608 20.863 69.9011 20.8872 69.8388 20.8874C68.5275 20.8572 67.2156 20.903 65.9097 21.0246C65.8375 21.9545 65.8556 22.889 65.9636 23.8154C66.2966 23.8514 67.4231 23.8979 68.4431 23.9249C68.5052 23.9268 68.5641 23.9526 68.6075 23.9969C68.651 24.0412 68.6757 24.1006 68.6763 24.1626C68.9231 46.0026 68.9156 46.2329 68.8361 46.3026C68.6523 46.4639 68.7364 46.4189 65.8264 46.4414C65.7634 47.3952 65.7724 48.3524 65.8533 49.3049C66.5816 49.3649 69.6783 49.4234 70.0263 49.4309C70.4763 49.4399 70.4418 49.3559 70.3946 52.2441C71.0826 52.3039 71.7734 52.3277 72.4638 52.3154C72.4833 50.3961 72.2973 49.5599 72.7136 49.5359C72.7226 49.5359 73.8131 49.5456 74.2758 49.5441C74.6883 49.5404 74.5833 49.7354 74.5818 52.3709Z" fill="#2D3E50"/>
<path d="M72.5122 46.0543C72.1155 46.0543 72.0833 45.9635 72.0623 45.9043C72.0413 45.845 72.033 45.8135 72 37.0543C72 36.9931 72.0232 36.9341 72.0645 36.8894C72.1065 36.8447 72.1643 36.8175 72.225 36.8135C72.45 36.797 80.9438 36.0823 81.15 40.8635C81.3473 45.5735 72.8565 46.0543 72.5122 46.0543ZM72.48 37.2763C72.4882 39.5315 72.5092 44.4575 72.5227 45.578C75.5707 45.3928 80.814 44.0315 80.664 40.8763C80.4735 36.8908 73.5075 37.2328 72.4807 37.2748L72.48 37.2763Z" fill="#2D3E50"/>
<path d="M72.2943 32.4298C72.2613 32.4343 72.2275 32.4316 72.1953 32.422C72.163 32.4124 72.133 32.396 72.1075 32.374C72.0828 32.352 72.0625 32.3249 72.0483 32.2944C72.034 32.2639 72.0265 32.2308 72.0265 32.1973C72.0265 32.108 71.9688 24.4085 71.9688 24.4085C71.9681 24.3471 71.991 24.2877 72.0333 24.2428C72.0745 24.1978 72.1323 24.1707 72.1938 24.167C72.2538 24.161 78.3775 23.7763 78.5095 27.6335C78.6438 31.6265 72.9048 32.4298 72.2943 32.4298ZM72.4773 24.6373V31.9363C73.2738 31.814 78.1683 30.9733 78.0273 27.6815C77.902 24.6898 73.5205 24.608 72.4773 24.6373Z" fill="#2D3E50"/>
<path d="M99.6872 35.3549C99.6864 29.7984 97.8159 24.4037 94.3772 20.0393C90.9384 15.6749 86.1309 12.5947 80.7287 11.2945C75.3257 9.99432 69.6435 10.5499 64.5952 12.8718C59.547 15.1936 55.4271 19.1466 52.8984 24.0944C51.1917 27.5641 50.2638 31.3647 50.1797 35.2304V35.2409C50.4639 53.7584 67.1057 61.6199 77.8097 59.9361C77.8097 59.9361 77.8149 59.9422 77.8397 59.9361C89.6244 58.7189 99.6872 48.3404 99.6872 35.3549ZM89.0372 51.0614L91.2227 53.3361C87.5559 56.6665 82.9554 58.7912 78.0422 59.4231L77.8037 56.4321C82.0014 55.809 85.9149 53.9376 89.0357 51.0614H89.0372ZM74.6897 56.1824C70.5881 56.1826 66.5787 54.9664 63.1683 52.6879C59.7579 50.4092 57.0998 47.1705 55.5301 43.3812C53.9604 39.5919 53.5497 35.4222 54.3498 31.3994C55.15 27.3766 57.1251 23.6815 60.0253 20.7813C62.9256 17.881 66.6207 15.906 70.6434 15.1059C74.6664 14.3057 78.8357 14.7165 82.6254 16.2861C86.4144 17.8557 89.6529 20.5138 91.9322 23.9242C94.2107 27.3346 95.4264 31.3441 95.4264 35.4457C95.4204 40.9435 93.2334 46.2142 89.3454 50.1018C85.4582 53.9892 80.1872 56.176 74.6897 56.1824ZM68.0994 55.6102L67.1807 58.3499C66.6219 58.1609 66.0692 57.9584 65.5307 57.7304L66.7637 55.1181C67.2042 55.2972 67.6494 55.4612 68.0994 55.6102ZM53.9627 47.5581L56.3717 46.1331C56.6347 46.5831 56.9132 47.0224 57.2072 47.4509L54.9422 49.1009C54.5957 48.601 54.2691 48.0867 53.9627 47.5581ZM50.6619 35.4899L53.4759 35.5851C53.4959 39.1297 54.4093 42.6121 56.1317 45.7101L53.7219 47.1351C51.7339 43.5744 50.6811 39.5679 50.6619 35.4899ZM53.2322 24.4964L55.7874 25.8277C54.3183 28.7025 53.5293 31.8763 53.4812 35.1044L50.6672 35.0099C50.7147 31.3563 51.5918 27.7614 53.2322 24.4964ZM54.4187 22.4009L56.8862 23.9264C56.5749 24.4049 56.2787 24.8954 56.0064 25.4002L53.4519 24.0689C53.7519 23.4989 54.0741 22.9429 54.4187 22.4009ZM72.0392 14.3999L71.7467 11.2971C72.2634 11.2291 72.7854 11.1771 73.3112 11.1411L73.4559 14.2672C72.9789 14.2942 72.5072 14.3407 72.0392 14.3999ZM92.3462 18.4694C92.6462 18.7804 92.9394 19.0996 93.2267 19.4272L90.7614 21.6179C90.4907 21.3034 90.2117 20.9974 89.9237 20.6999L92.3462 18.4694ZM97.1709 25.6394L94.1597 27.0247C93.3714 25.2084 92.3334 23.5112 91.0749 21.9824L93.5409 19.7901C95.0222 21.5577 96.2439 23.527 97.1709 25.6387V25.6394ZM95.5959 39.0261L98.8074 39.7011C98.7062 40.2584 98.5914 40.8111 98.4527 41.3511L95.2929 40.4999C95.4137 40.0154 95.5157 39.5239 95.5982 39.0254L95.5959 39.0261ZM98.8959 39.2294C98.8959 39.2294 95.6904 38.5761 95.6754 38.5761C96.2889 34.8221 95.8277 30.9712 94.3457 27.4679L97.3629 26.0804C99.0864 30.2355 99.6167 34.7888 98.8944 39.2286L98.8959 39.2294ZM92.0124 18.1252L89.5884 20.3564C87.5409 18.3154 85.0937 16.7194 82.3997 15.6686C79.7064 14.6178 76.8249 14.1348 73.9359 14.2499L73.7904 11.1127C80.7917 10.6004 87.6219 13.7729 92.0109 18.1244L92.0124 18.1252ZM71.2697 11.3571L71.5622 14.4607C68.6647 14.8957 65.8886 15.9253 63.4083 17.4848C60.9279 19.0444 58.797 21.1002 57.1494 23.5229L54.6789 21.9959C56.5485 19.1627 58.9905 16.7524 61.848 14.9201C64.7054 13.0878 67.9149 11.8741 71.2697 11.3571ZM55.2197 49.4939L57.4847 47.8401C59.7354 50.9588 62.7873 53.4111 66.3174 54.9374L65.0904 57.5361C61.147 55.7756 57.7412 53.0004 55.2204 49.4939H55.2197ZM67.6352 58.5067L68.5599 55.7564C71.3974 56.6169 74.3844 56.8678 77.3259 56.4929L77.5644 59.4839C74.2224 59.8513 70.8411 59.5185 67.6352 58.5067ZM91.5744 53.0054L89.3874 50.7291C92.1677 48.0607 94.1687 44.6862 95.1774 40.9671L98.3274 41.8176C97.1402 46.0935 94.8047 49.9627 91.5744 53.0054Z" fill="#2D3E50"/>
<path d="M110.566 85.1473C117.579 85.1473 123.265 79.436 123.265 72.3913C123.265 65.3464 117.579 59.6353 110.566 59.6353C103.553 59.6353 97.8672 65.3464 97.8672 72.3913C97.8672 79.436 103.553 85.1473 110.566 85.1473Z" fill="#FFFBFA"/>
<path d="M110.514 83.3101C116.491 83.3101 121.336 78.4456 121.336 72.4448C121.336 66.4442 116.491 61.5796 110.514 61.5796C104.536 61.5796 99.6914 66.4442 99.6914 72.4448C99.6914 78.4456 104.536 83.3101 110.514 83.3101Z" fill="#00A492"/>
<path d="M106.801 72.7971C106.801 72.7971 110.326 64.9911 110.516 64.9746C110.705 64.9581 114.109 72.7971 114.109 72.7971C114.109 72.7971 110.701 78.5489 110.481 78.5931C110.261 78.6374 106.801 72.7971 106.801 72.7971Z" fill="#FFFBFA"/>
<path d="M114.246 72.627C114.205 72.516 111.021 64.623 110.522 64.623C110.222 64.623 108.399 68.7188 106.693 72.5625C106.632 72.684 106.62 72.8247 106.66 72.9548C108.945 76.833 110.335 78.7583 110.394 78.8138C110.411 78.8288 110.431 78.84 110.453 78.8468C110.476 78.8535 110.499 78.8558 110.521 78.8528C110.544 78.8498 110.566 78.8415 110.586 78.8295C110.605 78.8175 110.622 78.8018 110.635 78.7823C110.662 78.7343 114.134 73.419 114.271 72.8633C114.288 72.7839 114.279 72.7011 114.246 72.627ZM110.522 65.2635C111.139 66.4485 113.814 72.5273 113.846 72.639C113.677 72.7515 110.835 74.5538 110.546 74.7218C110.218 74.5718 107.303 72.8393 107.119 72.7193C107.167 72.615 110.002 66.2723 110.522 65.2635ZM110.498 78.2535C110.017 77.541 108.536 75.2423 107.311 73.344C107.311 73.344 110.399 75.177 110.57 75.1703C111.631 74.646 112.645 74.0352 113.605 73.344C112.727 74.7855 110.947 77.577 110.498 78.2535Z" fill="#2D3E50"/>
<path d="M117.09 61.2441C115.89 60.4686 110.99 58.2516 106.065 60.3074C103.99 61.1729 97.6499 64.1429 97.6492 72.4004C97.6312 74.1022 97.9529 75.7904 98.5957 77.3661C99.2384 78.9426 100.189 80.3736 101.393 81.5774C102.596 82.7811 104.028 83.7321 105.604 84.3749C107.18 85.0176 108.868 85.3394 110.57 85.3206C117.115 85.2524 120.256 81.2346 121.745 78.9524C123.103 76.8749 126.46 67.3026 117.09 61.2441ZM121.787 66.9509L120.487 67.6004C119.566 65.7164 118.132 64.1306 116.35 63.0254L117.061 61.7436C119.101 62.9925 120.742 64.7995 121.787 66.9509ZM121.177 72.4476C121.177 74.554 120.553 76.6131 119.383 78.3644C118.213 80.1156 116.549 81.4806 114.603 82.2869C112.657 83.0931 110.515 83.3039 108.45 82.8929C106.384 82.4819 104.486 81.4679 102.997 79.9784C101.507 78.4889 100.493 76.5914 100.082 74.5253C99.6712 72.4595 99.8819 70.3181 100.688 68.372C101.494 66.426 102.859 64.7627 104.611 63.5924C106.362 62.4222 108.421 61.7976 110.527 61.7976C113.352 61.8002 116.059 62.9234 118.056 64.9206C120.053 66.9178 121.175 69.6257 121.177 72.4499V72.4476ZM115.911 61.1226C116.172 61.2466 116.429 61.3793 116.682 61.5209L115.973 62.7959C115.771 62.6811 115.563 62.5784 115.354 62.4764L115.911 61.1226ZM115.51 60.9396L114.957 62.2896C112.765 61.3431 110.327 61.1231 108.001 61.6619L107.639 60.2826C110.569 59.3616 113.959 60.2729 115.51 60.9419V60.9396ZM107.212 60.3899L107.574 61.7699C107.374 61.8254 107.176 61.8846 106.981 61.9506L106.469 60.6246C106.714 60.5414 106.961 60.4626 107.212 60.3921V60.3899ZM106.055 60.7761L106.566 62.1021C105.006 62.7035 103.601 63.6489 102.457 64.8681L101.412 63.9486C102.699 62.5532 104.287 61.469 106.055 60.7784V60.7761ZM101.116 64.2749L102.161 65.1936C101.111 66.4016 100.336 67.8227 99.8879 69.3591L98.5634 69.0336C99.0562 67.2799 99.9269 65.6555 101.116 64.2749ZM98.4539 69.4596L99.7784 69.7851C99.7312 69.9741 99.6831 70.1601 99.6464 70.3529L98.2964 70.1864C98.3422 69.9434 98.3954 69.7019 98.4539 69.4619V69.4596ZM98.2289 70.6221L99.5789 70.7886C99.2647 72.7652 99.5047 74.79 100.271 76.6386L99.0412 77.1636C98.1764 75.0996 97.8959 72.8372 98.2312 70.6244L98.2289 70.6221ZM99.2234 77.5694L100.45 77.0444C100.545 77.2514 100.639 77.4584 100.747 77.6579L99.5924 78.3366C99.4597 78.0891 99.3434 77.8296 99.2257 77.5716L99.2234 77.5694ZM104.793 83.4516C102.727 82.3649 101.005 80.7231 99.8212 78.7116L100.969 78.0366C102.05 79.8786 103.639 81.3704 105.544 82.3356L104.793 83.4516ZM105.193 83.6451L105.943 82.5291C108.402 83.6579 111.19 83.8424 113.776 83.0459L114.175 84.3419C111.201 85.2486 107.995 85.0004 105.196 83.6474L105.193 83.6451ZM114.592 84.2001L114.192 82.8981C114.372 82.8344 114.553 82.7736 114.73 82.7009L115.297 83.9414C115.069 84.0381 114.832 84.1206 114.595 84.2024L114.592 84.2001ZM115.699 83.7614L115.131 82.5201C117.124 81.6036 118.804 80.1186 119.956 78.2511L121.231 78.8511C119.924 81.0074 117.997 82.7196 115.702 83.7636L115.699 83.7614ZM121.458 78.4746L120.187 77.8746C120.779 76.8246 121.195 75.6846 121.417 74.4996L122.835 74.6391C122.592 75.9854 122.128 77.2821 121.46 78.4769L121.458 78.4746ZM122.902 74.1996L121.484 74.0601C121.516 73.8456 121.548 73.6319 121.567 73.4136L122.992 73.4421C122.968 73.7016 122.941 73.9544 122.904 74.2049L122.902 74.1996ZM123.02 72.9996L121.589 72.9711C121.686 71.2613 121.373 69.5532 120.676 67.9889L121.967 67.3446C122.767 69.1209 123.128 71.0629 123.022 73.0079L123.02 72.9996Z" fill="#2D3E50"/>
<path d="M116.043 49.5483C120.53 49.5483 124.167 45.9108 124.167 41.4236C124.167 36.9364 120.53 33.2988 116.043 33.2988C111.555 33.2988 107.918 36.9364 107.918 41.4236C107.918 45.9108 111.555 49.5483 116.043 49.5483Z" fill="#FFFBFA"/>
<path d="M116.058 47.7684C119.571 47.7684 122.42 44.9199 122.42 41.4062C122.42 37.8924 119.571 35.0439 116.058 35.0439C112.544 35.0439 109.695 37.8924 109.695 41.4062C109.695 44.9199 112.544 47.7684 116.058 47.7684Z" fill="#00A492"/>
<path d="M116.048 49.7696C114.397 49.7696 112.784 49.2802 111.412 48.3632C110.039 47.4464 108.97 46.1432 108.338 44.6183C107.707 43.0936 107.541 41.4158 107.864 39.7971C108.185 38.1785 108.98 36.6916 110.147 35.5246C111.314 34.3576 112.801 33.5629 114.419 33.2409C116.039 32.9189 117.716 33.0842 119.241 33.7157C120.766 34.3473 122.069 35.4169 122.986 36.7891C123.902 38.1614 124.392 39.7747 124.392 41.4251C124.39 43.6374 123.51 45.7585 121.946 47.3229C120.381 48.8873 118.26 49.7672 116.048 49.7696ZM116.048 33.5613C114.492 33.5613 112.972 34.0226 111.678 34.8868C110.385 35.7509 109.377 36.9793 108.782 38.4164C108.186 39.8534 108.031 41.4348 108.334 42.9604C108.638 44.486 109.387 45.8873 110.487 46.9871C111.587 48.0869 112.988 48.836 114.514 49.1393C116.039 49.4426 117.62 49.2868 119.057 48.6914C120.494 48.0961 121.723 47.0879 122.587 45.7946C123.451 44.5011 123.912 42.9806 123.912 41.4251C123.909 39.3403 123.08 37.3417 121.605 35.8676C120.131 34.3934 118.133 33.5641 116.048 33.5613Z" fill="#2D3E50"/>
<path d="M116.049 48.0286C114.743 48.0286 113.468 47.6416 112.382 46.9163C111.297 46.1911 110.451 45.1603 109.952 43.9543C109.452 42.7483 109.322 41.4213 109.576 40.141C109.831 38.8608 110.459 37.6848 111.382 36.7618C112.305 35.8387 113.481 35.2101 114.761 34.9555C116.042 34.7008 117.369 34.8315 118.575 35.3311C119.781 35.8306 120.812 36.6765 121.537 37.7619C122.262 38.8472 122.649 40.1233 122.649 41.4286C122.646 43.1782 121.95 44.8553 120.713 46.0924C119.476 47.3296 117.799 48.0259 116.049 48.0286ZM116.049 35.3019C114.838 35.3019 113.654 35.661 112.647 36.3338C111.641 37.0066 110.855 37.9629 110.392 39.0817C109.929 40.2005 109.808 41.4317 110.044 42.6194C110.28 43.8072 110.863 44.8982 111.719 45.7545C112.576 46.6108 113.667 47.194 114.854 47.4302C116.042 47.6665 117.273 47.5453 118.392 47.0818C119.511 46.6183 120.467 45.8335 121.14 44.8267C121.813 43.8197 122.172 42.6359 122.172 41.4249C122.17 39.8016 121.524 38.2453 120.377 37.0975C119.228 35.9496 117.672 35.3038 116.049 35.3019Z" fill="#2D3E50"/>
<path d="M36.5051 82.1143C45.7263 82.1143 53.2016 74.6662 53.2016 65.4785C53.2016 56.2909 45.7263 48.8428 36.5051 48.8428C27.2838 48.8428 19.8086 56.2909 19.8086 65.4785C19.8086 74.6662 27.2838 82.1143 36.5051 82.1143Z" fill="#FFFBFA"/>
<path d="M36.4472 79.7617C44.2923 79.7617 50.6522 73.3865 50.6522 65.5222C50.6522 57.6579 44.2923 51.2827 36.4472 51.2827C28.602 51.2827 22.2422 57.6579 22.2422 65.5222C22.2422 73.3865 28.602 79.7617 36.4472 79.7617Z" fill="#00A492"/>
<path d="M32.1988 66.4365L29.957 67.4295V64.842L32.1823 63.879L32.3983 59.046C33.5054 58.7383 34.655 58.6116 35.8025 58.671V62.4337L38.9083 61.554V63.8955L35.7755 64.9747V69.2595L43.091 69.6082L42.8525 72.9L32.1988 72.75V66.4365Z" fill="#FFFBFA"/>
<path d="M37.5701 73.1199C32.1213 73.0764 32.0869 72.9624 32.0201 72.7359C31.9721 72.5762 32.0201 67.1574 32.0201 66.7719C31.7074 66.9174 31.1306 67.1844 30.0304 67.6299C29.9986 67.6499 29.962 67.661 29.9245 67.6622C29.8869 67.6634 29.8498 67.6546 29.8168 67.6366C29.7838 67.6187 29.7562 67.5923 29.7368 67.5601C29.7173 67.528 29.7068 67.4913 29.7063 67.4537C29.7063 67.4537 29.6711 65.0627 29.6719 64.9142C29.6719 64.7349 29.6718 64.6052 32.0126 63.7284L32.1709 59.0949C32.1723 59.0436 32.1901 58.9941 32.2217 58.9536C32.2532 58.9131 32.297 58.8838 32.3463 58.8699C33.4987 58.5496 34.6904 58.3931 35.8863 58.4049C35.9288 58.4078 35.9699 58.4217 36.0053 58.4454C36.0407 58.4691 36.0692 58.5017 36.0881 58.5399C36.0971 58.5587 36.1076 61.0817 36.0438 62.1654C36.9361 61.8356 37.8475 61.56 38.7731 61.3404C38.8586 61.3232 39.0881 61.2804 39.1646 61.4904C39.2631 62.3495 39.2174 63.2189 39.0296 64.0629C38.9111 64.2624 38.9906 64.1237 36.0214 65.1129C36.0214 65.2059 36.0131 68.5907 35.9944 69.0309C42.9244 69.3527 43.2693 69.2769 43.3301 69.5514C43.3451 70.7153 43.2699 71.8784 43.1051 73.0307C43.0829 73.0589 43.0552 73.0822 43.0235 73.0991C42.9919 73.116 42.9571 73.1261 42.9214 73.1289C42.8884 73.1252 38.6853 73.1289 37.5701 73.1199ZM32.4701 72.4877C33.5951 72.6684 41.3718 72.6572 42.7166 72.6474C42.7758 72.1149 42.8411 70.4192 42.8531 69.8147C42.1144 69.7652 39.4931 69.6557 37.8498 69.5897C35.5818 69.4944 35.5819 69.4944 35.5249 69.3309C35.5129 69.2957 35.5376 64.9187 35.5376 64.9187C35.5954 64.5969 38.0943 63.9167 38.6313 63.7727C38.7221 63.1337 38.7502 62.4874 38.7153 61.8429C38.0553 62.0057 36.1233 62.6327 35.8878 62.7249C35.8482 62.742 35.8047 62.7481 35.7619 62.7426C35.7191 62.7371 35.6786 62.7203 35.6445 62.6937C35.6105 62.6672 35.5842 62.632 35.5685 62.5919C35.5526 62.5517 35.548 62.508 35.5548 62.4654H35.5459C35.5684 62.2944 35.6291 59.6589 35.6321 58.8812C34.6214 58.8917 33.6161 59.0303 32.6404 59.2937L32.4828 63.9092C32.4814 63.9568 32.4658 64.0029 32.438 64.0417C32.4102 64.0804 32.3715 64.11 32.3269 64.1267C31.5869 64.3892 30.8609 64.6896 30.1519 65.0267C30.1556 65.3852 30.1713 66.4997 30.1796 67.0832C32.2226 66.1607 32.2391 66.1082 32.3546 66.1832C32.5901 66.3324 32.4228 71.4752 32.4701 72.4877Z" fill="#2D3E50"/>
<path d="M52.4849 60.018C51.4381 57.0067 49.5624 54.3521 47.0736 52.3597C44.5848 50.3673 41.584 49.1181 38.4166 48.7557C35.2492 48.3934 32.0439 48.9327 29.1693 50.3116C26.2949 51.6905 23.8682 53.8529 22.1684 56.55C20.8071 58.6905 16.8651 66.7343 22.6349 75.0998C24.1898 77.3355 26.2656 79.1595 28.6829 80.4143C31.1002 81.6683 33.7865 82.3155 36.5099 82.2998C48.3929 82.2975 56.2559 70.3395 52.4849 60.018ZM52.3349 69.7553L50.4374 69.2783C51.114 66.5138 51.0243 63.6173 50.1779 60.9L52.0926 60.3368C53.2032 63.365 53.2872 66.6745 52.3319 69.7553H52.3349ZM51.7934 71.4053L49.9986 70.638C50.1104 70.3425 50.2236 70.0478 50.3174 69.7433L52.2149 70.221C52.0896 70.6238 51.9419 71.0153 51.7904 71.4053H51.7934ZM39.1184 79.7618L39.4641 81.5993C39.1281 81.6608 38.7891 81.714 38.4456 81.7553L38.2731 79.8915C38.5581 79.8555 38.8401 79.8143 39.1191 79.7618H39.1184ZM39.5894 79.6665C41.8099 79.1745 43.8831 78.1658 45.6404 76.722L46.7159 78.2933C44.7366 79.8773 42.416 80.9798 39.9374 81.513L39.5894 79.6665ZM36.4484 79.539C33.6762 79.539 30.9661 78.717 28.6611 77.1765C26.356 75.6368 24.5595 73.4474 23.4986 70.8863C22.4377 68.325 22.1601 65.5067 22.701 62.7878C23.2418 60.0688 24.5768 57.5712 26.5371 55.6109C28.4973 53.6507 30.9948 52.3157 33.7138 51.7748C36.4329 51.234 39.2511 51.5116 41.8124 52.5725C44.3736 53.6334 46.5627 55.43 48.1029 57.735C49.6431 60.04 50.4651 62.75 50.4651 65.5223C50.4609 69.2384 48.983 72.801 46.3554 75.429C43.7278 78.0563 40.1652 79.5345 36.4491 79.539H36.4484ZM22.3919 73.8188L23.9436 72.8198C24.0554 73.0095 24.1686 73.1993 24.2871 73.3845L22.8494 74.571C22.6866 74.325 22.5419 74.0715 22.3919 73.8188ZM20.2829 67.905L22.1339 67.6973C22.379 69.3463 22.9086 70.9402 23.6991 72.408L22.1459 73.4078C21.1999 71.7001 20.5688 69.8362 20.2829 67.905ZM22.4181 57.0593L24.0299 58.0838C23.8656 58.3568 23.7066 58.6328 23.5604 58.917L21.7769 58.2368C21.9749 57.8348 22.1886 57.4423 22.4181 57.0593ZM30.8931 52.1363L30.0396 50.3685C30.4386 50.1968 30.8496 50.0505 31.2636 49.911L31.8014 51.8033C31.4991 51.9075 31.1909 52.0125 30.8946 52.1363H30.8931ZM47.2896 53.1113L45.8894 54.5423C45.6884 54.3698 45.4814 54.2055 45.2714 54.0443L46.5741 52.521C46.8196 52.7125 47.0586 52.9103 47.2911 53.1143L47.2896 53.1113ZM44.8896 53.7555C43.2828 52.5948 41.454 51.7778 39.5174 51.3555L39.9554 49.4093C42.2095 49.8983 44.3344 50.8595 46.1901 52.2293L44.8896 53.7555ZM51.9291 59.8853L50.0144 60.4478C49.2136 58.3182 47.924 56.4064 46.2494 54.8663L47.6496 53.4353C49.5687 55.2152 51.0351 57.4275 51.9269 59.8883L51.9291 59.8853ZM39.4791 49.3215L39.0411 51.2678C36.7776 50.9375 34.4707 51.065 32.2574 51.6428L31.7241 49.755C34.2393 49.002 36.8968 48.8546 39.4799 49.3245L39.4791 49.3215ZM29.6076 50.574L30.4566 52.3343C27.9307 53.4894 25.7875 55.3424 24.2796 57.675L22.6679 56.6505C24.3573 54.0077 26.7648 51.901 29.6084 50.577L29.6076 50.574ZM21.5676 58.671L23.3511 59.3513C22.1858 61.8001 21.7386 64.529 22.0611 67.2218L20.2101 67.4295C19.8372 64.4405 20.3074 61.4069 21.5676 58.671ZM23.1329 74.9618L24.5579 73.7865C26.0553 75.9338 28.1032 77.6378 30.4866 78.72L29.6751 80.3745C27.0594 79.1723 24.804 77.3063 23.1329 74.9618ZM30.1079 80.5868L30.9254 78.921C33.0921 79.842 35.4577 80.196 37.7991 79.95L37.9709 81.8063C35.2887 82.038 32.5901 81.6188 30.1049 80.5838L30.1079 80.5868ZM47.0931 77.9925L46.0041 76.4018C47.667 74.946 48.9764 73.1306 49.8329 71.0933L51.6269 71.8598C50.6142 74.2293 49.0605 76.329 47.0901 77.9895L47.0931 77.9925Z" fill="#2D3E50"/>
<path d="M32.7506 41.4188C36.015 41.4188 38.6613 38.7617 38.6613 35.4841C38.6613 32.2064 36.015 29.5493 32.7506 29.5493C29.4861 29.5493 26.8398 32.2064 26.8398 35.4841C26.8398 38.7617 29.4861 41.4188 32.7506 41.4188Z" fill="#FFFBFA"/>
<path d="M32.7618 40.1187C35.3183 40.1187 37.3908 38.0382 37.3908 35.4717C37.3908 32.9053 35.3183 30.8247 32.7618 30.8247C30.2053 30.8247 28.1328 32.9053 28.1328 35.4717C28.1328 38.0382 30.2053 40.1187 32.7618 40.1187Z" fill="#00A492"/>
<path d="M32.7554 41.6403C31.5391 41.6403 30.35 41.2796 29.3387 40.6039C28.3274 39.9281 27.5391 38.9676 27.0736 37.8438C26.6081 36.7201 26.4863 35.4835 26.7236 34.2905C26.9609 33.0975 27.5467 32.0017 28.4068 31.1416C29.2668 30.2815 30.3626 29.6958 31.5557 29.4585C32.7486 29.2212 33.9852 29.343 35.1089 29.8085C36.2327 30.2739 37.1932 31.0622 37.869 32.0735C38.5448 33.0849 38.9054 34.274 38.9054 35.4903C38.9033 37.1207 38.2547 38.6837 37.1018 39.8366C35.9489 40.9895 34.3859 41.6381 32.7554 41.6403ZM32.7554 29.7791C31.626 29.7789 30.5219 30.1137 29.5826 30.7411C28.6435 31.3685 27.9114 32.2603 27.4791 33.3038C27.0468 34.3472 26.9336 35.4954 27.1538 36.6032C27.3741 37.7109 27.9179 38.7285 28.7165 39.5273C29.5151 40.3259 30.5326 40.8699 31.6403 41.0903C32.7481 41.3107 33.8963 41.1977 34.9398 40.7654C35.9834 40.3333 36.8753 39.6014 37.5028 38.6622C38.1302 37.7231 38.4652 36.6191 38.4652 35.4896C38.4636 33.9757 37.8616 32.5242 36.7912 31.4537C35.7207 30.3831 34.2694 29.7809 32.7554 29.7791Z" fill="#2D3E50"/>
<path d="M32.7539 40.3667C31.7897 40.3667 30.8472 40.0808 30.0455 39.5452C29.2438 39.0094 28.6189 38.2481 28.25 37.3572C27.881 36.4665 27.7845 35.4863 27.9726 34.5406C28.1607 33.595 28.6249 32.7263 29.3068 32.0445C29.9885 31.3628 30.8572 30.8985 31.8028 30.7104C32.7485 30.5223 33.7287 30.6188 34.6195 30.9878C35.5102 31.3568 36.2716 31.9816 36.8073 32.7833C37.343 33.585 37.6289 34.5275 37.6289 35.4917C37.6269 36.784 37.1127 38.0229 36.1988 38.9367C35.285 39.8505 34.0462 40.3648 32.7539 40.3667ZM32.7539 31.0532C31.8763 31.0529 31.0182 31.3129 30.2884 31.8003C29.5585 32.2877 28.9895 32.9806 28.6535 33.7914C28.3174 34.6021 28.2295 35.4943 28.4005 36.3552C28.5716 37.216 28.9942 38.0068 29.6147 38.6274C30.2353 39.248 31.0259 39.6707 31.8867 39.8419C32.7475 40.0132 33.6397 39.9253 34.4506 39.5894C35.2614 39.2535 35.9544 38.6847 36.4419 37.9549C36.9294 37.2251 37.1896 36.3671 37.1894 35.4895C37.188 34.3135 36.7203 33.186 35.8888 32.3544C35.0573 31.5227 33.9299 31.0548 32.7539 31.0532Z" fill="#2D3E50"/>
<path d="M52.2984 13.3353C54.8881 13.3353 56.9874 11.2286 56.9874 8.62982C56.9874 6.03104 54.8881 3.92432 52.2984 3.92432C49.7087 3.92432 47.6094 6.03104 47.6094 8.62982C47.6094 11.2286 49.7087 13.3353 52.2984 13.3353Z" fill="#FFFBFA"/>
<path d="M52.3087 12.3051C54.3367 12.3051 55.9807 10.6554 55.9807 8.62031C55.9807 6.58527 54.3367 4.93555 52.3087 4.93555C50.2808 4.93555 48.6367 6.58527 48.6367 8.62031C48.6367 10.6554 50.2808 12.3051 52.3087 12.3051Z" fill="#00A492"/>
<path d="M52.2895 13.5155C51.3236 13.5155 50.3795 13.2291 49.5764 12.6925C48.7733 12.1559 48.1475 11.3932 47.7779 10.5008C47.4083 9.60848 47.3117 8.62658 47.5001 7.67933C47.6886 6.73205 48.1538 5.86193 48.8368 5.17903C49.5198 4.49612 50.39 4.0311 51.3373 3.84276C52.2846 3.65443 53.2664 3.75124 54.1588 4.12095C55.0511 4.49067 55.8137 5.11669 56.3501 5.91983C56.8866 6.72298 57.1729 7.66718 57.1727 8.63303C57.1712 9.9276 56.6561 11.1686 55.7407 12.084C54.8252 12.9993 53.5841 13.5141 52.2895 13.5155ZM52.2895 4.15028C51.403 4.15087 50.5366 4.41428 49.7999 4.90721C49.0631 5.40014 48.4889 6.10046 48.1501 6.91963C47.8113 7.7388 47.723 8.64 47.8962 9.5094C48.0695 10.3788 48.4967 11.1773 49.1237 11.8039C49.7508 12.4305 50.5496 12.8571 51.419 13.0298C52.2885 13.2026 53.1897 13.1136 54.0086 12.7742C54.8276 12.4349 55.5275 11.8603 56.02 11.1232C56.5124 10.3861 56.7752 9.51953 56.7752 8.63303C56.774 7.44397 56.3009 6.30401 55.4599 5.4635C54.6188 4.62299 53.4785 4.15067 52.2895 4.15028Z" fill="#2D3E50"/>
<path d="M52.2877 12.5099C51.5207 12.5099 50.771 12.2825 50.1333 11.8563C49.4957 11.4303 48.9987 10.8246 48.7052 10.116C48.4118 9.40751 48.335 8.62781 48.4847 7.87564C48.6344 7.12346 49.0037 6.43256 49.5461 5.89031C50.0885 5.34807 50.7794 4.97883 51.5317 4.8293C52.2839 4.67977 53.0635 4.75666 53.772 5.05026C54.4805 5.34385 55.0861 5.84095 55.512 6.47871C55.938 7.11646 56.1653 7.86619 56.1652 8.63314C56.1638 9.66101 55.7548 10.6464 55.0279 11.3731C54.301 12.0999 53.3156 12.5087 52.2877 12.5099ZM52.2877 5.15989C51.5999 5.15989 50.9277 5.36381 50.3559 5.74587C49.7841 6.12793 49.3385 6.67096 49.0754 7.3063C48.8122 7.94164 48.7433 8.64071 48.8774 9.31519C49.0116 9.98966 49.3427 10.6092 49.829 11.0955C50.3153 11.5818 50.9348 11.9129 51.6093 12.0471C52.2838 12.1812 52.9829 12.1124 53.6183 11.8492C54.2536 11.586 54.7966 11.1404 55.1786 10.5686C55.5608 9.99679 55.7647 9.32456 55.7647 8.63689C55.7647 7.71439 55.3985 6.82961 54.7465 6.17695C54.0945 5.52429 53.2102 5.15713 52.2877 5.15614V5.15989Z" fill="#2D3E50"/>
<path d="M107.95 21.3119C107.898 21.3096 107.848 21.2905 107.807 21.2574C107.767 21.2243 107.738 21.1791 107.726 21.1284C107.714 21.0777 107.717 21.0244 107.738 20.9763C107.759 20.9283 107.794 20.8881 107.839 20.8619C110.61 19.4237 113.462 18.1451 116.378 17.0324C116.436 17.0193 116.496 17.0277 116.548 17.056C116.599 17.0843 116.639 17.1305 116.658 17.1859C116.678 17.2413 116.677 17.3021 116.655 17.3567C116.633 17.4113 116.592 17.456 116.54 17.4824C112.361 18.9749 108.116 21.3119 107.95 21.3119Z" fill="#FF7A59"/>
<path d="M103.362 15.1423C103.404 15.0988 107.61 10.7983 110.381 8.1216C110.599 7.91085 110.939 8.24985 110.714 8.46735C107.949 11.1396 103.748 15.4348 103.706 15.4783C103.661 15.5208 103.601 15.5442 103.539 15.5436C103.477 15.543 103.417 15.5185 103.373 15.4751C103.329 15.4318 103.302 15.373 103.301 15.311C103.299 15.249 103.32 15.1886 103.362 15.1423Z" fill="#FF7A59"/>
<path d="M97.9783 11.8455C97.9371 11.846 97.8958 11.8356 97.8598 11.8155C97.8238 11.7953 97.7938 11.766 97.7721 11.7305C97.7511 11.695 97.7391 11.6545 97.7383 11.6131C97.7376 11.5717 97.7481 11.5308 97.7676 11.4945C97.7856 11.4615 99.5766 8.19446 101.115 5.53347C101.149 5.4826 101.201 5.44654 101.26 5.4326C101.32 5.41867 101.383 5.42791 101.436 5.45845C101.488 5.48899 101.528 5.53855 101.545 5.59705C101.563 5.65555 101.558 5.71863 101.531 5.77347C98.0173 11.8567 98.2596 11.8597 97.9783 11.8455Z" fill="#FF7A59"/>
<path d="M40.2736 12.852C38.7541 11.2177 35.8486 8.28298 35.8186 8.25223C35.6041 8.03548 35.9416 7.69273 36.1598 7.91473C36.1891 7.94398 39.1006 10.8847 40.6261 12.525C40.6655 12.5723 40.6854 12.633 40.6815 12.6946C40.6775 12.7561 40.6501 12.8137 40.6049 12.8556C40.5597 12.8975 40.5002 12.9205 40.4385 12.9199C40.3769 12.9192 40.3179 12.8949 40.2736 12.852Z" fill="#FF7A59"/>
<path d="M37.3152 16.0717C37.1329 16.0365 32.4274 12.6615 32.2812 12.5557C32.2303 12.5183 32.1964 12.4623 32.1865 12.3999C32.1767 12.3376 32.1918 12.2739 32.2286 12.2226C32.2654 12.1714 32.3208 12.1367 32.383 12.126C32.4453 12.1153 32.5092 12.1296 32.5609 12.1657C32.5992 12.1927 36.4039 14.9242 37.4944 15.6345C37.7097 15.7747 37.5327 16.113 37.3152 16.0717Z" fill="#FF7A59"/>
<path d="M29.6739 19.532C29.643 19.5254 29.6139 19.5127 29.5879 19.4948C29.562 19.4768 29.5398 19.4539 29.5227 19.4274C29.5056 19.401 29.4939 19.3713 29.4882 19.3403C29.4826 19.3093 29.4831 19.2774 29.4898 19.2466C29.4964 19.2158 29.5091 19.1866 29.527 19.1607C29.5449 19.1347 29.5678 19.1126 29.5944 19.0955C29.6208 19.0784 29.6505 19.0667 29.6814 19.061C29.7125 19.0554 29.7443 19.0559 29.7752 19.0625C29.8292 19.0737 35.0492 20.21 35.8239 20.345C35.855 20.3504 35.8847 20.3618 35.9113 20.3787C35.938 20.3955 35.961 20.4174 35.9793 20.4432C35.9974 20.469 36.0104 20.4981 36.0173 20.5288C36.0242 20.5596 36.025 20.5914 36.0197 20.6225C36.0143 20.6535 36.0028 20.6833 35.986 20.7099C35.9691 20.7366 35.9472 20.7597 35.9214 20.7778C35.8956 20.796 35.8666 20.8089 35.8358 20.8159C35.805 20.8228 35.7732 20.8236 35.7422 20.8182C35.6394 20.801 29.8607 19.5747 29.6739 19.532Z" fill="#FF7A59"/>
</svg>
