<svg width="223" height="222" viewBox="0 0 223 222" fill="none" xmlns="http://www.w3.org/2000/svg">
<path d="M189.669 108.736C205.969 114.054 203.597 135.609 190.324 142.646C176.404 150.025 154.856 147.811 141.918 139.534C126.71 129.803 124.791 105.955 142 104.56C150.958 104.56 158.21 109.827 167.555 109.72C175.008 109.634 182.381 106.359 189.67 108.737L189.669 108.736Z" fill="#FFFBFA"/>
<path d="M177.296 3.815C192.963 8.90588 184.851 29.553 176.559 37.56C166.017 47.7407 146.619 54.0521 132.739 48.3715C119.536 42.9679 114.601 26.8047 121.6 21.1792C123.415 19.7207 127.251 19.1927 128.153 19.2132C131.759 19.2954 135.373 18.9243 138.882 17.7384C150.146 13.9319 158.379 3.27832 170.989 2.91368C173.119 2.852 175.251 3.15064 177.296 3.815Z" fill="#FFFBFA"/>
<path d="M54.1939 100.219C42.4973 98.6227 30.5734 93.7017 22.6606 85.3117C20.951 83.4993 19.4545 81.385 18.4017 79.0868C12.522 66.2562 26.3459 57.3761 37.4853 55.9889C52.8446 54.077 65.0293 64.1452 73.2786 65.0801C77.6196 65.5724 98.7039 65.2564 92.5266 83.0178C91.2867 86.582 89.5165 89.4829 86.1384 92.519C77.4552 100.323 65.7618 101.796 54.195 100.219H54.1939Z" fill="#FFFBFA"/>
<path d="M59.2713 61.8858C60.0189 62.4387 61.4321 62.3349 62.1375 61.3123C68.8472 51.5904 80.8121 48.6992 92.525 46.0775C92.6072 46.0775 92.6884 46.1597 92.6884 46.1597C96.9321 47.6756 98.1742 48.4536 98.831 48.4536C100.919 48.4536 101.613 45.6187 99.7324 44.5226C99.7324 44.5226 99.6501 44.4404 99.569 44.4404C99.7053 44.3722 114.279 40.7247 120.701 37.0686C121.69 36.5059 122.011 35.267 121.52 34.2835C120.946 33.301 119.718 32.9731 118.735 33.4644C113.703 36.3252 99.4986 40.4261 98.7499 40.4261C98.8321 40.1805 98.9133 40.0171 98.9133 39.6892C98.9133 37.6864 96.3067 36.7808 95.0634 38.7068C94.7486 39.1948 92.868 41.6033 92.6884 41.8187L92.1149 41.9009C79.4196 44.686 66.3141 47.5523 58.6978 58.9373C58.1243 60.002 58.3754 61.2236 59.2713 61.8858Z" fill="#FF7A59"/>
<path d="M171.565 148.46C172.265 146.711 170.741 145.186 169.026 145.675C167.388 146.249 167.388 148.05 167.47 149.606C167.037 161.302 159.987 168.817 149.697 174.915C149.697 173.16 148.5 172.621 147.649 172.621C146.421 172.621 146.339 172.621 142.735 178.437C134.954 181.713 126.681 183.748 117.999 184.334C113.119 184.662 108.185 183.851 103.665 184.088C102.517 184.149 101.699 185.07 101.699 186.217C101.699 187.364 102.683 188.204 103.829 188.183C108.967 188.088 110.925 188.511 115.623 188.511C122.693 188.511 134.011 186.422 143.798 182.369C145.027 183.351 146.501 184.416 146.993 184.744C149.497 185.996 151.152 182.502 148.959 181.222C148.795 181.139 148.467 180.894 147.976 180.485C161.27 173.536 171.565 163.803 171.565 148.459V148.46Z" fill="#FF7A59"/>
<path d="M106.289 120.532C112.3 120.245 122.972 119.05 128.976 120.941C130.039 121.275 131.188 120.695 131.516 119.631C131.844 118.566 131.268 117.426 130.206 117.091C125.117 115.488 117.433 115.861 111.449 116.19C109.484 116.298 107.518 116.353 105.633 116.518C102.361 112.238 102.811 112.55 102.439 112.177C101.62 111.357 100.309 111.357 99.5725 112.177C98.2622 113.487 98.9991 114.47 100.719 116.763C89.9079 117.337 79.4177 117.272 69.7585 113.732C63.5293 111.451 59.4415 108.701 57.3088 105.05C56.4583 103.594 55.9162 102.102 55.9162 101.446C56.4313 100.759 56.3728 99.8544 56.2441 99.7256C55.3428 96.1214 48.5801 98.4456 53.7868 107.098C56.4594 111.539 61.2506 114.931 68.366 117.5C77.9105 120.945 87.7136 121.281 97.8521 120.859C97.7699 120.859 97.7699 120.941 97.6887 120.941C96.1176 122.084 96.8058 124.626 98.8357 124.626C99.9794 124.626 100.45 123.677 106.043 120.531C106.043 120.694 106.125 120.613 106.289 120.531V120.532Z" fill="#FF7A59"/>
<path d="M133.397 3.15985C133.397 3.15985 129.957 43.6209 129.792 46.3238C129.938 46.3238 130.074 46.3238 129.792 46.3238C129.465 50.7471 129.219 53.7768 129.301 53.859C129.547 54.3502 167.059 51.9752 167.059 51.9752L171.564 0.046875L133.396 3.15985H133.397Z" fill="#00A492"/>
<path d="M171.363 6.63581C171.338 6.33826 171.074 6.1067 170.779 6.14133L151.672 7.70918L152.115 1.88899C152.169 1.17918 151.09 1.08397 151.036 1.80675L150.612 7.79682L132.857 9.25322C132.15 9.31057 132.224 10.3828 132.945 10.332L150.535 8.88858L150.016 16.2355L132.366 17.6897C131.657 17.7471 131.734 18.8204 132.454 18.7685L149.938 17.3273L149.364 25.424L131.298 26.9453C131 26.9702 130.78 27.2321 130.805 27.5296C130.831 27.8358 131.105 28.0522 131.389 28.023L149.287 26.5158L148.684 35.0313L130.479 36.5288C130.181 36.5526 129.96 36.8144 129.984 37.1131C130.01 37.4193 130.285 37.6368 130.569 37.6076L148.607 36.1241L148.025 44.3507L129.908 45.8666C129.199 45.924 129.276 46.9973 129.995 46.9454L167.956 43.7524C168.696 43.7524 168.692 42.5827 167.828 42.6725L149.117 44.2577L149.691 36.0343L168.41 34.4946C169.114 34.4372 169.049 33.3704 168.323 33.4158L149.768 34.9426L150.363 26.426L169.314 24.8289C169.611 24.804 169.832 24.5422 169.807 24.2446C169.782 23.9471 169.519 23.7242 169.223 23.7512L150.439 25.3331L151.004 17.2396L170.213 15.6555C170.51 15.6306 170.732 15.3699 170.707 15.0712C170.682 14.7726 170.421 14.5475 170.123 14.5768L151.08 16.1468L151.592 8.80094L170.867 7.21902C171.165 7.19522 171.387 6.93337 171.362 6.63473L171.363 6.63581Z" fill="#2D3E50"/>
<path d="M162.841 46.9213C162.673 46.6735 162.335 46.6097 162.089 46.7774C160.335 47.9676 155.882 50.6272 152.444 49.648C153.707 48.765 154.253 48.0217 154.164 47.3119C154.117 46.9862 153.921 46.7244 153.612 46.5718C152.227 45.8977 149.63 47.4818 150.439 49.3526C148.63 50.2604 145.287 51.1379 143.404 50.4974C145.259 49.6491 146.035 48.6936 145.718 47.6668C145.623 47.2924 145.288 46.8596 144.185 46.8574C143.758 46.9429 143.274 47.0392 142.794 47.3281C141.76 47.9189 141.037 49.0193 141.401 50.084C139.745 50.5688 136.896 51.3013 135.188 50.9875C134.885 50.4032 133.944 50.7906 134.047 51.4192C134.217 52.4656 137.278 52.1236 138.331 51.9321C139.568 51.7006 140.822 51.3911 142.082 51.0081C142.285 51.1888 142.509 51.3457 142.763 51.403C144.996 52.3931 148.981 51.3446 151.144 50.2074C151.95 50.7646 153.058 50.9399 154.038 50.9399C157.459 50.9399 161.113 48.7456 162.698 47.67C162.945 47.5023 163.009 47.1658 162.842 46.9191L162.841 46.9213ZM142.426 49.741C142.237 49.1892 142.79 48.5779 143.341 48.2619C143.67 48.0639 144.007 47.9968 144.291 47.9297C145.46 47.9297 144.128 49.0604 142.425 49.741H142.426ZM152.177 47.6949C152.522 47.498 153.029 47.4753 153.092 47.4558C153.096 47.6192 152.658 48.276 151.577 48.9209C151.526 48.9046 151.474 48.8971 151.42 48.8971C151.214 48.3679 151.657 47.9395 152.176 47.6949H152.177Z" fill="#2D3E50"/>
<path d="M32.1656 50.7472L25.7773 106.607C25.7773 106.607 68.3062 106.378 69.1058 105.46C69.9454 104.495 72.6278 48.6167 72.6278 48.6167L32.1667 50.7461L32.1656 50.7472Z" fill="#FFFBFA"/>
<path d="M68.173 64.1307L34.4248 66.2601C34.1619 66.2785 33.9498 66.4841 33.9227 66.7459L30.2374 102.044C30.2038 102.367 30.457 102.643 30.7751 102.643C31.8485 102.643 64.7149 102.357 65.9679 101.502C66.1518 101.318 66.3595 101.109 66.7794 95.0981C67.6677 83.1742 67.1353 91.5101 68.7454 64.702C68.7649 64.3817 68.5019 64.1134 68.173 64.1307ZM67.2814 71.0956C67.0023 71.0643 60.6281 71.2331 60.3403 71.2406C60.5945 67.5683 60.7233 65.758 60.7168 65.6855L67.6298 65.2495L67.2814 71.0967V71.0956ZM65.7298 94.6285C64.2583 94.7583 61.8832 94.8968 58.3245 95.0624C58.5344 92.9903 58.7454 90.7419 58.9564 88.369C60.9202 88.2792 65.6476 88.1115 66.2265 88.0888C66.0761 90.4389 65.8759 92.722 65.7298 94.6285ZM56.5305 101.082C53.8925 101.154 51.0089 101.227 48.0463 101.299C48.0463 101.299 48.2184 98.0434 48.3104 96.719C51.2892 96.5772 54.335 96.4279 57.118 96.2202C56.9178 98.1602 56.7209 99.7897 56.5305 101.082ZM33.4575 81.2645C33.5657 81.271 33.4575 81.2504 39.9247 80.8208L39.2809 88.0682C36.0987 88.1883 33.6739 88.3052 32.7314 88.3528L33.4575 81.2645ZM34.362 73.1515C35.0675 73.1309 37.4588 73.0584 40.6735 72.934C40.5393 74.6587 40.3315 77.0619 40.034 79.7291C40.034 79.7291 34.1586 80.1164 33.5743 80.1716L34.362 73.1515ZM59.6348 65.7537L59.2528 71.2709C57.9425 71.3088 52.0844 71.5241 50.5285 71.5663C50.8196 68.4739 51.0349 66.4473 51.0511 66.2947L59.6359 65.7537H59.6348ZM66.8713 78.2402C65.6357 78.2943 59.7949 78.5973 59.7949 78.5973C59.9345 76.9526 60.2645 72.3259 60.2645 72.3259C60.2645 72.3259 65.8575 72.1755 67.2078 72.1744C67.1397 73.1818 66.9309 77.2599 66.8703 78.2391L66.8713 78.2402ZM48.3872 95.6326C48.5127 93.8992 48.9574 88.7759 48.9574 88.7759C50.3835 88.7109 56.3866 88.4945 57.8635 88.4231C57.6514 90.8014 57.4404 93.0531 57.2284 95.1273C54.4346 95.3383 51.3746 95.4898 48.3872 95.6326ZM49.3264 72.6808C49.1327 74.491 48.9271 76.6432 48.7042 79.2227C46.0295 79.3677 43.4294 79.5127 41.1301 79.6577C41.4244 76.9948 41.631 74.5981 41.7609 72.895C44.0385 72.8236 46.6722 72.7522 49.3264 72.6797V72.6808ZM58.7042 78.6536C57.3636 78.725 51.3746 79.0864 49.796 79.1675C50.0189 76.5956 50.2234 74.4542 50.4181 72.6527C52.0238 72.6094 57.9025 72.393 59.1782 72.3562C59.1782 72.3562 58.8492 76.9591 58.7042 78.6546V78.6536ZM41.0175 80.7505C43.3136 80.6044 45.9213 80.4584 48.6079 80.3134C48.4802 81.7373 47.9619 87.7328 47.9619 87.7328C46.3692 87.7793 41.3075 87.9979 40.3705 88.0303L41.0175 80.7505ZM57.9598 87.3357C56.4417 87.4114 50.43 87.6278 49.0526 87.6895C49.0526 87.6895 49.5687 81.7276 49.7008 80.256C51.3292 80.1727 57.3203 79.8113 58.6101 79.7421L57.9598 87.3346V87.3357ZM49.4389 71.5955C46.7804 71.667 44.1392 71.7394 41.8431 71.8119C42.0844 68.6438 42.2759 67.0024 42.2889 66.8487L49.9561 66.3651C49.8934 66.9591 49.6943 68.8818 49.4389 71.5955ZM32.6189 89.4435C33.399 89.4034 35.8682 89.2822 39.1846 89.1556C39.1846 89.1556 38.7572 94.1178 38.6165 96.0968C35.3553 96.218 32.8623 96.3359 31.9069 96.3825L32.6178 89.4445L32.6189 89.4435ZM40.2753 89.1167C41.2523 89.0832 46.3194 88.8646 47.8689 88.8181C47.8689 88.8181 47.4274 93.909 47.3008 95.6781C45.0026 95.7462 42.5627 95.8631 39.7061 96.0438C39.8598 93.9144 40.0881 91.2742 40.2753 89.1178V89.1167ZM66.3 87.0046C65.6941 87.0284 60.9646 87.1961 59.0505 87.2827C59.0505 87.2827 59.5471 81.4343 59.7008 79.6858C59.7008 79.6858 65.5675 79.3807 66.8075 79.3277C66.6636 81.8563 66.5121 84.4597 66.3 87.0035V87.0046ZM41.1928 66.918C41.1344 67.472 40.9472 69.3017 40.7546 71.8509C37.6773 71.9699 35.3391 72.0413 34.4778 72.0673L34.9528 67.3118L41.1928 66.918ZM31.7955 97.4721C32.5843 97.4331 35.127 97.3108 38.5365 97.1832C38.4867 97.8399 38.253 100.797 38.2054 101.492C34.9918 101.545 32.475 101.559 31.3756 101.563L31.7955 97.4721ZM39.2917 101.467C39.3382 100.797 39.572 97.8399 39.6261 97.1323C42.4902 96.9505 44.9269 96.8326 47.2229 96.7633C47.1353 98.0488 46.9611 101.329 46.9611 101.329C44.2528 101.397 41.5932 101.405 39.2928 101.468L39.2917 101.467ZM57.6255 101.059C57.8159 99.74 58.0128 98.0953 58.2119 96.152C61.7307 95.9897 64.1252 95.8523 65.6497 95.7224C65.4041 99.0832 65.2364 100.264 65.1596 100.668C64.3946 100.782 61.8237 100.973 57.6266 101.059H57.6255Z" fill="#FF7A59"/>
<path d="M36.3674 62.0889C36.6726 62.2956 38.4417 62.5077 40.2854 61.865C41.058 62.5791 42.1389 62.9178 43.1484 62.6646C44.0346 62.5174 44.9565 62.1755 45.8384 61.6702C47.641 63.1937 50.8384 62.4514 52.905 61.1324C53.5315 61.5761 54.0931 61.6431 54.8245 61.6431C56.2939 61.6431 57.7265 61.2201 58.8745 60.4388C59.3495 60.6801 59.8906 60.81 60.4078 60.81C61.4681 60.81 63.7523 60.56 65.9542 60.0363C66.2453 59.9671 66.4249 59.676 66.3545 59.385C66.2853 59.0939 65.9931 58.9143 65.7032 58.9835C63.9622 59.3979 62.3803 59.6273 60.6826 59.7096C60.3959 59.7464 60.0983 59.7226 59.817 59.6479C60.371 59.1004 61.1608 58.3462 61.2095 57.4644C61.268 56.4159 60.0994 55.81 58.8843 56.6907C57.9375 57.3756 57.4138 58.6946 58.0251 59.6977C56.4584 60.6466 54.4437 60.7202 53.7728 60.3934C54.5421 59.7171 55.6144 58.3289 55.5863 57.2512C55.5668 56.5003 54.9966 55.8825 54.2511 55.9539C53.05 56.0675 51.1803 58.1958 52.1941 60.2982C50.6728 61.2287 48.366 61.918 46.8349 61.0469C48.1268 60.1002 49.554 57.8009 48.3292 56.8617C47.7427 56.4137 46.8468 56.5998 46.2062 56.9234C44.897 57.7652 44.4415 59.4488 45.1188 60.8295C44.4036 61.2157 43.6646 61.4798 42.9277 61.6042C42.3835 61.7394 41.7829 61.6107 41.2917 61.2807C44.172 59.6392 44.053 57.1181 42.998 56.6345C41.5806 55.9788 38.868 58.1709 39.5886 60.876C39.5951 60.8987 39.6038 60.9214 39.6124 60.9431C38.6765 61.2201 37.7394 61.2828 36.8641 61.1238C36.7234 61.0545 36.4821 60.9766 36.3014 60.9128C36.0255 60.6574 35.4261 60.8284 35.3579 61.2287C35.2551 61.8347 35.9498 61.8952 36.3685 62.0857L36.3674 62.0889ZM59.5183 57.5672C59.6677 57.459 60.015 57.3075 60.1254 57.3573C60.2054 57.5347 59.738 58.3008 59.2208 58.7184C59.1082 58.831 59.0022 58.937 58.894 59.0301C58.7014 58.5399 59.0715 57.8929 59.5183 57.5672ZM54.409 57.0456C54.87 57.4633 53.696 59.0127 53.0673 59.5711C52.6648 58.2304 53.9254 57.0575 54.409 57.0456ZM46.7408 57.8647C46.9777 57.7457 47.5025 57.5931 47.6713 57.7241C47.8509 57.8582 47.4711 59.3222 46.0526 60.2765C45.6696 59.4012 45.9682 58.3646 46.7408 57.8647ZM42.5447 57.6191C42.5674 57.6299 42.5999 57.7154 42.5999 57.8723C42.5999 58.8191 41.8587 59.7528 40.5938 60.4302C40.2432 58.6189 42.0762 57.4049 42.5447 57.6191Z" fill="#FF7A59"/>
<path d="M25.8588 107.147C25.5385 107.147 25.2832 106.869 25.3199 106.546L31.627 50.6862C31.6563 50.4233 31.8727 50.221 32.1367 50.2069L72.68 48.0775C72.9938 48.0602 73.2643 48.3198 73.2491 48.6434C72.2364 69.5729 70.4164 104.831 69.6027 105.807C68.7923 106.779 45.3676 107.11 25.8599 107.148L25.8588 107.147ZM32.6506 51.2629L26.4636 106.063C42.5392 105.996 66.243 105.677 68.7523 105.058C69.3885 102.16 71.1002 70.5727 72.139 49.1887L32.6506 51.2629Z" fill="#2D3E50"/>
<path d="M92.0331 135.11L95.2283 190.232L54.1116 194.656L50.2617 139.205L92.0331 135.11Z" fill="#FFFBFA"/>
<path d="M54.1099 195.197C53.8253 195.197 53.5894 194.976 53.5699 194.693L49.7201 139.243C49.6995 138.951 49.9159 138.696 50.207 138.667L91.9784 134.572C92.1277 134.559 92.2716 134.603 92.3831 134.7C92.6612 134.938 92.5562 134.731 95.7655 190.202C95.7817 190.49 95.5696 190.741 95.2829 190.771L54.1088 195.197H54.1099ZM50.8367 139.692L54.6108 194.057L94.6564 189.75L91.524 135.703L50.8357 139.692H50.8367Z" fill="#2D3E50"/>
<path d="M95.4717 141.661L98.5836 196.785L57.4668 201.126L53.6992 145.675L95.4717 141.661Z" fill="#FFFBFA"/>
<path d="M57.4689 201.667C57.1843 201.667 56.9485 201.446 56.929 201.163L53.1614 145.712C53.1419 145.42 53.3572 145.166 53.6494 145.138L95.4208 141.125C95.5679 141.114 95.714 141.157 95.8255 141.252C96.1024 141.489 96.0083 141.243 99.1256 196.755C99.1418 197.043 98.9287 197.293 98.6419 197.323L57.4689 201.667ZM54.2769 146.164L57.971 200.529L98.0165 196.301L94.9642 142.254L54.2759 146.164H54.2769Z" fill="#2D3E50"/>
<path d="M97.6043 130.769L55.9141 134.782L59.6817 190.232L100.798 185.891L97.6043 130.769Z" fill="#FF7A59"/>
<path d="M67.8855 146.288C68.974 146.085 70.1307 145.708 71.4086 145.144C71.638 145.462 71.928 145.727 72.2169 145.947C74.6525 147.813 78.485 146.403 80.9315 144.45C81.8306 145.237 82.9159 145.568 84.0336 145.568C87.2613 145.568 90.4965 142.7 92.3446 140.721C92.548 140.503 92.5361 140.16 92.3186 139.956C92.1012 139.753 91.7582 139.764 91.5537 139.982C88.9633 142.758 84.5789 146.131 81.6813 143.67C81.7408 143.62 81.7971 143.569 81.8479 143.519C83.2026 142.164 83.788 140.995 83.6419 139.979C83.5835 139.28 83.1712 138.988 82.931 138.876C81.1598 138.052 78.656 141.052 80.2314 143.624C77.9754 145.409 74.33 146.834 72.3997 144.65C75.9098 142.636 75.5939 139.666 74.2002 139.254C72.5501 138.765 70.0701 141.365 70.9476 144.164C69.7563 144.689 68.6808 145.039 67.6442 145.234C66.9961 145.412 65.0474 145.62 64.7412 145.021C64.4155 144.384 63.4514 144.88 63.6116 145.555C63.8691 146.644 66.7245 146.609 67.8855 146.288ZM81.6964 140.054C82.9754 139.14 82.9624 141.062 81.0202 142.811C80.5993 141.876 80.859 140.726 81.6964 140.054ZM73.8929 140.292C74.2024 140.387 74.5767 142.125 71.9323 143.672C71.4551 141.754 73.1344 140.069 73.8929 140.292Z" fill="#FFFBFA"/>
<path d="M82.7532 156.207C86.458 152.675 84.2193 150.213 82.1105 151.723C80.7947 152.775 80.4734 154.688 81.3065 156.149C79.0429 157.945 75.3933 159.363 73.464 157.182C78.2379 154.442 76.0663 149.858 73.0561 152.5C71.9438 153.611 71.5553 155.24 72.013 156.696C70.8207 157.222 69.7451 157.57 68.7096 157.767C68.0723 157.941 66.2329 158.173 65.7795 157.498C65.3878 156.911 64.4887 157.495 64.6888 158.162C64.9972 159.183 67.7953 159.139 68.9509 158.821C70.0384 158.618 71.1961 158.241 72.474 157.675C72.7034 157.994 72.9934 158.258 73.2823 158.48C75.7222 160.347 79.558 158.93 81.9968 156.982C82.8971 157.768 83.9824 158.099 85.099 158.099C88.3267 158.099 91.5608 155.233 93.4089 153.253C93.6123 153.034 93.6015 152.691 93.3829 152.488C93.1655 152.285 92.8225 152.295 92.619 152.514C90.0287 155.289 85.653 158.658 82.7532 156.207ZM73.7941 153.29C74.0678 153.051 74.6629 152.725 74.9659 152.827C75.2905 152.932 75.5989 154.681 72.9966 156.203C72.7369 155.173 73.0345 154.051 73.7941 153.29ZM83.6329 152.632C83.7421 153.563 82.7618 154.67 82.1061 155.327C81.2438 153.217 83.5236 151.698 83.6329 152.632Z" fill="#FFFBFA"/>
<path d="M92.619 167.011C90.02 169.796 85.6368 173.158 82.7467 170.699C83.7075 169.886 84.8956 168.317 84.7073 167.008C84.5959 165.684 83.1914 165.447 82.1105 166.22C80.7341 167.321 80.4203 169.166 81.3022 170.649C79.0364 172.444 75.3835 173.864 73.4651 171.679C75.5004 170.51 76.4861 168.958 76.1799 167.349C75.6 164.648 70.7666 167.126 72.0195 171.191C70.825 171.718 69.7473 172.069 68.7096 172.264C68.0615 172.442 66.1117 172.65 65.8066 172.05C65.4776 171.411 64.5179 171.913 64.678 172.585C64.9377 173.684 67.8267 173.629 68.952 173.318C70.0394 173.115 71.1972 172.738 72.4751 172.172C74.5785 175.088 79.097 173.795 81.9969 171.479C82.8971 172.265 83.9824 172.597 85.099 172.597C88.3267 172.597 91.5608 169.73 93.4089 167.75C93.6123 167.532 93.6015 167.189 93.383 166.985C93.1655 166.782 92.8225 166.793 92.619 167.011ZM73.7951 167.788C74.0689 167.549 74.6586 167.223 74.967 167.325C75.2678 167.427 75.6367 169.156 73.0042 170.698C72.7348 169.618 73.0269 168.498 73.7951 167.788ZM82.764 167.084C82.9653 166.94 83.3591 166.802 83.5431 166.887C84.1458 167.17 83.0042 169.004 82.0975 169.831C81.6733 168.868 81.9244 167.756 82.764 167.083V167.084Z" fill="#FFFBFA"/>
<path d="M104.482 171.23C103.826 180.24 102.27 202.437 102.27 202.437L52.3889 205.631C52.3889 205.631 48.9372 176.382 47.8844 167.954C47.7308 166.724 48.6213 165.579 49.8505 165.415C49.8505 165.415 57.0589 164.601 59.7607 164.268C61.071 164.106 62.2667 165.009 62.4636 166.315C62.6746 167.713 62.9548 169.263 62.9548 169.263C62.9548 169.263 90.7119 167.871 100.96 167.625C102.863 167.58 104.482 169.111 104.482 171.229V171.23Z" fill="#00A492"/>
<path d="M52.3066 206.09C52.0351 206.09 51.8024 205.887 51.77 205.614C51.7343 205.322 48.2372 176.276 47.2644 167.936C47.1595 166.377 48.3162 165.031 49.8007 164.877C52.1314 164.636 56.8371 164.169 59.6633 163.655C61.2712 163.446 62.6919 164.521 62.9948 166.135C63.1582 167.059 63.3205 168.052 63.4125 168.622C67.152 168.456 91.5494 167.2 100.937 167.005C103.349 166.955 105.13 168.991 104.938 171.197C104.284 180.198 102.728 202.395 102.728 202.395C102.708 202.665 102.493 202.88 102.222 202.897C102.222 202.897 52.3185 206.092 52.3066 206.092V206.09ZM49.9111 165.952C48.9664 166.061 48.2804 166.909 48.3421 167.836C49.2402 175.539 52.3099 201.046 52.7827 204.977L101.68 201.845C101.909 198.589 103.26 179.344 103.858 171.109C103.995 169.544 102.736 168.043 100.958 168.086C90.8536 168.326 63.2545 169.711 62.9775 169.723C62.7016 169.745 62.4625 169.539 62.4192 169.268C62.4192 169.268 62.1747 167.716 61.9291 166.329C61.7343 165.291 60.8265 164.598 59.8256 164.724C56.9961 165.239 52.259 165.684 49.9089 165.954L49.9111 165.952Z" fill="#2D3E50"/>
<path d="M141.328 152.58L182.67 149.846L186.899 94.2886L146.097 97.4037L141.328 152.58Z" fill="#FF7A59"/>
<path d="M155.272 110.885C156.361 110.682 157.517 110.305 158.795 109.74C159.025 110.058 159.315 110.323 159.604 110.544C162.039 112.41 165.872 111 168.318 109.047C169.217 109.833 170.303 110.164 171.42 110.164C174.648 110.164 177.883 107.297 179.731 105.318C179.935 105.099 179.923 104.756 179.705 104.553C179.488 104.35 179.145 104.36 178.94 104.579C176.35 107.354 171.966 110.728 169.068 108.267C169.128 108.217 169.184 108.166 169.235 108.116C170.589 106.76 171.175 105.592 171.029 104.576C170.97 103.877 170.558 103.585 170.318 103.473C168.546 102.649 166.043 105.649 167.618 108.221C165.362 110.005 161.717 111.43 159.786 109.247C163.297 107.233 162.981 104.263 161.587 103.851C159.937 103.362 157.457 105.962 158.334 108.761C157.143 109.286 156.068 109.635 155.031 109.831C154.383 110.009 152.434 110.216 152.128 109.618C151.802 108.981 150.838 109.476 150.998 110.151C151.256 111.241 154.111 111.205 155.272 110.885ZM169.083 104.65C170.362 103.737 170.349 105.659 168.407 107.407C167.986 106.473 168.246 105.322 169.083 104.65ZM161.28 104.888C161.589 104.984 161.963 106.721 159.319 108.269C158.842 106.35 160.521 104.666 161.28 104.888Z" fill="#FFFBFA"/>
<path d="M168.515 122.353C172.22 118.822 169.981 116.359 167.872 117.87C166.556 118.921 166.235 120.834 167.068 122.295C164.805 124.091 161.155 125.51 159.226 123.328C164 120.589 161.828 116.004 158.818 118.646C157.706 119.758 157.317 121.386 157.775 122.843C156.582 123.368 155.507 123.717 154.471 123.914C153.834 124.088 151.995 124.319 151.541 123.644C151.15 123.058 150.25 123.641 150.451 124.309C150.759 125.329 153.557 125.286 154.713 124.968C155.8 124.764 156.958 124.388 158.236 123.822C158.465 124.141 158.755 124.405 159.044 124.627C161.484 126.493 165.32 125.077 167.759 123.128C168.659 123.915 169.744 124.246 170.861 124.246C174.088 124.246 177.323 121.38 179.171 119.4C179.374 119.181 179.363 118.838 179.145 118.635C178.927 118.431 178.584 118.442 178.381 118.661C175.79 121.436 171.415 124.804 168.515 122.353ZM159.556 119.436C159.83 119.197 160.425 118.872 160.728 118.973C161.052 119.078 161.361 120.828 158.758 122.349C158.499 121.319 158.796 120.197 159.556 119.436ZM169.395 118.778C169.504 119.709 168.524 120.817 167.868 121.474C167.005 119.364 169.285 117.845 169.395 118.778Z" fill="#FFFBFA"/>
<path d="M176.76 132.736C174.161 135.521 169.777 138.883 166.887 136.424C167.848 135.611 169.036 134.042 168.848 132.733C168.736 131.409 167.332 131.172 166.251 131.945C164.875 133.046 164.561 134.891 165.443 136.374C163.177 138.169 159.524 139.589 157.606 137.404C159.641 136.236 160.627 134.683 160.321 133.074C159.741 130.373 154.907 132.851 156.16 136.916C154.966 137.443 153.888 137.794 152.85 137.989C152.202 138.167 150.252 138.375 149.947 137.775C149.618 137.136 148.659 137.638 148.819 138.31C149.078 139.409 151.967 139.354 153.093 139.043C154.18 138.84 155.338 138.463 156.616 137.898C158.719 140.814 163.238 139.521 166.137 137.204C167.038 137.991 168.123 138.322 169.24 138.322C172.467 138.322 175.701 135.455 177.55 133.475C177.753 133.257 177.742 132.914 177.524 132.71C177.306 132.507 176.963 132.518 176.76 132.736ZM157.936 133.513C158.21 133.274 158.799 132.948 159.108 133.05C159.408 133.152 159.777 134.881 157.145 136.423C156.875 135.343 157.168 134.223 157.936 133.513ZM166.905 132.809C167.106 132.665 167.5 132.527 167.684 132.612C168.286 132.895 167.145 134.729 166.238 135.556C165.814 134.593 166.065 133.481 166.905 132.808V132.809Z" fill="#FFFBFA"/>
</svg>
