<svg width="147" height="147" viewBox="0 0 147 147" fill="none" xmlns="http://www.w3.org/2000/svg">
<g clip-path="url(#clip0_2822_27455)">
<path d="M106.081 94.9366C105.42 92.5159 103.488 92.3604 102.408 92.1217C103.072 91.769 103.638 91.2569 104.055 90.6313C104.472 90.0057 104.727 89.2862 104.797 88.5376C105.002 86.2412 105.044 85.4613 101.811 83.8454C103.511 82.345 105.267 78.0859 101.64 77.3643C89.218 74.8799 79.3085 82.5934 88.666 85.9495C85.095 87.1896 80.1272 89.0972 82.6991 91.7825C83.546 92.6238 84.6089 93.2146 85.7711 93.4892C84.9524 95.9422 85.2062 97.7764 87.8008 99.2649C88.773 104.581 94.648 106.95 98.5691 105.775C99.8491 105.348 103.091 103.3 102.92 100.059C105.057 99.118 106.763 97.2406 106.081 94.9366Z" fill="#FFD0C4"/>
<path d="M81.3372 71.0473C81.3372 67.19 74.7817 63.8372 69.4262 63.9398C59.3395 64.1353 58.6244 73.2585 47.4651 74.545C46.2777 74.6894 45.0734 74.6006 43.92 74.2836C42.5093 83.2891 40.5783 92.2054 38.1367 100.988C40.3997 101.91 42.5788 103.026 44.6502 104.322C49.2604 107.217 50.8644 109.291 56.4241 111.148C58.7076 102.267 60.2684 99.5326 63.2497 91.8634C65.4225 89.5366 66.957 86.6877 67.7044 83.5931C68.4517 80.4987 68.3867 77.2634 67.5153 74.2015C67.43 73.6895 67.0962 72.9301 67.6007 72.4959C69.8874 70.5299 81.7326 76.1782 81.3372 71.0473Z" fill="#FFD0C4"/>
<path d="M97.1202 76.9349C97.1202 72.5818 101.485 63.7567 103.601 59.9556C104.455 58.506 107.49 55.1143 106.588 53.3006C105.961 52.0358 103.687 51.4244 102.577 50.9124C89.7016 44.9023 76.4695 37.8153 71.9512 39.9907C70.7079 40.6118 71.0957 41.0774 69.9885 40.5027C67.7525 39.3415 65.6138 44.077 65.1277 45.2803C62.2112 52.4678 61.9628 65.606 62.397 66.1839C70.0533 61.0801 80.9964 66.2822 80.9964 71.0447C81.4749 77.2665 65.2541 68.1865 67.2599 74.201C68.1085 77.2651 68.162 80.495 67.4153 83.5856C66.6686 86.6761 65.1462 89.5253 62.9922 91.864C60.5553 98.8246 58.6013 101.576 56.1666 111.317C55.4839 113.962 55.0475 116.272 55.3132 116.692C56.0175 117.805 60.0347 118.683 60.4322 118.484C61.6819 119.732 65.7844 120.705 65.8935 120.705C66.0517 121.239 66.3513 121.72 66.7607 122.098C67.1701 122.475 67.6741 122.735 68.2191 122.85C70.3795 123.508 88.7424 124.362 92.3426 124.458C97.7813 124.695 99.7472 124.7 100.107 123.861C100.917 121.836 96.0109 112.645 96.0109 106.371C92.6839 106.115 88.8439 103.896 87.8199 100.312L88.2466 99.8011C85.2772 98.1916 85.0384 96.2851 85.8583 93.8288C84.7036 93.5369 83.6439 92.9487 82.7863 92.1221C80.2965 89.5189 84.9542 87.5487 88.5026 86.6619L88.5879 86.1498C81.5754 84.0867 85.2739 76.6335 97.1202 76.9349Z" fill="#00A492"/>
<path d="M90.5377 73.8255C88.3137 73.3209 86.0215 73.1946 83.7553 73.4517C83.3233 68.0238 83.8579 66.8821 83.0381 66.5656C82.9171 66.5234 82.7875 66.5155 82.6622 66.5428C82.538 66.57 82.4224 66.6314 82.3306 66.7201C82.2388 66.8088 82.1729 66.9212 82.1405 67.0449C82.1091 67.1687 82.1113 67.2989 82.1491 67.4211C82.1491 68.0984 82.1977 71.435 82.3878 73.6861C73.0552 75.5581 69.3481 84.9199 80.032 85.6761C81.8337 85.918 83.5285 86.079 84.7707 87.3212C84.9154 87.4241 85.0883 87.4801 85.2665 87.4811C85.4436 87.4823 85.6175 87.4288 85.7634 87.3277C85.8239 87.2688 85.8714 87.1985 85.9038 87.1209C85.9362 87.0435 85.9524 86.9602 85.9524 86.8761C85.9524 86.7921 85.9362 86.7088 85.9038 86.6314C85.8714 86.5538 85.8239 86.4835 85.7634 86.4246C82.808 83.4703 76.0106 85.2451 74.9768 81.809C73.8189 78.7208 80.7643 72.661 90.1489 75.0936C90.8402 75.3172 91.4613 74.1149 90.5377 73.8255Z" fill="#FFFBFA"/>
<path d="M85.4387 96.3602C83.6402 97.011 81.7272 97.28 79.8186 97.1498C77.911 97.0195 76.0514 96.4932 74.3584 95.6041C74.207 95.5286 74.0323 95.5145 73.8708 95.5649C73.7092 95.6152 73.5734 95.7259 73.4918 95.874C73.41 96.0222 73.3887 96.1961 73.4323 96.3596C73.4758 96.5231 73.5808 96.6634 73.7254 96.7512C75.8615 97.9243 78.2653 98.5225 80.7022 98.487C80.7367 100.616 80.956 102.028 80.956 104.329C80.9754 104.486 81.0511 104.63 81.1699 104.735C81.2887 104.84 81.441 104.897 81.5998 104.897C81.7575 104.897 81.9098 104.84 82.0286 104.735C82.1474 104.63 82.223 104.486 82.2425 104.329C82.2425 95.5911 80.5142 99.7919 85.9334 97.6218C86.8645 97.3064 86.0685 96.0707 85.4387 96.3602Z" fill="#FFFBFA"/>
<path d="M87.3938 54.1543C86.938 54.1046 86.4778 54.1913 86.0717 54.4034C85.6655 54.6153 85.3317 54.9431 85.1125 55.3452C84.8921 55.7473 84.7971 56.2055 84.837 56.6619C84.8781 57.1184 85.0541 57.5523 85.3415 57.909C85.5607 58.1718 85.8351 58.3841 86.144 58.5315C86.453 58.6787 86.79 58.7574 87.1324 58.7623C87.7222 58.7616 88.2903 58.5355 88.7181 58.13C89.1469 57.7246 89.404 57.1707 89.4375 56.5816C89.471 55.9926 89.2776 55.4131 88.8985 54.9618C88.5183 54.5105 87.9803 54.2217 87.3938 54.1543Z" fill="#FFFBFA"/>
<path d="M81.934 112.428C81.3313 112.441 80.7588 112.69 80.3375 113.12C79.9162 113.551 79.6797 114.129 79.6797 114.732C79.6797 115.334 79.9162 115.913 80.3375 116.343C80.7588 116.774 81.3313 117.022 81.934 117.035C82.5367 117.022 83.1092 116.774 83.5305 116.343C83.9518 115.913 84.1883 115.334 84.1883 114.732C84.1883 114.129 83.9518 113.551 83.5305 113.12C83.1092 112.69 82.5367 112.441 81.934 112.428Z" fill="#FFFBFA"/>
<path d="M65.5839 121.117C63.6147 117.197 62.9386 94.1009 63.1913 91.07C63.2486 90.3894 64.1127 90.5796 64.1149 90.8669C64.1559 95.0796 64.6658 116.866 66.5485 120.632C66.6077 120.759 66.6149 120.905 66.5688 121.037C66.5227 121.17 66.4268 121.279 66.3014 121.342C66.176 121.405 66.031 121.417 65.8971 121.375C65.7631 121.333 65.6509 121.241 65.5839 121.117Z" fill="#2D3E50"/>
<path d="M66.6586 63.8666C66.0688 62.9863 67.8382 57.4558 68.1179 56.6975C69.6854 52.1059 71.8891 47.7569 74.6649 43.7775C76.1458 41.8332 77.8492 40.1049 80.3898 40.4797C80.4978 40.4733 80.8219 40.5586 80.9072 40.5597C81.0509 40.5597 81.1881 40.6166 81.2896 40.7178C81.39 40.8191 81.4473 40.9565 81.4473 41.0998C81.4473 41.243 81.39 41.3804 81.2896 41.4817C81.1881 41.5829 81.0509 41.6399 80.9072 41.6399C79.395 41.6399 78.3018 40.7822 75.5344 44.4137C69.9424 52.4556 67.4493 61.6112 67.6221 63.522C68.1536 64.0783 67.162 64.6163 66.6586 63.8666Z" fill="#2D3E50"/>
<path d="M64.2461 64.6773C64.2461 54.1024 68.2287 41.5821 70.8114 39.8754C73.5399 38.0596 77.0332 39.1776 80.2835 40.2653C81.2934 40.6034 80.7685 41.5615 80.143 41.3563C74.646 39.534 71.1128 38.6742 69.3964 44.1648C66.7228 50.6745 65.3405 57.642 65.3263 64.6794L64.2461 64.6773Z" fill="#2D3E50"/>
<path d="M65.8103 121.074C65.4463 121.074 65.8363 120.939 63.65 120.414C60.0076 119.541 59.2969 118.663 59.2969 114.732C59.6456 106.948 60.867 99.2279 62.9381 91.7166C62.9577 91.6483 62.9904 91.5846 63.0346 91.5291C63.0787 91.4734 63.1333 91.4272 63.1953 91.3927C63.2574 91.3583 63.3256 91.3363 63.3961 91.3282C63.4667 91.3201 63.5381 91.326 63.6062 91.3455C63.6745 91.3651 63.7382 91.3978 63.7938 91.4419C63.8494 91.4861 63.8957 91.5407 63.9302 91.6027C63.9646 91.6647 63.9865 91.733 63.9946 91.8035C64.0027 91.874 63.9968 91.9454 63.9773 92.0136C61.9339 99.4284 60.7266 107.049 60.3781 114.732C60.3781 118.12 60.767 118.612 63.9027 119.364C64.6428 119.511 65.3638 119.741 66.0523 120.05C66.1616 120.104 66.2494 120.193 66.3013 120.304C66.3532 120.414 66.3662 120.539 66.3381 120.658C66.31 120.776 66.2426 120.882 66.1468 120.958C66.051 121.033 65.9324 121.074 65.8103 121.074Z" fill="#2D3E50"/>
<path d="M103.8 91.8128C105.63 90.0845 106.521 86.2434 104.01 84.4298C103.624 84.1511 103.22 83.8985 102.8 83.6737C104.604 81.4961 105.6 77.5804 101.841 76.8286C98.1895 76.0984 91.6804 76.1416 87.2074 78.7729C83.7595 80.8415 83.4786 84.5043 87.5617 86.1095C83.8275 87.1022 79.8384 89.4677 82.4957 92.2449C83.2572 92.9677 84.1559 93.531 85.1389 93.9019C84.4141 95.184 84.7489 97.5971 87.1502 99.3179C88.9292 105.151 94.6887 107.554 98.9241 106.283C100.501 105.757 103.658 103.618 103.651 100.291C108.5 97.5885 106.899 92.5041 103.8 91.8128ZM85.7038 83.0256C84.7576 79.1262 94.6466 76.4948 101.628 77.8904C104.313 78.4305 103.296 81.3286 102.02 82.9219C98.964 86.7295 86.6479 86.9315 85.6995 83.0256H85.7038ZM84.265 92.2557C80.3483 89.7799 84.9218 87.8378 89.3418 86.6442C94.1886 87.6423 99.6802 86.2737 101.98 84.473C104.597 85.726 104.595 86.6712 104.356 88.4783C103.68 94.4938 88.9108 95.1948 84.2607 92.2557H84.265ZM98.5881 105.258C95.1132 106.302 89.8549 104.1 88.5133 100.101C91.8716 101.608 98.1528 102.44 102.533 100.791C102.215 103.465 99.3389 105.005 98.5881 105.258ZM102.869 99.482C98.5752 101.465 91.7744 100.576 88.5025 98.9009C85.396 97.218 85.7351 94.9043 86.1402 94.1914C92.4052 95.9196 98.762 94.9648 102.708 92.6251C106.244 93.2527 107.026 97.4006 102.869 99.4799V99.482Z" fill="#2D3E50"/>
<path d="M81.6214 70.7916C81.6214 65.476 70.043 60.221 62.0994 65.476C58.0131 68.1765 51.9458 75.7615 44.1048 73.6519C44.1372 73.1831 44.1383 72.7348 44.1383 72.2422C43.4556 69.5969 35.6049 67.5489 33.5526 66.27C14.4875 56.6434 2.15511 45.5349 -6.71312 33.7621C-7.48113 32.7381 -11.0479 28.3979 -11.4907 29.0698C-20.131 42.1691 -26.422 90.3298 -23.095 93.5714C-20.3643 96.2167 -15.6721 97.5821 -12.1734 98.8642C1.91748 103.962 18.5414 104.413 33.814 104.07C36.4604 104.07 37.4866 104.286 38.2502 100.829C40.641 92.2875 42.5428 83.6166 43.946 74.8584C53.1642 76.3923 58.1298 69.4089 62.6957 66.3823C69.9534 61.5723 80.5337 66.4115 80.5434 70.838C80.7908 74.0461 73.6411 71.6752 70.3066 71.3349C64.9587 70.7948 66.8047 73.2166 67.4053 78.0233C67.9864 83.2503 64.5817 90.5534 60.1443 93.378C60.0456 93.4408 59.9699 93.5339 59.9286 93.6434C59.8873 93.7529 59.8828 93.8729 59.9155 93.9851C59.9484 94.0974 60.0167 94.1961 60.1104 94.2663C60.204 94.3364 60.3179 94.3742 60.4349 94.374C61.433 94.374 71.0109 86.6809 67.792 73.8647C67.6148 72.7964 66.8954 72.091 70.5367 72.4442C73.2587 72.7078 76.4388 73.9986 79.2461 73.4682C79.9148 73.4248 80.5391 73.1193 80.9841 72.6183C81.4292 72.1171 81.6582 71.4606 81.6214 70.7916Z" fill="#2D3E50"/>
<path d="M170.089 46.5842C170.216 46.5343 170.358 46.5344 170.484 46.5845C170.612 46.6346 170.714 46.7309 170.774 46.8541C170.832 46.9773 170.843 47.1183 170.802 47.2485C170.761 47.3789 170.672 47.4889 170.553 47.5564C160.88 52.1547 147.815 58.5461 138.223 64.1911C137.566 64.5789 131.455 68.3314 131.047 68.8142C130.382 69.4623 128.857 69.3187 130.2 67.9069C132.095 65.9215 140.707 60.5509 170.089 46.5842Z" fill="#2D3E50"/>
<path d="M140.375 70.222C140.239 70.2219 140.107 70.1699 140.007 70.0768C139.908 69.9836 139.847 69.856 139.837 69.7198C139.828 69.5836 139.87 69.4487 139.956 69.3425C140.041 69.2362 140.165 69.1664 140.3 69.1472C141.272 69.0079 156.048 64.9561 171.841 61.7296C171.981 61.701 172.127 61.7293 172.247 61.8083C172.366 61.8872 172.45 62.0105 172.478 62.1509C172.507 62.2912 172.478 62.4373 172.399 62.5568C172.32 62.6763 172.197 62.7596 172.057 62.7882C153.893 66.4986 141.215 70.222 140.375 70.222Z" fill="#2D3E50"/>
<path d="M138.751 76.8768C138.618 76.8769 138.488 76.8273 138.389 76.7376C138.289 76.6478 138.227 76.5243 138.214 76.3911C138.201 76.2578 138.236 76.1243 138.316 76.0165C138.395 75.9085 138.512 75.8341 138.643 75.8074C141.297 75.2674 165.687 75.343 168.024 75.3505C176.827 75.3808 176.996 75.1626 176.996 75.9101C176.996 77.0248 176.479 76.0851 147.03 76.5366C138.747 76.6629 138.917 76.8768 138.751 76.8768Z" fill="#2D3E50"/>
<path d="M50.6422 49.3204C50.5666 48.5859 50.3182 48.8106 43.9041 49.4684C41.5072 40.1519 41.6757 39.8797 40.9271 40.0644C40.1786 40.2491 40.4594 40.4176 42.8174 49.5797C36.5449 50.2278 36.183 50.056 36.2575 50.7959C36.3321 51.5359 36.6604 51.2971 43.0896 50.6382C44.3189 55.4191 44.2379 55.8846 44.9497 55.701C45.6615 55.5174 45.3688 55.1609 44.1763 50.527C50.5569 49.8724 50.7157 50.0377 50.6422 49.3204Z" fill="#2D3E50"/>
<path d="M35.4856 117.643C35.1507 116.982 35.0535 117.259 29.2454 120.202C23.6642 112.378 23.716 112.054 23.0884 112.499C22.4608 112.944 22.7784 112.994 28.2733 120.697C22.6164 123.566 22.2437 123.527 22.5807 124.189C22.9178 124.851 23.0031 124.581 28.9073 121.586C31.7417 125.559 31.8238 126.003 32.4201 125.582C33.0163 125.162 32.6361 124.958 29.8827 121.095C35.5137 118.234 35.8194 118.3 35.4856 117.643Z" fill="#2D3E50"/>
<path d="M125.011 96.2498L119.524 93.3679L122.54 84.532C122.584 84.397 122.574 84.2498 122.51 84.1223C122.448 83.9949 122.336 83.8976 122.201 83.8514C122.067 83.8053 121.92 83.8142 121.792 83.8761C121.664 83.9381 121.565 84.048 121.518 84.1821L118.556 92.8602L113.155 90.0215C113.028 89.9549 112.88 89.9415 112.743 89.9841C112.606 90.0267 112.492 90.122 112.425 90.2489C112.359 90.3758 112.345 90.524 112.388 90.6609C112.43 90.7976 112.525 90.9119 112.653 90.9785L118.207 93.895L116.659 98.4317C116.631 98.5131 116.623 98.5998 116.635 98.6849C116.648 98.7699 116.681 98.8507 116.73 98.9207C116.78 98.9906 116.846 99.0477 116.923 99.087C116.999 99.1263 117.084 99.1468 117.17 99.1468C117.698 99.1468 117.573 99.0982 119.175 94.4038C124.997 97.4617 124.576 97.2695 124.764 97.2695C124.885 97.2693 125.002 97.2284 125.096 97.1536C125.191 97.0788 125.259 96.9743 125.287 96.8567C125.316 96.7392 125.304 96.6155 125.254 96.5055C125.204 96.3954 125.118 96.3054 125.011 96.2498Z" fill="#2D3E50"/>
</g>
<defs>
<clipPath id="clip0_2822_27455">
<rect width="146.52" height="146.52" fill="white" transform="translate(0.480469 0.22998)"/>
</clipPath>
</defs>
</svg>
