<svg width="334" height="334" viewBox="0 0 334 334" fill="none" xmlns="http://www.w3.org/2000/svg">
<path d="M246.126 158.971L302.221 151.49C303.24 151.43 304.258 151.601 305.201 151.99C306.144 152.379 306.987 152.977 307.667 153.738C308.345 154.499 308.844 155.404 309.124 156.385C309.404 157.366 309.457 158.398 309.282 159.403C308.204 166.765 300.176 301.322 300.176 301.322C300.176 301.322 299.886 311.836 290.639 312.305C280.086 312.841 233.553 314.329 233.553 314.329C233.553 314.329 227.389 314.441 224.882 310.572C224.322 309.765 224.021 308.808 224.016 307.827L235.721 170.098C235.781 167.288 236.876 164.598 238.796 162.545C240.715 160.492 243.325 159.219 246.126 158.971Z" fill="#FFD0C4"/>
<path d="M250.026 166.051L296.707 160.271C297.532 160.308 298.34 160.519 299.077 160.892C299.814 161.264 300.462 161.788 300.981 162.43C301.5 163.073 301.877 163.818 302.087 164.616C302.296 165.415 302.335 166.249 302.197 167.063C301.331 173.277 294.537 287.015 294.537 287.015C294.537 287.015 294.251 295.856 286.59 296.264C277.92 296.727 239.331 297.42 239.331 297.42C239.331 297.42 234.887 297.392 232.683 294.675C231.98 293.871 231.571 292.851 231.527 291.784L241.363 175.301C241.395 172.957 242.301 170.71 243.904 168.999C245.507 167.288 247.689 166.237 250.026 166.051Z" fill="#FFFBFA"/>
<path d="M301.987 150.856L246.221 158.249C243.242 158.485 240.454 159.823 238.408 162.003C236.361 164.182 235.2 167.047 235.151 170.036L223.441 307.929C224.333 314.16 231.423 318.573 237.475 318.376C237.94 318.361 284.14 316.924 294.582 316.351C304.377 315.739 304.799 304.778 304.799 304.694C304.858 303.346 313.618 170.045 313.762 162.738C313.858 155.361 307.82 150.084 301.987 150.856ZM236.587 170.118C236.622 167.473 237.645 164.937 239.454 163.008C241.263 161.078 243.729 159.894 246.365 159.688L302.073 152.253C303.006 152.149 303.949 152.263 304.828 152.587C305.709 152.91 306.501 153.433 307.146 154.115C307.789 154.797 308.265 155.62 308.536 156.517C308.809 157.415 308.868 158.363 308.711 159.288C307.562 166.609 299.924 295.782 299.599 301.298C299.585 301.696 299.207 311.053 290.741 311.582C280.346 312.152 234.357 313.565 233.677 313.604C230.791 313.771 225.664 312.549 224.879 307.884L236.587 170.118Z" fill="#2D3E50"/>
<path d="M100.446 24.2826L46.2518 9.73019C45.2314 9.4529 44.1602 9.41888 43.1242 9.63092C42.0883 9.84294 41.1166 10.2951 40.2871 10.951C39.4577 11.6069 38.7939 12.4483 38.3486 13.4075C37.9036 14.3666 37.6899 15.4169 37.7244 16.4737C37.8785 23.8437 28.1852 158.391 28.1852 158.391C28.1852 158.391 27.1802 168.768 36.2788 170.532C46.5466 172.522 92.6409 179.925 92.6409 179.925C92.6409 179.925 98.8904 180.821 101.746 177.324C102.353 176.555 102.796 175.669 103.048 174.723L109.55 36.7027C109.829 33.8748 109.054 31.0435 107.374 28.7516C105.694 26.4597 103.227 24.8683 100.446 24.2826Z" fill="#FFD0C4"/>
<path d="M95.823 30.7816L51.0419 19.1236C50.175 18.8929 49.2662 18.8677 48.3878 19.0499C47.5095 19.2321 46.6857 19.6167 45.9822 20.1733C45.2785 20.7299 44.7145 21.443 44.335 22.2557C43.9554 23.0686 43.7709 23.9588 43.7958 24.8554C44.0219 31.068 35.5582 144.807 35.5582 144.807C35.5582 144.807 34.6872 153.645 42.2062 155.068C50.727 156.681 88.8851 162.294 88.8851 162.294C88.8851 162.294 93.4076 162.909 95.823 160.561C96.5757 159.793 97.1224 158.849 97.4126 157.814L102.903 41.0426C103.297 38.7464 102.777 36.3872 101.454 34.4694C100.131 32.5517 98.1097 31.2282 95.823 30.7816Z" fill="#FFFBFA"/>
<path d="M100.78 23.579L46.3091 9.00655C40.5622 7.46722 33.9141 11.3046 32.9627 19.1436C32.1018 26.4399 23.6363 155.603 23.2779 161.068C23.2661 161.179 22.3114 172.15 31.8053 173.987C41.9625 175.997 87.7335 183.312 88.1858 183.384C96.0332 184.732 103.438 178.759 103.654 174.16L110.125 36.6524C110.482 33.6997 109.721 30.7202 107.992 28.3007C106.262 25.881 103.689 24.1966 100.78 23.579ZM108.686 36.5268L102.232 174.044C102.045 178.024 97.281 179.833 92.7585 179.208C92.2946 179.145 46.552 171.817 36.4166 169.818C28.0767 168.23 28.869 158.857 28.9092 158.44C29.3045 152.946 38.5924 23.77 38.4567 16.4536C38.441 15.5093 38.6442 14.5741 39.0505 13.7216C39.4569 12.869 40.055 12.1221 40.7985 11.5395C41.5419 10.957 42.4101 10.5545 43.3352 10.3638C44.2601 10.1731 45.2167 10.1993 46.1299 10.4403L100.455 24.981C103.024 25.5242 105.296 27.0121 106.82 29.1503C108.344 31.2886 109.01 33.921 108.686 36.5268Z" fill="#2D3E50"/>
<path d="M245.834 226.894C245.545 226.028 242.077 225.594 241.354 225.45C236.875 224.445 232.562 223.631 228.058 222.415C215.825 219.375 204.227 214.187 193.807 207.095C181.297 198.028 170.485 186.826 161.868 174C158.255 168.942 154.064 158.103 147.128 157.669C141.926 157.379 136.867 159.981 132.243 161.857C123.573 165.614 94.6673 175.731 94.813 179.634C95.1078 189.359 184.099 258.24 189.618 254.928C192.801 253.049 230.372 234.406 238.466 230.937C239.476 230.507 245.978 228.632 245.834 226.894Z" fill="#00A492"/>
<path d="M94.0867 179.781C93.9192 175.232 120.398 166.16 131.962 161.338C136.612 159.393 141.792 156.648 147.186 157.095C154.556 157.554 158.852 168.538 162.46 173.733C179.47 198.27 199.615 214.549 228.232 221.713C241.875 225.23 246.123 224.828 246.406 227.093C246.547 228.785 243.994 230.008 239.539 231.557C234.735 233.232 192.997 253.977 189.841 255.844C183.617 259.57 94.0867 189.903 94.0867 179.781ZM132.52 162.671C125.729 165.5 95.4133 176.573 95.5323 179.756C95.5323 188.839 183.456 257.238 189.103 254.6C192.399 252.652 234.244 231.869 239.061 230.194C244.317 228.366 244.944 227.514 244.969 227.24C244.897 227.138 244.394 226.768 241.602 226.235C226.943 223.403 227.09 222.973 221.05 221.09C195.211 213.033 176.693 196.802 161.273 174.565C157.745 169.485 153.534 158.947 147.08 158.544C142.111 158.115 137.009 160.795 132.52 162.671Z" fill="#2D3E50"/>
<path d="M216.421 228.48C217.317 227.606 218.309 226.832 219.374 226.174C220.764 225.241 221.232 224.926 220.898 224.259C220.796 224.092 220.652 223.954 220.481 223.859C220.31 223.763 220.116 223.715 219.92 223.716C217.595 223.1 208.982 222.274 206.52 221.314C197.996 217.723 190.107 212.784 183.151 206.687C175.186 199.873 168.09 192.106 162.024 183.558C159.723 180.379 157.699 177.009 155.974 173.483C155.577 172.188 154.858 171.016 153.885 170.074C152.805 169.331 151.553 171.316 151.059 171.666C148.152 173.604 144.957 171.624 143.76 168.316C143.425 167.364 142.857 165.768 141.488 165.768C138.872 165.768 135.906 168.763 134.098 169.739C117.089 177.779 112.332 176.898 111.168 180.165C110.727 181.709 112.379 183.032 112.941 183.476C114.332 184.866 116.442 186.454 116.199 188.406C116.097 189.834 114.729 190.444 112.849 191.128C112.573 191.24 111.499 191.365 111.241 192.119C110.823 193.342 113.824 195.29 114.898 196.009C120.976 200.085 138.482 219.469 167.417 237.205C170.6 239.086 175.233 243.473 179.142 244.094C181.152 244.272 182.96 241.671 184.06 241.17C186.167 240.473 189.382 245.022 190.76 246.972C190.882 247.13 191.062 247.232 191.259 247.257C191.457 247.282 191.656 247.228 191.814 247.108C193.671 245.702 223.123 233.487 223.712 230.921C224.134 228.371 218.362 229.09 216.421 228.48ZM191.554 245.589C189.79 243.11 187.169 239.662 184.502 239.662C183.429 239.662 182.906 240.118 181.73 241.151C180.94 241.847 179.951 242.714 179.323 242.659C177.027 242.29 174.144 240.185 171.6 238.326C166.072 234.296 158.052 230.316 142.52 217.807C125.713 204.27 122.769 200.467 117.372 195.983C115.805 194.97 114.314 193.843 112.911 192.612C115.141 191.989 117.474 190.855 117.636 188.545C117.971 185.927 115.685 184.143 113.903 182.397C109.38 178.778 116.06 179.855 134.75 171.026C136.606 170.021 139.504 167.21 141.488 167.21C141.837 167.21 142.259 168.403 142.398 168.795C144.163 173.778 149.487 175.476 152.587 172.18C152.754 171.997 153.071 171.666 153.294 171.478C153.855 172.27 154.306 173.135 154.634 174.048C157.073 179.83 166.627 194.287 182.186 207.78C189.266 213.981 197.296 219.005 205.971 222.656C208.227 223.534 214.646 224.256 218.669 224.907C217.232 225.865 214.408 227.587 214.949 229.029C215.304 229.976 216.743 230.083 218.918 230.244C220.029 230.287 221.133 230.421 222.222 230.646C219.887 232.864 195.13 243.682 191.554 245.589Z" fill="#FFFBFA"/>
<path d="M172.31 208.306C169.233 203.091 163.024 199.116 157.632 196.362C155.319 195.18 151.021 192.97 148.117 195.262C145.127 197.692 146.415 202.129 146.884 203.449C148.808 208.531 153.343 212.978 159.654 215.975C168.388 220.946 177.947 217.861 172.31 208.306ZM171.681 215.653C169.733 217.589 164.646 217.161 160.348 214.705L160.299 214.68C154.4 211.886 150.003 207.606 148.239 202.955C147.855 201.878 146.773 198.22 149.018 196.396C151.102 194.749 154.627 196.456 156.971 197.652C162.081 200.261 168.15 204.102 171.064 209.042C172.299 211.129 173.327 214.018 171.682 215.653H171.681Z" fill="#FFFBFA"/>
<path d="M214.764 180.359C212.126 175.92 208.754 171.962 204.791 168.653C192.652 154.634 172.181 117.9 174.588 97.8386C175.43 90.2158 177.683 82.8162 181.231 76.0167C181.929 74.7035 185.386 70.1173 184.12 68.501C182.78 66.7941 177.618 68.3636 176.026 68.645C167.651 70.1291 124.579 84.1086 123.421 85.1203C121.177 96.775 130.98 119.314 137.345 130.121C144.074 141.554 153.027 149.326 162.594 160.993C169.658 169.604 177.795 180.61 188.892 184.696C195.115 186.984 201.892 187.644 208.545 188.307C210.134 188.466 215.948 190.066 217.072 188.453C218.565 186.314 215.63 182.093 214.764 180.359Z" fill="#FF7A59"/>
<path d="M189.102 183.109C202.395 181.634 202.334 177.835 193.951 171.543C185.231 164.967 174.616 161.018 165.121 155.551C161.196 153.385 159.788 152.368 148.49 145.571C148.335 145.468 148.226 145.309 148.186 145.128C148.145 144.946 148.175 144.756 148.271 144.597C148.367 144.438 148.52 144.321 148.699 144.272C148.878 144.222 149.07 144.244 149.233 144.331C161.084 151.435 161.983 152.169 165.829 154.291C176.802 160.609 193.103 166.609 200.152 175.428C200.669 176.051 201.009 176.801 201.137 177.602C201.266 178.403 201.175 179.222 200.879 179.975C199.411 183.078 193.546 184.069 189.261 184.545C189.07 184.567 188.879 184.511 188.73 184.391C188.581 184.272 188.485 184.098 188.464 183.907C188.442 183.716 188.497 183.525 188.618 183.376C188.737 183.227 188.911 183.131 189.102 183.109Z" fill="#FFFBFA"/>
<path d="M188.522 157.976C182.54 146.384 177.507 134.327 173.472 121.923C171.157 115.357 167.64 108.664 168.085 101.55C168.522 96.4533 170.956 88.0414 170.834 86.9343C170.712 84.8707 169.638 81.4235 167.584 81.648C163.105 82.2258 160.236 83.2074 156.668 83.9494C144.056 86.2291 135.476 89.6947 134.558 99.2087C133.991 106.018 139.396 123.645 142.856 130.01C142.941 130.178 142.957 130.373 142.901 130.552C142.845 130.732 142.721 130.882 142.556 130.972C142.39 131.062 142.196 131.084 142.015 131.033C141.834 130.982 141.68 130.863 141.585 130.7C137.965 124.037 132.522 106.245 133.12 99.0797C134.245 87.4887 145.727 84.4586 156.402 82.5307C160 81.7803 162.807 80.8088 167.422 80.2125C170.467 79.8624 172.102 83.7518 172.279 86.812C172.447 88.2676 169.968 96.5722 169.532 101.658C169.112 108.388 172.584 115.039 174.841 121.443C178.842 133.787 183.849 145.783 189.81 157.309C189.899 157.48 189.916 157.679 189.857 157.862C189.798 158.046 189.669 158.198 189.498 158.287C189.328 158.375 189.13 158.392 188.946 158.334C188.763 158.276 188.611 158.147 188.522 157.976Z" fill="#FFFBFA"/>
<path d="M169.252 146.991C171.721 133.424 164.549 121.509 159.264 119.166C155.44 117.188 152.105 118.545 151.457 122.947C150.739 128.215 151.723 133.576 154.264 138.246C154.356 138.414 154.377 138.612 154.323 138.796C154.269 138.98 154.144 139.134 153.976 139.226C153.808 139.318 153.61 139.339 153.427 139.285C153.243 139.231 153.088 139.106 152.996 138.938C150.305 133.995 149.263 128.322 150.023 122.746C151.182 114.873 160.376 113.955 167.117 125.511C170.793 132.124 172.053 139.809 170.679 147.249C170.663 147.343 170.627 147.432 170.576 147.513C170.524 147.593 170.457 147.662 170.38 147.716C170.301 147.77 170.212 147.809 170.12 147.829C170.026 147.849 169.931 147.851 169.837 147.834C169.743 147.817 169.654 147.782 169.574 147.73C169.493 147.679 169.425 147.612 169.37 147.534C169.316 147.455 169.277 147.367 169.257 147.274C169.237 147.181 169.236 147.085 169.252 146.991Z" fill="#FFFBFA"/>
<path d="M208.629 188.6C201.858 187.93 194.954 187.382 188.773 184.94C178.231 180.722 171.385 172.366 164.151 163.448C149.2 145.023 142.624 142.41 135.249 127.62C128.84 114.766 130.835 119.633 128.803 114.781C124.84 105.312 121.485 91.2522 122.721 84.847C122.751 84.6888 122.833 84.545 122.954 84.4383C124.1 83.4333 160.817 71.2611 176.902 67.5778C180.157 66.8307 183.435 66.2378 184.706 67.9295C185.979 69.4839 184.294 72.4169 182.457 75.2861C180.023 79.08 176.594 87.9994 175.306 97.7948C173.214 117.193 192.483 152.144 203.853 166.259C205.682 168.528 210.577 171.451 215.531 179.704C217.396 182.635 219.35 186.292 217.811 188.446C216.33 190.469 210.938 188.821 208.629 188.6ZM135.893 125.638C143.084 140.871 150.173 143.931 165.27 162.53C172.295 171.185 179.046 179.48 189.308 183.59C195.269 185.947 201.972 186.496 208.771 187.156C210.029 187.278 215.843 188.684 216.644 187.593C217.444 186.503 216.628 184.111 214.299 180.458C198.838 154.693 159.623 150.557 135.893 125.638ZM142.538 129.951C160.477 145.026 183.485 151.638 199.894 163.451C188.1 147.274 171.864 116.165 173.867 97.6089C175.182 87.6426 178.656 78.5139 181.237 74.4939C181.996 73.3096 184.304 69.7067 183.567 68.8089C182.742 67.7084 178.877 68.5962 177.226 68.9764C160.767 72.7636 127.071 84.0514 124.081 85.435C122.83 93.2438 128.312 112.491 132.982 119.965C135.8 123.627 139.004 126.975 142.538 129.951Z" fill="#2D3E50"/>
<path d="M103.568 316.497C102.911 316.497 102.657 316.041 102.615 315.386C102.608 315.286 102.623 315.185 102.658 315.091C102.693 314.997 102.747 314.912 102.817 314.838C102.887 314.766 102.971 314.709 103.064 314.673C103.157 314.634 103.256 314.616 103.357 314.619C103.703 313.773 104.246 312.106 104.978 309.661C105.73 307.133 108.204 300.876 110.157 294.042C124.105 247.405 121.822 246.043 123.579 246.421C123.766 246.463 123.929 246.577 124.033 246.738C124.137 246.899 124.172 247.095 124.132 247.282C120.52 263.83 115.737 280.41 111.549 294.449C109.584 301.326 107.097 307.631 106.367 310.073C104.648 315.823 104.231 316.497 103.568 316.497Z" fill="#FF7A59"/>
<path d="M57.7733 327.253C71.7696 303.971 87.5481 281.271 98.774 255.51C98.8505 255.334 98.9939 255.196 99.1723 255.126C99.3507 255.056 99.5497 255.059 99.7254 255.136C99.9011 255.213 100.039 255.356 100.109 255.535C100.179 255.712 100.175 255.912 100.099 256.087C88.8262 281.958 73.046 304.662 59.0128 327.997C58.9095 328.151 58.7509 328.26 58.5695 328.302C58.3882 328.342 58.1981 328.312 58.0388 328.215C57.8795 328.119 57.7631 327.967 57.7135 327.788C57.6641 327.608 57.6856 327.417 57.7733 327.253Z" fill="#FF7A59"/>
<path d="M42.0239 286.611C41.8675 286.593 41.7199 286.529 41.6005 286.425C41.481 286.323 41.3951 286.187 41.3539 286.035C41.3259 285.924 41.3248 285.807 41.3506 285.697C41.3764 285.584 41.4283 285.48 41.502 285.393C41.5758 285.306 41.6695 285.238 41.775 285.192C41.8807 285.149 41.9953 285.13 42.1093 285.139C45.0121 283.464 57.3686 270.858 59.8794 268.168C71.8255 255.737 81.976 244.267 90.9155 233.091C91.0384 232.952 91.2104 232.865 91.3955 232.849C91.5808 232.834 91.7652 232.889 91.9104 233.004C92.0557 233.12 92.1505 233.289 92.1756 233.473C92.2005 233.658 92.1535 233.844 92.0444 233.994C83.0765 245.203 72.8992 256.707 60.9296 269.169C59.6734 270.516 44.2868 286.611 42.0239 286.611Z" fill="#FF7A59"/>
<path d="M273.296 215.333C273.152 215.189 258.122 215.043 257.398 215.333C256.966 215.477 256.896 219.088 256.966 222.269C257.061 226.522 257.123 225.811 256.82 227.327C258.567 227.764 260.375 227.91 262.169 227.761C267.334 227.761 268.979 227.426 273.585 228.339C273.585 228.339 273.592 216.222 273.296 215.333Z" fill="#00A492"/>
<path d="M273.441 216.779C273.441 219.668 273.585 228.629 273.585 228.629C275.193 229.001 276.594 229.986 277.487 231.375C277.776 228.483 278.21 219.09 278.354 217.79C276.815 217.082 275.135 216.735 273.441 216.779Z" fill="#FF7A59"/>
<path d="M285.433 220.795C285.674 215.006 280.626 211.286 277.483 211.286C277.458 211.286 277.351 211.314 277.264 211.336C277.152 211.397 277.026 211.428 276.899 211.427C276.772 211.425 276.646 211.39 276.535 211.326C276.425 211.264 276.333 211.172 276.267 211.063C276.202 210.954 276.165 210.83 276.16 210.703C276.16 209.713 277.825 209.417 278.984 210C281.351 210.618 283.431 212.038 284.87 214.016C286.309 215.996 287.019 218.413 286.877 220.855C286.868 221.046 286.785 221.227 286.644 221.358C286.503 221.487 286.316 221.555 286.125 221.547C285.934 221.539 285.753 221.455 285.624 221.314C285.493 221.174 285.425 220.986 285.433 220.795Z" fill="#FF7A59"/>
<path d="M290.148 222.495C293.523 216.448 288.587 205.568 277.664 206.08C277.569 206.085 277.473 206.073 277.385 206.042C277.294 206.01 277.212 205.961 277.142 205.898C277.071 205.834 277.014 205.755 276.974 205.67C276.934 205.583 276.911 205.491 276.907 205.395C276.902 205.3 276.917 205.206 276.949 205.115C276.981 205.027 277.029 204.945 277.093 204.874C277.157 204.804 277.234 204.747 277.321 204.707C277.406 204.665 277.498 204.643 277.594 204.638C289.671 204.062 295.326 216.184 291.411 223.199C291.314 223.356 291.158 223.472 290.977 223.519C290.798 223.565 290.607 223.54 290.443 223.45C290.28 223.359 290.16 223.209 290.105 223.031C290.049 222.854 290.064 222.661 290.148 222.495Z" fill="#FF7A59"/>
<path d="M295.474 224.277C296.695 221.594 297.228 218.648 297.024 215.705C296.819 212.763 295.883 209.919 294.302 207.43C291.967 203.933 287.185 199.857 277.659 200.306C277.468 200.313 277.282 200.246 277.141 200.117C277.001 199.988 276.917 199.809 276.907 199.618C276.899 199.427 276.966 199.241 277.093 199.099C277.22 198.956 277.399 198.871 277.59 198.861C285.55 198.492 291.91 201.246 295.503 206.626C297.216 209.323 298.23 212.405 298.452 215.594C298.675 218.782 298.099 221.974 296.777 224.884C296.687 225.038 296.541 225.153 296.37 225.207C296.198 225.261 296.014 225.249 295.85 225.173C295.687 225.096 295.558 224.964 295.489 224.798C295.419 224.632 295.414 224.446 295.474 224.277Z" fill="#FF7A59"/>
<path d="M278.314 233.104C277.982 231.996 277.374 230.989 276.547 230.182C275.719 229.372 274.699 228.79 273.582 228.485C268.877 227.071 261.814 228.575 257.122 227.543C257.108 226.424 257.068 224.108 256.954 222.415C250.352 222.415 248.985 222.503 248.141 237.444C247.851 241.925 247.561 245.392 250.162 248.139C250.834 248.839 251.614 249.426 252.475 249.873C257.244 252.618 262.736 253.055 268.083 252.908C270.658 253.097 273.239 252.65 275.599 251.606C280.284 249.416 279.285 237.763 278.314 233.104Z" fill="#FFFBFA"/>
<path d="M260.008 219.53C259.865 219.53 259.725 219.49 259.606 219.411C259.487 219.333 259.393 219.22 259.338 219.09C259.282 218.957 259.267 218.813 259.294 218.673C259.319 218.532 259.388 218.403 259.487 218.301C259.587 218.199 259.715 218.128 259.854 218.1C259.993 218.07 260.138 218.081 260.271 218.133C260.405 218.187 260.519 218.277 260.599 218.395C260.681 218.512 260.725 218.651 260.728 218.793C260.725 218.984 260.648 219.169 260.514 219.306C260.38 219.442 260.199 219.522 260.008 219.53Z" fill="#FFFBFA"/>
<path d="M270.609 217.578C271.258 216.929 272.325 217.901 271.631 218.599C271.496 218.735 271.311 218.81 271.12 218.81C270.929 218.81 270.745 218.735 270.609 218.599C270.474 218.464 270.398 218.279 270.398 218.088C270.398 217.897 270.474 217.713 270.609 217.578Z" fill="#FFFBFA"/>
<path d="M261.481 227.845C261.313 227.326 261.121 227.175 261.625 225.658C262.63 222.659 265.769 221.348 268.024 223.145C268.64 223.683 269.132 224.346 269.467 225.092C269.804 225.837 269.977 226.646 269.972 227.463C269.963 227.649 269.883 227.824 269.749 227.952C269.613 228.08 269.436 228.152 269.25 228.152C269.064 228.152 268.884 228.08 268.75 227.952C268.615 227.824 268.534 227.649 268.526 227.463C268.526 226.862 268.4 226.269 268.158 225.72C267.915 225.17 267.561 224.678 267.117 224.272C265.632 223.082 263.66 224.115 262.997 226.103C262.662 227.1 262.741 227.046 262.853 227.38C262.915 227.562 262.901 227.76 262.816 227.932C262.732 228.105 262.581 228.237 262.401 228.298C262.218 228.359 262.019 228.348 261.846 228.262C261.674 228.177 261.543 228.028 261.481 227.845Z" fill="#FFFBFA"/>
<path d="M280.806 236.592C280.487 236.528 280.162 236.486 279.835 236.465C279.771 234.636 279.262 232.848 278.353 231.259C278.641 228.346 279.078 218.968 279.215 217.726C279.234 217.562 279.195 217.396 279.106 217.257C279.018 217.117 278.884 217.013 278.726 216.961C277.24 216.494 275.703 216.211 274.148 216.113C274.163 215.658 274.043 215.209 273.805 214.82C273.242 214.259 257.39 214.452 257.169 214.504C256.387 214.763 256.251 215.626 256.243 221.401C249.375 221.373 248.085 223.086 247.425 237.131C247.216 241.594 246.832 245.22 249.66 248.354C250.383 249.099 251.219 249.727 252.137 250.211C257.899 253.226 263.274 253.362 269.055 253.362C271.411 253.382 273.746 252.906 275.907 251.967C278.013 251.049 279.446 247.803 279.862 243.324C284.175 244.128 285.043 237.056 280.806 236.592ZM277.043 229.557C276.304 228.813 275.413 228.235 274.433 227.862C274.328 225.684 274.294 220.194 274.197 217.567C275.39 217.654 276.572 217.854 277.728 218.164C277.585 220.122 277.284 226.199 277.041 229.557H277.043ZM257.874 215.879C260.016 215.805 270.306 215.894 272.691 216.005C272.77 216.842 272.902 225.75 272.971 227.487C267.128 226.408 261.581 227.505 257.954 226.838C257.954 226.168 257.861 224.875 257.686 222.125C257.64 220.041 257.702 217.956 257.874 215.879ZM275.333 250.65C273.046 251.64 270.557 252.067 268.071 251.896C262.812 252.263 257.549 251.243 252.807 248.938C248.509 246.692 248.658 242.768 248.822 238.491C248.953 235.049 249.276 225.89 251.522 223.818C252.8 222.668 255.542 222.842 256.281 222.847C256.372 224.589 256.385 226.058 256.385 226.39C255.822 226.152 255.295 225.84 254.814 225.463C254.663 225.354 254.477 225.308 254.293 225.333C254.109 225.358 253.941 225.452 253.824 225.597C253.708 225.743 253.653 225.927 253.668 226.112C253.685 226.297 253.772 226.47 253.911 226.592C258.464 230.232 264.579 227.284 273.393 229.036C276.669 229.931 278.23 233.307 278.388 236.433C276.957 236.291 275.527 236.146 274.162 235.999C269.956 235.999 269.562 242.349 273.728 242.791C275.056 242.791 276.855 243.006 278.43 243.156C278.073 247.031 276.894 249.969 275.333 250.65Z" fill="#2D3E50"/>
<path d="M79.7812 106.076C79.7812 94.1837 65.8787 99.3326 58.3194 97.6342C58.2842 96.4617 58.2089 94.1552 58.105 92.4902C51.5072 92.4902 50.1337 92.579 49.2878 107.522C48.9997 112.001 48.7099 115.47 51.3112 118.215C51.9815 118.917 52.7631 119.503 53.6244 119.95C58.3931 122.696 63.8854 123.133 69.232 122.985C71.806 123.174 74.387 122.727 76.7478 121.684C78.7963 120.724 79.9303 118.215 80.215 113.446L79.7812 106.076Z" fill="#FFFBFA"/>
<path d="M74.5769 85.264C74.4328 85.1199 59.403 84.9759 58.6811 85.264C58.2473 85.4097 58.1786 89.0193 58.2473 92.2018C58.3528 96.8382 58.4734 95.4028 58.1016 97.2603C61.6626 98.1498 66.5503 97.4278 70.5317 97.6942C71.9922 97.7441 73.4441 97.9377 74.8666 98.272L75.0107 97.8382C74.5919 91.5503 74.9035 86.2422 74.5769 85.264Z" fill="#00A492"/>
<path d="M74.7227 86.7095L74.8667 98.5601C76.4757 98.9326 77.876 99.9182 78.7695 101.307C79.0576 98.416 79.4914 89.0226 79.6354 87.7212C78.0512 87.1632 76.3985 86.8229 74.7227 86.7095Z" fill="#FF7A59"/>
<path d="M86.7198 90.7264C86.8416 88.61 86.2077 86.5191 84.9312 84.8267C83.6547 83.1341 81.8186 81.95 79.7501 81.4854C79.4448 81.3303 79.1106 81.2397 78.7686 81.2191C78.7434 81.2191 78.6346 81.2475 78.5491 81.2676C78.4362 81.3214 78.312 81.347 78.187 81.3423C78.0619 81.3375 77.9399 81.3025 77.8314 81.2403C77.7229 81.178 77.6311 81.0904 77.5639 80.9849C77.4966 80.8794 77.456 80.7591 77.4453 80.6345C77.4453 79.6295 79.1203 79.5709 80.2493 80.132C82.6048 80.7027 84.686 82.08 86.1317 84.025C87.5774 85.9702 88.2965 88.3601 88.1636 90.78C88.1566 90.9714 88.0737 91.1523 87.9333 91.2826C87.793 91.413 87.6064 91.4823 87.4149 91.4751C87.2235 91.4681 87.0427 91.3851 86.9124 91.2448C86.7819 91.1042 86.7128 90.9178 86.7198 90.7264Z" fill="#FF7A59"/>
<path d="M91.2843 92.4267C92.0645 90.7289 92.3951 88.8591 92.2442 86.9969C92.0935 85.1344 91.4665 83.3422 90.4233 81.7921C89.1996 79.8578 87.4686 78.2964 85.4189 77.2775C83.3694 76.2586 81.0797 75.8214 78.7988 76.0134C78.7047 76.0181 78.6104 76.004 78.5218 75.972C78.433 75.94 78.3516 75.8908 78.2821 75.827C78.2126 75.7633 78.1565 75.6864 78.1169 75.6008C78.0774 75.5151 78.0551 75.4224 78.0518 75.3283C78.0468 75.2335 78.0607 75.1387 78.0925 75.0493C78.1241 74.96 78.1734 74.8777 78.237 74.8074C78.3007 74.737 78.3776 74.6799 78.4633 74.6394C78.5491 74.5988 78.6421 74.5757 78.7369 74.5712C81.2762 74.359 83.825 74.8494 86.1043 75.9889C88.3835 77.1284 90.3054 78.8729 91.6595 81.0317C92.8347 82.8008 93.5343 84.843 93.6911 86.9612C93.8477 89.0794 93.4561 91.2023 92.5539 93.1252C92.4613 93.2935 92.3055 93.4181 92.1211 93.4717C91.9365 93.5253 91.7382 93.5034 91.5699 93.4108C91.4015 93.3181 91.2769 93.1624 91.2233 92.9778C91.1697 92.7934 91.1917 92.595 91.2843 92.4267Z" fill="#FF7A59"/>
<path d="M96.6153 94.351C97.8366 91.6667 98.3691 88.72 98.1642 85.7781C97.9595 82.8361 97.0242 79.9916 95.4428 77.5022C93.1079 74.0065 88.3224 69.9312 78.8 70.3784C78.6086 70.3875 78.4213 70.3202 78.2794 70.1913C78.1377 70.0624 78.0528 69.8823 78.0438 69.6909C78.0347 69.4994 78.1021 69.3121 78.2309 69.1703C78.3598 69.0286 78.5399 68.9436 78.7314 68.9346C86.6859 68.5661 93.0509 71.3181 96.6438 76.6999C98.3577 79.3972 99.3719 82.4791 99.5945 85.6672C99.8169 88.855 99.2409 92.0483 97.9185 94.9574C97.8275 95.1123 97.6823 95.2277 97.5108 95.2812C97.3394 95.3346 97.1542 95.3222 96.9914 95.2465C96.8286 95.1708 96.6998 95.0371 96.6302 94.8715C96.5607 94.7058 96.5554 94.5204 96.6153 94.351Z" fill="#FF7A59"/>
<path d="M61.287 89.4501C61.1916 89.4532 61.0966 89.437 61.0077 89.4018C60.9187 89.3668 60.8381 89.3139 60.7705 89.2464C60.703 89.1789 60.65 89.0981 60.615 89.0092C60.58 88.9204 60.5636 88.8253 60.5668 88.7298C60.5695 88.5893 60.613 88.4526 60.6924 88.3367C60.7716 88.2206 60.8832 88.1303 61.0132 88.0771C61.1432 88.0236 61.2859 88.0094 61.4239 88.036C61.5617 88.0628 61.6889 88.1293 61.7895 88.2273C61.8917 88.3263 61.9617 88.4538 61.9909 88.5931C62.0199 88.7323 62.0065 88.8772 61.9524 89.0089C61.8982 89.1403 61.806 89.2527 61.6874 89.3315C61.5688 89.41 61.4294 89.4514 61.287 89.4501Z" fill="#FFFBFA"/>
<path d="M72.4078 88.8803C72.2187 88.8739 72.0391 88.796 71.9054 88.6624C71.7716 88.5285 71.6937 88.349 71.6875 88.16C71.6865 88.0161 71.7282 87.8751 71.8076 87.7552C71.8868 87.6351 72.0001 87.5414 72.1329 87.4858C72.2656 87.4304 72.4118 87.4155 72.553 87.4435C72.6942 87.4713 72.8238 87.5404 72.9255 87.6421C73.0274 87.7438 73.0965 87.8736 73.1243 88.0146C73.1521 88.1558 73.1374 88.3021 73.0818 88.4349C73.0263 88.5675 72.9325 88.6808 72.8124 88.76C72.6925 88.8394 72.5517 88.8813 72.4078 88.8803Z" fill="#FFFBFA"/>
<path d="M62.7651 97.7782L62.6194 97.3443C62.5758 96.7434 62.6751 96.1407 62.9091 95.5856C63.9259 92.5354 67.0966 91.3093 69.3043 93.0848C69.9203 93.6225 70.4133 94.2868 70.7498 95.0322C71.0862 95.7775 71.2582 96.5867 71.254 97.4046C71.2449 97.5902 71.1649 97.7653 71.0304 97.8936C70.8957 98.0219 70.717 98.0934 70.5312 98.0934C70.3453 98.0934 70.1666 98.0219 70.0319 97.8936C69.8974 97.7653 69.8173 97.5902 69.8085 97.4046C69.8086 96.804 69.6833 96.2099 69.4408 95.6605C69.1983 95.1111 68.8437 94.6183 68.3998 94.2138C66.9325 93.0413 64.9476 94.0362 64.2793 96.0429C63.9443 97.0479 64.0247 96.9926 64.1352 97.3209C64.1959 97.5025 64.1818 97.7008 64.0962 97.8721C64.0106 98.0435 63.8604 98.174 63.6788 98.2346C63.4971 98.2952 63.2987 98.2812 63.1274 98.1956C62.956 98.11 62.8257 97.9597 62.7651 97.7782Z" fill="#FFFBFA"/>
<path d="M75.5901 98.2288C75.4527 95.8938 75.441 89.4467 75.302 86.8555C75.302 86.353 75.302 85.2592 74.9452 84.8991C74.3858 84.3363 58.5302 84.5306 58.3091 84.5792C57.4934 84.8505 57.3812 85.7785 57.3828 92.2473C57.5235 94.5086 57.5252 96.5186 57.5252 96.537C57.5342 96.7228 57.6143 96.8978 57.7488 97.0261C57.8833 97.1542 58.062 97.2258 58.248 97.2258C58.4339 97.2258 58.6126 97.1542 58.7473 97.0261C58.8818 96.8978 58.9619 96.7228 58.9707 96.537C58.798 93.0118 58.8124 89.4797 59.0143 85.956C61.16 85.8823 71.4495 85.9711 73.8313 86.0817C73.8313 86.1219 74.0859 97.2874 74.1462 98.3092C74.164 98.4953 74.2531 98.6674 74.3948 98.7894C74.5367 98.9112 74.7201 98.9735 74.9068 98.9631C75.0936 98.9527 75.269 98.8705 75.3965 98.7336C75.5238 98.5966 75.5933 98.4157 75.5901 98.2288Z" fill="#2D3E50"/>
<path d="M78.197 101.089C78.4583 98.4664 78.8335 90.5704 79.0127 88.0948C77.587 87.7274 76.128 87.503 74.6577 87.4248C74.5632 87.4167 74.4713 87.3903 74.387 87.3469C74.3028 87.3033 74.2279 87.2437 74.1666 87.1713C74.1055 87.099 74.0591 87.0152 74.0303 86.925C74.0014 86.8345 73.9907 86.7395 73.9986 86.6451C74.0065 86.5506 74.0329 86.4585 74.0765 86.3742C74.1199 86.29 74.1795 86.2151 74.252 86.1539C74.3983 86.0303 74.5875 85.9699 74.7783 85.9859C76.5511 86.067 78.3067 86.3699 80.0043 86.8871C80.1613 86.9387 80.2956 87.0429 80.3845 87.1821C80.4736 87.3211 80.5122 87.4867 80.4934 87.6509C80.4046 88.4566 79.8854 98.649 79.6274 101.228C79.5931 101.404 79.4943 101.562 79.3504 101.669C79.2063 101.776 79.0278 101.826 78.8491 101.809C78.6705 101.791 78.5047 101.708 78.3841 101.575C78.2635 101.442 78.1968 101.269 78.197 101.089Z" fill="#2D3E50"/>
<path d="M83.9815 107.632C83.6119 107.228 83.1591 106.909 82.6541 106.697C82.1493 106.485 81.6042 106.385 81.057 106.405C80.9079 102.708 79.0336 98.6594 74.9968 97.5606C66.1411 95.7901 60.0475 98.5572 56.0978 95.3948C55.9472 95.2858 55.7603 95.2389 55.5761 95.2638C55.3918 95.2888 55.2243 95.3838 55.1082 95.529C54.992 95.674 54.9362 95.8585 54.9525 96.0437C54.9685 96.229 55.0555 96.4008 55.195 96.5238C59.6036 100.041 66.1947 97.2859 74.6769 98.9693C77.9147 99.852 79.4574 103.235 79.6098 106.369C79.4775 106.369 75.635 105.967 75.3017 105.931C74.4809 105.905 73.6803 106.187 73.0572 106.721C72.6738 107.029 72.3743 107.429 72.1864 107.883C71.9984 108.338 71.9281 108.832 71.9818 109.321C71.944 109.73 71.987 110.142 72.1086 110.534C72.2302 110.926 72.4277 111.291 72.6902 111.606C72.9527 111.922 73.2746 112.183 73.6379 112.374C74.0012 112.566 74.3987 112.683 74.8076 112.721C75.6769 112.795 78.9582 113.046 79.6299 113.1C79.3619 117.208 78.3284 119.835 76.6149 120.582C74.3297 121.572 71.8401 122 69.3554 121.83C64.0985 122.19 58.8388 121.17 54.0979 118.87C49.7998 116.625 49.9489 112.701 50.113 108.426C50.2437 104.984 50.567 95.8236 52.8131 93.7516C54.1012 92.5909 56.8583 92.7785 57.8214 92.7801C58.007 92.7713 58.182 92.6912 58.3103 92.5565C58.4386 92.422 58.5102 92.2433 58.5102 92.0574C58.5102 91.8714 58.4386 91.6927 58.3103 91.5582C58.182 91.4235 58.007 91.3435 57.8214 91.3346C51.1314 91.3212 49.4112 92.2743 48.7161 107.065C48.5067 111.538 48.1148 115.143 50.9505 118.287C51.6735 119.034 52.5095 119.664 53.4279 120.151C59.1832 123.166 64.5549 123.3 70.3537 123.3C72.7086 123.321 75.0416 122.846 77.2011 121.907C79.4741 120.913 80.7538 117.964 81.0737 113.275C81.5025 113.344 81.9411 113.322 82.3613 113.213C82.7817 113.103 83.1747 112.908 83.5156 112.639C83.8566 112.37 84.138 112.033 84.3422 111.649C84.5462 111.266 84.6686 110.844 84.7018 110.411V109.909C84.7447 109.5 84.703 109.087 84.579 108.695C84.4551 108.304 84.2516 107.942 83.9815 107.632Z" fill="#2D3E50"/>
</svg>
