<svg width="213" height="211" viewBox="0 0 213 211" fill="none" xmlns="http://www.w3.org/2000/svg">
<path d="M191.137 81.4407L113.257 60.2344L38.2812 86.0383C49.8184 183.211 47.8375 176.126 60.5195 180.717L129.302 205.675L185.321 166.27L191.137 81.4407Z" fill="#00A492"/>
<path d="M88.2035 34.8054C87.8659 34.8054 88.0704 34.9119 77.9795 22.7017C77.381 22.1021 78.0445 22.0925 88.0192 18.1978L74.597 4.12279C74.5099 4.03565 74.4609 3.91747 74.4609 3.79424C74.4609 3.67101 74.5099 3.55282 74.597 3.46569C74.6842 3.37855 74.8024 3.32959 74.9256 3.32959C75.0488 3.32959 75.167 3.37855 75.2542 3.46569L89.1428 18.0104C89.9245 18.791 87.9191 19.2554 79.0083 22.6964C86.4665 31.7265 89.4676 34.8054 88.2035 34.8054Z" fill="#FF7A59"/>
<path d="M99.9309 30.9588C99.9934 30.9625 100.056 30.9529 100.115 30.9307C100.173 30.9085 100.226 30.8741 100.271 30.8298C100.315 30.7855 100.349 30.7323 100.371 30.6738C100.394 30.6153 100.403 30.5527 100.4 30.4902C100.16 10.4139 100.175 10.4096 99.4613 10.4096C99.3989 10.4069 99.3367 10.4172 99.2785 10.4398C99.2203 10.4625 99.1675 10.497 99.1234 10.5412C99.0794 10.5853 99.045 10.6382 99.0224 10.6965C98.9999 10.7547 98.9898 10.817 98.9927 10.8793C99.2323 30.9801 99.227 30.9588 99.9309 30.9588Z" fill="#2D3E50"/>
<path d="M66.9983 33.3047C79.5482 39.7703 79.4641 39.6713 79.5717 39.7788C80.0562 39.7788 80.1042 39.1877 79.7591 38.8406C66.9482 32.2376 67.2475 32.1161 66.7161 32.6476C66.5286 32.835 66.7161 33.211 66.9983 33.3047Z" fill="#2D3E50"/>
<path d="M125.36 117.848C32.4014 83.2351 38.3143 85.1968 38.096 85.8507C37.8606 86.5568 37.9959 86.2714 124.985 118.692C129.115 205.606 128.853 205.581 129.583 205.581C130.312 205.581 130.369 212.252 125.923 118.692C190.704 82.317 186.777 84.6782 190.855 82.3756C190.253 91.4153 190.064 91.2897 190.762 91.2897C191.382 91.2897 191.188 91.4313 191.887 81.8112C190.929 80.3766 199.476 76.1805 125.36 117.848Z" fill="#2D3E50"/>
<path d="M77.5984 72.3373C77.5948 72.3997 77.6045 72.4622 77.6268 72.5206C77.6491 72.5791 77.6835 72.6323 77.7278 72.6765C77.772 72.7207 77.8251 72.7551 77.8836 72.7774C77.9419 72.7997 78.0044 72.8094 78.067 72.8059C79.0585 72.8059 77.7613 71.1157 80.3652 70.3819C83.8797 69.3915 85.3856 71.1189 85.3856 69.8973C85.3856 68.647 77.6718 68.22 77.5984 72.3373Z" fill="#2D3E50"/>
<path d="M175.656 173.021C175.028 173.234 175.549 173.767 175.562 174.523C175.655 178.773 170.107 182.878 166.272 180.622C166.16 180.56 166.028 180.544 165.905 180.58C165.782 180.616 165.678 180.698 165.616 180.81C165.553 180.922 165.538 181.054 165.573 181.177C165.608 181.3 165.692 181.405 165.803 181.467C167.35 182.497 169.671 182.805 172.371 181.278C177.795 178.213 176.672 172.513 175.656 173.021Z" fill="#2D3E50"/>
<path d="M144.782 68.7738C146.19 66.3339 148.911 63.9877 151.726 64.3637C150.924 66.7706 151.465 69.743 153.79 70.7441C154.119 70.8275 154.462 70.8384 154.795 70.7762C155.128 70.714 155.445 70.5802 155.72 70.3839C155.997 70.1877 156.228 69.9337 156.398 69.6395C156.566 69.3453 156.669 69.018 156.699 68.6801C156.691 67.5721 156.332 66.4953 155.675 65.603C155.018 64.7106 154.096 64.0485 153.041 63.7108C153.303 63.2942 153.648 62.9354 154.053 62.656C154.458 62.3768 154.916 62.1831 155.399 62.0865C155.882 61.99 156.38 61.9926 156.861 62.0945C157.342 62.1964 157.798 62.3951 158.201 62.6788C159.17 63.4073 159.95 64.3589 160.472 65.4527C160.994 66.5467 161.246 67.7506 161.204 68.9623C161.052 70.7057 160.103 71.0572 159.515 72.5279C159.473 72.6506 159.48 72.7847 159.534 72.9025C159.588 73.0202 159.685 73.1126 159.806 73.1608C159.926 73.2088 160.06 73.2089 160.182 73.1609C160.302 73.113 160.399 73.0205 160.453 72.9028C160.904 71.7761 161.999 70.9858 162.142 69.056C162.471 64.6193 158.289 59.6042 154.167 61.5499C153.302 61.959 152.605 62.6553 152.196 63.5202C148.818 62.9568 145.627 65.5841 144.032 68.3989C143.536 68.728 144.24 69.3159 144.782 68.7738ZM152.57 64.5511C153.059 64.7249 153.531 64.9449 153.978 65.2082C155.945 66.4532 156.51 69.8942 154.072 69.8942C152.206 69.0709 151.853 66.5224 152.57 64.5511Z" fill="#2D3E50"/>
<path d="M80.3188 189.442C78.571 189.665 76.7998 189.284 75.2982 188.361C73.7965 187.44 72.6544 186.034 72.0608 184.375C71.8478 183.748 70.9798 184.183 71.2162 184.656C73.9554 192.127 83.107 190.514 82.4765 189.254C82.1783 188.657 81.3178 189.109 80.3188 189.442Z" fill="#2D3E50"/>
<path d="M143.939 195.166C144.616 198.885 140.744 202.948 137.559 199.764C137.472 199.676 137.354 199.627 137.231 199.627C137.107 199.627 136.989 199.676 136.902 199.764C136.815 199.851 136.766 199.969 136.766 200.092C136.766 200.215 136.815 200.333 136.902 200.421C140.295 203.814 145.675 200.163 144.878 194.978C144.566 194.352 143.745 194.581 143.939 195.166Z" fill="#2D3E50"/>
<path d="M30.2134 92.8918C30.8875 94.5766 31.961 95.7673 33.5915 94.9558C35.9771 93.5926 36.1912 88.226 32.3721 89.045C31.7858 89.2103 31.2414 89.4982 30.7746 89.8896C31.4434 81.8648 40.4075 75.118 45.5057 81.3504C45.9232 81.7668 46.1766 82.8584 46.9136 83.2269C47.3748 83.5337 47.9179 82.6944 47.2885 82.3824C47.0012 82.1415 46.8031 81.811 46.7262 81.4441C45.7913 79.8672 44.2751 78.72 42.5035 78.2491C35.794 76.4503 29.8363 84.0001 29.8363 91.011C26.6296 97.4234 31.273 106.68 40.9123 106.68V105.742C34.8962 106.63 28.2239 100.859 30.2134 92.8918ZM32.6533 89.9833C35.3158 89.3549 34.4105 93.4328 33.1219 94.2049C31.9024 94.8152 30.7789 92.8332 30.7789 91.4839C31.1841 90.7578 31.8565 90.2183 32.6533 89.9801V89.9833Z" fill="#2D3E50"/>
<path d="M162.049 84.1586C162.049 84.6123 161.975 84.9658 162.424 85.1906C163.083 85.1906 162.988 84.5249 162.988 84.2523C163.489 76.9751 153.306 77.1328 150.132 82.8454C150.132 83.5909 148.461 80.9583 144.221 81.3438C144.059 81.3374 143.898 81.3694 143.752 81.4375C140.574 81.9968 137.743 83.7832 135.87 86.411C134.741 85.9792 133.526 85.8137 132.322 85.9275C131.117 86.0413 129.955 86.4313 128.927 87.0671C126.645 85.9265 124.588 84.9009 121.514 86.5048C120.912 85.2636 120.032 84.1778 118.942 83.3316C117.853 82.4854 116.582 81.9014 115.231 81.6249C117.201 77.6844 121.514 74.1188 126.397 74.8696C125.408 77.5055 126.078 81.2149 128.74 81.4375C132.661 81.4375 133.206 75.8771 127.708 74.302C130.248 69.2219 138.593 67.7331 142.725 71.8621C142.542 72.7574 142.51 73.6773 142.631 74.5832C142.668 74.9533 142.826 75.3011 143.081 75.5725C143.334 75.844 143.672 76.0241 144.038 76.0848C145.441 76.0848 145.014 73.0815 143.663 71.5809C143.918 70.7025 144.264 69.8534 144.695 69.0473C144.757 68.9352 144.773 68.8032 144.738 68.6801C144.701 68.557 144.619 68.4528 144.508 68.3907C144.395 68.3285 144.263 68.3135 144.14 68.3488C144.017 68.384 143.912 68.4667 143.851 68.5787C143.46 69.2615 143.146 69.985 142.912 70.7364C139.009 66.8332 129.632 67.8268 126.773 74.0208C127.778 74.0208 118.658 72.0059 114.294 81.527C113.346 81.4294 112.388 81.525 111.479 81.8081C109.309 77.3426 104.13 75.0049 99.9375 78.1488C98.9028 76.7353 97.4425 75.6903 95.7708 75.1669C94.0991 74.6435 92.3036 74.6692 90.6475 75.2403C90.2071 73.9564 89.4793 72.79 88.5195 71.8302C87.5598 70.8706 86.3935 70.1426 85.1095 69.7023C84.9984 69.668 84.8782 69.6786 84.7748 69.7319C84.6713 69.785 84.5928 69.8767 84.556 69.987C84.5193 70.0975 84.5273 70.2178 84.5782 70.3224C84.629 70.427 84.7189 70.5076 84.8284 70.5468C85.992 70.9254 87.0492 71.5746 87.913 72.4413C88.777 73.3079 89.4229 74.3673 89.7976 75.5321C87.0105 76.727 86.5142 80.8805 88.8594 80.8805C90.7061 80.8805 91.3451 77.8985 90.8296 76.0955C92.3055 75.5854 93.9066 75.5657 95.3945 76.0391C96.8826 76.5125 98.1778 77.4538 99.0876 78.7228C96.4177 81.2266 94.4016 85.3003 97.0226 87.918C99.6436 90.5358 104.052 84.6591 100.218 78.7228C103.977 76.0379 108.334 78.0657 110.257 81.9178C107.923 82.9178 106.785 84.7933 106.785 86.0458C104.808 87.5489 103.229 89.5145 102.188 91.7701C100.261 90.2406 97.8401 89.4716 95.384 89.609C92.9279 89.7464 90.6077 90.7807 88.8636 92.5156C87.2851 92.0928 85.6307 92.036 84.0268 92.3495C82.4229 92.663 80.9118 93.3386 79.6086 94.3246C78.3053 95.3108 77.2445 96.5814 76.5069 98.0397C75.7691 99.498 75.3742 101.105 75.352 102.74C74.2259 102.509 73.0631 102.525 71.9435 102.785C70.8238 103.046 69.7736 103.545 68.8647 104.249C67.9559 104.953 67.2098 105.844 66.6776 106.863C66.1453 107.883 65.8394 109.004 65.7808 110.152C64.4881 110.357 63.2644 110.871 62.2152 111.654C62.1099 111.449 62.0462 111.226 62.0278 110.997C61.6785 109.95 62.0693 110.486 63.4357 109.12C64.9618 107.594 66.0237 103.893 63.8106 103.209C61.0245 102.347 60.7221 106.737 60.9021 109.683C59.38 110.227 57.7247 110.275 56.1739 109.82C54.623 109.364 53.2561 108.43 52.2692 107.15C52.9461 106.689 53.4691 106.035 53.7708 105.273C55.0552 102.601 52.6643 100.907 51.2372 101.52C49.4949 102.391 49.7877 105.281 51.0498 106.962C49.8886 107.746 48.4865 108.091 47.0941 107.937C45.7017 107.782 44.4098 107.137 43.4488 106.118C45.8249 105.021 47.1582 102.647 45.1379 100.863C42.9249 98.9088 39.896 101.862 41.9429 105.554C41.4813 105.663 41.0101 105.726 40.5361 105.742C40.4116 105.742 40.2921 105.791 40.204 105.879C40.1159 105.968 40.0664 106.087 40.0664 106.212C40.0664 106.336 40.1159 106.455 40.204 106.544C40.2921 106.632 40.4116 106.681 40.5361 106.681C41.1685 106.641 41.7963 106.546 42.4126 106.399C43.456 107.736 44.9749 108.618 46.6529 108.863C48.3308 109.108 50.0386 108.696 51.4204 107.713C52.5191 109.102 54.0141 110.123 55.7069 110.643C57.3997 111.163 59.2104 111.155 60.8989 110.622C60.8842 110.814 60.9163 111.007 60.9926 111.185C61.2876 112.659 61.5922 112.086 60.9926 112.686C60.0037 113.889 59.3808 115.351 59.1979 116.898C59.015 118.444 59.2796 120.012 59.9606 121.412C55.0872 126.123 55.9828 133.96 63.5262 135.675C63.2677 137.699 63.621 139.755 64.5409 141.577C65.4606 143.399 66.9047 144.904 68.6872 145.899C67.1131 149.571 69.716 153.323 72.8152 155.094C71.8793 156.302 71.2604 157.723 71.0147 159.232C70.769 160.74 70.9042 162.285 71.4083 163.727C72.4275 165.765 71.9578 164.056 69.8108 166.922C68.688 168.555 68.2369 170.558 68.5514 172.514C68.8659 174.472 69.9219 176.232 71.4999 177.431C70.3009 179.572 69.9652 182.09 70.5616 184.469C70.6066 184.581 70.6843 184.676 70.7846 184.744C70.885 184.811 71.0033 184.846 71.1239 184.845C71.6788 184.659 71.3114 184.062 71.3114 183.812C70.9131 181.823 71.2467 179.757 72.2507 177.995C73.1818 178.675 74.2933 179.064 75.4453 179.114C76.5973 179.164 77.7383 178.872 78.7248 178.276C80.333 177.069 79.9901 174.475 78.4437 173.959C76.942 173.303 74.5958 174.147 73.5638 174.991C72.9367 175.493 72.3968 176.096 71.9663 176.774C68.7085 174.218 67.9683 169.076 72.3423 165.796C74.1187 168.166 77.0571 168.769 78.6258 167.485C78.8432 167.283 79.013 167.036 79.1233 166.761C79.2335 166.485 79.2814 166.189 79.2635 165.893C79.2455 165.597 79.1622 165.308 79.0196 165.049C78.8769 164.789 78.6785 164.563 78.4384 164.389C77.2445 163.448 74.6044 163.337 72.6203 164.577C71.3007 162.598 71.2102 158.719 73.5585 155.756C78.9496 157.78 81.3831 153.783 79.5641 152.472C78.3606 151.605 75.4383 152.852 74.9665 153.129C74.3467 153.525 73.7792 153.998 73.2774 154.536C70.568 153.181 68.0333 149.818 69.4295 146.466C71.5244 147.305 74.0495 147.616 75.2476 145.716C76.9921 142.947 71.1591 141.493 68.9641 145.341C68.683 145.153 68.3028 144.971 68.0259 144.777C63.5912 141.689 63.6934 135.285 64.6477 136.239C67.7436 136.708 69.9993 135.583 70.8406 133.236C72.0995 129.721 65.571 128.869 63.522 135.019C56.6921 133.222 56.1586 126.688 60.2375 122.445C62.9437 126.505 68.683 124.886 68.683 121.507C70.4047 122.459 72.3454 122.944 74.3125 122.915C74.4063 123.196 74.4063 123.477 74.5 123.66C75.0894 125.415 76.1416 126.977 77.5455 128.182C78.9493 129.388 80.6528 130.192 82.4758 130.51C82.4758 137.539 87.7709 143.153 92.9852 144.022C94.4357 149.826 100.029 152.715 102.744 151.81C103.969 156.096 107.396 158.556 110.719 158.66C111.817 163.93 116.198 168.512 121.135 168.512C122.103 170.173 123.506 171.541 125.192 172.466C126.878 173.392 128.784 173.841 130.705 173.767C131.066 175.307 131.755 176.75 132.728 177.997C133.7 179.244 134.931 180.266 136.336 180.992C135.584 183.359 135.683 185.915 136.617 188.217C131.197 192.386 134.712 200.509 136.43 200.509C136.776 200.509 137.168 200.011 136.805 199.664C134.408 197.379 133.475 192.015 137.087 189.061C137.483 189.985 138.136 190.777 138.966 191.343C139.797 191.909 140.773 192.226 141.778 192.256C146.326 191.843 142.794 184.459 137.462 187.658C136.697 185.645 136.631 183.431 137.274 181.375C137.895 181.643 138.568 181.771 139.244 181.75C143.019 181.75 145.396 178.505 144.499 176.308C143.615 174.144 139.608 174.363 136.711 180.154C135.503 179.471 134.441 178.555 133.588 177.46C132.735 176.365 132.107 175.113 131.738 173.774C136.041 172.955 138.36 168.743 136.617 166.079C134.9 163.458 129.433 165.424 130.518 173.023C128.873 173.073 127.244 172.703 125.783 171.948C124.322 171.193 123.078 170.077 122.167 168.707C123.423 168.593 124.623 168.139 125.639 167.394C129.793 164.403 127.718 157.641 123.574 158.573C119.953 159.388 119.09 164.306 120.572 167.862L118.883 167.581C117.034 166.876 115.393 165.715 114.114 164.206C112.833 162.696 111.957 160.888 111.564 158.948C113.723 158.948 116.777 156.757 117.57 154.257C118.517 151.26 116.152 148.684 114.375 149.19C112.2 149.604 109.695 153.266 110.339 158.104C108.702 157.894 107.168 157.189 105.944 156.081C104.719 154.975 103.863 153.519 103.49 151.911C109.542 150.398 109.286 142.432 106.305 142.432C104.104 142.263 101.322 145.854 102.365 151.065C100.391 151.055 98.4776 150.385 96.93 149.16C95.3823 147.935 94.2897 146.227 93.8265 144.309C100.337 144.309 100.721 136.928 96.9225 136.145C93.441 135.428 92.1151 139.979 92.6061 143.089C89.9142 142.315 87.5453 140.69 85.854 138.458C84.1626 136.224 83.2397 133.504 83.2234 130.703C84.4611 130.758 85.699 130.599 86.8827 130.234C90.1949 129.013 91.261 123.453 86.8827 124.041C84.1606 124.406 82.66 127.043 82.3789 129.579C77.8473 128.698 75.1539 124.807 75.1539 122.823C80.7036 122.078 81.4555 116.144 77.875 115.786C74.9462 115.493 73.828 119.036 74.1219 121.979C68.503 121.979 63.4133 117.055 62.3004 112.595C63.2158 111.754 64.3576 111.198 65.5849 110.998C66.1067 113.605 68.2016 115.22 69.4317 115.22C69.7647 115.202 70.0878 115.101 70.372 114.926C70.6564 114.752 70.8928 114.51 71.0604 114.221C71.2279 113.933 71.3211 113.608 71.3316 113.275C71.3422 112.941 71.2697 112.61 71.1207 112.312C70.3965 111.001 67.8736 109.969 66.5231 109.969C66.5778 108.954 66.8548 107.962 67.3346 107.066C67.8143 106.169 68.4853 105.389 69.2998 104.78C70.1144 104.172 71.0528 103.75 72.0486 103.544C73.0442 103.338 74.0731 103.353 75.0623 103.588C75.0623 105.755 76.5533 109.407 78.5342 109.407C80.7707 109.407 80.2765 104.664 75.9069 103.025C75.8948 101.539 76.2174 100.069 76.8507 98.7243C77.4839 97.3797 78.4117 96.1949 79.5652 95.2576C80.7187 94.3204 82.0683 93.6548 83.514 93.31C84.9598 92.9654 86.4646 92.9505 87.9169 93.2665C85.3449 97.7693 89.2236 101.979 92.327 100.117C94.932 98.256 92.5571 94.0088 89.5122 92.7041C91.1381 91.2059 93.2538 90.3509 95.4641 90.299C97.6743 90.2471 99.8279 91.0017 101.522 92.4219C100.777 94.2814 100.031 99.1729 101.522 100.398C102.006 100.88 102.672 100.651 103.306 100.398C105.992 98.9067 104.734 94.4859 102.743 92.3282C103.642 90.3009 104.989 88.5042 106.683 87.0735C107.535 90.916 112.449 89.4271 111.75 84.5409C112.057 84.4625 112.373 84.4306 112.689 84.4461C112.472 85.37 112.444 86.3279 112.606 87.2629C112.766 88.198 113.114 89.0911 113.627 89.8893C113.958 90.4035 114.469 90.7753 115.06 90.9315C115.651 91.0879 116.28 91.0173 116.822 90.7339C116.26 92.2334 116.473 93.6626 118.041 94.111C120.529 95.3549 122.712 89.0863 121.849 87.3589C122.674 86.8528 123.623 86.585 124.59 86.585C125.558 86.585 126.507 86.8528 127.331 87.3589C128.232 87.3589 125.767 87.9574 124.515 91.3931C123.535 94.0897 123.722 98.1165 126.858 98.4306C132.362 98.4306 131.629 90.899 129.111 87.6401C129.984 87.1367 130.956 86.8261 131.959 86.7288C132.962 86.6317 133.975 86.7503 134.928 87.0767C132.782 90.2972 132.981 96.0855 136.617 96.0855C140.176 96.0855 141.623 89.9703 136.336 86.7955C139.564 82.5472 145.168 80.6068 149.378 84.0744C147.029 93.472 155.509 88.7977 150.411 83.6996C153.362 77.808 162.404 78.3096 162.049 84.1586ZM143.47 72.6204C143.872 73.3315 144.037 74.1524 143.939 74.9634C143.464 74.4916 143.47 74.024 143.47 72.6204ZM128.926 80.315C127.474 80.1329 126.124 78.0029 127.425 74.9666C132.131 76.5353 131.503 80.315 128.926 80.315ZM89.6102 79.283C88.8509 80.2958 88.1575 79.5194 88.2971 78.7196C88.3857 78.2026 88.5928 77.7131 88.9021 77.2894C89.2114 76.8658 89.6145 76.5194 90.0799 76.2776C90.2634 77.3037 90.0981 78.3618 89.6102 79.283ZM98.6212 87.5399C97.504 87.5399 94.8873 84.0489 99.6532 79.283C102.938 84.2129 99.2602 87.8594 98.6212 87.5399ZM44.8525 101.802C46.3318 103.036 44.9164 104.759 43.1634 105.555C41.3178 102.604 43.599 100.549 44.8525 101.802ZM51.89 102.46C52.0809 102.367 52.2983 102.344 52.504 102.395C52.7099 102.447 52.891 102.569 53.0157 102.741C54.0371 103.762 53.1393 105.338 52.0775 106.4C51.4214 105.416 50.8336 102.988 51.89 102.46ZM79.4735 176.024C79.8505 178.616 75.5724 178.986 73.3743 177.338C74.5522 174.996 79.1136 173.533 79.4767 176.024H79.4735ZM76.3765 167.204C75.271 166.931 74.3034 166.264 73.6554 165.328C79.3798 162.875 80.5055 167.793 76.3797 167.204H76.3765ZM76.0954 153.974C76.7482 153.591 79.0039 152.847 79.661 153.316C79.7547 153.316 79.8484 153.504 79.7547 153.974C79.2872 155.61 76.6609 155.632 74.7812 155.006C75.195 154.631 75.6353 154.286 76.0986 153.974H76.0954ZM75.0634 145.247C74.0314 146.844 71.5915 146.092 70.4658 145.716C72.255 142.909 76.0538 143.931 75.0666 145.247H75.0634ZM70.4658 131.735C71.37 132.64 69.9492 135.858 65.4922 135.301C65.4414 135.307 65.3898 135.302 65.3411 135.286C65.2924 135.27 65.248 135.242 65.2111 135.207C65.7553 132.501 68.6947 130.629 70.469 131.735H70.4658ZM142.904 188.785C145.515 190.961 140.96 193.531 138.494 188.598C139.15 188.144 139.936 187.917 140.732 187.951C141.529 187.984 142.292 188.277 142.907 188.785H142.904ZM139.709 178.276C141.431 175.98 143.999 175.546 144.306 176.774C145.068 178.552 142.168 181.794 138.395 180.715C138.183 180.716 138.73 179.404 139.717 178.276H139.709ZM134.829 165.984C138.381 165.984 137.154 172.086 132.108 172.927C131.629 170.003 132.408 166.426 134.837 165.984H134.829ZM124.977 159.322C128.704 159.322 129.167 167.242 122.349 167.766C120.414 163.491 122.407 159.322 124.985 159.322H124.977ZM115.875 149.938C116.908 149.938 118.348 151.807 117.658 153.879C117.309 154.777 116.767 155.587 116.069 156.252C115.371 156.916 114.536 157.42 113.623 157.726C113.154 157.819 112.778 157.913 112.31 158.007C111.41 153.467 114.131 149.938 115.884 149.938H115.875ZM108.087 144.028C108.298 144.736 108.363 145.48 108.276 146.214C108.191 146.949 107.957 147.658 107.588 148.298C107.22 148.939 106.725 149.498 106.132 149.941C105.541 150.385 104.865 150.703 104.146 150.877C102.762 145.306 107.248 141.337 108.1 144.028H108.087ZM95.7009 137.552C95.9758 137.305 96.311 137.134 96.6728 137.057C97.0346 136.979 97.4103 137 97.7621 137.114C98.114 137.228 98.4296 137.433 98.6772 137.708C98.9248 137.983 99.0957 138.317 99.1728 138.679C99.2817 139.379 99.219 140.095 98.9901 140.764C98.7611 141.434 98.3729 142.039 97.8586 142.526C96.8657 143.187 95.6609 143.454 94.4815 143.271C94.4879 143.22 94.4827 143.168 94.4663 143.119C94.4499 143.07 94.4227 143.026 94.3867 142.989C94.2078 141.494 94.49 138.773 95.7095 137.552H95.7009ZM87.8199 124.979C91.2088 124.614 89.2268 128.641 87.3513 129.295C86.2904 129.634 85.1802 129.792 84.0669 129.764C84.3555 127.611 85.5707 125.223 87.8274 124.979H87.8199ZM78.531 116.722C80.972 117.129 79.8154 121.574 75.8099 121.883C75.549 119.738 76.1294 116.722 78.5385 116.722H78.531ZM63.9022 104.242C65.4528 104.63 63.8436 108.541 62.1194 109.403C62.0363 107.53 62.2237 103.404 63.9022 104.242ZM66.9992 123.571C66.0596 124.018 64.9852 124.094 63.9926 123.781C63 123.467 62.1631 122.789 61.6508 121.883C62.9883 120.748 64.6814 120.116 66.4358 120.1C67.3613 120.1 67.3336 120.549 68.1249 120.945C68.1228 121.127 69.3411 122.107 66.9971 123.571H66.9992ZM65.5742 119.156C63.9867 119.277 62.4799 119.904 61.2748 120.945C59.4207 116.706 60.8265 115.267 61.8318 113.947C62.5828 115.99 63.8759 117.791 65.5721 119.156H65.5742ZM67.2782 111.091C68.6627 111.091 71.7896 112.521 70.7501 113.907C69.8821 115.352 67.7149 113.055 67.3719 112.03C67.0045 110.559 67.0013 111.091 67.2782 111.091ZM78.0667 104.993C80.0359 106.654 79.8197 108.559 79.1924 108.559C77.7759 108.559 76.761 105.571 76.6598 104.054C77.1539 104.328 77.6244 104.642 78.0667 104.993ZM90.7402 99.6447C88.2555 98.5403 88.165 95.4667 89.427 93.7329C94.3218 95.832 93.8287 100.676 90.7402 99.6447ZM104.347 98.2368C104.156 99.4978 103.024 100.062 102.564 99.8343C101.667 99.1367 102.058 95.2548 102.658 93.4539C103.823 94.7664 104.428 96.4835 104.342 98.2368H104.347ZM120.667 86.8828C119.959 87.3112 119.326 87.8506 118.79 88.4803C118.841 87.6736 118.666 86.8686 118.285 86.1558C117.904 85.4429 117.332 84.8505 116.632 84.4451C114.609 83.2576 114.123 84.2086 114.755 82.9445C114.85 82.756 114.85 82.5685 114.943 82.4748C116.191 82.6677 117.37 83.1729 118.371 83.9435C119.372 84.7142 120.162 85.7253 120.667 86.8828ZM110.908 82.8486C111.002 83.3172 111.095 83.5941 111.189 83.9743C110.137 84.2826 109.128 84.7239 108.187 85.2875C108.771 84.172 109.738 83.3056 110.91 82.8486H110.908ZM107.999 86.508C109.009 85.757 110.157 85.214 111.378 84.9105C111.731 88.7796 108.394 89.6423 108.002 86.508H107.999ZM113.537 83.5984C111.933 83.5984 112.346 84.1788 111.94 82.5664V82.4727C112.64 82.2671 113.375 82.2034 114.099 82.2852C114.101 82.5036 113.537 83.1021 113.537 83.5984ZM114.195 84.6314C116.687 84.9871 118.161 86.8104 117.76 88.9468C116.254 91.9597 113.318 89.2929 114.195 84.6314ZM120.2 92.9821C119.267 93.914 117.024 93.2547 118.792 90.0736C119.387 89.1511 120.19 88.3799 121.135 87.8211C121.474 88.4931 121.363 91.8191 120.2 92.9821ZM130.145 95.9801C129.997 96.3738 129.751 96.7236 129.43 96.9965C129.11 97.2696 128.726 97.457 128.313 97.5414C127.901 97.6257 127.474 97.6042 127.073 97.4789C126.671 97.3535 126.308 97.1285 126.016 96.8246C125.029 95.3986 125.013 90.8606 128.737 88.2865C129.594 89.3498 130.173 90.6107 130.419 91.9544C130.665 93.2981 130.571 94.6819 130.145 95.9801ZM138.965 93.9161C138.81 94.3145 138.529 94.6512 138.165 94.8746C137.799 95.0979 137.372 95.1959 136.946 95.1534C136.52 95.1109 136.121 94.9304 135.808 94.6392C135.495 94.3482 135.285 93.9624 135.211 93.5412C134.929 92.526 134.876 91.461 135.055 90.4226C135.234 89.3842 135.639 88.3983 136.244 87.5357C139.126 88.9798 139.943 91.9746 138.966 93.9204L138.965 93.9161ZM150.507 88.474C150.131 88.1928 150.225 86.5974 150.507 84.8146C151.939 86.2502 151.684 88.4782 150.508 88.4782L150.507 88.474Z" fill="#FFFBFA"/>
<path d="M176.124 173.115C179.819 169.42 176.433 162.684 170.494 166.077C170.099 164.701 169.278 163.486 168.151 162.605C168.768 161.588 169.163 160.452 169.308 159.272C169.454 158.091 169.348 156.893 168.995 155.756C171.059 153.786 172.19 149.938 170.778 147.217C172.304 144.997 172.843 141.449 171.247 139.054C171.181 138.949 171.077 138.872 170.957 138.841C170.838 138.81 170.71 138.826 170.601 138.887C170.493 138.946 170.412 139.047 170.374 139.165C170.337 139.283 170.348 139.411 170.402 139.523C170.402 139.535 170.404 139.547 170.408 139.559C170.413 139.571 170.42 139.581 170.429 139.59C170.437 139.598 170.448 139.606 170.46 139.61C170.471 139.615 170.483 139.617 170.496 139.617C170.683 139.899 170.872 140.086 170.965 140.273C171.306 141.277 171.424 142.342 171.31 143.396C171.198 144.449 170.855 145.465 170.308 146.373C169.636 145.701 168.611 144.435 167.212 145.434C165.463 147.183 167.071 150.326 170.215 147.968C170.648 147.968 171.119 152.111 168.713 154.818C168.371 153.999 167.78 153.31 167.024 152.847C162.927 150.389 161.393 159.932 168.432 156.412C168.863 158.34 168.527 160.359 167.494 162.043C163.696 159.627 159.376 162.327 160.643 164.577C161.64 166.346 165.048 166.444 167.212 163.92C167.4 163.732 167.587 163.45 167.775 163.263C168.8 164.051 169.501 165.187 169.745 166.458C166.637 168.789 166.682 171.9 168.244 171.9C169.209 171.9 171.005 169.876 170.778 166.926C176.08 163.664 178.186 169.246 175.75 172.087C174.813 170.214 173.103 169.01 171.621 170.49C170.542 171.931 173.006 174.679 175.376 173.493C175.677 174.097 176.508 173.689 176.121 173.117L176.124 173.115ZM169.649 147.311C169.135 147.826 167.935 148.213 167.585 147.687C167.274 147.064 167.733 146.089 168.242 146.089C168.911 146.092 169.763 147.207 169.649 147.313V147.311ZM166.834 156.225C163.331 157.013 164.229 153.504 165.802 153.504C166.334 153.602 166.827 153.848 167.225 154.212C167.623 154.577 167.91 155.048 168.054 155.569C167.699 155.873 167.283 156.096 166.834 156.225ZM163.269 165.139C162.333 165.256 160.767 164.435 161.486 163.356C162.657 161.797 165.225 162.035 166.928 162.981C166.012 164.124 164.71 164.892 163.267 165.139H163.269ZM168.898 170.581C168.617 170.863 168.43 171.145 168.336 171.145C167.786 170.32 169.532 168.056 169.933 167.86C169.731 168.815 169.382 169.733 168.898 170.581ZM172.276 171.614C171.944 170.615 173.836 170.069 174.904 172.74C173.926 173.392 172.756 172.572 172.276 171.614Z" fill="#FFFBFA"/>
<path d="M66.1502 157.257C64.7838 153.688 59.8294 149.813 56.2979 148.438C47.6714 145.078 38.1322 140.156 30.2118 142.526C19.5511 145.716 9.14176 168.732 16.419 182.783C20.1954 190.074 37.9916 197.108 47.665 194.324C56.2776 191.845 60.019 181.118 63.0532 173.4C64.8275 168.889 67.7008 161.309 66.1502 157.257Z" fill="#FF7A59"/>
<path d="M50.6672 107.057C39.0757 114.77 34.0596 140.836 33.7773 141.962L34.8093 141.868C34.903 141.587 39.9267 115.341 51.1368 107.901C57.0849 103.953 64.0564 106.362 66.525 111.748C72.0875 123.884 59.7687 149.938 59.5812 150.219L60.4258 150.782C60.9892 149.657 72.8767 123.896 67.4633 111.279C65.0798 105.723 57.5098 102.503 50.6672 107.057Z" fill="#2D3E50"/>
<path d="M191.041 90.2613C186.536 83.5028 180.356 79.3983 172.368 80.8776C169.853 71.8251 166.275 60.9919 160.358 53.7605C153.886 46.0308 142.36 46.5185 139.527 57.4199C136.912 67.5874 142.48 80.2354 147.574 90.8417C140.072 96.3722 139.628 100.895 142.06 108.84C143.491 113.272 144.709 115.943 145.157 117.285C153.451 137.232 159.903 144.787 181.752 136.895C186.544 135.23 194.55 130.044 196.671 125.449C201.924 114.376 197.422 99.3628 191.041 90.2613ZM151.819 88.3847C150.718 88.8373 149.667 89.4048 148.684 90.0781C147.482 87.537 142.927 80.0479 140.653 69.2424C139.722 65.42 139.722 61.4296 140.653 57.6073C143.316 47.3971 154 47.1852 159.888 54.3239C165.639 61.3998 169.177 72.1872 171.617 80.9713C161.943 83.0235 155.511 87.1536 151.819 88.3847Z" fill="#2D3E50"/>
<path d="M174.433 109.872C172.911 107.636 174.52 104.155 172.462 102.366C170.957 101.057 167.592 101.9 166.832 104.149C165.72 107.438 169.572 109.488 170.772 111.843C172.107 114.459 169.826 120.576 170.866 121.977C171.424 122.73 176.777 120.85 180.249 119.162C181.376 118.693 176.1 112.327 174.433 109.872Z" fill="#FFFBFA"/>
<path d="M39.8766 159.51C37.6252 160.823 37.7658 163.262 37.8127 165.515C37.8755 168.524 38.2642 168.817 34.0596 172.651C32.5367 174.035 31.3151 175.182 31.2437 176.123C31.1032 177.996 40.5337 180.533 40.6275 180.533C41.0396 180.533 40.915 180.533 41.2846 180.344C42.5626 179.386 42.7404 170.513 42.8821 169.179C43.1451 166.66 46.6586 165.002 46.1665 162.043C45.486 159.784 42.1887 158.161 39.8766 159.51Z" fill="#FFFBFA"/>
</svg>
