<svg width="211" height="214" viewBox="0 0 211 214" fill="none" xmlns="http://www.w3.org/2000/svg">
<path d="M175.858 143.807C175.314 138.946 174.414 134.132 173.165 129.402C169.037 113.193 169.193 106.183 164.222 102.495C160.447 99.692 155.198 99.2721 150.688 99.0128C143.829 98.6768 136.955 98.7822 130.11 99.3285C128.808 88.9125 125.708 76.1996 115.23 74.5569C114.313 74.4027 113.377 74.4027 112.46 74.5569C112.223 74.5569 95.7611 77.5634 81.119 80.6502C79.932 70.5988 70.5945 23.6671 68.06 22.3195C65.6838 21.0555 6.1347 21.8291 5.5347 23.1116C4.67538 24.9442 8.10398 27.9529 12.8161 39.9692C17.8538 52.82 18.8823 66.8013 18.6751 80.4918C18.4841 92.9194 16.4986 105.185 16.4584 117.612C16.4443 122.277 16.249 128.746 19.7037 132.491C22.0972 135.086 24.9757 134.376 27.5395 132.412C32.1172 128.904 35.1942 123.769 38.064 118.244C43.3154 108.141 53.7271 80.4202 63.0744 86.3454C68.7717 89.9585 69.1732 99.9589 69.4856 105.816C70.3482 121.982 68.5287 139.63 66.1612 155.678C65.5666 159.709 62.7619 176.898 69.7233 177.364C74.5634 177.689 77.5667 169.302 79.1411 165.016C84.6474 150.025 85.4785 132.981 88.7183 119.271C89.9118 114.207 91.3061 106.398 96.6323 103.916C99.5738 102.546 101.995 104.053 104.553 106.132C108.779 109.576 109.674 111.683 111.597 115.709C114.022 120.788 115.592 127.969 117.057 135.179C118.396 142.006 119.347 148.902 119.907 155.836C120.63 164.074 121.236 170.732 121.968 171.428C122.819 172.239 173.43 151.515 175.312 149.108C176.377 147.737 176.036 145.546 175.858 143.807Z" fill="#FFB3A0"/>
<path d="M116.973 135.337C115.467 128.119 113.946 120.984 111.512 115.867C109.581 111.808 108.643 109.797 104.469 106.291C102.038 104.249 99.4885 102.71 96.5482 104.074C91.2219 106.557 89.8298 114.365 88.6342 119.429C85.3217 133.449 84.65 150.279 79.0569 165.175C78.0185 167.942 75.8908 174.277 72.4883 176.651C73.7512 175.704 83.5553 171.074 84.9929 170.399C100.834 162.98 107.028 160.503 119.806 155.624C119.337 148.803 118.39 142.025 116.973 135.337Z" fill="#FFFBFA"/>
<path d="M62.9973 86.4256C58.5694 83.6177 54.2457 88.5392 51.2793 92.7577C44.1432 102.922 41.0673 114.349 33.788 125.525C32.0598 128.168 29.9229 130.519 27.457 132.49C28.057 133.09 43.4771 127.166 69.5626 119.352C69.6418 114.841 69.6451 110.408 69.4042 105.898C69.0961 100.039 68.6946 90.0387 62.9973 86.4256Z" fill="#FFFBFA"/>
<path d="M64.4409 40.9162C64.5456 40.9118 64.6443 40.8659 64.7151 40.7886C64.7861 40.7115 64.8234 40.6092 64.819 40.5045C64.8145 40.3998 64.7686 40.301 64.6914 40.2302C64.6142 40.1592 64.5119 40.1219 64.4072 40.1263L24.5215 41.5509C24.4201 41.5579 24.3251 41.6036 24.2565 41.6785C24.1878 41.7535 24.1505 41.852 24.1524 41.9537C24.1544 42.0554 24.1954 42.1524 24.2669 42.2246C24.3385 42.2969 24.4351 42.3389 24.5367 42.3419C32.0992 42.2269 57.2885 41.2612 64.4409 40.9162Z" fill="#FF7A59"/>
<path d="M28.0936 60.6241L70.0679 57.853C70.1698 57.8426 70.2636 57.7931 70.3298 57.7151C70.396 57.637 70.4293 57.5363 70.4229 57.4341C70.4164 57.3319 70.3706 57.2362 70.2952 57.167C70.2197 57.0978 70.1203 57.0606 70.018 57.0631C61.211 57.5948 28.7739 59.6725 28.0078 59.8418C27.913 59.8633 27.8294 59.9189 27.7728 59.9981C27.7163 60.0773 27.691 60.1746 27.7016 60.2712C27.7122 60.3679 27.758 60.4573 27.8303 60.5224C27.9026 60.5875 27.9963 60.6236 28.0936 60.6241Z" fill="#FF7A59"/>
<path d="M72.8136 75.3452C72.7051 75.3452 32.891 78.5373 30.173 79.1264C29.2747 79.2067 29.5687 79.976 30.0277 79.9337L72.8439 76.1362C72.9462 76.1286 73.0416 76.0816 73.11 76.0051C73.1783 75.9286 73.2143 75.8286 73.2103 75.726C73.2064 75.6235 73.1628 75.5265 73.0888 75.4556C73.0148 75.3845 72.9161 75.3449 72.8136 75.3452Z" fill="#FF7A59"/>
<path d="M47.9163 97.3502L27.9719 99.4876C27.8713 99.5032 27.7806 99.5571 27.7186 99.6378C27.6567 99.7186 27.6281 99.8201 27.639 99.9213C27.6499 100.023 27.6993 100.116 27.7771 100.181C27.8548 100.247 27.9548 100.28 28.0565 100.274C28.0565 100.274 46.9604 98.2735 48.0107 98.1357C48.1111 98.1189 48.2012 98.064 48.2622 97.9825C48.3233 97.9009 48.3505 97.799 48.3384 97.6979C48.3262 97.5968 48.2756 97.5042 48.197 97.4395C48.1184 97.3747 48.0179 97.3428 47.9163 97.3502Z" fill="#FF7A59"/>
<path d="M37.8728 117.959C37.6558 117.959 34.4008 118.315 28.0959 118.99C27.9954 119.003 27.9036 119.054 27.8395 119.132C27.7754 119.21 27.7437 119.31 27.7511 119.412C27.7584 119.513 27.8042 119.607 27.8791 119.675C27.9539 119.744 28.0521 119.781 28.1534 119.779C31.0688 119.67 37.7155 118.769 37.9184 118.748C38.0179 118.735 38.1087 118.685 38.1727 118.608C38.2367 118.531 38.2691 118.432 38.2633 118.332C38.2575 118.232 38.214 118.138 38.1416 118.069C38.0691 117.999 37.9731 117.96 37.8728 117.959Z" fill="#FF7A59"/>
<path d="M105.941 94.7378C102.84 94.9961 98.2871 95.7219 94.6675 96.3241L78.7712 98.6189C78.6726 98.6335 78.583 98.6851 78.5207 98.7629C78.4582 98.8408 78.4275 98.9393 78.4346 99.0389C78.4418 99.1384 78.4862 99.2316 78.5591 99.2997C78.632 99.3679 78.7279 99.4061 78.8276 99.4066C80.7806 99.4066 87.6161 98.1415 106.031 95.5245C106.133 95.5099 106.225 95.4561 106.289 95.3745C106.352 95.2928 106.38 95.1898 106.369 95.0873C106.357 94.9848 106.306 94.8909 106.226 94.8256C106.146 94.7603 106.044 94.7288 105.941 94.7378Z" fill="#FF7A59"/>
<path d="M87.5269 124.03L77.1586 126.325C77.0892 126.341 77.0252 126.374 76.9732 126.423C76.9212 126.471 76.8833 126.533 76.8635 126.601C76.8435 126.669 76.8424 126.741 76.8602 126.81C76.8779 126.879 76.9139 126.942 76.9644 126.992C77.0706 127.057 77.1975 127.078 77.3192 127.052L77.329 127.098L77.5959 127.038C81.0224 126.503 84.4118 125.753 87.7439 124.79C87.8398 124.758 87.9193 124.689 87.9663 124.599C88.0132 124.509 88.0238 124.405 87.996 124.307C87.9681 124.21 87.904 124.126 87.8167 124.075C87.7294 124.023 87.6257 124.007 87.5269 124.03Z" fill="#FF7A59"/>
<path d="M84.2018 143.974L76.9996 145.557C76.902 145.579 76.816 145.635 76.7588 145.718C76.7018 145.799 76.6776 145.9 76.6912 145.999C76.705 146.097 76.7556 146.187 76.8328 146.25C76.9101 146.314 77.0085 146.346 77.1081 146.339C79.6185 146.204 82.0902 145.66 84.4264 144.731C84.5199 144.696 84.5967 144.626 84.6411 144.537C84.6856 144.447 84.6945 144.344 84.6661 144.249C84.6376 144.153 84.574 144.071 84.4878 144.02C84.4017 143.97 84.2996 143.952 84.2018 143.974Z" fill="#FF7A59"/>
<path d="M165.334 114.443C151.248 114.5 131.374 115.938 125.464 116.744C124.952 116.813 122.816 117.059 122.292 117.14C121.619 117.248 120.622 117.031 120.479 117.587C120.411 117.847 120.58 118.188 121.14 118.151L165.36 115.234C165.462 115.227 165.558 115.18 165.626 115.104C165.694 115.028 165.73 114.928 165.727 114.826C165.724 114.724 165.68 114.628 165.608 114.556C165.535 114.485 165.436 114.444 165.334 114.443Z" fill="#FF7A59"/>
<path d="M167.089 133.761C163.115 134.405 130.04 140.114 127.614 141.567C127.533 141.615 127.474 141.69 127.443 141.778C127.413 141.866 127.415 141.962 127.448 142.049C127.481 142.136 127.544 142.208 127.626 142.253C127.707 142.299 127.803 142.313 127.894 142.295L167.229 134.54C167.329 134.518 167.417 134.458 167.474 134.373C167.531 134.288 167.553 134.184 167.534 134.083C167.517 133.982 167.46 133.892 167.377 133.832C167.294 133.772 167.191 133.747 167.089 133.761Z" fill="#FF7A59"/>
<path d="M176.395 144.393C175.865 139.302 174.942 134.26 173.632 129.311C169.286 111.409 169.329 105.798 164.537 102.174C160.601 99.3046 155.166 98.9194 150.795 98.6178C144.015 98.3406 137.224 98.4648 130.459 98.99C129.199 91.3266 128.18 83.5363 122.647 78.0787C121.338 76.7273 119.748 75.682 117.988 75.0179C116.228 74.3538 114.342 74.0875 112.467 74.2378C112.142 74.2378 95.6565 77.2693 81.4658 80.252C80.1399 69.9749 71.0498 23.5325 68.2538 22.0483C65.8668 20.7723 9.66376 21.355 5.61671 22.6993C5.52528 22.7214 5.43946 22.7624 5.36473 22.8196C5.29001 22.8768 5.22802 22.9488 5.18271 23.0313C4.67276 24.1966 5.66879 25.9684 6.39683 27.2628C7.33535 28.9337 10.816 36.1283 12.3773 40.2676C26.452 77.29 9.16141 121.798 19.3376 132.918C19.8081 133.467 20.39 133.911 21.0446 134.219C21.6993 134.526 22.4118 134.691 23.1351 134.703C24.8059 134.501 26.4039 133.902 27.7952 132.955C29.2374 132.709 30.6472 132.301 31.9985 131.74C45.8214 127.372 39.6542 128.992 59.1463 122.909C62.487 121.867 65.8288 120.825 69.1597 119.744C68.6527 131.784 67.497 143.789 65.6975 155.704C64.6754 162.553 62.7072 177.447 69.6209 177.838C71.716 177.996 72.8487 176.793 75.0122 175.648C83.996 170.903 109.992 159.406 119.606 156.107C120.869 169.344 121.092 172.123 122.268 171.997C125.131 171.717 173.697 152.223 175.713 149.502C176.772 148.051 176.56 146.023 176.395 144.393ZM19.917 132.38C10.165 121.721 27.2559 77.1815 13.1097 39.9866C11.6851 36.2108 9.75816 32.2646 7.55886 27.7716C7.01636 26.6758 5.55053 24.4819 5.86409 23.4436C9.01059 22.185 65.5564 21.5329 67.8751 22.7448C70.0917 24.1358 79.2318 68.879 80.6846 80.4169C60.5372 84.7765 61.1741 85.2853 60.6522 85.2398C52.9965 84.7569 45.0923 102.542 41.7993 109.569C39.4147 115.014 36.629 120.275 33.4654 125.309C31.7487 127.925 29.646 130.266 27.2288 132.253C24.3308 134.421 21.8722 134.462 19.917 132.38ZM58.9054 122.154C39.2777 128.285 46.3932 126.356 31.6632 131.015C30.7251 131.404 29.7574 131.718 28.7695 131.953C34.5971 126.698 38.1808 119.145 42.51 109.904C46.2901 101.842 55.2414 81.9772 62.7929 86.7653C68.1019 90.1288 68.6758 99.5487 68.9775 105.247C69.176 109.023 69.2802 112.703 69.1782 118.905C65.7604 120.015 62.3329 121.084 58.9054 122.154ZM69.6675 177.049C63.5774 176.702 65.5847 161.781 66.4744 155.819C68.7181 140.794 70.6364 121.65 69.8031 105.875C69.4516 99.233 68.8809 89.6882 63.2172 86.0969C62.9169 85.9017 62.5982 85.7364 62.2656 85.6032C73.4292 82.2701 110.043 75.2957 112.501 75.0277C114.265 74.8833 116.04 75.1319 117.697 75.7558C119.355 76.3795 120.852 77.3631 122.084 78.6354C127.435 83.9106 128.443 91.5794 129.67 99.0496C117.41 99.986 109.328 101.85 105.484 102.293C103.089 102.569 97.9535 103.079 96.5473 103.718C91.4391 106.157 89.8431 113.148 88.6691 118.25C84.7403 135.339 84.3063 150.453 78.8553 165.038C77.1942 169.474 74.3883 177.411 69.6675 177.049ZM75.1413 174.683C77.1692 171.949 78.4734 168.308 79.5898 165.317C85.0799 150.628 85.4911 135.578 89.434 118.427C90.5711 113.482 92.1194 106.709 96.875 104.436C99.6602 103.168 102.055 104.627 104.373 106.597C108.288 109.852 109.256 111.833 111.018 115.437C115.632 124.877 118.461 144.227 119.516 155.297C109.433 158.734 82.719 170.668 75.1413 174.683ZM175.07 149.032C173.605 151.006 126.189 170.892 122.257 171.21C121.131 169.083 120.799 153.072 117.524 135.257C116.192 128.882 114.47 120.686 111.735 115.089C109.925 111.386 108.929 109.345 104.888 105.99C103.787 104.992 102.526 104.185 101.157 103.603C102.749 103.399 104.33 103.218 105.573 103.075C110.722 102.48 117.074 100.764 130.226 99.7961C137.053 99.2567 143.904 99.1248 150.746 99.4012C164.659 100.378 166.929 103.538 169.065 112.866C169.49 114.72 171.971 125.804 172.863 129.499C174.129 134.201 175.025 138.996 175.542 143.838C175.73 145.594 176.058 147.686 175.067 149.032H175.07Z" fill="#2D3E50"/>
<path d="M187.971 192.719L175.385 64.8981C175.311 62.2884 174.263 59.8011 172.447 57.9258C170.631 56.0508 168.177 54.924 165.571 54.7674L113.491 48.5623C112.54 48.4863 111.584 48.6293 110.697 48.9803C109.81 49.3315 109.015 49.8811 108.373 50.5872C107.731 51.2933 107.26 52.1372 106.995 53.0539C106.73 53.9705 106.679 54.9357 106.846 55.8752C107.888 62.613 116.976 187.575 116.976 187.575C116.976 187.575 117.454 197.34 125.999 197.705C135.815 198.124 179.026 198.892 179.026 198.892C184.459 198.892 187.679 195.643 187.971 192.719Z" fill="#FFFBFA"/>
<path d="M188.284 192.517L175.782 64.8946C175.782 64.8002 175.583 55.4269 165.618 54.3701L113.502 48.1628C108.752 47.5975 102.953 51.6739 103.125 58.9716C103.361 65.7865 113.08 189.44 113.177 190.676C113.177 190.777 113.771 200.856 122.497 201.183C132.205 201.652 175.564 202.371 175.564 202.371C182.065 202.375 187.911 197.314 188.284 192.517ZM174.992 64.9369L187.497 192.533C187.145 196.727 182.918 198.501 179.112 198.501C178.678 198.494 135.792 197.783 126.092 197.315C118.013 197.014 117.47 187.946 117.45 187.55C117.082 182.45 108.413 62.4826 107.315 55.8175C107.153 55.0654 107.148 54.2878 107.299 53.5334C107.45 52.779 107.755 52.0637 108.194 51.4319C108.82 50.6796 109.598 50.0683 110.477 49.6381C111.356 49.208 112.316 48.9688 113.293 48.9364L165.53 55.161C168.051 55.292 170.428 56.3733 172.184 58.1873C173.939 60.0012 174.943 62.413 174.992 64.9369Z" fill="#2D3E50"/>
<path d="M111.313 56.1212C110.87 56.7414 110.561 57.4473 110.407 58.1938C110.252 58.9402 110.255 59.7106 110.416 60.4558C111.429 66.1499 119.98 171.584 120.065 172.638C120.065 172.725 120.651 181.307 128.432 181.716C136.889 182.186 175.391 183.072 175.521 183.072C178.938 183.072 182.857 181.469 183.225 177.481L171.434 68.4555C171.324 66.086 170.337 63.8421 168.663 62.161C166.99 60.4798 164.75 59.4817 162.382 59.361L116.664 53.719C115.65 53.693 114.642 53.8953 113.715 54.3111C112.789 54.7269 111.968 55.3456 111.313 56.1212ZM116.526 54.4937L162.285 60.1466C170.45 61.046 170.64 68.1615 170.64 68.5011L182.433 177.484C182.114 180.834 178.491 182.427 175.158 182.27C174.777 182.261 136.918 181.394 128.473 180.925C121.404 180.553 120.873 172.917 120.853 172.583C120.501 168.235 112.214 66.0468 111.197 60.3223C111.057 59.6832 111.052 59.022 111.181 58.3805C111.31 57.7392 111.57 57.1316 111.947 56.5964C112.514 55.9377 113.217 55.4091 114.007 55.0467C114.798 54.6842 115.657 54.4963 116.526 54.4959V54.4937Z" fill="#2D3E50"/>
<path d="M155.048 185.675C151.16 185.675 149.227 188.207 149.27 190.898C149.333 194.842 151.779 196.432 155.723 196.432C158.177 196.169 159.966 193.621 159.795 190.621C159.534 187.634 157.476 185.488 155.048 185.675ZM155.68 195.647C154.599 195.606 153.576 195.139 152.836 194.349C152.094 193.56 151.694 192.51 151.722 191.428C151.573 189.087 152.872 186.471 155.076 186.465C157.107 186.331 158.788 188.14 159.006 190.684C159.147 193.208 157.637 195.436 155.677 195.647H155.68Z" fill="#2D3E50"/>
<path d="M122.992 122.991L170.796 125.128C171.048 125.133 171.299 125.188 171.53 125.291C171.762 125.393 171.971 125.542 172.144 125.726C172.318 125.911 172.453 126.128 172.542 126.365C172.63 126.603 172.67 126.855 172.66 127.109C172.65 127.361 172.588 127.61 172.481 127.839C172.372 128.069 172.22 128.274 172.031 128.443C171.843 128.612 171.622 128.743 171.383 128.825C171.144 128.909 170.89 128.942 170.637 128.926L122.833 126.79C122.332 126.762 121.86 126.54 121.52 126.17C121.18 125.801 120.998 125.313 121.012 124.811C121.012 124.558 121.066 124.308 121.168 124.077C121.27 123.846 121.418 123.639 121.604 123.467C121.789 123.297 122.009 123.166 122.247 123.084C122.487 123.002 122.74 122.97 122.992 122.991Z" fill="#2D3E50"/>
<path d="M199.603 177.048C192.064 164.079 170.794 127.107 170.794 127.107L123.148 125.287C123.148 125.287 141.5 168.47 147.525 182.901C148.185 184.264 149.261 185.383 150.599 186.095C151.937 186.806 153.466 187.074 154.965 186.858C161.925 186.028 195.646 182.192 196.675 182.03C197.285 181.989 197.877 181.803 198.4 181.486C198.923 181.169 199.363 180.732 199.682 180.21C199.922 179.715 200.04 179.169 200.026 178.619C200.013 178.069 199.868 177.531 199.603 177.048Z" fill="#00A492"/>
<path d="M193.586 181.956C164.514 126.765 164.574 126.788 164.46 126.791L158.683 126.553C158.484 126.156 157.864 126.39 158.05 126.948L187.757 183.182C187.965 183.275 191.687 182.68 193.191 182.522C193.521 182.522 193.857 182.363 193.586 181.956Z" fill="#2D3E50"/>
<path d="M163.01 180.582C162.91 180.58 162.815 180.541 162.742 180.472C162.67 180.402 162.627 180.308 162.622 180.208C162.616 180.108 162.649 180.009 162.713 179.932C162.777 179.856 162.868 179.806 162.967 179.793L174.205 178.527C174.308 178.519 174.409 178.551 174.488 178.616C174.569 178.681 174.619 178.776 174.63 178.878C174.642 178.98 174.613 179.083 174.55 179.164C174.488 179.246 174.396 179.299 174.294 179.314L163.01 180.582Z" fill="#FFFBFA"/>
<path d="M161.763 178.445C161.664 178.443 161.567 178.404 161.494 178.335C161.422 178.267 161.378 178.172 161.372 178.072C161.366 177.971 161.399 177.873 161.462 177.796C161.526 177.719 161.617 177.669 161.717 177.656L172.956 176.31C173.06 176.299 173.165 176.329 173.247 176.394C173.328 176.458 173.383 176.552 173.396 176.656C173.402 176.709 173.398 176.761 173.384 176.81C173.37 176.86 173.346 176.907 173.314 176.947C173.282 176.988 173.243 177.022 173.197 177.048C173.152 177.073 173.102 177.089 173.051 177.096L161.763 178.445Z" fill="#FFFBFA"/>
<path d="M160.517 176.271C160.417 176.27 160.321 176.231 160.248 176.162C160.176 176.094 160.132 175.999 160.126 175.899C160.12 175.798 160.153 175.7 160.217 175.623C160.281 175.546 160.371 175.496 160.471 175.483L171.71 174.137C171.762 174.131 171.814 174.135 171.864 174.149C171.914 174.163 171.961 174.187 172.002 174.219C172.043 174.251 172.077 174.291 172.103 174.337C172.128 174.381 172.144 174.431 172.151 174.483C172.157 174.535 172.153 174.588 172.139 174.637C172.125 174.687 172.101 174.734 172.069 174.775C172.037 174.816 171.997 174.85 171.951 174.876C171.907 174.901 171.857 174.917 171.805 174.924L160.517 176.271Z" fill="#FFFBFA"/>
<path d="M159.266 174.098C159.166 174.097 159.07 174.058 158.997 173.989C158.925 173.919 158.881 173.825 158.876 173.725C158.87 173.625 158.903 173.526 158.967 173.449C159.031 173.372 159.121 173.322 159.221 173.309L170.459 171.964C170.561 171.956 170.661 171.989 170.74 172.053C170.818 172.118 170.869 172.21 170.881 172.312C170.893 172.413 170.866 172.515 170.805 172.597C170.744 172.678 170.654 172.733 170.553 172.75L159.266 174.098Z" fill="#FFFBFA"/>
<path d="M158.021 171.925C157.921 171.924 157.825 171.885 157.752 171.815C157.679 171.747 157.636 171.653 157.629 171.553C157.624 171.452 157.657 171.353 157.721 171.276C157.785 171.199 157.875 171.149 157.975 171.136L169.213 169.791C169.315 169.783 169.415 169.816 169.494 169.88C169.572 169.945 169.623 170.037 169.635 170.139C169.647 170.24 169.62 170.342 169.559 170.423C169.498 170.505 169.408 170.559 169.307 170.576L158.021 171.925Z" fill="#FFFBFA"/>
<path d="M171.112 42.2083C171.097 41.9783 170.112 18.8233 170.706 18.3644C170.773 18.3125 170.855 18.2834 170.939 18.2814C171.024 18.2793 171.108 18.3043 171.177 18.3528C171.247 18.4012 171.299 18.4706 171.326 18.5508C171.353 18.631 171.354 18.7176 171.328 18.7984C171.133 19.3854 171.594 37.3128 171.901 42.1552C171.908 42.2598 171.873 42.3629 171.804 42.4418C171.735 42.5208 171.637 42.5691 171.533 42.5761C171.429 42.5832 171.326 42.5485 171.247 42.4795C171.167 42.4105 171.12 42.3129 171.112 42.2083Z" fill="#FF7A59"/>
<path d="M181.04 40.2761C183.937 33.9831 196.193 11.5724 196.655 9.23205C196.62 9.17584 196.6 9.11172 196.595 9.04564C196.592 8.97946 196.604 8.91338 196.632 8.85349C196.66 8.79349 196.704 8.74152 196.757 8.70235C196.81 8.66307 196.873 8.63779 196.938 8.62879C197.021 8.62174 197.103 8.63508 197.179 8.66763C197.254 8.70018 197.321 8.75096 197.372 8.81541C198.179 9.97093 185.446 32.6084 181.76 40.6059C181.717 40.7015 181.636 40.7757 181.538 40.8123C181.44 40.8489 181.33 40.8449 181.235 40.8012C181.14 40.7575 181.066 40.6775 181.029 40.5791C180.992 40.4806 180.996 40.3717 181.04 40.2761Z" fill="#FF7A59"/>
<path d="M211.968 30.1301C211.961 30.029 211.915 29.9344 211.841 29.8651C211.768 29.7958 211.67 29.7567 211.569 29.7554C211.467 29.7542 211.369 29.791 211.293 29.8585C211.218 29.9261 211.17 30.0195 211.16 30.1203C209.819 31.7478 190.471 45.5805 186.693 48.6011C186.63 48.6527 186.584 48.7226 186.562 48.8013C186.539 48.8799 186.542 48.9636 186.57 49.0407C186.596 49.1179 186.647 49.1848 186.713 49.2323C186.779 49.2799 186.859 49.3058 186.941 49.3063C187.179 49.3063 186.941 49.2966 196.577 42.2213C210.86 31.7293 212.038 30.6726 211.968 30.1301Z" fill="#FF7A59"/>
<path d="M156.866 76.6113C137.445 78.3473 136.151 78.5177 128.531 79.3813L131.697 109.536L139.611 110.09L157.978 104.946L156.866 76.6113Z" fill="#FF7A59"/>
<path d="M139.217 110.133L135.815 78.5591C135.804 78.4546 135.834 78.3499 135.9 78.2682C135.965 78.1864 136.062 78.1341 136.166 78.1229C136.27 78.1116 136.376 78.1423 136.457 78.2083C136.538 78.2743 136.592 78.37 136.602 78.4744L140.005 110.048C140.016 110.152 139.985 110.257 139.919 110.339C139.853 110.42 139.758 110.473 139.653 110.484C139.549 110.495 139.444 110.465 139.363 110.398C139.281 110.332 139.228 110.237 139.217 110.133Z" fill="#2D3E50"/>
<path d="M141.119 78.086C140.836 75.8173 142.204 69.3898 144.259 65.9612C145.844 63.9691 148.126 63.942 150.018 67.7286C151.388 70.5161 152.334 73.4919 152.826 76.5584C152.838 76.6614 152.81 76.7653 152.747 76.8474C152.683 76.9297 152.59 76.9837 152.488 76.9979C152.385 77.0121 152.28 76.9854 152.197 76.9235C152.113 76.8615 152.058 76.7694 152.042 76.6669C151.648 73.7743 149.803 68.2657 148.331 66.4982C147.218 65.1062 145.979 65.0736 144.908 66.4125C143.002 69.6133 141.639 75.8596 141.905 77.9884C141.913 78.0907 141.883 78.1925 141.819 78.2724C141.754 78.3523 141.66 78.4041 141.559 78.4168C141.458 78.4295 141.355 78.402 141.272 78.3404C141.19 78.2786 141.135 78.1875 141.119 78.086Z" fill="#2D3E50"/>
<path d="M133.754 78.7599C133.675 75.8781 134.162 70.5638 135.137 68.4524C135.346 67.8901 135.672 67.3777 136.09 66.948C136.509 66.5183 137.014 66.1808 137.57 65.9569C139.435 65.435 141.209 67.2057 141.791 67.7873C144.137 70.4947 145.848 73.6914 146.8 77.1443C146.816 77.2408 146.796 77.3396 146.743 77.4218C146.69 77.5041 146.608 77.5639 146.514 77.5897C146.42 77.6156 146.32 77.6056 146.232 77.5619C146.145 77.5181 146.077 77.4435 146.041 77.3526C145.123 74.0236 143.476 70.9407 141.218 68.3276C139.873 66.9844 138.757 66.4473 137.822 66.7077C137.372 66.8968 136.967 67.1771 136.631 67.5307C136.294 67.8844 136.035 68.3038 135.869 68.7627C134.932 70.7938 134.472 75.9367 134.55 78.7447C134.551 78.7969 134.541 78.8488 134.523 78.8974C134.503 78.946 134.475 78.9904 134.439 79.0281C134.402 79.0657 134.359 79.0959 134.311 79.1167C134.263 79.1377 134.212 79.1489 134.16 79.1499C134.107 79.1509 134.056 79.1417 134.007 79.1226C133.958 79.1035 133.914 79.0751 133.876 79.0388C133.839 79.0026 133.809 78.9593 133.788 78.9114C133.766 78.8636 133.756 78.8121 133.754 78.7599Z" fill="#2D3E50"/>
</svg>
