<svg width="244" height="108" viewBox="0 0 244 108" fill="none" xmlns="http://www.w3.org/2000/svg">
<path d="M20.0549 47.0325C20.0712 47.1146 20.1122 47.1897 20.1723 47.2476C20.2324 47.3055 20.3087 47.3434 20.391 47.3562C20.4732 47.369 20.5573 47.356 20.632 47.319C20.7067 47.2821 20.7682 47.2229 20.8084 47.1495C21.4572 45.9876 22.6769 44.0417 23.4722 42.7886C23.7085 42.4153 24.0227 42.0981 24.3929 41.8591C24.7632 41.6201 25.1806 41.4649 25.6163 41.4043C29.5696 40.8544 41.011 39.2361 47.2433 38.1046C51.0804 37.4084 51.2792 34.7266 51.0536 32.1594C50.6002 27.032 49.4467 20.1518 49.2363 19.0963C48.9223 17.5132 47.4549 16.1372 44.4027 16.2003C41.3505 16.2635 24.9849 18.5125 20.3921 19.5819C16.4946 20.4899 16.0516 23.1355 16.7876 28.5496C17.4992 33.8069 19.4119 43.7399 20.0549 47.0325Z" fill="#00A492"/>
<path d="M72.1659 56.8451C72.1675 56.9342 72.1418 57.0217 72.0923 57.0956C72.0428 57.1695 71.9719 57.2262 71.8892 57.2582C71.8066 57.2901 71.7161 57.2957 71.6302 57.2741C71.5443 57.2526 71.467 57.2049 71.409 57.1377C70.4532 56.0413 68.6951 54.2253 67.7021 53.2108C67.4763 52.9801 67.2034 52.8014 66.9023 52.687C66.6012 52.5727 66.279 52.5254 65.958 52.5485C62.3919 52.8153 50.4447 53.5665 43.845 53.7561C39.9463 53.8731 39.2045 51.2848 38.9022 48.7246C38.2987 43.6124 37.9196 36.689 37.9103 35.6195C37.894 34.0047 39.0498 32.3549 42.0497 31.7851C45.0496 31.2152 61.5222 30.0299 66.2348 30.1305C70.2334 30.2124 71.2078 32.7106 71.595 38.1609C71.9601 43.4077 72.1171 53.4202 72.1659 56.8451Z" fill="#FF7A59"/>
<path d="M114.966 79.6904C114.389 75.3407 113.541 71.0317 112.427 66.7889C111.828 64.8805 110.67 64.0146 107.776 64.141C104.882 64.2673 90.493 66.7597 86.1489 67.8759C82.4654 68.8237 82.1003 71.3476 82.9142 76.4762C83.7037 81.4538 85.735 90.852 86.4164 93.9657C86.4334 94.0432 86.4736 94.1136 86.5315 94.1675C86.5895 94.2213 86.6625 94.256 86.7407 94.2669C86.8188 94.2777 86.8984 94.2642 86.9687 94.2281C87.039 94.192 87.0966 94.1352 87.1338 94.0651C87.7419 92.9173 88.6988 91.526 89.4256 90.3208C89.6251 89.9894 89.8939 89.7056 90.2133 89.4892C90.5328 89.2728 90.8952 89.1289 91.2755 89.0676C94.9172 88.4756 105.524 86.642 111.478 85.4204C115.109 84.6774 115.236 82.1254 114.966 79.6904Z" fill="#00A492"/>
<path d="M240.697 34.6262C237.572 32.7295 220.779 25.2654 215.455 23.4003C210.94 21.8136 208.815 24.2018 206.121 30.1471C203.508 35.9133 199.144 47.1826 197.7 50.9234C197.665 51.0166 197.658 51.1185 197.682 51.2154C197.706 51.3123 197.758 51.3996 197.833 51.4656C197.907 51.5316 198 51.5731 198.098 51.5845C198.197 51.5959 198.297 51.5767 198.384 51.5295C199.814 50.7526 201.779 49.9639 203.371 49.2127C203.809 49.0053 204.287 48.8963 204.772 48.8933C205.256 48.8902 205.736 48.9932 206.177 49.1952C210.401 51.1235 222.783 56.6276 229.865 59.5155C234.187 61.2788 236.088 58.6964 237.487 55.9548C239.889 50.9931 241.98 45.8846 243.746 40.6593C244.438 38.2418 243.823 36.523 240.697 34.6262Z" fill="#FF7A59"/>
<path d="M151.884 61.5572C155.1 63.2937 170.044 74.02 174.361 77.6719C178.02 80.7691 177.065 83.8289 173.359 89.1927C169.764 94.3973 162.364 103.936 159.902 107.084C159.841 107.162 159.757 107.22 159.662 107.249C159.567 107.278 159.466 107.277 159.371 107.246C159.277 107.216 159.194 107.157 159.134 107.077C159.074 106.997 159.039 106.901 159.035 106.802C158.969 105.163 158.64 103.065 158.47 101.302C158.423 100.817 158.272 100.348 158.028 99.9274C157.783 99.5068 157.451 99.1446 157.054 98.8659C153.249 96.1946 142.226 88.2882 136.143 83.6335C132.432 80.7925 133.669 77.8287 135.296 75.2193C138.31 70.6082 141.609 66.1921 145.173 61.9972C146.887 60.1648 148.668 59.8208 151.884 61.5572Z" fill="#FF7A59"/>
<path d="M177.399 63.5528C177.296 63.4513 177.157 63.395 177.012 63.3963C176.868 63.3977 176.73 63.4565 176.629 63.5599C176.617 63.5727 175.793 64.4164 174.943 65.2331C175.983 61.9358 176.362 58.4632 176.057 55.0173C175.751 51.5715 174.768 48.2211 173.164 45.1612C171.65 42.2077 169.599 39.5664 167.118 37.3741C167.062 37.3258 166.998 37.2891 166.928 37.2664C166.858 37.2437 166.785 37.2354 166.712 37.2419C166.639 37.2485 166.568 37.2698 166.503 37.3045C166.438 37.3393 166.381 37.3868 166.335 37.4443C166.289 37.5017 166.255 37.5679 166.236 37.6389C166.216 37.7099 166.21 37.7842 166.219 37.8574C166.228 37.9306 166.252 38.0011 166.289 38.0649C166.326 38.1286 166.375 38.1842 166.434 38.2283C166.563 38.3313 179.038 48.6855 173.752 65.4121C173.52 64.8271 173.22 64.049 172.822 63.0263C172.77 62.8908 172.666 62.7818 172.534 62.7232C172.402 62.6646 172.252 62.6613 172.117 62.7139C171.983 62.7665 171.875 62.8707 171.816 63.0037C171.758 63.1367 171.755 63.2875 171.807 63.423C172.486 65.1781 172.928 66.2254 173.114 66.7683C173.156 66.9078 173.233 67.0339 173.338 67.1343C173.443 67.2348 173.572 67.3062 173.713 67.3416C173.853 67.3769 174.001 67.375 174.14 67.3361C174.28 67.2971 174.407 67.2224 174.509 67.1193C175.586 66.2195 177.328 64.4058 177.402 64.331C177.453 64.2797 177.493 64.2189 177.52 64.152C177.548 64.0851 177.561 64.0135 177.561 63.9412C177.561 63.8689 177.546 63.7973 177.518 63.7307C177.491 63.664 177.45 63.6036 177.399 63.5528Z" fill="#2D3E50"/>
<path d="M5.43904 42.7376C5.41916 42.6683 5.41327 42.5956 5.4217 42.5239C5.43014 42.4522 5.45273 42.3829 5.48815 42.3201C5.52358 42.2573 5.57112 42.2023 5.62798 42.1582C5.68484 42.1142 5.74987 42.082 5.81926 42.0637C5.95836 42.0286 6.10552 42.0489 6.23022 42.1201C6.35491 42.1913 6.44757 42.3081 6.48899 42.4463C8.90052 49.3897 13.8143 50.871 17.2188 50.4088C17.2896 50.3992 17.3617 50.4038 17.4308 50.4222C17.4999 50.4406 17.5647 50.4725 17.6216 50.5161C17.6784 50.5598 17.7262 50.6142 17.7621 50.6764C17.798 50.7386 17.8214 50.8073 17.831 50.8786C17.8405 50.9499 17.836 51.0224 17.8177 51.092C17.7994 51.1615 17.7677 51.2267 17.7243 51.284C17.681 51.3412 17.6269 51.3892 17.5651 51.4254C17.5033 51.4615 17.435 51.4851 17.3641 51.4947C16.8316 51.5672 8.64937 53.0205 5.43904 42.7376Z" fill="#2D3E50"/>
<path d="M4.54071 52.1495C4.49282 52.0954 4.45637 52.032 4.43357 51.9633C4.41077 51.8945 4.4021 51.8218 4.40809 51.7496C4.41407 51.6774 4.43457 51.6071 4.46836 51.5431C4.50216 51.4791 4.54853 51.4227 4.60466 51.3773C4.7148 51.2837 4.85735 51.2379 5.00101 51.2499C5.14467 51.262 5.2777 51.331 5.3709 51.4416C6.76022 52.9631 8.60051 53.9926 10.618 54.3769C12.6355 54.7612 14.7223 54.4799 16.5681 53.5747C16.6994 53.52 16.8468 53.5192 16.9787 53.5724C17.1107 53.6256 17.2167 53.7286 17.2741 53.8595C17.3315 53.9903 17.3357 54.1386 17.286 54.2725C17.2362 54.4065 17.1363 54.5155 17.0076 54.5763C14.9485 55.5837 12.6201 55.8917 10.3722 55.4541C8.1243 55.0165 6.07806 53.857 4.54071 52.1495Z" fill="#2D3E50"/>
<path d="M92.7667 59.6388C92.6347 59.6553 92.5013 59.6227 92.3916 59.547C92.2819 59.4714 92.2036 59.3579 92.1714 59.228C91.983 58.4686 90.8726 54.3394 90.861 54.2984C90.8352 54.2272 90.8244 54.1514 90.8293 54.0758C90.8341 54.0002 90.8545 53.9265 90.8891 53.8592C90.9237 53.7919 90.9718 53.7326 91.0304 53.685C91.089 53.6375 91.1567 53.6026 91.2294 53.5827C91.302 53.5628 91.3779 53.5583 91.4524 53.5694C91.5269 53.5806 91.5982 53.6072 91.6619 53.6475C91.7257 53.6878 91.7804 53.741 91.8226 53.8037C91.8649 53.8664 91.8938 53.9372 91.9074 54.0117C91.9539 54.1814 93.0318 58.1925 93.2225 58.9624C93.2412 59.0373 93.2439 59.1152 93.2306 59.1912C93.2173 59.2672 93.1881 59.3395 93.1451 59.4033C93.1021 59.4672 93.0461 59.5212 92.9809 59.5617C92.9157 59.6023 92.8427 59.6286 92.7667 59.6388Z" fill="#2D3E50"/>
<path d="M96.6554 58.2873C96.5793 58.2969 96.502 58.2899 96.4289 58.2666C96.3558 58.2434 96.2886 58.2044 96.2319 58.1525C96.1752 58.1005 96.1303 58.0368 96.1005 57.9658C96.0706 57.8947 96.0564 57.8179 96.0589 57.7408V51.1297C96.0643 50.983 96.1261 50.8442 96.2313 50.7424C96.3365 50.6407 96.4769 50.5841 96.6228 50.5845C96.6935 50.5852 96.7633 50.6001 96.8282 50.6284C96.8931 50.6566 96.9517 50.6976 97.0006 50.7489C97.0496 50.8002 97.0878 50.8609 97.1132 50.9273C97.1386 50.9937 97.1505 51.0645 97.1484 51.1356V57.7455C97.144 57.8802 97.092 58.0088 97.0015 58.1082C96.9111 58.2076 96.7883 58.2711 96.6554 58.2873Z" fill="#2D3E50"/>
<path d="M100.167 58.9932C100.078 59.0032 99.987 58.9908 99.9036 58.957C99.8201 58.9232 99.7462 58.8691 99.6886 58.7996C99.631 58.73 99.5915 58.6471 99.5735 58.5584C99.5555 58.4697 99.5597 58.3779 99.5856 58.2912L101.118 53.2784C101.161 53.1388 101.257 53.0219 101.385 52.9534C101.513 52.8849 101.663 52.8705 101.802 52.9134C101.941 52.9562 102.057 53.0527 102.125 53.1818C102.193 53.3108 102.207 53.4617 102.165 53.6014L100.632 58.6129C100.6 58.7152 100.539 58.8057 100.456 58.8733C100.374 58.9409 100.273 58.9826 100.167 58.9932Z" fill="#2D3E50"/>
<path d="M60.7356 8.64542C60.6443 8.64542 60.5544 8.62231 60.4743 8.5782C60.3942 8.53409 60.3265 8.47041 60.2772 8.39302C60.228 8.31563 60.1989 8.22702 60.1927 8.13535C60.1864 8.04369 60.2032 7.95191 60.2414 7.86847L62.5076 2.9283C62.5376 2.863 62.5801 2.80428 62.6327 2.7555C62.6852 2.70672 62.7468 2.66883 62.8139 2.64401C62.881 2.61918 62.9523 2.60789 63.0238 2.6108C63.0952 2.6137 63.1654 2.63074 63.2303 2.66093C63.2951 2.69113 63.3535 2.73389 63.402 2.78678C63.4504 2.83966 63.4881 2.90164 63.5128 2.96917C63.5374 3.0367 63.5486 3.10845 63.5458 3.18034C63.5429 3.25223 63.5259 3.32285 63.4959 3.38815L61.2309 8.32715C61.1872 8.42226 61.1173 8.50278 61.0295 8.55918C60.9417 8.61558 60.8397 8.6455 60.7356 8.64542Z" fill="#2D3E50"/>
<path d="M135.422 31.8483C135.321 31.8479 135.221 31.819 135.135 31.7647C135.049 31.7104 134.979 31.6329 134.935 31.541C134.89 31.4492 134.871 31.3465 134.882 31.2447C134.892 31.1429 134.93 31.046 134.992 30.9649L139.083 25.6456C139.126 25.5876 139.18 25.5389 139.242 25.5023C139.305 25.4656 139.374 25.4418 139.445 25.4321C139.516 25.4225 139.589 25.4272 139.659 25.446C139.728 25.4649 139.794 25.4975 139.851 25.5419C139.908 25.5863 139.955 25.6417 139.991 25.7048C140.026 25.7679 140.049 25.8375 140.058 25.9095C140.066 25.9815 140.061 26.0546 140.041 26.1244C140.021 26.1942 139.988 26.2593 139.943 26.3161L135.852 31.6365C135.802 31.7026 135.736 31.756 135.662 31.7927C135.587 31.8294 135.505 31.8485 135.422 31.8483Z" fill="#2D3E50"/>
<path d="M138.003 33.8113C137.884 33.8117 137.767 33.7726 137.672 33.7001C137.577 33.6275 137.509 33.5256 137.477 33.4099C137.445 33.2942 137.452 33.1712 137.496 33.0598C137.541 32.9484 137.62 32.8548 137.723 32.7933L142.257 30.0705C142.38 30.0095 142.521 29.9971 142.652 30.0358C142.783 30.0745 142.895 30.1616 142.965 30.2795C143.036 30.3975 143.059 30.5378 143.032 30.6726C143.004 30.8073 142.927 30.9265 142.815 31.0066C137.894 33.9681 138.217 33.8113 138.003 33.8113Z" fill="#2D3E50"/>
<path d="M218.537 5.30515H216.865L216.749 0.803765C216.745 0.658531 216.684 0.520724 216.58 0.42066C216.475 0.320597 216.335 0.266476 216.191 0.2702C216.047 0.273924 215.91 0.335189 215.81 0.440519C215.711 0.545849 215.657 0.686614 215.661 0.831848L215.777 5.30515H214.134C213.99 5.30515 213.851 5.36284 213.749 5.46554C213.647 5.56823 213.59 5.70752 213.59 5.85276C213.59 5.99799 213.647 6.13727 213.749 6.23997C213.851 6.34267 213.99 6.40036 214.134 6.40036H215.806L215.922 10.9017C215.931 11.0433 215.994 11.1759 216.099 11.2717C216.203 11.3674 216.34 11.4189 216.48 11.4152C216.621 11.4116 216.756 11.3532 216.855 11.2522C216.954 11.1512 217.01 11.0155 217.012 10.8737L216.896 6.40036H218.541C218.685 6.40036 218.824 6.34267 218.926 6.23997C219.028 6.13727 219.085 5.99799 219.085 5.85276C219.085 5.70752 219.028 5.56823 218.926 5.46554C218.824 5.36284 218.685 5.30515 218.541 5.30515H218.537Z" fill="#00A492"/>
<path d="M5.22728 16.7967H3.50642V12.5316C3.50983 12.4575 3.49826 12.3835 3.47242 12.314C3.44658 12.2445 3.407 12.181 3.35608 12.1273C3.30516 12.0737 3.24395 12.0309 3.17616 12.0018C3.10837 11.9726 3.03541 11.9575 2.96168 11.9575C2.88795 11.9575 2.81498 11.9726 2.74719 12.0018C2.6794 12.0309 2.61819 12.0737 2.56727 12.1273C2.51636 12.181 2.47678 12.2445 2.45094 12.314C2.4251 12.3835 2.41352 12.4575 2.41693 12.5316V16.7967H0.570496C0.496841 16.7932 0.423259 16.8049 0.354202 16.8309C0.285146 16.8569 0.222054 16.8967 0.168727 16.9479C0.1154 16.9992 0.0729479 17.0608 0.0439471 17.129C0.0149462 17.1972 0 17.2706 0 17.3448C0 17.419 0.0149462 17.4925 0.0439471 17.5607C0.0729479 17.6289 0.1154 17.6905 0.168727 17.7417C0.222054 17.793 0.285146 17.8328 0.354202 17.8588C0.423259 17.8848 0.496841 17.8965 0.570496 17.893H2.41693V21.4033C2.4234 21.5444 2.48363 21.6774 2.58508 21.7749C2.68653 21.8724 2.82141 21.9268 2.96168 21.9268C3.10195 21.9268 3.23682 21.8724 3.33827 21.7749C3.43972 21.6774 3.49995 21.5444 3.50642 21.4033V17.893H5.22728C5.3674 17.8865 5.49964 17.8259 5.59651 17.7238C5.69338 17.6217 5.74743 17.486 5.74743 17.3448C5.74743 17.2037 5.69338 17.068 5.59651 16.9659C5.49964 16.8638 5.3674 16.8032 5.22728 16.7967Z" fill="#00A492"/>
<path d="M26.0316 32.9308C25.7177 32.9308 25.5607 32.9308 23.4469 29.9119C23.4057 29.8531 23.3765 29.7866 23.3608 29.7164C23.3452 29.6462 23.3435 29.5736 23.3557 29.5027C23.368 29.4318 23.394 29.364 23.4323 29.3032C23.4705 29.2424 23.5203 29.1898 23.5788 29.1484C23.6373 29.107 23.7033 29.0776 23.7731 29.0619C23.8429 29.0461 23.9151 29.0444 23.9855 29.0567C24.056 29.069 24.1233 29.0952 24.1837 29.1337C24.2441 29.1723 24.2964 29.2224 24.3375 29.2812C24.8491 30.0102 25.4386 30.8246 25.8491 31.3582C26.2177 30.2068 26.8758 27.9052 27.456 25.7779C27.469 25.7025 27.4975 25.6306 27.5397 25.5669C27.582 25.5032 27.637 25.4491 27.7012 25.4081C27.7655 25.3671 27.8376 25.3401 27.9128 25.3288C27.9881 25.3175 28.0648 25.3221 28.1382 25.3425C28.2116 25.3628 28.2799 25.3984 28.3388 25.4469C28.3976 25.4954 28.4458 25.5557 28.4801 25.6241C28.5144 25.6924 28.5341 25.7673 28.538 25.8437C28.5418 25.9202 28.5297 25.9966 28.5025 26.0681C26.6363 32.9308 26.5444 32.9308 26.0316 32.9308Z" fill="#FFFBFA"/>
<path d="M30.8307 28.0362C30.7988 27.9718 30.7798 27.9017 30.7748 27.8299C30.7698 27.7582 30.7789 27.6861 30.8015 27.6179C30.8242 27.5496 30.86 27.4866 30.9069 27.4323C30.9538 27.378 31.0109 27.3335 31.0749 27.3014C31.1388 27.2692 31.2085 27.2501 31.2798 27.2451C31.3511 27.2401 31.4227 27.2492 31.4905 27.272C31.5583 27.2948 31.621 27.3309 31.675 27.3781C31.729 27.4253 31.7731 27.4827 31.8051 27.5471C32.1841 28.3112 32.605 29.1314 32.9259 29.734C33.3166 28.53 33.962 26.4296 34.541 24.4978C34.5617 24.4286 34.5957 24.3643 34.6411 24.3084C34.6865 24.2524 34.7424 24.2061 34.8057 24.1719C34.8689 24.1377 34.9382 24.1164 35.0096 24.1092C35.081 24.102 35.1531 24.109 35.2218 24.1298C35.2905 24.1506 35.3545 24.1849 35.41 24.2306C35.4656 24.2762 35.5117 24.3325 35.5456 24.3961C35.5796 24.4597 35.6007 24.5295 35.6079 24.6013C35.6151 24.6732 35.6082 24.7457 35.5875 24.8149C33.6108 31.4143 33.5782 31.4225 33.1841 31.5207C32.6888 31.6459 32.619 31.6354 30.8307 28.0362Z" fill="#FFFBFA"/>
<path d="M39.2041 30.1204C38.8611 30.1204 38.5215 29.8022 37.4158 26.912C37.3704 26.7777 37.3784 26.6309 37.4382 26.5025C37.498 26.374 37.605 26.2739 37.7366 26.223C37.8682 26.1722 38.0142 26.1746 38.1441 26.2297C38.274 26.2849 38.3776 26.3885 38.4332 26.5189C38.6901 27.1917 39.0041 27.9499 39.2471 28.4835C39.7506 27.3719 40.6494 25.1814 41.4435 23.1572C41.4698 23.0903 41.5089 23.0292 41.5586 22.9775C41.6083 22.9258 41.6676 22.8844 41.7332 22.8558C41.7988 22.8272 41.8694 22.8118 41.9409 22.8106C42.0124 22.8094 42.0834 22.8224 42.1499 22.8489C42.2164 22.8753 42.277 22.9146 42.3284 22.9647C42.3798 23.0147 42.4209 23.0744 42.4494 23.1404C42.4778 23.2064 42.4931 23.2774 42.4942 23.3494C42.4954 23.4213 42.4825 23.4928 42.4563 23.5597C39.8796 30.1333 39.7331 30.1204 39.2041 30.1204Z" fill="#FFFBFA"/>
<path d="M44.0093 46.5412C43.8813 46.5178 43.7658 46.4489 43.6838 46.3471C43.6019 46.2453 43.5589 46.1174 43.5627 45.9864C43.5665 45.8555 43.6168 45.7303 43.7045 45.6335C43.7922 45.5367 43.9115 45.4747 44.0407 45.4589C44.6533 45.3766 45.2387 45.1532 45.7514 44.8059C46.2641 44.4587 46.6901 43.997 46.9964 43.4568C46.0904 42.3892 45.6106 41.0211 45.65 39.6177C46.0371 35.9904 50.1277 37.1979 49.6254 40.2461C49.4623 41.3713 49.0511 42.4456 48.4219 43.3901C50.0021 44.9241 52.6927 44.036 53.4217 43.3901C52.6681 42.4159 52.2684 41.2114 52.2892 39.9769C52.5485 35.2076 57.5216 37.7725 56.1263 41.2406C55.8329 42.0242 55.421 42.7575 54.9054 43.4147C56.4786 45.0879 58.7041 43.9834 59.4552 43.3562C58.7301 42.0202 58.4667 40.4796 58.7064 38.9765C59.4994 35.809 63.7469 37.7409 62.39 41.0628C62.0192 41.9655 61.496 42.7968 60.8435 43.52C61.1388 43.9844 61.5483 44.364 62.0324 44.6221C62.5164 44.8803 63.0586 45.0081 63.6062 44.9932C63.7505 44.9874 63.8912 45.0396 63.9973 45.1382C64.1033 45.2369 64.1662 45.3739 64.1719 45.5191C64.1776 45.6644 64.1257 45.8059 64.0277 45.9127C63.9297 46.0194 63.7935 46.0826 63.6492 46.0884C62.9458 46.1107 62.2479 45.9564 61.6186 45.6394C60.9893 45.3223 60.4484 44.8525 60.0447 44.2724C59.2446 45.0273 58.185 45.441 57.0883 45.4268C55.9916 45.4126 54.943 44.9716 54.1624 44.1963C53.2569 44.9352 52.1293 45.3434 50.9636 45.3542C49.7979 45.365 48.6629 44.9779 47.744 44.256C47.3505 44.9114 46.8054 45.4615 46.1551 45.8594C45.5049 46.2573 44.7687 46.4912 44.0093 46.5412ZM46.736 39.6961C46.7557 40.721 47.0841 41.7158 47.6778 42.5488C48.1784 41.8573 48.4765 41.0385 48.5382 40.1852C48.5394 37.9269 46.736 38.4336 46.736 39.702V39.6961ZM53.381 39.9617C53.3724 40.897 53.6497 41.8124 54.1752 42.5839C54.5664 42.087 54.874 41.5289 55.0856 40.9317C55.8239 38.7729 53.4461 37.5595 53.381 39.9617ZM59.7296 39.3615C59.5971 40.4497 59.7851 41.5531 60.2703 42.5348C60.714 41.9708 61.0834 41.3513 61.3691 40.6919C62.1795 38.9718 60.1028 37.8626 59.725 39.3615H59.7296Z" fill="#FFFBFA"/>
<path d="M100.359 84.8826C100.243 84.8826 100.131 84.8431 100.04 84.7707C99.9499 84.6982 99.8867 84.597 99.8609 84.4836L99.1423 81.3688C99.127 81.3029 99.1248 81.2345 99.1358 81.1678C99.1467 81.101 99.1706 81.037 99.2062 80.9796C99.2417 80.9221 99.2881 80.8722 99.3428 80.8328C99.3975 80.7934 99.4593 80.7652 99.5248 80.7498C99.5903 80.7344 99.6582 80.7322 99.7246 80.7432C99.7909 80.7542 99.8545 80.7783 99.9116 80.8141C99.9687 80.8498 100.018 80.8965 100.057 80.9516C100.097 81.0066 100.125 81.0688 100.14 81.1348L100.858 84.2496C100.876 84.3253 100.876 84.404 100.859 84.4799C100.842 84.5558 100.809 84.6268 100.76 84.6877C100.712 84.7485 100.651 84.7977 100.582 84.8314C100.512 84.8652 100.436 84.8827 100.359 84.8826Z" fill="#2D3E50"/>
<path d="M97.6429 73.0938C97.5272 73.0939 97.4148 73.0545 97.3242 72.982C97.2336 72.9096 97.1701 72.8083 97.1441 72.6948L96.4313 69.5988C96.4005 69.4656 96.4235 69.3256 96.4952 69.2095C96.567 69.0934 96.6816 69.0108 96.8139 68.9798C96.9462 68.9487 97.0853 68.9719 97.2007 69.0441C97.316 69.1162 97.3981 69.2316 97.429 69.3647L98.1417 72.4608C98.1595 72.5365 98.1599 72.6152 98.1431 72.6911C98.1263 72.7669 98.0926 72.838 98.0447 72.8989C97.9967 72.9598 97.9356 73.009 97.866 73.0427C97.7964 73.0765 97.7202 73.094 97.6429 73.0938Z" fill="#FFFBFA"/>
<path d="M102.989 76.1879C102.862 76.1881 102.74 76.1408 102.645 76.0554C102.551 75.9699 102.492 75.8523 102.479 75.7254C102.466 75.5985 102.501 75.4713 102.576 75.3685C102.651 75.2656 102.761 75.1945 102.885 75.1688L106.292 74.4562C106.425 74.4283 106.563 74.4546 106.677 74.5294C106.791 74.6043 106.87 74.7214 106.898 74.8552C106.926 74.9889 106.899 75.1283 106.825 75.2426C106.751 75.357 106.634 75.4369 106.501 75.4648C103.183 76.1599 103.106 76.1879 102.989 76.1879Z" fill="#FFFBFA"/>
<path d="M91.2075 78.6507C91.0807 78.6508 90.9584 78.6035 90.8642 78.5181C90.7701 78.4326 90.7109 78.3151 90.698 78.1881C90.6851 78.0612 90.7195 77.934 90.7945 77.8312C90.8695 77.7283 90.9798 77.6572 91.104 77.6315L94.1108 77.002C94.242 76.9787 94.3771 77.0077 94.4874 77.0829C94.5977 77.1581 94.6746 77.2735 94.7018 77.4048C94.729 77.536 94.7044 77.6728 94.6331 77.7861C94.5619 77.8994 94.4496 77.9803 94.3201 78.0118C91.354 78.6319 91.3249 78.6507 91.2075 78.6507Z" fill="#2D3E50"/>
<path d="M94.0504 83.9299C93.9594 83.9297 93.8701 83.9051 93.7917 83.8586C93.7133 83.8122 93.6486 83.7456 93.6042 83.6657C93.5598 83.5857 93.5374 83.4954 93.5392 83.4039C93.5409 83.3123 93.5669 83.2229 93.6143 83.1448L95.4166 80.1997C95.4878 80.0833 95.6021 80.0002 95.7342 79.9686C95.8664 79.937 96.0056 79.9595 96.1212 80.0312C96.2368 80.1028 96.3194 80.2178 96.3508 80.3508C96.3822 80.4838 96.3599 80.6239 96.2886 80.7402L94.4864 83.6842C94.4406 83.7593 94.3766 83.8213 94.3002 83.8643C94.2239 83.9073 94.1378 83.9299 94.0504 83.9299Z" fill="#2D3E50"/>
<path d="M101.101 73.0939C101.01 73.0936 100.921 73.069 100.842 73.0226C100.764 72.9761 100.699 72.9095 100.655 72.8296C100.611 72.7497 100.588 72.6593 100.59 72.5678C100.592 72.4763 100.618 72.3869 100.665 72.3088L102.23 69.7509C102.301 69.6345 102.416 69.5514 102.548 69.5198C102.68 69.4882 102.819 69.5107 102.935 69.5824C103.05 69.6541 103.133 69.7691 103.164 69.9021C103.196 70.0351 103.173 70.1751 103.102 70.2915L101.537 72.8482C101.492 72.9233 101.427 72.9854 101.351 73.0284C101.275 73.0714 101.189 73.094 101.101 73.0939Z" fill="#FFFBFA"/>
<path d="M105.724 81.156C105.526 81.156 105.766 81.259 102.236 79.2089C102.118 79.1405 102.033 79.0279 101.998 78.8959C101.963 78.7639 101.981 78.6234 102.049 78.5051C102.117 78.3869 102.229 78.3007 102.36 78.2655C102.492 78.2302 102.631 78.2489 102.749 78.3173L105.976 80.1953C106.073 80.2524 106.148 80.3397 106.191 80.4438C106.233 80.5479 106.241 80.6631 106.212 80.7719C106.184 80.8807 106.12 80.9771 106.032 81.0465C105.944 81.1158 105.836 81.1543 105.724 81.156Z" fill="#FFFBFA"/>
<path d="M94.9494 74.8808C94.7541 74.8808 94.9262 74.9463 91.7437 73.0952C91.6856 73.0613 91.6346 73.0162 91.5937 72.9625C91.5529 72.9088 91.5229 72.8475 91.5056 72.7822C91.4883 72.7168 91.4839 72.6487 91.4927 72.5816C91.5016 72.5146 91.5235 72.4499 91.5571 72.3914C91.5908 72.3328 91.6356 72.2815 91.689 72.2404C91.7423 72.1993 91.8032 72.1691 91.8682 72.1517C91.9331 72.1343 92.0008 72.1299 92.0675 72.1388C92.1341 72.1477 92.1983 72.1697 92.2565 72.2036L95.2052 73.9201C95.3027 73.9768 95.3789 74.0642 95.422 74.1689C95.4651 74.2736 95.4726 74.3897 95.4435 74.4992C95.4143 74.6086 95.3501 74.7053 95.2608 74.7743C95.1715 74.8433 95.062 74.8807 94.9494 74.8808Z" fill="#2D3E50"/>
<path d="M140.05 56.0806H138.133L138.077 52.0777C138.075 51.9324 138.016 51.7939 137.912 51.6927C137.809 51.5914 137.67 51.5356 137.525 51.5377C137.381 51.5397 137.243 51.5993 137.143 51.7034C137.042 51.8075 136.987 51.9476 136.989 52.0929L137.043 56.0806H135.172C135.032 56.0871 134.9 56.1477 134.803 56.2498C134.706 56.3519 134.652 56.4876 134.652 56.6288C134.652 56.7699 134.706 56.9057 134.803 57.0077C134.9 57.1098 135.032 57.1704 135.172 57.177H137.058L137.114 61.181C137.122 61.3222 137.184 61.4547 137.287 61.551C137.39 61.6473 137.526 61.7 137.666 61.698C137.807 61.696 137.941 61.6396 138.041 61.5405C138.141 61.4413 138.2 61.3071 138.204 61.1658L138.148 57.177H140.05C140.19 57.1704 140.323 57.1098 140.419 57.0077C140.516 56.9057 140.57 56.7699 140.57 56.6288C140.57 56.4876 140.516 56.3519 140.419 56.2498C140.323 56.1477 140.19 56.0871 140.05 56.0806Z" fill="#00A492"/>
<path d="M169.084 81.9122C168.757 81.9122 170.13 82.688 149.953 68.3016C149.835 68.2178 149.755 68.0903 149.731 67.9471C149.706 67.8039 149.739 67.6568 149.822 67.5381C149.906 67.4194 150.032 67.3388 150.175 67.3141C150.317 67.2894 150.463 67.3226 150.581 67.4064C150.697 67.4918 162.79 76.0769 169.403 80.9211C169.496 80.9894 169.565 81.0853 169.6 81.1951C169.635 81.3049 169.635 81.4231 169.599 81.5329C169.564 81.6426 169.495 81.7383 169.402 81.8064C169.31 81.8745 169.198 81.9115 169.084 81.9122Z" fill="#FFFBFA"/>
<path d="M165.122 87.57C164.474 87.57 164.275 86.4291 152.187 77.837C152.069 77.7531 151.989 77.6254 151.965 77.4821C151.94 77.3389 151.974 77.1917 152.057 77.073C152.14 76.9543 152.267 76.8738 152.41 76.8492C152.552 76.8246 152.698 76.858 152.816 76.9419C156.421 79.5068 161.547 83.2605 165.474 86.6034C165.559 86.6762 165.619 86.7733 165.648 86.8818C165.676 86.9903 165.671 87.1049 165.632 87.2102C165.594 87.3155 165.524 87.4064 165.433 87.4707C165.342 87.535 165.233 87.5697 165.122 87.57Z" fill="#FFFBFA"/>
<path d="M150.161 76.2911C149.851 76.2911 149.992 76.2361 146.86 74.1357C146.747 74.0521 146.67 73.9277 146.645 73.7883C146.621 73.6489 146.651 73.5054 146.729 73.3877C146.807 73.2701 146.927 73.1874 147.065 73.1569C147.202 73.1264 147.346 73.1506 147.466 73.2242C147.477 73.2324 148.663 74.0316 150.472 75.293C150.567 75.3594 150.639 75.4548 150.677 75.5653C150.714 75.6758 150.716 75.7955 150.681 75.907C150.647 76.0185 150.578 76.116 150.484 76.185C150.39 76.2541 150.277 76.2913 150.161 76.2911Z" fill="#FFFBFA"/>
<path d="M160.421 92.3826C160.003 92.3826 160.247 92.234 155.81 88.8056C155.751 88.7626 155.702 88.7082 155.664 88.6456C155.627 88.583 155.602 88.5134 155.592 88.441C155.581 88.3686 155.585 88.2949 155.604 88.2241C155.622 88.1533 155.654 88.087 155.699 88.029C155.743 87.9709 155.798 87.9224 155.861 87.8863C155.925 87.8502 155.994 87.8272 156.067 87.8187C156.139 87.8101 156.212 87.8163 156.282 87.8366C156.352 87.857 156.417 87.8913 156.473 87.9374C158.061 89.1637 159.509 90.3349 160.775 91.4173C160.86 91.4903 160.92 91.5875 160.948 91.696C160.976 91.8045 160.97 91.919 160.932 92.0241C160.893 92.1293 160.823 92.22 160.732 92.2841C160.641 92.3481 160.532 92.3825 160.421 92.3826Z" fill="#FFFBFA"/>
<path d="M153.461 86.8927C153.345 86.8928 153.232 86.8555 153.139 86.7863C147.592 82.6816 142.392 79.3269 142.341 79.2976C142.229 79.2158 142.153 79.0941 142.127 78.9574C142.101 78.8207 142.128 78.6792 142.202 78.5616C142.276 78.4441 142.391 78.3593 142.525 78.3245C142.659 78.2897 142.801 78.3076 142.923 78.3744C142.975 78.4083 148.203 81.7817 153.779 85.9075C153.869 85.9765 153.936 86.0719 153.969 86.1805C154.003 86.2892 154.002 86.4057 153.967 86.5139C153.932 86.6221 153.865 86.7167 153.774 86.7846C153.683 86.8525 153.574 86.8903 153.461 86.8927Z" fill="#FFFBFA"/>
<path d="M213.25 38.4376C213.25 38.8041 213.395 39.1555 213.652 39.4147C213.91 39.6739 214.259 39.8194 214.623 39.8194C214.987 39.8194 215.337 39.6739 215.594 39.4147C215.852 39.1555 215.996 38.8041 215.996 38.4376C215.996 38.0711 215.852 37.7196 215.594 37.4604C215.337 37.2013 214.987 37.0557 214.623 37.0557C214.259 37.0557 213.91 37.2013 213.652 37.4604C213.395 37.7196 213.25 38.0711 213.25 38.4376Z" fill="#FFFBFA"/>
<path d="M221.504 41.8799C221.504 42.2464 221.649 42.5979 221.906 42.8571C222.164 43.1162 222.513 43.2618 222.877 43.2618C223.241 43.2618 223.591 43.1162 223.848 42.8571C224.106 42.5979 224.25 42.2464 224.25 41.8799C224.25 41.5134 224.106 41.1619 223.848 40.9028C223.591 40.6436 223.241 40.498 222.877 40.498C222.513 40.498 222.164 40.6436 221.906 40.9028C221.649 41.1619 221.504 41.5134 221.504 41.8799Z" fill="#FFFBFA"/>
<path d="M229.004 45.2027C229.004 45.5692 229.149 45.9207 229.406 46.1798C229.664 46.439 230.013 46.5846 230.377 46.5846C230.741 46.5846 231.091 46.439 231.348 46.1798C231.606 45.9207 231.75 45.5692 231.75 45.2027C231.75 44.8362 231.606 44.4847 231.348 44.2255C231.091 43.9664 230.741 43.8208 230.377 43.8208C230.013 43.8208 229.664 43.9664 229.406 44.2255C229.149 44.4847 229.004 44.8362 229.004 45.2027Z" fill="#FFFBFA"/>
</svg>
