<svg width="253" height="207" viewBox="0 0 253 207" fill="none" xmlns="http://www.w3.org/2000/svg">
<path d="M252.094 158.445C250.462 129.451 244.703 27.9689 244.555 26.6376C244.326 22.8567 242.613 19.3196 239.789 16.7979C236.964 14.2759 233.259 12.974 229.479 13.1756L44.7133 23.6782C42.8365 23.774 40.9972 24.2417 39.3024 25.0541C37.6075 25.8665 36.0905 27.0075 34.8394 28.4108C33.5883 29.8143 32.6279 31.4522 32.0139 33.2298C31.3998 35.0074 31.1444 36.8892 31.2624 38.7664C31.3893 40.6914 37.1894 142.321 38.8012 170.585C39.014 174.32 40.6812 177.82 43.4449 180.337C46.2086 182.854 49.8481 184.185 53.5823 184.047L238.496 173.405C240.376 173.336 242.225 172.893 243.932 172.1C245.641 171.308 247.173 170.18 248.439 168.787C249.706 167.394 250.682 165.761 251.309 163.985C251.937 162.209 252.204 160.325 252.094 158.445Z" fill="white"/>
<path d="M200.362 64.656C217.748 74.5517 230.221 116.876 190.016 127.528C190.016 127.528 101.027 138.575 90.6861 137.735C75.9051 136.535 61.3199 128.752 67.3271 113.474C74.254 95.8612 92.436 98.3725 93.7867 96.1655C94.5143 94.9762 93.2271 92.7562 92.8987 91.7274C89.134 79.5444 93.6879 61.7358 108.124 52.2284C125.951 40.4898 151.316 48.2253 156.459 71.0173C156.607 71.4598 156.902 75.011 157.64 75.1585C158.232 75.1585 159.562 72.496 160.006 72.0516C167.604 60.9367 185.691 56.3006 200.362 64.656Z" fill="#FFD0C4"/>
<path d="M74.5704 32.7016C74.701 33.5422 74.4941 34.4003 73.9951 35.0889C73.4961 35.7775 72.7453 36.2405 71.9064 36.3774C71.0674 36.5141 70.2087 36.3133 69.5169 35.8189C68.8254 35.3245 68.3571 34.5764 68.2144 33.7378C67.4644 29.2306 74.2123 28.7676 74.5704 32.7016Z" fill="#FF7A59"/>
<path d="M62.0066 33.2939C62.1324 34.1326 61.923 34.987 61.4236 35.672C60.9244 36.3571 60.1754 36.8175 59.339 36.9536C58.5029 37.0897 57.6465 36.8905 56.9561 36.3991C56.2656 35.9077 55.7966 35.1636 55.6506 34.3283C54.9379 30.0451 61.6559 29.0779 62.0066 33.2939Z" fill="#00A492"/>
<path d="M53.7561 183.788L53.7487 183.789C50.0758 183.946 46.4885 182.65 43.7632 180.181C41.0379 177.712 39.3936 174.268 39.1859 170.595C39.1859 170.595 39.1859 170.595 39.1859 170.595L32.0966 45.916L32.0685 45.4219L32.5623 45.3887L244.075 31.1668L244.58 31.1329L244.608 31.6378L251.697 158.562C251.697 158.563 251.697 158.564 251.697 158.565C251.809 160.379 251.56 162.2 250.964 163.917C250.367 165.636 249.436 167.221 248.224 168.577C247.012 169.933 245.543 171.036 243.903 171.819C243.903 171.819 243.903 171.819 243.903 171.819L53.7561 183.788ZM53.7561 183.788L238.666 173.146L53.7561 183.788ZM252.471 158.474L252.471 158.476C252.589 160.375 252.331 162.277 251.712 164.074C251.092 165.872 250.125 167.53 248.864 168.952L248.863 168.952C247.603 170.374 246.074 171.533 244.364 172.363C242.655 173.191 240.798 173.675 238.902 173.783L238.901 173.783L53.267 184.425C49.5741 184.397 46.0291 182.966 43.3525 180.419C40.6719 177.869 39.0632 174.39 38.8541 170.695L38.8541 170.695L31.3152 38.7379L31.3153 38.7379L31.3149 38.7322C31.1846 36.8323 31.4339 34.9256 32.0483 33.1234C32.6626 31.3212 33.6297 29.6595 34.893 28.2357L34.893 28.2357C36.1563 26.8117 37.6904 25.6541 39.4057 24.8304L39.1893 24.3797L39.4057 24.8304C41.121 24.0066 42.9833 23.5334 44.8834 23.4382L44.8834 23.4382L44.8867 23.438L229.645 12.9336L229.648 12.9334C231.543 12.8169 233.443 13.0762 235.239 13.6964C237.033 14.3168 238.688 15.2857 240.109 16.5477C241.528 17.8099 242.686 19.3402 243.513 21.0506C244.341 22.7616 244.824 24.6191 244.932 26.5167L252.471 158.474ZM44.8301 23.9183L44.8279 23.9185C41.1087 24.1458 37.6317 25.8412 35.1608 28.6322C32.6903 31.4225 31.4272 35.0801 31.6488 38.8015C31.6489 38.8022 31.6489 38.803 31.649 38.8037L31.936 44.4008L31.962 44.9081L32.4688 44.8741L243.995 30.6858L244.462 30.6545V30.187C244.462 29.7189 244.423 29.2565 244.386 28.8337L244.382 28.7892C244.346 28.3771 244.314 28.0097 244.314 27.6755C244.344 25.8208 244.008 23.9785 243.324 22.255L243.324 22.2546C242.637 20.5297 241.616 18.9581 240.319 17.6311L240.319 17.6308C239.021 16.3039 237.474 15.2479 235.765 14.5241L235.765 14.524C234.055 13.8003 232.221 13.4233 230.366 13.415L230.35 13.4149L230.335 13.4158L44.8301 23.9183Z" stroke="#2D3E50"/>
<path d="M49.297 33.7383C49.4229 34.5768 49.2134 35.4312 48.7142 36.1162C48.2148 36.8013 47.4657 37.2619 46.6296 37.3978C45.7932 37.534 44.9371 37.3347 44.2467 36.8433C43.5562 36.3519 43.087 35.608 42.9409 34.7727C42.191 30.2617 48.9407 29.808 49.297 33.7383Z" fill="#2D3E50"/>
<path d="M190.585 160.706C186.854 158.781 189.994 173.552 189.994 174.316C188.663 171.319 187.43 164.842 181.421 156.121C181.125 155.529 178.464 151.387 177.429 152.274C175.888 153.817 182.455 169.506 182.455 173.726C181.272 172.979 180.386 168.843 179.794 167.659C178.434 164.412 170.84 148.943 167.821 150.204C166.784 150.723 167.746 153.751 168.265 154.789C168.327 154.976 175.408 175.057 174.325 175.057C173.252 174.842 168.028 160.794 161.614 159.523C159.993 159.201 160.432 161.151 160.726 162.038C164.515 171.515 167.015 170.813 171.961 186.891C166.222 188.327 167.032 187.824 167.67 189.111C168.548 191.219 169.69 193.207 171.069 195.028C175.578 200.829 181.418 204.201 182.449 206.27C200.514 199.216 200.779 200.793 200.779 199.761C200.454 199.43 197.245 164.149 190.585 160.706Z" fill="#FF977D"/>
<path d="M168.137 150.752C171.096 149.518 178.689 164.918 180.108 168.208L180.567 168.01C180.567 168.01 180.567 168.01 180.567 168.01C180.726 168.377 180.89 168.907 181.06 169.473C181.085 169.555 181.11 169.638 181.135 169.722C181.288 170.231 181.451 170.775 181.631 171.305C181.748 171.65 181.871 171.983 181.999 172.291C181.827 171.477 181.58 170.521 181.282 169.466C180.812 167.802 180.228 165.937 179.642 164.067C179.49 163.582 179.338 163.098 179.188 162.616C178.462 160.284 177.779 158.022 177.377 156.256C177.176 155.375 177.04 154.595 177.008 153.981C176.992 153.675 177.001 153.387 177.051 153.139C177.099 152.9 177.199 152.63 177.422 152.441L177.422 152.441C177.689 152.216 178.006 152.17 178.299 152.227C178.571 152.281 178.829 152.423 179.056 152.584C179.511 152.909 179.984 153.418 180.406 153.935C181.127 154.818 181.784 155.829 182.048 156.234C182.095 156.306 182.129 156.359 182.149 156.389C185.156 160.827 187.413 165.812 188.883 169.454C188.412 166.632 188.363 164.43 188.64 162.954C188.803 162.08 189.1 161.358 189.592 160.956C189.852 160.744 190.161 160.628 190.501 160.632C190.831 160.636 191.151 160.754 191.451 160.94C192.04 161.307 192.638 161.996 193.233 162.957C193.834 163.929 194.458 165.222 195.08 166.846C196.291 170.006 197.51 174.459 198.547 180.337C198.747 180.283 199.04 180.201 199.468 180.081C200.264 179.857 201.519 179.502 203.507 178.938C205.359 178.413 207.847 177.708 211.195 176.761L177.452 101.909L112.564 114.577L151.699 192.182C164.267 188.951 166.291 188.447 168.301 187.892C169.154 187.657 170.004 187.413 171.656 186.947C169.891 180.827 167.847 176.51 165.9 172.885C165.34 171.842 164.784 170.849 164.243 169.884C162.864 167.424 161.582 165.137 160.578 162.624L160.572 162.611L160.568 162.597C160.415 162.141 160.199 161.318 160.264 160.635C160.296 160.295 160.409 159.885 160.748 159.614C161.101 159.333 161.562 159.309 162.046 159.438C163.875 159.834 165.524 161.069 166.97 162.622C168.425 164.184 169.716 166.116 170.819 167.98C171.684 169.441 172.441 170.878 173.071 172.073C173.245 172.401 173.408 172.712 173.562 172.999C173.74 173.333 173.904 173.633 174.052 173.896C173.902 173.313 173.685 172.587 173.417 171.75C172.878 170.062 172.148 167.964 171.376 165.748C171.092 164.933 170.803 164.101 170.515 163.269C169.45 160.182 168.41 157.077 167.799 154.739C167.494 153.577 167.287 152.572 167.243 151.844C167.222 151.489 167.235 151.141 167.333 150.864C167.383 150.719 167.468 150.563 167.611 150.442C167.734 150.338 167.877 150.278 168.027 150.259C168 150.269 167.972 150.279 167.944 150.291L168.137 150.752ZM168.137 150.752C166.684 150.752 169.451 158.698 171.846 165.577C173.328 169.833 174.667 173.681 174.778 174.986L168.137 150.752Z" fill="white" stroke="#2D3E50"/>
<path d="M156.606 137.143C158.713 138.26 161.139 138.621 163.479 138.164C165.819 137.708 167.933 136.461 169.466 134.634C170.434 135.603 175.87 136.038 180.404 130.49C181.077 129.818 179.844 128.683 179.221 129.604C177.891 131.082 174.342 134.634 170.499 133.597H170.352C170.975 132.426 171.197 131.083 170.983 129.773C170.769 128.464 170.132 127.261 169.169 126.349C167.8 125.481 165.311 127.131 165.624 129.309C165.906 131.158 166.852 132.84 168.285 134.042C167.009 135.497 165.288 136.489 163.39 136.864C161.492 137.238 159.523 136.974 157.791 136.112C158.33 135.316 158.655 134.393 158.732 133.434C158.809 132.475 158.637 131.512 158.233 130.64C158.04 130.003 157.65 129.445 157.119 129.045C156.587 128.646 155.942 128.427 155.278 128.42C152.532 128.42 150.782 133.257 155.278 136.557C154.09 137.334 152.758 137.865 151.362 138.119C149.966 138.373 148.533 138.344 147.148 138.035C147.39 137.323 147.49 136.569 147.442 135.817C146.802 128.767 135.611 134.324 144.782 138.924C142.851 141.499 140.379 141.462 137.392 140.403C137.304 140.371 137.21 140.356 137.117 140.361C137.023 140.365 136.931 140.389 136.846 140.429C136.762 140.47 136.686 140.528 136.624 140.598C136.562 140.668 136.515 140.751 136.485 140.84C136.456 140.929 136.444 141.023 136.451 141.117C136.459 141.21 136.485 141.302 136.528 141.385C136.571 141.468 136.63 141.542 136.703 141.602C136.775 141.662 136.858 141.707 136.948 141.734C138.534 142.603 140.388 142.842 142.141 142.403C143.895 141.964 145.418 140.88 146.409 139.367C149.991 139.873 153.722 139.781 156.606 137.143ZM166.953 129.301C166.953 127.86 167.727 127.932 168.135 127.525C168.785 127.525 170.174 130.102 168.882 132.703C167.859 131.832 167.176 130.628 166.953 129.303V129.301ZM154.093 130.78C154.839 127.764 158.875 131.945 156.309 135.365C155.465 134.979 154.781 134.31 154.377 133.473C153.973 132.636 153.873 131.684 154.095 130.782L154.093 130.78ZM142.859 134.634C143.069 134.002 144.066 134.042 144.633 134.042C146.196 134.355 146.183 136.82 145.668 137.589C144.536 137.208 142.196 135.621 142.859 134.634Z" fill="#2D3E50"/>
<path d="M154.979 96.3127C155.423 96.6096 144.929 98.6803 145.077 98.8278C145.135 98.8856 161.041 119.672 161.041 119.835C161.041 119.997 148.032 126.344 148.032 126.344C141.222 114.077 135.228 102.082 134.879 102.082C134.732 102.082 125.716 105.484 125.566 105.042C126.946 98.7378 128.673 92.515 130.74 86.402C131.335 86.1052 154.537 96.0177 154.979 96.3127Z" fill="#00A492"/>
<path d="M64.7934 66.0397C51.6509 57.8034 18.3749 52.9963 3.10486 86.2361C-4.56947 102.847 2.62468 124.296 17.6299 134.589C39.7831 149.747 71.4989 139.986 81.1589 124.513C90.6651 109.145 85.8205 79.2135 64.7934 66.0397Z" fill="#FF7A59"/>
<path d="M46.8128 83.1745C45.0594 77.855 39.1778 78.6927 38.357 84.4636C37.7158 88.9813 40.0154 102.583 41.1368 107.293C43.0498 115.323 44.909 113.07 46.3035 104.923C47.1565 99.9363 48.3929 87.9578 46.8128 83.1745Z" fill="white"/>
<path d="M40.6211 115.727C40.0406 116.067 39.6101 116.503 39.3753 116.989C39.1427 117.475 39.1122 117.993 39.2905 118.489C39.4688 118.985 39.8471 119.441 40.3863 119.808C40.9276 120.176 41.6082 120.442 42.3604 120.578C43.0692 120.724 43.828 120.738 44.5498 120.619C45.2716 120.499 45.926 120.251 46.4435 119.901C46.9609 119.552 47.3197 119.115 47.4784 118.64C47.6371 118.165 47.5914 117.671 47.3436 117.212C47.1849 116.759 46.8522 116.34 46.3739 115.995C45.8977 115.65 45.2933 115.39 44.6194 115.241C43.9432 115.092 43.2235 115.058 42.5235 115.144C41.8234 115.229 41.169 115.429 40.6211 115.727Z" fill="white"/>
<path d="M226.67 31.4805L215.929 47.769L203.334 39.3812L194.644 52.549L178.339 41.8194L187.029 28.6527L174.434 20.3614L185.173 4.07281L197.769 12.3642L205.775 0.269531L222.081 10.998L214.075 23.0926L226.67 31.4805Z" fill="#FF7A59"/>
</svg>
